M48
;GenerationSoftware,Autodesk,EAGLE,9.7.0*%
;CreationDate,2025-07-04T22:14:34Z*%
FMAT,2
ICI,OFF
METRIC,TZ,000.000
T5C0.660
T4C0.800
T3C0.840
T2C1.016
T1C3.000
%
G90
M71
T1
X135890Y21566
X135890Y80974
X48260Y21604
X48260Y80974
T2
X134620Y40640
X59690Y80950
X107950Y73660
X105410Y32512
X54610Y80950
X57150Y80950
X105410Y29972
X62230Y80950
X64770Y80950
X67310Y80950
X69850Y80950
X72390Y80950
X74930Y80950
X77470Y80950
X80010Y80950
X82550Y80950
X85090Y80950
X105410Y27432
X105410Y24892
T3
X106680Y52220
X107950Y61000
X107950Y63500
X106680Y54720
X133350Y58540
X55880Y68540
X57070Y35560
X68500Y22860
X66000Y48260
X68500Y48260
X55880Y22860
X66000Y35560
X68500Y35560
X53380Y22860
X133350Y66040
X133350Y63540
X133350Y61040
X106680Y49720
X55880Y71040
X54910Y48260
X57410Y48260
X66000Y22860
X54570Y35560
X106680Y47220
T4
X59425Y29210
X67045Y29210
X72125Y29210
X104657Y41910
X109737Y41910
X58015Y61595
X52935Y61595
X68580Y72390
X63500Y72390
X57520Y53975
X52440Y53975
X52440Y41275
X57520Y41275
X63870Y53975
X68950Y53975
X114300Y68580
X114300Y66040
X114300Y63500
X114300Y60960
X114300Y58420
X114300Y55880
X114300Y53340
X114300Y50800
X114300Y48260
X114300Y45720
X55880Y66040
X52410Y48260
X52070Y35560
X63500Y48260
X63500Y35560
X63500Y22860
X64505Y29210
X73660Y68580
X73660Y66040
X73660Y63500
X73660Y60960
X73660Y58420
X73660Y55880
X73660Y53340
X73660Y50800
X73660Y48260
X73660Y45720
X73660Y43180
X73660Y40640
X73660Y38100
X73660Y35560
X73660Y33020
X99060Y33020
X99060Y35560
X99060Y38100
X99060Y40640
X99060Y43180
X99060Y45720
X99060Y48260
X99060Y50800
X99060Y53340
X99060Y55880
X99060Y58420
X99060Y60960
X99060Y63500
X99060Y66040
X99060Y68580
T5
X69660Y64770
X69660Y68580
X62420Y68580
X62420Y64770
M30