G04 EAGLE Gerber RS-274X export*
G75*
%MOMM*%
%FSLAX34Y34*%
%LPD*%
%INBottom Copper*%
%IPPOS*%
%AMOC8*
5,1,8,0,0,1.08239X$1,22.5*%
G01*
G04 Define Apertures*
%ADD10C,1.260000*%
%ADD11C,2.184400*%
%ADD12C,1.778000*%
%ADD13C,1.930400*%
%ADD14C,2.032000*%
%ADD15C,0.812800*%
%ADD16C,1.016000*%
G36*
X1372701Y175421D02*
X1371908Y175260D01*
X1129305Y175260D01*
X1128603Y175385D01*
X1127915Y175810D01*
X1127447Y176470D01*
X1127273Y177260D01*
X1127422Y178055D01*
X1127868Y178729D01*
X1342498Y393359D01*
X1343143Y393793D01*
X1343935Y393954D01*
X1348676Y393954D01*
X1353250Y395849D01*
X1356751Y399350D01*
X1358646Y403924D01*
X1358646Y408876D01*
X1356751Y413450D01*
X1353250Y416951D01*
X1348676Y418846D01*
X1343724Y418846D01*
X1339150Y416951D01*
X1335649Y413450D01*
X1333754Y408876D01*
X1333754Y404135D01*
X1333605Y403373D01*
X1333159Y402698D01*
X1118000Y187539D01*
X1117355Y187105D01*
X1116563Y186944D01*
X572537Y186944D01*
X571775Y187093D01*
X571100Y187539D01*
X540720Y217919D01*
X540299Y218534D01*
X540126Y219324D01*
X540274Y220119D01*
X540720Y220793D01*
X542629Y222701D01*
X543873Y225705D01*
X544257Y226306D01*
X544913Y226779D01*
X545702Y226959D01*
X546498Y226817D01*
X547176Y226376D01*
X547627Y225705D01*
X549110Y222125D01*
X552325Y218910D01*
X552450Y218859D01*
X552450Y238342D01*
X552325Y238290D01*
X549110Y235075D01*
X547627Y231495D01*
X547243Y230894D01*
X546587Y230421D01*
X545799Y230241D01*
X545003Y230383D01*
X544325Y230825D01*
X543873Y231495D01*
X542629Y234499D01*
X539699Y237429D01*
X535872Y239014D01*
X531729Y239014D01*
X527901Y237429D01*
X526272Y235799D01*
X525627Y235365D01*
X524835Y235204D01*
X524277Y235204D01*
X523515Y235353D01*
X522840Y235799D01*
X479639Y279000D01*
X479205Y279645D01*
X479044Y280437D01*
X479044Y555464D01*
X479193Y556227D01*
X479639Y556901D01*
X527679Y604941D01*
X528323Y605375D01*
X529116Y605536D01*
X531420Y605536D01*
X535247Y607121D01*
X538177Y610051D01*
X539762Y613879D01*
X539762Y616183D01*
X539911Y616945D01*
X540358Y617620D01*
X564399Y641661D01*
X565404Y644088D01*
X565404Y651435D01*
X565553Y652197D01*
X565999Y652872D01*
X567629Y654501D01*
X569214Y658329D01*
X569214Y662472D01*
X567629Y666299D01*
X564699Y669229D01*
X561695Y670473D01*
X561094Y670857D01*
X560621Y671513D01*
X560441Y672302D01*
X560583Y673098D01*
X561025Y673776D01*
X561695Y674227D01*
X565275Y675710D01*
X568490Y678925D01*
X568542Y679050D01*
X549059Y679050D01*
X549110Y678925D01*
X552325Y675710D01*
X555905Y674227D01*
X556506Y673843D01*
X556979Y673187D01*
X557159Y672399D01*
X557017Y671603D01*
X556576Y670925D01*
X555905Y670473D01*
X552901Y669229D01*
X549971Y666299D01*
X548386Y662472D01*
X548386Y658329D01*
X549971Y654501D01*
X551601Y652872D01*
X552035Y652227D01*
X552196Y651435D01*
X552196Y648979D01*
X552047Y648216D01*
X551601Y647542D01*
X531018Y626959D01*
X530374Y626525D01*
X529581Y626364D01*
X527277Y626364D01*
X523449Y624779D01*
X520520Y621849D01*
X518934Y618022D01*
X518934Y615717D01*
X518786Y614955D01*
X518339Y614280D01*
X470829Y566770D01*
X470244Y566362D01*
X469457Y566176D01*
X468660Y566311D01*
X467978Y566747D01*
X467521Y567414D01*
X467360Y568207D01*
X467360Y785967D01*
X467601Y786926D01*
X468117Y787549D01*
X468835Y787921D01*
X469641Y787984D01*
X470408Y787727D01*
X472889Y786295D01*
X479288Y784580D01*
X485912Y784580D01*
X492311Y786295D01*
X498049Y789607D01*
X502733Y794291D01*
X506045Y800029D01*
X507760Y806428D01*
X507760Y813052D01*
X506045Y819451D01*
X502733Y825189D01*
X498049Y829873D01*
X492311Y833185D01*
X491342Y833445D01*
X490501Y833904D01*
X490023Y834556D01*
X489837Y835343D01*
X489972Y836141D01*
X490408Y836822D01*
X491075Y837279D01*
X491868Y837440D01*
X531095Y837440D01*
X531797Y837315D01*
X532485Y836890D01*
X532953Y836230D01*
X533127Y835440D01*
X532978Y834645D01*
X532532Y833971D01*
X515101Y816541D01*
X514096Y814114D01*
X514096Y773386D01*
X515101Y770959D01*
X542359Y743701D01*
X544786Y742696D01*
X745723Y742696D01*
X746485Y742547D01*
X747160Y742101D01*
X780201Y709060D01*
X780635Y708415D01*
X780796Y707623D01*
X780796Y371877D01*
X780647Y371115D01*
X780201Y370440D01*
X747979Y338218D01*
X747364Y337797D01*
X746575Y337624D01*
X745780Y337772D01*
X745105Y338218D01*
X743218Y340105D01*
X742331Y340473D01*
X741730Y340857D01*
X741257Y341513D01*
X741077Y342302D01*
X741219Y343098D01*
X741660Y343776D01*
X742331Y344227D01*
X743794Y344833D01*
X747367Y348406D01*
X747716Y349250D01*
X725484Y349250D01*
X725833Y348406D01*
X729406Y344833D01*
X730869Y344227D01*
X731470Y343843D01*
X731943Y343187D01*
X732123Y342399D01*
X731981Y341603D01*
X731540Y340925D01*
X730869Y340473D01*
X729982Y340105D01*
X727275Y337399D01*
X726631Y336965D01*
X725839Y336804D01*
X707240Y336804D01*
X704813Y335799D01*
X672124Y303109D01*
X671479Y302675D01*
X670687Y302514D01*
X668383Y302514D01*
X664555Y300929D01*
X661625Y297999D01*
X660040Y294172D01*
X660040Y290029D01*
X661625Y286201D01*
X663255Y284572D01*
X663689Y283927D01*
X663850Y283135D01*
X663850Y255331D01*
X663701Y254569D01*
X663255Y253894D01*
X654401Y245041D01*
X653396Y242614D01*
X653396Y237565D01*
X653247Y236803D01*
X652801Y236128D01*
X651171Y234499D01*
X649586Y230672D01*
X649586Y226529D01*
X651171Y222701D01*
X654101Y219771D01*
X657929Y218186D01*
X662072Y218186D01*
X665899Y219771D01*
X668829Y222701D01*
X670414Y226529D01*
X670414Y230672D01*
X668829Y234499D01*
X667199Y236128D01*
X666765Y236773D01*
X666604Y237565D01*
X666604Y237723D01*
X666753Y238485D01*
X667199Y239160D01*
X676053Y248013D01*
X677058Y250440D01*
X677058Y283135D01*
X677207Y283897D01*
X677653Y284572D01*
X679283Y286201D01*
X680868Y290029D01*
X680868Y292333D01*
X681017Y293095D01*
X681463Y293770D01*
X710694Y323001D01*
X711339Y323435D01*
X712131Y323596D01*
X725839Y323596D01*
X726601Y323447D01*
X727275Y323001D01*
X729982Y320295D01*
X734276Y318516D01*
X738924Y318516D01*
X743218Y320295D01*
X745925Y323001D01*
X746569Y323435D01*
X747361Y323596D01*
X750614Y323596D01*
X753041Y324601D01*
X792999Y364559D01*
X794004Y366986D01*
X794004Y712514D01*
X792999Y714941D01*
X753041Y754899D01*
X750614Y755904D01*
X549677Y755904D01*
X548915Y756053D01*
X548240Y756499D01*
X527899Y776840D01*
X527465Y777485D01*
X527304Y778277D01*
X527304Y809223D01*
X527453Y809985D01*
X527899Y810660D01*
X530185Y812946D01*
X530770Y813354D01*
X531557Y813540D01*
X532355Y813404D01*
X533036Y812968D01*
X533493Y812301D01*
X533654Y811509D01*
X533654Y807024D01*
X535549Y802450D01*
X539050Y798949D01*
X543624Y797054D01*
X548576Y797054D01*
X553150Y798949D01*
X556651Y802450D01*
X556923Y803105D01*
X557307Y803706D01*
X557963Y804179D01*
X558751Y804359D01*
X559548Y804217D01*
X560225Y803776D01*
X560677Y803105D01*
X560949Y802450D01*
X564301Y799098D01*
X564735Y798454D01*
X564896Y797661D01*
X564896Y786086D01*
X565901Y783659D01*
X581475Y768085D01*
X583902Y767080D01*
X784839Y767080D01*
X785601Y766931D01*
X786276Y766485D01*
X948759Y604001D01*
X951186Y602996D01*
X979839Y602996D01*
X980601Y602847D01*
X981275Y602401D01*
X983982Y599695D01*
X986196Y598777D01*
X986797Y598393D01*
X987270Y597737D01*
X987450Y596949D01*
X987308Y596152D01*
X986867Y595475D01*
X986196Y595023D01*
X983982Y594105D01*
X980695Y590818D01*
X978916Y586524D01*
X978916Y581876D01*
X980695Y577582D01*
X983982Y574295D01*
X986196Y573377D01*
X986797Y572993D01*
X987270Y572337D01*
X987450Y571549D01*
X987308Y570752D01*
X986867Y570075D01*
X986196Y569623D01*
X983982Y568705D01*
X980695Y565418D01*
X978916Y561124D01*
X978916Y556476D01*
X980695Y552182D01*
X983982Y548895D01*
X986196Y547977D01*
X986797Y547593D01*
X987270Y546937D01*
X987450Y546149D01*
X987308Y545352D01*
X986867Y544675D01*
X986196Y544223D01*
X983982Y543305D01*
X980695Y540018D01*
X978916Y535724D01*
X978916Y531076D01*
X980695Y526782D01*
X983982Y523495D01*
X986196Y522577D01*
X986797Y522193D01*
X987270Y521537D01*
X987450Y520749D01*
X987308Y519952D01*
X986867Y519275D01*
X986196Y518823D01*
X983982Y517905D01*
X980695Y514618D01*
X978916Y510324D01*
X978916Y505676D01*
X980695Y501382D01*
X983982Y498095D01*
X986196Y497177D01*
X986797Y496793D01*
X987270Y496137D01*
X987450Y495349D01*
X987308Y494552D01*
X986867Y493875D01*
X986196Y493423D01*
X983982Y492505D01*
X981275Y489799D01*
X980631Y489365D01*
X979839Y489204D01*
X963886Y489204D01*
X961459Y488199D01*
X934201Y460941D01*
X933196Y458514D01*
X933196Y303486D01*
X934201Y301059D01*
X966539Y268721D01*
X968966Y267716D01*
X1043339Y267716D01*
X1044101Y267567D01*
X1044775Y267121D01*
X1047482Y264415D01*
X1048369Y264047D01*
X1048970Y263663D01*
X1049443Y263007D01*
X1049623Y262218D01*
X1049481Y261422D01*
X1049040Y260745D01*
X1048369Y260293D01*
X1046906Y259687D01*
X1043333Y256114D01*
X1042984Y255270D01*
X1065216Y255270D01*
X1064867Y256114D01*
X1061294Y259687D01*
X1059831Y260293D01*
X1059230Y260677D01*
X1058757Y261333D01*
X1058577Y262121D01*
X1058719Y262917D01*
X1059160Y263595D01*
X1059831Y264047D01*
X1060718Y264415D01*
X1064005Y267702D01*
X1065784Y271996D01*
X1065784Y276644D01*
X1064005Y280938D01*
X1060718Y284225D01*
X1058504Y285143D01*
X1057903Y285527D01*
X1057430Y286183D01*
X1057250Y286971D01*
X1057392Y287768D01*
X1057833Y288445D01*
X1058504Y288897D01*
X1060718Y289815D01*
X1064005Y293102D01*
X1065784Y297396D01*
X1065784Y302044D01*
X1064005Y306338D01*
X1060718Y309625D01*
X1058504Y310543D01*
X1057903Y310927D01*
X1057430Y311583D01*
X1057250Y312371D01*
X1057392Y313168D01*
X1057833Y313845D01*
X1058504Y314297D01*
X1060718Y315215D01*
X1063425Y317921D01*
X1064069Y318355D01*
X1064861Y318516D01*
X1081003Y318516D01*
X1081765Y318367D01*
X1082440Y317921D01*
X1085001Y315360D01*
X1085435Y314715D01*
X1085596Y313923D01*
X1085596Y244877D01*
X1085447Y244115D01*
X1085001Y243440D01*
X1077360Y235799D01*
X1076715Y235365D01*
X1075923Y235204D01*
X1063250Y235204D01*
X1062548Y235329D01*
X1061860Y235754D01*
X1061392Y236414D01*
X1061218Y237204D01*
X1061367Y237999D01*
X1061813Y238673D01*
X1064867Y241726D01*
X1065216Y242570D01*
X1042984Y242570D01*
X1043333Y241726D01*
X1046387Y238673D01*
X1046795Y238088D01*
X1046981Y237301D01*
X1046845Y236504D01*
X1046409Y235822D01*
X1045742Y235365D01*
X1044950Y235204D01*
X693965Y235204D01*
X693203Y235353D01*
X692528Y235799D01*
X690899Y237429D01*
X687072Y239014D01*
X682929Y239014D01*
X679101Y237429D01*
X676171Y234499D01*
X674586Y230672D01*
X674586Y226529D01*
X676171Y222701D01*
X679101Y219771D01*
X682929Y218186D01*
X687072Y218186D01*
X690899Y219771D01*
X692528Y221401D01*
X693173Y221835D01*
X693965Y221996D01*
X1080814Y221996D01*
X1083241Y223001D01*
X1097799Y237559D01*
X1098804Y239986D01*
X1098804Y318814D01*
X1097799Y321241D01*
X1088321Y330719D01*
X1085894Y331724D01*
X1064861Y331724D01*
X1064099Y331873D01*
X1063425Y332319D01*
X1061299Y334445D01*
X1060865Y335089D01*
X1060704Y335881D01*
X1060704Y412883D01*
X1059699Y415310D01*
X1057578Y417430D01*
X1057144Y418075D01*
X1056983Y418867D01*
X1056983Y421172D01*
X1055398Y424999D01*
X1052468Y427929D01*
X1048641Y429514D01*
X1044498Y429514D01*
X1040670Y427929D01*
X1037741Y424999D01*
X1036155Y421172D01*
X1036155Y417029D01*
X1037741Y413201D01*
X1040670Y410271D01*
X1044498Y408686D01*
X1045464Y408686D01*
X1046197Y408549D01*
X1046878Y408114D01*
X1047335Y407447D01*
X1047496Y406654D01*
X1047496Y338836D01*
X1047359Y338104D01*
X1046924Y337422D01*
X1046257Y336965D01*
X1045464Y336804D01*
X1001361Y336804D01*
X1000599Y336953D01*
X999925Y337399D01*
X997218Y340105D01*
X995004Y341023D01*
X994403Y341407D01*
X993930Y342063D01*
X993750Y342851D01*
X993892Y343648D01*
X994333Y344325D01*
X995004Y344777D01*
X997218Y345695D01*
X1000505Y348982D01*
X1002284Y353276D01*
X1002284Y357924D01*
X1000505Y362218D01*
X997218Y365505D01*
X995004Y366423D01*
X994403Y366807D01*
X993930Y367463D01*
X993750Y368251D01*
X993892Y369048D01*
X994333Y369725D01*
X995004Y370177D01*
X997218Y371095D01*
X1000505Y374382D01*
X1002284Y378676D01*
X1002284Y383324D01*
X1000505Y387618D01*
X997218Y390905D01*
X995004Y391823D01*
X994403Y392207D01*
X993930Y392863D01*
X993750Y393651D01*
X993892Y394448D01*
X994333Y395125D01*
X995004Y395577D01*
X997218Y396495D01*
X1000505Y399782D01*
X1002284Y404076D01*
X1002284Y408724D01*
X1000505Y413018D01*
X997218Y416305D01*
X995004Y417223D01*
X994403Y417607D01*
X993930Y418263D01*
X993750Y419051D01*
X993892Y419848D01*
X994333Y420525D01*
X995004Y420977D01*
X997218Y421895D01*
X1000505Y425182D01*
X1002284Y429476D01*
X1002284Y434124D01*
X1000505Y438418D01*
X997218Y441705D01*
X995004Y442623D01*
X994403Y443007D01*
X993930Y443663D01*
X993750Y444451D01*
X993892Y445248D01*
X994333Y445925D01*
X995004Y446377D01*
X997218Y447295D01*
X1000505Y450582D01*
X1002284Y454876D01*
X1002284Y459524D01*
X1000505Y463818D01*
X997218Y467105D01*
X995004Y468023D01*
X994403Y468407D01*
X993930Y469063D01*
X993750Y469851D01*
X993892Y470648D01*
X994333Y471325D01*
X995004Y471777D01*
X997218Y472695D01*
X1000505Y475982D01*
X1002284Y480276D01*
X1002284Y484924D01*
X1000505Y489218D01*
X997218Y492505D01*
X995004Y493423D01*
X994403Y493807D01*
X993930Y494463D01*
X993750Y495251D01*
X993892Y496048D01*
X994333Y496725D01*
X995004Y497177D01*
X997218Y498095D01*
X999925Y500801D01*
X1000569Y501235D01*
X1001361Y501396D01*
X1014327Y501396D01*
X1015089Y501247D01*
X1015764Y500801D01*
X1024959Y491605D01*
X1027386Y490600D01*
X1057835Y490600D01*
X1058597Y490451D01*
X1059272Y490005D01*
X1060901Y488375D01*
X1063905Y487131D01*
X1064506Y486747D01*
X1064979Y486091D01*
X1065159Y485302D01*
X1065017Y484506D01*
X1064576Y483829D01*
X1063905Y483377D01*
X1060325Y481894D01*
X1057110Y478679D01*
X1057059Y478554D01*
X1076542Y478554D01*
X1076490Y478679D01*
X1073275Y481894D01*
X1069695Y483377D01*
X1069094Y483761D01*
X1068621Y484417D01*
X1068441Y485205D01*
X1068583Y486001D01*
X1069025Y486679D01*
X1069695Y487131D01*
X1072699Y488375D01*
X1075629Y491305D01*
X1077214Y495133D01*
X1077214Y499276D01*
X1075629Y503103D01*
X1072699Y506033D01*
X1068872Y507618D01*
X1064729Y507618D01*
X1060901Y506033D01*
X1059272Y504403D01*
X1058627Y503969D01*
X1057835Y503808D01*
X1032277Y503808D01*
X1031515Y503957D01*
X1030840Y504403D01*
X1021645Y513599D01*
X1019218Y514604D01*
X1001361Y514604D01*
X1000599Y514753D01*
X999925Y515199D01*
X997218Y517905D01*
X995004Y518823D01*
X994403Y519207D01*
X993930Y519863D01*
X993750Y520651D01*
X993892Y521448D01*
X994333Y522125D01*
X995004Y522577D01*
X997218Y523495D01*
X999925Y526201D01*
X1000569Y526635D01*
X1001361Y526796D01*
X1026627Y526796D01*
X1027389Y526647D01*
X1028064Y526201D01*
X1037659Y516605D01*
X1040086Y515600D01*
X1057835Y515600D01*
X1058597Y515451D01*
X1059272Y515005D01*
X1060901Y513375D01*
X1064729Y511790D01*
X1068872Y511790D01*
X1072699Y513375D01*
X1075629Y516305D01*
X1077214Y520133D01*
X1077214Y524276D01*
X1075629Y528103D01*
X1072699Y531033D01*
X1068872Y532618D01*
X1064729Y532618D01*
X1060901Y531033D01*
X1059272Y529403D01*
X1058627Y528969D01*
X1057835Y528808D01*
X1044977Y528808D01*
X1044215Y528957D01*
X1043540Y529403D01*
X1033945Y538999D01*
X1031518Y540004D01*
X1001361Y540004D01*
X1000599Y540153D01*
X999925Y540599D01*
X997218Y543305D01*
X995004Y544223D01*
X994403Y544607D01*
X993930Y545263D01*
X993750Y546051D01*
X993892Y546848D01*
X994333Y547525D01*
X995004Y547977D01*
X997218Y548895D01*
X1000505Y552182D01*
X1002284Y556476D01*
X1002284Y561124D01*
X1000505Y565418D01*
X997218Y568705D01*
X995004Y569623D01*
X994403Y570007D01*
X993930Y570663D01*
X993750Y571451D01*
X993892Y572248D01*
X994333Y572925D01*
X995004Y573377D01*
X997218Y574295D01*
X999925Y577001D01*
X1000569Y577435D01*
X1001361Y577596D01*
X1004614Y577596D01*
X1007041Y578601D01*
X1031240Y602801D01*
X1031885Y603235D01*
X1032677Y603396D01*
X1070535Y603396D01*
X1071297Y603247D01*
X1071972Y602801D01*
X1073601Y601171D01*
X1077429Y599586D01*
X1081572Y599586D01*
X1085399Y601171D01*
X1087028Y602801D01*
X1087673Y603235D01*
X1088465Y603396D01*
X1132557Y603396D01*
X1133320Y603247D01*
X1133994Y602801D01*
X1136669Y600125D01*
X1139924Y598777D01*
X1140525Y598393D01*
X1140998Y597737D01*
X1141178Y596949D01*
X1141036Y596152D01*
X1140595Y595475D01*
X1139924Y595023D01*
X1136669Y593675D01*
X1133525Y590531D01*
X1131824Y586423D01*
X1131824Y581977D01*
X1133525Y577869D01*
X1136669Y574725D01*
X1139924Y573377D01*
X1140525Y572993D01*
X1140998Y572337D01*
X1141178Y571549D01*
X1141036Y570752D01*
X1140595Y570075D01*
X1139924Y569623D01*
X1136669Y568275D01*
X1133525Y565131D01*
X1131824Y561023D01*
X1131824Y556577D01*
X1133525Y552469D01*
X1136669Y549325D01*
X1139924Y547977D01*
X1140525Y547593D01*
X1140998Y546937D01*
X1141178Y546149D01*
X1141036Y545352D01*
X1140595Y544675D01*
X1139924Y544223D01*
X1136669Y542875D01*
X1133525Y539731D01*
X1131824Y535623D01*
X1131824Y531177D01*
X1133525Y527069D01*
X1136669Y523925D01*
X1139924Y522577D01*
X1140525Y522193D01*
X1140998Y521537D01*
X1141178Y520749D01*
X1141036Y519952D01*
X1140595Y519275D01*
X1139924Y518823D01*
X1136669Y517475D01*
X1133525Y514331D01*
X1131824Y510223D01*
X1131824Y505777D01*
X1133525Y501669D01*
X1136669Y498525D01*
X1139924Y497177D01*
X1140525Y496793D01*
X1140998Y496137D01*
X1141178Y495349D01*
X1141036Y494552D01*
X1140595Y493875D01*
X1139924Y493423D01*
X1136669Y492075D01*
X1133525Y488931D01*
X1131824Y484823D01*
X1131824Y480377D01*
X1133525Y476269D01*
X1136669Y473125D01*
X1139924Y471777D01*
X1140525Y471393D01*
X1140998Y470737D01*
X1141178Y469949D01*
X1141036Y469152D01*
X1140595Y468475D01*
X1139924Y468023D01*
X1136669Y466675D01*
X1133525Y463531D01*
X1131824Y459423D01*
X1131824Y454977D01*
X1133525Y450869D01*
X1136669Y447725D01*
X1140777Y446024D01*
X1145223Y446024D01*
X1149331Y447725D01*
X1152475Y450869D01*
X1154176Y454977D01*
X1154176Y459423D01*
X1152475Y463531D01*
X1149331Y466675D01*
X1146076Y468023D01*
X1145475Y468407D01*
X1145002Y469063D01*
X1144822Y469851D01*
X1144964Y470648D01*
X1145405Y471325D01*
X1146076Y471777D01*
X1149331Y473125D01*
X1152475Y476269D01*
X1154176Y480377D01*
X1154176Y484823D01*
X1152475Y488931D01*
X1149331Y492075D01*
X1146076Y493423D01*
X1145475Y493807D01*
X1145002Y494463D01*
X1144822Y495251D01*
X1144964Y496048D01*
X1145405Y496725D01*
X1146076Y497177D01*
X1149331Y498525D01*
X1152475Y501669D01*
X1154176Y505777D01*
X1154176Y510223D01*
X1152475Y514331D01*
X1149331Y517475D01*
X1146076Y518823D01*
X1145475Y519207D01*
X1145002Y519863D01*
X1144822Y520651D01*
X1144964Y521448D01*
X1145405Y522125D01*
X1146076Y522577D01*
X1149331Y523925D01*
X1152475Y527069D01*
X1154176Y531177D01*
X1154176Y535623D01*
X1152475Y539731D01*
X1149331Y542875D01*
X1146076Y544223D01*
X1145475Y544607D01*
X1145002Y545263D01*
X1144822Y546051D01*
X1144964Y546848D01*
X1145405Y547525D01*
X1146076Y547977D01*
X1149331Y549325D01*
X1152475Y552469D01*
X1154176Y556577D01*
X1154176Y561023D01*
X1152475Y565131D01*
X1149331Y568275D01*
X1146076Y569623D01*
X1145475Y570007D01*
X1145002Y570663D01*
X1144822Y571451D01*
X1144964Y572248D01*
X1145405Y572925D01*
X1146076Y573377D01*
X1149331Y574725D01*
X1152475Y577869D01*
X1154176Y581977D01*
X1154176Y586423D01*
X1152475Y590531D01*
X1149331Y593675D01*
X1146076Y595023D01*
X1145475Y595407D01*
X1145002Y596063D01*
X1144822Y596851D01*
X1144964Y597648D01*
X1145405Y598325D01*
X1146076Y598777D01*
X1149331Y600125D01*
X1151606Y602401D01*
X1152250Y602835D01*
X1153043Y602996D01*
X1291823Y602996D01*
X1292585Y602847D01*
X1293260Y602401D01*
X1317059Y578601D01*
X1319486Y577596D01*
X1325735Y577596D01*
X1326497Y577447D01*
X1327172Y577001D01*
X1327601Y576571D01*
X1331429Y574986D01*
X1335572Y574986D01*
X1339399Y576571D01*
X1342329Y579501D01*
X1343914Y583329D01*
X1343914Y587472D01*
X1342329Y591299D01*
X1339399Y594229D01*
X1336395Y595473D01*
X1335794Y595857D01*
X1335321Y596513D01*
X1335141Y597302D01*
X1335283Y598098D01*
X1335725Y598776D01*
X1336395Y599227D01*
X1339975Y600710D01*
X1343190Y603925D01*
X1343242Y604050D01*
X1323759Y604050D01*
X1323810Y603925D01*
X1327025Y600710D01*
X1330605Y599227D01*
X1331206Y598843D01*
X1331679Y598187D01*
X1331859Y597399D01*
X1331717Y596603D01*
X1331276Y595925D01*
X1330605Y595473D01*
X1327601Y594229D01*
X1325293Y591920D01*
X1324678Y591499D01*
X1323888Y591326D01*
X1323093Y591474D01*
X1322419Y591920D01*
X1299141Y615199D01*
X1296714Y616204D01*
X1153043Y616204D01*
X1152280Y616353D01*
X1151606Y616799D01*
X1149331Y619075D01*
X1146076Y620423D01*
X1145475Y620807D01*
X1145002Y621463D01*
X1144822Y622251D01*
X1144964Y623048D01*
X1145405Y623725D01*
X1146076Y624177D01*
X1149331Y625525D01*
X1151606Y627801D01*
X1152250Y628235D01*
X1153043Y628396D01*
X1296714Y628396D01*
X1299141Y629401D01*
X1322940Y653201D01*
X1323585Y653635D01*
X1324377Y653796D01*
X1324535Y653796D01*
X1325297Y653647D01*
X1325972Y653201D01*
X1327601Y651571D01*
X1331429Y649986D01*
X1335572Y649986D01*
X1339399Y651571D01*
X1342329Y654501D01*
X1343914Y658329D01*
X1343914Y662472D01*
X1342329Y666299D01*
X1339399Y669229D01*
X1335572Y670814D01*
X1331429Y670814D01*
X1327601Y669229D01*
X1325972Y667599D01*
X1325327Y667165D01*
X1324535Y667004D01*
X1319486Y667004D01*
X1317059Y665999D01*
X1293260Y642199D01*
X1292615Y641765D01*
X1291823Y641604D01*
X1153043Y641604D01*
X1152280Y641753D01*
X1151606Y642199D01*
X1149331Y644475D01*
X1147404Y645273D01*
X1146803Y645657D01*
X1146330Y646313D01*
X1146150Y647102D01*
X1146292Y647898D01*
X1146733Y648575D01*
X1147404Y649027D01*
X1149906Y650064D01*
X1153336Y653494D01*
X1153566Y654050D01*
X1132434Y654050D01*
X1132664Y653494D01*
X1136094Y650064D01*
X1138597Y649027D01*
X1139197Y648643D01*
X1139670Y647987D01*
X1139850Y647199D01*
X1139708Y646403D01*
X1139267Y645725D01*
X1138597Y645273D01*
X1136669Y644475D01*
X1134394Y642199D01*
X1133750Y641765D01*
X1132957Y641604D01*
X1088465Y641604D01*
X1087703Y641753D01*
X1087028Y642199D01*
X1085399Y643829D01*
X1081572Y645414D01*
X1077429Y645414D01*
X1073601Y643829D01*
X1071972Y642199D01*
X1071327Y641765D01*
X1070535Y641604D01*
X1032277Y641604D01*
X1031515Y641753D01*
X1030840Y642199D01*
X1007041Y665999D01*
X1004614Y667004D01*
X1001361Y667004D01*
X1000599Y667153D01*
X999925Y667599D01*
X997218Y670305D01*
X995004Y671223D01*
X994403Y671607D01*
X993930Y672263D01*
X993750Y673051D01*
X993892Y673848D01*
X994333Y674525D01*
X995004Y674977D01*
X997218Y675895D01*
X999925Y678601D01*
X1000569Y679035D01*
X1001361Y679196D01*
X1030014Y679196D01*
X1032441Y680201D01*
X1075798Y723559D01*
X1076443Y723993D01*
X1077235Y724154D01*
X1081976Y724154D01*
X1086550Y726049D01*
X1090051Y729550D01*
X1091946Y734124D01*
X1091946Y739076D01*
X1090051Y743650D01*
X1086550Y747151D01*
X1081976Y749046D01*
X1077024Y749046D01*
X1072450Y747151D01*
X1068949Y743650D01*
X1067054Y739076D01*
X1067054Y734335D01*
X1066905Y733573D01*
X1066459Y732898D01*
X1026560Y692999D01*
X1025915Y692565D01*
X1025123Y692404D01*
X1001361Y692404D01*
X1000599Y692553D01*
X999925Y692999D01*
X997218Y695705D01*
X992924Y697484D01*
X988276Y697484D01*
X983982Y695705D01*
X980695Y692418D01*
X978916Y688124D01*
X978916Y683476D01*
X980695Y679182D01*
X983982Y675895D01*
X986196Y674977D01*
X986797Y674593D01*
X987270Y673937D01*
X987450Y673149D01*
X987308Y672352D01*
X986867Y671675D01*
X986196Y671223D01*
X983982Y670305D01*
X980695Y667018D01*
X978916Y662724D01*
X978916Y658076D01*
X980695Y653782D01*
X983982Y650495D01*
X986196Y649577D01*
X986797Y649193D01*
X987270Y648537D01*
X987450Y647749D01*
X987308Y646952D01*
X986867Y646275D01*
X986196Y645823D01*
X983982Y644905D01*
X981275Y642199D01*
X980631Y641765D01*
X979839Y641604D01*
X968777Y641604D01*
X968015Y641753D01*
X967340Y642199D01*
X816541Y792999D01*
X814114Y794004D01*
X805428Y794004D01*
X804741Y794124D01*
X804049Y794543D01*
X803576Y795199D01*
X803396Y795987D01*
X803538Y796784D01*
X803980Y797461D01*
X804650Y797913D01*
X807150Y798949D01*
X810762Y802561D01*
X811362Y802975D01*
X812150Y803155D01*
X812946Y803013D01*
X813624Y802572D01*
X814076Y801902D01*
X814087Y801874D01*
X817874Y798087D01*
X819150Y797559D01*
X819150Y815850D01*
X831850Y815850D01*
X831850Y797559D01*
X833126Y798087D01*
X836913Y801874D01*
X836924Y801902D01*
X837319Y802514D01*
X837979Y802982D01*
X838769Y803156D01*
X839564Y803007D01*
X840238Y802561D01*
X843850Y798949D01*
X848424Y797054D01*
X853376Y797054D01*
X857950Y798949D01*
X861451Y802450D01*
X863346Y807024D01*
X863346Y811976D01*
X861451Y816550D01*
X858099Y819902D01*
X857665Y820546D01*
X857504Y821339D01*
X857504Y826814D01*
X856499Y829241D01*
X851768Y833971D01*
X851360Y834556D01*
X851174Y835343D01*
X851310Y836141D01*
X851746Y836822D01*
X852413Y837279D01*
X853205Y837440D01*
X1349632Y837440D01*
X1350563Y837214D01*
X1351194Y836708D01*
X1351577Y835996D01*
X1351653Y835191D01*
X1351408Y834420D01*
X1350882Y833806D01*
X1350158Y833445D01*
X1349189Y833185D01*
X1343451Y829873D01*
X1338767Y825189D01*
X1335455Y819451D01*
X1333740Y813052D01*
X1333740Y806428D01*
X1335455Y800029D01*
X1338767Y794291D01*
X1343451Y789607D01*
X1349189Y786295D01*
X1355588Y784580D01*
X1362212Y784580D01*
X1368611Y786295D01*
X1370892Y787611D01*
X1371843Y787883D01*
X1372641Y787747D01*
X1373322Y787311D01*
X1373779Y786644D01*
X1373940Y785852D01*
X1373940Y239548D01*
X1373699Y238589D01*
X1373183Y237966D01*
X1372465Y237594D01*
X1371659Y237532D01*
X1370892Y237789D01*
X1368611Y239105D01*
X1362212Y240820D01*
X1355588Y240820D01*
X1349189Y239105D01*
X1343451Y235793D01*
X1338767Y231109D01*
X1335455Y225371D01*
X1333740Y218972D01*
X1333740Y212348D01*
X1335455Y205949D01*
X1338767Y200211D01*
X1343451Y195527D01*
X1349189Y192215D01*
X1355588Y190500D01*
X1362212Y190500D01*
X1368611Y192215D01*
X1370892Y193531D01*
X1371843Y193803D01*
X1372641Y193667D01*
X1373322Y193231D01*
X1373779Y192564D01*
X1373940Y191772D01*
X1373940Y177292D01*
X1373803Y176560D01*
X1373368Y175878D01*
X1372701Y175421D01*
G37*
%LPC*%
G36*
X646386Y196596D02*
X1093514Y196596D01*
X1095941Y197601D01*
X1123199Y224859D01*
X1124204Y227286D01*
X1124204Y410464D01*
X1124341Y411197D01*
X1124776Y411878D01*
X1125443Y412335D01*
X1126236Y412496D01*
X1220514Y412496D01*
X1222941Y413501D01*
X1364499Y555059D01*
X1365504Y557486D01*
X1365504Y712514D01*
X1364499Y714941D01*
X1264341Y815099D01*
X1261914Y816104D01*
X1141686Y816104D01*
X1139259Y815099D01*
X1137401Y813241D01*
X1136396Y810814D01*
X1136396Y695843D01*
X1136247Y695080D01*
X1135801Y694406D01*
X1133525Y692131D01*
X1131824Y688023D01*
X1131824Y683577D01*
X1133525Y679469D01*
X1136669Y676325D01*
X1138597Y675527D01*
X1139197Y675143D01*
X1139670Y674487D01*
X1139850Y673698D01*
X1139708Y672902D01*
X1139267Y672225D01*
X1138597Y671773D01*
X1136094Y670736D01*
X1132664Y667306D01*
X1132434Y666750D01*
X1153566Y666750D01*
X1153336Y667306D01*
X1149906Y670736D01*
X1147404Y671773D01*
X1146803Y672157D01*
X1146330Y672813D01*
X1146150Y673601D01*
X1146292Y674397D01*
X1146733Y675075D01*
X1147404Y675527D01*
X1149331Y676325D01*
X1152475Y679469D01*
X1154176Y683577D01*
X1154176Y688023D01*
X1152475Y692131D01*
X1150199Y694406D01*
X1149765Y695050D01*
X1149604Y695843D01*
X1149604Y800864D01*
X1149741Y801597D01*
X1150176Y802278D01*
X1150843Y802735D01*
X1151636Y802896D01*
X1257023Y802896D01*
X1257785Y802747D01*
X1258460Y802301D01*
X1351701Y709060D01*
X1352135Y708415D01*
X1352296Y707623D01*
X1352296Y643636D01*
X1352159Y642904D01*
X1351724Y642222D01*
X1351057Y641765D01*
X1350264Y641604D01*
X1342865Y641604D01*
X1342103Y641753D01*
X1341428Y642199D01*
X1339399Y644229D01*
X1335572Y645814D01*
X1331429Y645814D01*
X1327601Y644229D01*
X1324671Y641299D01*
X1323086Y637472D01*
X1323086Y633329D01*
X1324671Y629501D01*
X1327601Y626571D01*
X1330605Y625327D01*
X1331206Y624943D01*
X1331679Y624287D01*
X1331859Y623498D01*
X1331717Y622702D01*
X1331276Y622025D01*
X1330605Y621573D01*
X1327025Y620090D01*
X1323810Y616875D01*
X1323759Y616750D01*
X1343242Y616750D01*
X1343190Y616875D01*
X1339975Y620090D01*
X1336395Y621573D01*
X1335794Y621957D01*
X1335321Y622613D01*
X1335141Y623401D01*
X1335283Y624197D01*
X1335725Y624875D01*
X1336395Y625327D01*
X1339399Y626571D01*
X1340628Y627801D01*
X1341273Y628235D01*
X1342065Y628396D01*
X1350264Y628396D01*
X1350997Y628259D01*
X1351678Y627824D01*
X1352135Y627157D01*
X1352296Y626364D01*
X1352296Y562377D01*
X1352147Y561615D01*
X1351701Y560940D01*
X1217060Y426299D01*
X1216415Y425865D01*
X1215623Y425704D01*
X1126236Y425704D01*
X1125504Y425841D01*
X1124822Y426276D01*
X1124365Y426943D01*
X1124204Y427736D01*
X1124204Y522014D01*
X1123199Y524441D01*
X1094837Y552803D01*
X1092410Y553808D01*
X1075765Y553808D01*
X1075003Y553957D01*
X1074328Y554403D01*
X1072699Y556033D01*
X1068872Y557618D01*
X1064729Y557618D01*
X1060901Y556033D01*
X1057971Y553103D01*
X1056386Y549276D01*
X1056386Y545133D01*
X1057971Y541305D01*
X1060901Y538375D01*
X1064729Y536790D01*
X1068872Y536790D01*
X1072699Y538375D01*
X1074328Y540005D01*
X1074973Y540439D01*
X1075765Y540600D01*
X1087519Y540600D01*
X1088281Y540451D01*
X1088956Y540005D01*
X1110401Y518560D01*
X1110835Y517915D01*
X1110996Y517123D01*
X1110996Y426286D01*
X1110876Y425599D01*
X1110457Y424907D01*
X1109801Y424434D01*
X1109013Y424254D01*
X1108216Y424396D01*
X1107539Y424837D01*
X1107087Y425508D01*
X1107059Y425575D01*
X1103844Y428790D01*
X1103719Y428842D01*
X1103719Y409359D01*
X1103844Y409410D01*
X1107059Y412625D01*
X1107087Y412692D01*
X1107460Y413281D01*
X1108112Y413759D01*
X1108899Y413945D01*
X1109697Y413810D01*
X1110378Y413374D01*
X1110835Y412707D01*
X1110996Y411914D01*
X1110996Y232177D01*
X1110847Y231415D01*
X1110401Y230740D01*
X1090060Y210399D01*
X1089415Y209965D01*
X1088623Y209804D01*
X651277Y209804D01*
X650515Y209953D01*
X649840Y210399D01*
X642199Y218040D01*
X641765Y218685D01*
X641604Y219477D01*
X641604Y219635D01*
X641753Y220397D01*
X642199Y221072D01*
X643829Y222701D01*
X645414Y226529D01*
X645414Y230672D01*
X643829Y234499D01*
X642199Y236128D01*
X641765Y236773D01*
X641604Y237565D01*
X641604Y263123D01*
X641753Y263885D01*
X642199Y264560D01*
X650653Y273013D01*
X651658Y275440D01*
X651658Y283135D01*
X651807Y283897D01*
X652253Y284572D01*
X653883Y286201D01*
X655468Y290029D01*
X655468Y294172D01*
X653883Y297999D01*
X652253Y299628D01*
X651819Y300273D01*
X651658Y301065D01*
X651658Y313923D01*
X651807Y314685D01*
X652253Y315360D01*
X665599Y328705D01*
X666604Y331132D01*
X666604Y346635D01*
X666753Y347397D01*
X667199Y348072D01*
X668829Y349701D01*
X670073Y352705D01*
X670457Y353306D01*
X671113Y353779D01*
X671902Y353959D01*
X672698Y353817D01*
X673376Y353376D01*
X673827Y352705D01*
X675310Y349125D01*
X678525Y345910D01*
X678650Y345859D01*
X678650Y365342D01*
X678525Y365290D01*
X675310Y362075D01*
X673827Y358495D01*
X673443Y357894D01*
X672787Y357421D01*
X671999Y357241D01*
X671203Y357383D01*
X670525Y357825D01*
X670073Y358495D01*
X668829Y361499D01*
X665899Y364429D01*
X662072Y366014D01*
X657929Y366014D01*
X654101Y364429D01*
X651171Y361499D01*
X649586Y357672D01*
X649586Y353529D01*
X651171Y349701D01*
X652801Y348072D01*
X653235Y347427D01*
X653396Y346635D01*
X653396Y336023D01*
X653247Y335261D01*
X652801Y334586D01*
X642514Y324299D01*
X641869Y323865D01*
X641077Y323704D01*
X605536Y323704D01*
X604804Y323841D01*
X604122Y324276D01*
X603665Y324943D01*
X603504Y325736D01*
X603504Y402823D01*
X603653Y403585D01*
X604099Y404260D01*
X665599Y465759D01*
X666604Y468186D01*
X666604Y473635D01*
X666753Y474397D01*
X667199Y475072D01*
X668829Y476701D01*
X670073Y479705D01*
X670457Y480306D01*
X671113Y480779D01*
X671902Y480959D01*
X672698Y480817D01*
X673376Y480376D01*
X673827Y479705D01*
X675310Y476125D01*
X678525Y472910D01*
X678650Y472859D01*
X678650Y492342D01*
X678525Y492290D01*
X675310Y489075D01*
X673827Y485495D01*
X673443Y484894D01*
X672787Y484421D01*
X671999Y484241D01*
X671203Y484383D01*
X670525Y484825D01*
X670073Y485495D01*
X668829Y488499D01*
X665899Y491429D01*
X662072Y493014D01*
X657929Y493014D01*
X654101Y491429D01*
X651171Y488499D01*
X649586Y484672D01*
X649586Y480529D01*
X651171Y476701D01*
X652801Y475072D01*
X653235Y474427D01*
X653396Y473635D01*
X653396Y473077D01*
X653247Y472315D01*
X652801Y471640D01*
X591301Y410141D01*
X590296Y407714D01*
X590296Y325736D01*
X590159Y325004D01*
X589724Y324322D01*
X589057Y323865D01*
X588264Y323704D01*
X554736Y323704D01*
X554004Y323841D01*
X553322Y324276D01*
X552865Y324943D01*
X552704Y325736D01*
X552704Y347035D01*
X552853Y347797D01*
X553299Y348472D01*
X554529Y349701D01*
X555773Y352705D01*
X556157Y353306D01*
X556813Y353779D01*
X557602Y353959D01*
X558398Y353817D01*
X559076Y353376D01*
X559527Y352705D01*
X561010Y349125D01*
X564225Y345910D01*
X564350Y345859D01*
X564350Y365342D01*
X564225Y365290D01*
X561010Y362075D01*
X559527Y358495D01*
X559143Y357894D01*
X558487Y357421D01*
X557699Y357241D01*
X556903Y357383D01*
X556225Y357825D01*
X555773Y358495D01*
X554529Y361499D01*
X551599Y364429D01*
X547772Y366014D01*
X543629Y366014D01*
X539801Y364429D01*
X536871Y361499D01*
X535286Y357672D01*
X535286Y353529D01*
X536871Y349701D01*
X538901Y347672D01*
X539335Y347027D01*
X539496Y346235D01*
X539496Y326136D01*
X539359Y325404D01*
X538924Y324722D01*
X538257Y324265D01*
X537464Y324104D01*
X524277Y324104D01*
X523515Y324253D01*
X522840Y324699D01*
X504023Y343516D01*
X503589Y344161D01*
X503428Y344953D01*
X503428Y451747D01*
X503577Y452509D01*
X504023Y453184D01*
X522430Y471591D01*
X523075Y472025D01*
X523867Y472186D01*
X526172Y472186D01*
X529999Y473771D01*
X532929Y476701D01*
X534173Y479705D01*
X534557Y480306D01*
X535213Y480779D01*
X536002Y480959D01*
X536798Y480817D01*
X537476Y480376D01*
X537927Y479705D01*
X539410Y476125D01*
X542625Y472910D01*
X542750Y472859D01*
X542750Y492342D01*
X542625Y492290D01*
X539410Y489075D01*
X537927Y485495D01*
X537543Y484894D01*
X536887Y484421D01*
X536099Y484241D01*
X535303Y484383D01*
X534625Y484825D01*
X534173Y485495D01*
X532929Y488499D01*
X529999Y491429D01*
X526172Y493014D01*
X522029Y493014D01*
X518201Y491429D01*
X515271Y488499D01*
X513686Y484672D01*
X513686Y482367D01*
X513537Y481605D01*
X513091Y480930D01*
X491225Y459065D01*
X490220Y456638D01*
X490220Y340062D01*
X491225Y337635D01*
X516959Y311901D01*
X519386Y310896D01*
X543817Y310896D01*
X544594Y310741D01*
X545186Y310496D01*
X636418Y310496D01*
X637151Y310359D01*
X637832Y309924D01*
X638289Y309257D01*
X638450Y308464D01*
X638450Y301065D01*
X638301Y300303D01*
X637855Y299628D01*
X636225Y297999D01*
X634640Y294172D01*
X634640Y290029D01*
X636225Y286201D01*
X637855Y284572D01*
X638289Y283927D01*
X638450Y283135D01*
X638450Y280331D01*
X638301Y279569D01*
X637855Y278894D01*
X629401Y270441D01*
X628396Y268014D01*
X628396Y237565D01*
X628247Y236803D01*
X627801Y236128D01*
X626171Y234499D01*
X624586Y230672D01*
X624586Y226529D01*
X626171Y222701D01*
X627801Y221072D01*
X628235Y220427D01*
X628396Y219635D01*
X628396Y214586D01*
X629401Y212159D01*
X643959Y197601D01*
X646386Y196596D01*
G37*
G36*
X518629Y345186D02*
X522772Y345186D01*
X526599Y346771D01*
X529529Y349701D01*
X531114Y353529D01*
X531114Y357672D01*
X529529Y361499D01*
X526883Y364144D01*
X526449Y364789D01*
X526288Y365581D01*
X526288Y400901D01*
X526431Y401648D01*
X526872Y402326D01*
X527542Y402778D01*
X530303Y403921D01*
X533233Y406851D01*
X534818Y410679D01*
X534818Y412983D01*
X534967Y413745D01*
X535413Y414420D01*
X564644Y443651D01*
X565289Y444085D01*
X566081Y444246D01*
X591864Y444246D01*
X594291Y445251D01*
X615199Y466159D01*
X616204Y468586D01*
X616204Y542523D01*
X616353Y543285D01*
X616799Y543960D01*
X649840Y577001D01*
X650485Y577435D01*
X651277Y577596D01*
X725839Y577596D01*
X726601Y577447D01*
X727275Y577001D01*
X729982Y574295D01*
X732196Y573377D01*
X732797Y572993D01*
X733270Y572337D01*
X733450Y571549D01*
X733308Y570752D01*
X732867Y570075D01*
X732196Y569623D01*
X729982Y568705D01*
X727275Y565999D01*
X726631Y565565D01*
X725839Y565404D01*
X656440Y565404D01*
X654013Y564399D01*
X640374Y550759D01*
X639729Y550325D01*
X638937Y550164D01*
X636633Y550164D01*
X632805Y548579D01*
X629875Y545649D01*
X628290Y541822D01*
X628290Y537551D01*
X628396Y537018D01*
X628396Y491565D01*
X628247Y490803D01*
X627801Y490128D01*
X626171Y488499D01*
X624586Y484672D01*
X624586Y480529D01*
X626171Y476701D01*
X629101Y473771D01*
X632929Y472186D01*
X637072Y472186D01*
X640899Y473771D01*
X643829Y476701D01*
X645414Y480529D01*
X645414Y484672D01*
X643829Y488499D01*
X642199Y490128D01*
X641765Y490773D01*
X641604Y491565D01*
X641604Y528321D01*
X641747Y529069D01*
X642188Y529747D01*
X642858Y530199D01*
X644603Y530921D01*
X647533Y533851D01*
X649118Y537679D01*
X649118Y539983D01*
X649267Y540745D01*
X649713Y541420D01*
X659894Y551601D01*
X660539Y552035D01*
X661331Y552196D01*
X680880Y552196D01*
X681582Y552071D01*
X682270Y551646D01*
X682738Y550986D01*
X682912Y550196D01*
X682763Y549401D01*
X682317Y548727D01*
X679814Y546225D01*
X679763Y546100D01*
X699246Y546100D01*
X699194Y546225D01*
X696691Y548727D01*
X696283Y549312D01*
X696097Y550099D01*
X696233Y550897D01*
X696669Y551578D01*
X697336Y552035D01*
X698128Y552196D01*
X725839Y552196D01*
X726601Y552047D01*
X727275Y551601D01*
X729982Y548895D01*
X732196Y547977D01*
X732797Y547593D01*
X733270Y546937D01*
X733450Y546149D01*
X733308Y545352D01*
X732867Y544675D01*
X732196Y544223D01*
X729982Y543305D01*
X727275Y540599D01*
X726631Y540165D01*
X725839Y540004D01*
X722586Y540004D01*
X720159Y538999D01*
X705601Y524441D01*
X704596Y522014D01*
X704596Y476123D01*
X704447Y475361D01*
X704001Y474686D01*
X629401Y400087D01*
X628396Y397660D01*
X628396Y364565D01*
X628247Y363803D01*
X627801Y363128D01*
X626171Y361499D01*
X624586Y357672D01*
X624586Y353529D01*
X626171Y349701D01*
X629101Y346771D01*
X632929Y345186D01*
X637072Y345186D01*
X640899Y346771D01*
X643829Y349701D01*
X645414Y353529D01*
X645414Y357672D01*
X643829Y361499D01*
X642199Y363128D01*
X641765Y363773D01*
X641604Y364565D01*
X641604Y392769D01*
X641753Y393531D01*
X642199Y394206D01*
X716799Y468805D01*
X717804Y471232D01*
X717804Y517123D01*
X717953Y517885D01*
X718399Y518560D01*
X725221Y525382D01*
X725836Y525803D01*
X726626Y525977D01*
X727421Y525828D01*
X728095Y525382D01*
X729982Y523495D01*
X732196Y522577D01*
X732797Y522193D01*
X733270Y521537D01*
X733450Y520749D01*
X733308Y519952D01*
X732867Y519275D01*
X732196Y518823D01*
X729982Y517905D01*
X726695Y514618D01*
X724916Y510324D01*
X724916Y505676D01*
X726695Y501382D01*
X729982Y498095D01*
X732196Y497177D01*
X732797Y496793D01*
X733270Y496137D01*
X733450Y495349D01*
X733308Y494552D01*
X732867Y493875D01*
X732196Y493423D01*
X729982Y492505D01*
X726695Y489218D01*
X724916Y484924D01*
X724916Y480276D01*
X726695Y475982D01*
X729982Y472695D01*
X732196Y471777D01*
X732797Y471393D01*
X733270Y470737D01*
X733450Y469949D01*
X733308Y469152D01*
X732867Y468475D01*
X732196Y468023D01*
X729982Y467105D01*
X726695Y463818D01*
X724916Y459524D01*
X724916Y454876D01*
X726695Y450582D01*
X729982Y447295D01*
X732196Y446377D01*
X732797Y445993D01*
X733270Y445337D01*
X733450Y444549D01*
X733308Y443752D01*
X732867Y443075D01*
X732196Y442623D01*
X729982Y441705D01*
X726695Y438418D01*
X724916Y434124D01*
X724916Y429476D01*
X726695Y425182D01*
X729982Y421895D01*
X732196Y420977D01*
X732797Y420593D01*
X733270Y419937D01*
X733450Y419149D01*
X733308Y418352D01*
X732867Y417675D01*
X732196Y417223D01*
X729982Y416305D01*
X726695Y413018D01*
X724916Y408724D01*
X724916Y404076D01*
X726695Y399782D01*
X729982Y396495D01*
X732196Y395577D01*
X732797Y395193D01*
X733270Y394537D01*
X733450Y393749D01*
X733308Y392952D01*
X732867Y392275D01*
X732196Y391823D01*
X729982Y390905D01*
X726695Y387618D01*
X724916Y383324D01*
X724916Y378676D01*
X726695Y374382D01*
X729982Y371095D01*
X730869Y370727D01*
X731470Y370343D01*
X731943Y369687D01*
X732123Y368898D01*
X731981Y368102D01*
X731540Y367425D01*
X730869Y366973D01*
X729406Y366367D01*
X725833Y362794D01*
X725484Y361950D01*
X747716Y361950D01*
X747367Y362794D01*
X743794Y366367D01*
X742331Y366973D01*
X741730Y367357D01*
X741257Y368013D01*
X741077Y368801D01*
X741219Y369597D01*
X741660Y370275D01*
X742331Y370727D01*
X743218Y371095D01*
X746505Y374382D01*
X748284Y378676D01*
X748284Y383324D01*
X746505Y387618D01*
X743218Y390905D01*
X741004Y391823D01*
X740403Y392207D01*
X739930Y392863D01*
X739750Y393651D01*
X739892Y394448D01*
X740333Y395125D01*
X741004Y395577D01*
X743218Y396495D01*
X746505Y399782D01*
X748284Y404076D01*
X748284Y408724D01*
X746505Y413018D01*
X743218Y416305D01*
X741004Y417223D01*
X740403Y417607D01*
X739930Y418263D01*
X739750Y419051D01*
X739892Y419848D01*
X740333Y420525D01*
X741004Y420977D01*
X743218Y421895D01*
X746505Y425182D01*
X748284Y429476D01*
X748284Y434124D01*
X746505Y438418D01*
X743218Y441705D01*
X741004Y442623D01*
X740403Y443007D01*
X739930Y443663D01*
X739750Y444451D01*
X739892Y445248D01*
X740333Y445925D01*
X741004Y446377D01*
X743218Y447295D01*
X746505Y450582D01*
X748284Y454876D01*
X748284Y459524D01*
X746505Y463818D01*
X743218Y467105D01*
X741004Y468023D01*
X740403Y468407D01*
X739930Y469063D01*
X739750Y469851D01*
X739892Y470648D01*
X740333Y471325D01*
X741004Y471777D01*
X743218Y472695D01*
X746505Y475982D01*
X748284Y480276D01*
X748284Y484924D01*
X746505Y489218D01*
X743218Y492505D01*
X741004Y493423D01*
X740403Y493807D01*
X739930Y494463D01*
X739750Y495251D01*
X739892Y496048D01*
X740333Y496725D01*
X741004Y497177D01*
X743218Y498095D01*
X746505Y501382D01*
X748284Y505676D01*
X748284Y510324D01*
X746505Y514618D01*
X743218Y517905D01*
X741004Y518823D01*
X740403Y519207D01*
X739930Y519863D01*
X739750Y520651D01*
X739892Y521448D01*
X740333Y522125D01*
X741004Y522577D01*
X743218Y523495D01*
X746505Y526782D01*
X748284Y531076D01*
X748284Y535724D01*
X746505Y540018D01*
X743218Y543305D01*
X741004Y544223D01*
X740403Y544607D01*
X739930Y545263D01*
X739750Y546051D01*
X739892Y546848D01*
X740333Y547525D01*
X741004Y547977D01*
X743218Y548895D01*
X746505Y552182D01*
X748284Y556476D01*
X748284Y561124D01*
X746505Y565418D01*
X743218Y568705D01*
X741004Y569623D01*
X740403Y570007D01*
X739930Y570663D01*
X739750Y571451D01*
X739892Y572248D01*
X740333Y572925D01*
X741004Y573377D01*
X743218Y574295D01*
X746505Y577582D01*
X748284Y581876D01*
X748284Y586524D01*
X746505Y590818D01*
X743218Y594105D01*
X741004Y595023D01*
X740403Y595407D01*
X739930Y596063D01*
X739750Y596851D01*
X739892Y597648D01*
X740333Y598325D01*
X741004Y598777D01*
X743218Y599695D01*
X746505Y602982D01*
X748284Y607276D01*
X748284Y611924D01*
X746505Y616218D01*
X743218Y619505D01*
X741004Y620423D01*
X740403Y620807D01*
X739930Y621463D01*
X739750Y622251D01*
X739892Y623048D01*
X740333Y623725D01*
X741004Y624177D01*
X743218Y625095D01*
X746505Y628382D01*
X748284Y632676D01*
X748284Y637324D01*
X746505Y641618D01*
X743218Y644905D01*
X741004Y645823D01*
X740403Y646207D01*
X739930Y646863D01*
X739750Y647651D01*
X739892Y648448D01*
X740333Y649125D01*
X741004Y649577D01*
X743218Y650495D01*
X746505Y653782D01*
X748284Y658076D01*
X748284Y662724D01*
X746505Y667018D01*
X743218Y670305D01*
X741004Y671223D01*
X740403Y671607D01*
X739930Y672263D01*
X739750Y673051D01*
X739892Y673848D01*
X740333Y674525D01*
X741004Y674977D01*
X743218Y675895D01*
X746505Y679182D01*
X748284Y683476D01*
X748284Y688124D01*
X746505Y692418D01*
X743218Y695705D01*
X738924Y697484D01*
X734276Y697484D01*
X729982Y695705D01*
X726695Y692418D01*
X724916Y688124D01*
X724916Y683476D01*
X726695Y679182D01*
X729982Y675895D01*
X732196Y674977D01*
X732797Y674593D01*
X733270Y673937D01*
X733450Y673149D01*
X733308Y672352D01*
X732867Y671675D01*
X732196Y671223D01*
X729982Y670305D01*
X726695Y667018D01*
X724916Y662724D01*
X724916Y658076D01*
X726695Y653782D01*
X729982Y650495D01*
X732196Y649577D01*
X732797Y649193D01*
X733270Y648537D01*
X733450Y647749D01*
X733308Y646952D01*
X732867Y646275D01*
X732196Y645823D01*
X729982Y644905D01*
X727275Y642199D01*
X726631Y641765D01*
X725839Y641604D01*
X712877Y641604D01*
X712115Y641753D01*
X711440Y642199D01*
X704739Y648901D01*
X704298Y649560D01*
X703359Y651828D01*
X703204Y652606D01*
X703204Y680894D01*
X703359Y681672D01*
X704424Y684244D01*
X704424Y687356D01*
X703359Y689928D01*
X703204Y690706D01*
X703204Y714414D01*
X702199Y716841D01*
X696809Y722230D01*
X696375Y722875D01*
X696214Y723667D01*
X696214Y725972D01*
X694629Y729799D01*
X691699Y732729D01*
X687872Y734314D01*
X683729Y734314D01*
X679901Y732729D01*
X676971Y729799D01*
X675386Y725972D01*
X675386Y721829D01*
X676971Y718001D01*
X679901Y715071D01*
X683729Y713486D01*
X686033Y713486D01*
X686795Y713337D01*
X687470Y712891D01*
X689401Y710960D01*
X689835Y710315D01*
X689996Y709523D01*
X689996Y690706D01*
X689841Y689928D01*
X688776Y687356D01*
X688776Y684244D01*
X689841Y681672D01*
X689996Y680894D01*
X689996Y652606D01*
X689841Y651828D01*
X688776Y649256D01*
X688776Y646144D01*
X689967Y643268D01*
X692168Y641067D01*
X694740Y640002D01*
X695399Y639561D01*
X705559Y629401D01*
X707986Y628396D01*
X725839Y628396D01*
X726601Y628247D01*
X727275Y627801D01*
X729982Y625095D01*
X732196Y624177D01*
X732797Y623793D01*
X733270Y623137D01*
X733450Y622349D01*
X733308Y621552D01*
X732867Y620875D01*
X732196Y620423D01*
X729982Y619505D01*
X727275Y616799D01*
X726631Y616365D01*
X725839Y616204D01*
X631040Y616204D01*
X628613Y615199D01*
X569605Y556191D01*
X568600Y553764D01*
X568600Y551136D01*
X569036Y550084D01*
X569190Y549338D01*
X569042Y548543D01*
X568596Y547869D01*
X566375Y545649D01*
X564790Y541822D01*
X564790Y537679D01*
X566375Y533851D01*
X568005Y532222D01*
X568439Y531577D01*
X568600Y530785D01*
X568600Y492669D01*
X568451Y491907D01*
X568005Y491232D01*
X565271Y488499D01*
X564027Y485495D01*
X563643Y484894D01*
X562987Y484421D01*
X562198Y484241D01*
X561402Y484383D01*
X560725Y484825D01*
X560273Y485495D01*
X558790Y489075D01*
X555575Y492290D01*
X555450Y492342D01*
X555450Y472859D01*
X555575Y472910D01*
X558790Y476125D01*
X560273Y479705D01*
X560657Y480306D01*
X561313Y480779D01*
X562101Y480959D01*
X562897Y480817D01*
X563575Y480376D01*
X564027Y479705D01*
X565271Y476701D01*
X568201Y473771D01*
X572029Y472186D01*
X576172Y472186D01*
X579999Y473771D01*
X582929Y476701D01*
X584514Y480529D01*
X584514Y484672D01*
X582929Y488499D01*
X582403Y489024D01*
X581969Y489669D01*
X581808Y490461D01*
X581808Y530785D01*
X581957Y531547D01*
X582403Y532222D01*
X584033Y533851D01*
X585618Y537679D01*
X585618Y541822D01*
X584033Y545649D01*
X583726Y545955D01*
X583292Y546600D01*
X583131Y547392D01*
X583131Y550196D01*
X583280Y550958D01*
X583726Y551633D01*
X634494Y602401D01*
X635139Y602835D01*
X635931Y602996D01*
X725839Y602996D01*
X726601Y602847D01*
X727275Y602401D01*
X729982Y599695D01*
X732196Y598777D01*
X732797Y598393D01*
X733270Y597737D01*
X733450Y596949D01*
X733308Y596152D01*
X732867Y595475D01*
X732196Y595023D01*
X729982Y594105D01*
X727275Y591399D01*
X726631Y590965D01*
X725839Y590804D01*
X646386Y590804D01*
X643959Y589799D01*
X604001Y549841D01*
X602996Y547414D01*
X602996Y473477D01*
X602847Y472715D01*
X602401Y472040D01*
X588410Y458049D01*
X587765Y457615D01*
X586973Y457454D01*
X561190Y457454D01*
X558763Y456449D01*
X526074Y423759D01*
X525429Y423325D01*
X524637Y423164D01*
X522333Y423164D01*
X518505Y421579D01*
X515575Y418649D01*
X513990Y414822D01*
X513990Y410678D01*
X514957Y408343D01*
X515112Y407566D01*
X515112Y365581D01*
X514963Y364819D01*
X514517Y364144D01*
X511871Y361499D01*
X510286Y357672D01*
X510286Y353529D01*
X511871Y349701D01*
X514801Y346771D01*
X518629Y345186D01*
G37*
G36*
X625259Y730250D02*
X628650Y730250D01*
X628650Y733642D01*
X628525Y733590D01*
X625310Y730375D01*
X625259Y730250D01*
G37*
G36*
X641350Y730250D02*
X644742Y730250D01*
X644690Y730375D01*
X641475Y733590D01*
X641350Y733642D01*
X641350Y730250D01*
G37*
G36*
X622644Y677976D02*
X625756Y677976D01*
X628632Y679167D01*
X630833Y681368D01*
X632024Y684244D01*
X632024Y687356D01*
X630833Y690232D01*
X628632Y692433D01*
X626060Y693498D01*
X625401Y693939D01*
X603341Y715999D01*
X600914Y717004D01*
X567765Y717004D01*
X567003Y717153D01*
X566328Y717599D01*
X564699Y719229D01*
X560872Y720814D01*
X556729Y720814D01*
X552901Y719229D01*
X549971Y716299D01*
X548386Y712472D01*
X548386Y708329D01*
X549971Y704501D01*
X552901Y701571D01*
X555905Y700327D01*
X556506Y699943D01*
X556979Y699287D01*
X557159Y698498D01*
X557017Y697702D01*
X556576Y697025D01*
X555905Y696573D01*
X552325Y695090D01*
X549110Y691875D01*
X549059Y691750D01*
X568542Y691750D01*
X568490Y691875D01*
X565275Y695090D01*
X561695Y696573D01*
X561094Y696957D01*
X560621Y697613D01*
X560441Y698401D01*
X560583Y699197D01*
X561025Y699875D01*
X561695Y700327D01*
X564699Y701571D01*
X566328Y703201D01*
X566973Y703635D01*
X567765Y703796D01*
X596023Y703796D01*
X596785Y703647D01*
X597460Y703201D01*
X616061Y684599D01*
X616502Y683940D01*
X617567Y681368D01*
X619768Y679167D01*
X622644Y677976D01*
G37*
G36*
X641350Y717550D02*
X641350Y714159D01*
X641475Y714210D01*
X644690Y717425D01*
X644742Y717550D01*
X641350Y717550D01*
G37*
G36*
X628525Y714210D02*
X628650Y714159D01*
X628650Y717550D01*
X625259Y717550D01*
X625310Y717425D01*
X628525Y714210D01*
G37*
G36*
X570407Y622300D02*
X573798Y622300D01*
X573798Y625692D01*
X573674Y625640D01*
X570458Y622425D01*
X570407Y622300D01*
G37*
G36*
X586498Y622300D02*
X589890Y622300D01*
X589838Y622425D01*
X586623Y625640D01*
X586498Y625692D01*
X586498Y622300D01*
G37*
G36*
X586498Y609600D02*
X586498Y606209D01*
X586623Y606260D01*
X589838Y609475D01*
X589890Y609600D01*
X586498Y609600D01*
G37*
G36*
X573674Y606260D02*
X573798Y606209D01*
X573798Y609600D01*
X570407Y609600D01*
X570458Y609475D01*
X573674Y606260D01*
G37*
G36*
X530754Y546100D02*
X534146Y546100D01*
X534094Y546225D01*
X530879Y549440D01*
X530754Y549492D01*
X530754Y546100D01*
G37*
G36*
X514663Y546100D02*
X518054Y546100D01*
X518054Y549492D01*
X517929Y549440D01*
X514714Y546225D01*
X514663Y546100D01*
G37*
G36*
X517929Y530060D02*
X518054Y530009D01*
X518054Y533400D01*
X514663Y533400D01*
X514714Y533275D01*
X517929Y530060D01*
G37*
G36*
X530754Y533400D02*
X530754Y530009D01*
X530879Y530060D01*
X534094Y533275D01*
X534146Y533400D01*
X530754Y533400D01*
G37*
G36*
X683029Y530060D02*
X683154Y530009D01*
X683154Y533400D01*
X679763Y533400D01*
X679814Y533275D01*
X683029Y530060D01*
G37*
G36*
X695854Y533400D02*
X695854Y530009D01*
X695979Y530060D01*
X699194Y533275D01*
X699246Y533400D01*
X695854Y533400D01*
G37*
G36*
X691350Y488950D02*
X694742Y488950D01*
X694690Y489075D01*
X691475Y492290D01*
X691350Y492342D01*
X691350Y488950D01*
G37*
G36*
X691350Y476250D02*
X691350Y472859D01*
X691475Y472910D01*
X694690Y476125D01*
X694742Y476250D01*
X691350Y476250D01*
G37*
G36*
X1073150Y465854D02*
X1073150Y462463D01*
X1073275Y462514D01*
X1076490Y465729D01*
X1076542Y465854D01*
X1073150Y465854D01*
G37*
G36*
X1060325Y462514D02*
X1060450Y462463D01*
X1060450Y465854D01*
X1057059Y465854D01*
X1057110Y465729D01*
X1060325Y462514D01*
G37*
G36*
X1087628Y425450D02*
X1091019Y425450D01*
X1091019Y428842D01*
X1090895Y428790D01*
X1087679Y425575D01*
X1087628Y425450D01*
G37*
G36*
X565463Y419100D02*
X568854Y419100D01*
X568854Y422492D01*
X568729Y422440D01*
X565514Y419225D01*
X565463Y419100D01*
G37*
G36*
X581554Y419100D02*
X584946Y419100D01*
X584894Y419225D01*
X581679Y422440D01*
X581554Y422492D01*
X581554Y419100D01*
G37*
G36*
X1090895Y409410D02*
X1091019Y409359D01*
X1091019Y412750D01*
X1087628Y412750D01*
X1087679Y412625D01*
X1090895Y409410D01*
G37*
G36*
X568729Y403060D02*
X568854Y403009D01*
X568854Y406400D01*
X565463Y406400D01*
X565514Y406275D01*
X568729Y403060D01*
G37*
G36*
X581554Y406400D02*
X581554Y403009D01*
X581679Y403060D01*
X584894Y406275D01*
X584946Y406400D01*
X581554Y406400D01*
G37*
G36*
X577050Y361950D02*
X580442Y361950D01*
X580390Y362075D01*
X577175Y365290D01*
X577050Y365342D01*
X577050Y361950D01*
G37*
G36*
X691350Y361950D02*
X694742Y361950D01*
X694690Y362075D01*
X691475Y365290D01*
X691350Y365342D01*
X691350Y361950D01*
G37*
G36*
X691350Y349250D02*
X691350Y345859D01*
X691475Y345910D01*
X694690Y349125D01*
X694742Y349250D01*
X691350Y349250D01*
G37*
G36*
X577050Y349250D02*
X577050Y345859D01*
X577175Y345910D01*
X580390Y349125D01*
X580442Y349250D01*
X577050Y349250D01*
G37*
G36*
X584513Y298450D02*
X587904Y298450D01*
X587904Y301842D01*
X587779Y301790D01*
X584564Y298575D01*
X584513Y298450D01*
G37*
G36*
X600604Y298450D02*
X603996Y298450D01*
X603944Y298575D01*
X600729Y301790D01*
X600604Y301842D01*
X600604Y298450D01*
G37*
G36*
X711513Y298450D02*
X714904Y298450D01*
X714904Y301842D01*
X714779Y301790D01*
X711564Y298575D01*
X711513Y298450D01*
G37*
G36*
X727604Y298450D02*
X730996Y298450D01*
X730944Y298575D01*
X727729Y301790D01*
X727604Y301842D01*
X727604Y298450D01*
G37*
G36*
X727604Y285750D02*
X727604Y282359D01*
X727729Y282410D01*
X730944Y285625D01*
X730996Y285750D01*
X727604Y285750D01*
G37*
G36*
X714779Y282410D02*
X714904Y282359D01*
X714904Y285750D01*
X711513Y285750D01*
X711564Y285625D01*
X714779Y282410D01*
G37*
G36*
X600604Y285750D02*
X600604Y282359D01*
X600729Y282410D01*
X603944Y285625D01*
X603996Y285750D01*
X600604Y285750D01*
G37*
G36*
X587779Y282410D02*
X587904Y282359D01*
X587904Y285750D01*
X584513Y285750D01*
X584564Y285625D01*
X587779Y282410D01*
G37*
G36*
X565150Y234950D02*
X568542Y234950D01*
X568490Y235075D01*
X565275Y238290D01*
X565150Y238342D01*
X565150Y234950D01*
G37*
G36*
X565150Y222250D02*
X565150Y218859D01*
X565275Y218910D01*
X568490Y222125D01*
X568542Y222250D01*
X565150Y222250D01*
G37*
%LPD*%
D10*
X624200Y685800D03*
X696600Y685800D03*
X696600Y647700D03*
X624200Y647700D03*
D11*
X546100Y809500D03*
X571500Y809500D03*
X596900Y809500D03*
X622300Y809500D03*
X647700Y809500D03*
X673100Y809500D03*
X698500Y809500D03*
X723900Y809500D03*
X749300Y809500D03*
X774700Y809500D03*
X800100Y809500D03*
X825500Y809500D03*
X850900Y809500D03*
D12*
X558800Y660400D03*
X558800Y685400D03*
X558800Y710400D03*
X524100Y482600D03*
X549100Y482600D03*
X574100Y482600D03*
X520700Y355600D03*
X545700Y355600D03*
X570700Y355600D03*
X635000Y482600D03*
X660000Y482600D03*
X685000Y482600D03*
X635000Y355600D03*
X660000Y355600D03*
X685000Y355600D03*
D11*
X1079500Y736600D03*
D12*
X1333500Y660400D03*
X1333500Y635400D03*
X1333500Y610400D03*
X1333500Y585400D03*
X635000Y228600D03*
X660000Y228600D03*
X685000Y228600D03*
X558800Y228600D03*
X533800Y228600D03*
X645054Y292100D03*
X594254Y292100D03*
X670454Y292100D03*
X721254Y292100D03*
X1046569Y419100D03*
X1097369Y419100D03*
X580148Y615950D03*
X529348Y615950D03*
X685800Y723900D03*
X635000Y723900D03*
X575204Y539750D03*
X524404Y539750D03*
X524404Y412750D03*
X575204Y412750D03*
X638704Y539750D03*
X689504Y539750D03*
X1079500Y635000D03*
X1079500Y610000D03*
D13*
X1143000Y685800D03*
X1143000Y660400D03*
X1143000Y635000D03*
X1143000Y609600D03*
X1143000Y584200D03*
X1143000Y558800D03*
X1143000Y533400D03*
X1143000Y508000D03*
X1143000Y482600D03*
X1143000Y457200D03*
D12*
X1066800Y547204D03*
X1066800Y522204D03*
X1066800Y497204D03*
X1066800Y472204D03*
D14*
X1054100Y325120D03*
X1054100Y299720D03*
X1054100Y274320D03*
X1054100Y248920D03*
D11*
X1346200Y406400D03*
D14*
X736600Y685800D03*
X736600Y660400D03*
X736600Y635000D03*
X736600Y609600D03*
X736600Y584200D03*
X736600Y558800D03*
X736600Y533400D03*
X736600Y508000D03*
X736600Y482600D03*
X736600Y457200D03*
X736600Y431800D03*
X736600Y406400D03*
X736600Y381000D03*
X736600Y355600D03*
X736600Y330200D03*
X990600Y330200D03*
X990600Y355600D03*
X990600Y381000D03*
X990600Y406400D03*
X990600Y431800D03*
X990600Y457200D03*
X990600Y482600D03*
X990600Y508000D03*
X990600Y533400D03*
X990600Y558800D03*
X990600Y584200D03*
X990600Y609600D03*
X990600Y635000D03*
X990600Y660400D03*
X990600Y685800D03*
D15*
X575204Y483704D02*
X574100Y482600D01*
D16*
X632354Y609600D02*
X736600Y609600D01*
X632354Y609600D02*
X576527Y553773D01*
X575204Y552450D01*
X575204Y539750D02*
X575204Y483704D01*
X576527Y541073D02*
X576527Y553773D01*
X576527Y541073D02*
X575204Y539750D01*
X635000Y536046D02*
X638704Y539750D01*
X635000Y536046D02*
X635000Y482600D01*
X638704Y539750D02*
X657754Y558800D01*
X736600Y558800D01*
X711200Y472546D02*
X635000Y396346D01*
X711200Y472546D02*
X711200Y520700D01*
X723900Y533400D02*
X736600Y533400D01*
X723900Y533400D02*
X711200Y520700D01*
X635000Y396346D02*
X635000Y355600D01*
D15*
X524404Y412750D02*
X520700Y409046D01*
X520700Y355600D01*
D16*
X647700Y584200D02*
X736600Y584200D01*
X647700Y584200D02*
X609600Y546100D01*
X609600Y469900D01*
X590550Y450850D01*
X562504Y450850D01*
X524404Y412750D01*
X990600Y660400D02*
X1003300Y660400D01*
X1028700Y635000D01*
X1079500Y635000D01*
X1143000Y635000D01*
X1295400Y635000D01*
X1320800Y660400D01*
X1333500Y660400D01*
D15*
X1143000Y609600D02*
X1142600Y610000D01*
D16*
X1003300Y584200D02*
X990600Y584200D01*
X1003300Y584200D02*
X1029100Y610000D01*
X1079500Y610000D01*
X1142600Y610000D01*
X1143000Y609600D02*
X1295400Y609600D01*
X1320800Y584200D01*
X1332300Y584200D01*
X1333500Y585400D01*
X696600Y713100D02*
X685800Y723900D01*
X696600Y713100D02*
X696600Y685800D01*
X696600Y647700D01*
X709300Y635000D01*
X736600Y635000D01*
X990600Y533400D02*
X1030204Y533400D01*
X1041400Y522204D02*
X1066800Y522204D01*
X1041400Y522204D02*
X1030204Y533400D01*
X1017904Y508000D02*
X990600Y508000D01*
X1028700Y497204D02*
X1066800Y497204D01*
X1028700Y497204D02*
X1017904Y508000D01*
X606300Y787400D02*
X596900Y796800D01*
X596900Y809500D01*
X606300Y787400D02*
X812800Y787400D01*
X965200Y635000D01*
X990600Y635000D01*
X990600Y609600D02*
X952500Y609600D01*
X788416Y773684D01*
X571500Y787400D02*
X571500Y809500D01*
X585216Y773684D02*
X788416Y773684D01*
X585216Y773684D02*
X571500Y787400D01*
X558800Y710400D02*
X599600Y710400D01*
X624200Y685800D01*
X1028700Y685800D02*
X1079500Y736600D01*
X1028700Y685800D02*
X990600Y685800D01*
D15*
X533400Y229000D02*
X533800Y228600D01*
X1344676Y406400D02*
X1346200Y406400D01*
D16*
X533800Y228600D02*
X520700Y228600D01*
X472440Y276860D01*
X472440Y559042D01*
X529348Y615950D01*
X533800Y228600D02*
X533400Y228200D01*
X533400Y215900D01*
X568960Y180340D01*
X1120140Y180340D01*
X1346200Y406400D01*
X558800Y645402D02*
X558800Y660400D01*
X558800Y645402D02*
X529348Y615950D01*
X708554Y330200D02*
X736600Y330200D01*
X708554Y330200D02*
X670454Y292100D01*
X670454Y251754D01*
X660000Y241300D01*
X660000Y228600D01*
X736600Y330200D02*
X749300Y330200D01*
X787400Y368300D01*
X787400Y711200D01*
X749300Y749300D01*
X546100Y749300D01*
X520700Y774700D01*
X520700Y812800D01*
X540260Y832360D01*
X844040Y832360D01*
X850900Y825500D01*
X850900Y809500D01*
D15*
X634200Y229400D02*
X635000Y228600D01*
D16*
X635000Y215900D01*
X647700Y203200D01*
X1092200Y203200D01*
X1117600Y228600D01*
X1117600Y419100D01*
X1117600Y520700D01*
X1091096Y547204D01*
X1066800Y547204D01*
X1333500Y635400D02*
X1333900Y635000D01*
X1358900Y635000D01*
X1358900Y558800D01*
X1219200Y419100D01*
X1117600Y419100D01*
X1358900Y635000D02*
X1358900Y711200D01*
X1260600Y809500D01*
X1143000Y809500D01*
X1143000Y685800D01*
X660000Y355600D02*
X660000Y332446D01*
X645054Y317500D01*
X645054Y292100D01*
X645054Y276754D01*
X635000Y266700D01*
X635000Y228600D01*
X644654Y317100D02*
X645054Y317500D01*
X644654Y317100D02*
X596900Y317100D01*
X660000Y469500D02*
X660000Y482600D01*
X660000Y469500D02*
X596900Y406400D01*
X596900Y317100D01*
X546100Y355200D02*
X545700Y355600D01*
X546100Y355200D02*
X546100Y317500D01*
X546500Y317100D01*
X596900Y317100D01*
X546100Y317500D02*
X520700Y317500D01*
X496824Y341376D01*
X496824Y455324D01*
X524100Y482600D01*
D15*
X1054100Y325120D02*
X1054608Y325628D01*
D16*
X1079500Y228600D02*
X685000Y228600D01*
X1079500Y228600D02*
X1092200Y241300D01*
X1092200Y317500D01*
X1084580Y325120D01*
X1054100Y325120D01*
X1054100Y411569D02*
X1046569Y419100D01*
X1054100Y411569D02*
X1054100Y325120D01*
X1049020Y330200D02*
X990600Y330200D01*
X1049020Y330200D02*
X1054100Y325120D01*
X1054100Y274320D02*
X970280Y274320D01*
X939800Y304800D01*
X939800Y457200D01*
X965200Y482600D01*
X990600Y482600D01*
X982980Y299720D02*
X1054100Y299720D01*
X982980Y299720D02*
X965200Y317500D01*
X965200Y444500D01*
X977900Y457200D01*
X990600Y457200D01*
M02*
