G04 EAGLE Gerber RS-274X export*
G75*
%MOMM*%
%FSLAX34Y34*%
%LPD*%
%INSilkscreen Top*%
%IPPOS*%
%AMOC8*
5,1,8,0,0,1.08239X$1,22.5*%
G01*
G04 Define Apertures*
%ADD10C,0.127000*%
%ADD11C,0.152400*%
G36*
X652080Y702300D02*
X650407Y702300D01*
X650407Y714641D01*
X656214Y714641D01*
X656720Y714626D01*
X657197Y714582D01*
X657644Y714510D01*
X658061Y714408D01*
X658448Y714276D01*
X658806Y714116D01*
X659134Y713927D01*
X659433Y713708D01*
X659698Y713463D01*
X659929Y713196D01*
X660124Y712906D01*
X660283Y712592D01*
X660407Y712256D01*
X660496Y711897D01*
X660549Y711516D01*
X660567Y711111D01*
X660554Y710774D01*
X660517Y710451D01*
X660454Y710141D01*
X660366Y709845D01*
X660254Y709563D01*
X660116Y709295D01*
X659953Y709040D01*
X659765Y708799D01*
X659555Y708575D01*
X659327Y708374D01*
X659079Y708193D01*
X658968Y708127D01*
X658812Y708035D01*
X658526Y707898D01*
X658221Y707782D01*
X657897Y707689D01*
X657554Y707616D01*
X659045Y705353D01*
X661057Y702300D01*
X659130Y702300D01*
X655925Y707424D01*
X652080Y707424D01*
X652080Y702300D01*
G37*
%LPC*%
G36*
X656117Y708746D02*
X656439Y708756D01*
X656741Y708785D01*
X657025Y708833D01*
X657290Y708901D01*
X657536Y708987D01*
X657764Y709094D01*
X657973Y709219D01*
X658163Y709364D01*
X658332Y709526D01*
X658479Y709703D01*
X658603Y709896D01*
X658704Y710105D01*
X658784Y710329D01*
X658840Y710568D01*
X658874Y710823D01*
X658885Y711094D01*
X658874Y711355D01*
X658839Y711600D01*
X658782Y711830D01*
X658702Y712043D01*
X658599Y712240D01*
X658474Y712421D01*
X658325Y712587D01*
X658154Y712736D01*
X657961Y712868D01*
X657748Y712983D01*
X657515Y713080D01*
X657261Y713160D01*
X656988Y713221D01*
X656695Y713265D01*
X656381Y713292D01*
X656047Y713301D01*
X652080Y713301D01*
X652080Y708746D01*
X656117Y708746D01*
G37*
%LPD*%
G36*
X670973Y702300D02*
X663239Y702300D01*
X663239Y703640D01*
X666384Y703640D01*
X666384Y713134D01*
X663598Y711146D01*
X663598Y712635D01*
X666515Y714641D01*
X667969Y714641D01*
X667969Y703640D01*
X670973Y703640D01*
X670973Y702300D01*
G37*
G36*
X652080Y618500D02*
X650407Y618500D01*
X650407Y630841D01*
X656214Y630841D01*
X656720Y630826D01*
X657197Y630782D01*
X657644Y630710D01*
X658061Y630608D01*
X658448Y630476D01*
X658806Y630316D01*
X659134Y630127D01*
X659433Y629908D01*
X659698Y629663D01*
X659929Y629396D01*
X660124Y629106D01*
X660283Y628792D01*
X660407Y628456D01*
X660496Y628097D01*
X660549Y627716D01*
X660567Y627311D01*
X660554Y626974D01*
X660517Y626651D01*
X660454Y626341D01*
X660366Y626045D01*
X660254Y625763D01*
X660116Y625495D01*
X659953Y625240D01*
X659765Y624999D01*
X659555Y624775D01*
X659327Y624574D01*
X659079Y624393D01*
X658968Y624327D01*
X658812Y624235D01*
X658526Y624098D01*
X658221Y623982D01*
X657897Y623889D01*
X657554Y623816D01*
X659045Y621553D01*
X661057Y618500D01*
X659130Y618500D01*
X655925Y623624D01*
X652080Y623624D01*
X652080Y618500D01*
G37*
%LPC*%
G36*
X656117Y624946D02*
X656439Y624956D01*
X656741Y624985D01*
X657025Y625033D01*
X657290Y625101D01*
X657536Y625187D01*
X657764Y625294D01*
X657973Y625419D01*
X658163Y625564D01*
X658332Y625726D01*
X658479Y625903D01*
X658603Y626096D01*
X658704Y626305D01*
X658784Y626529D01*
X658840Y626768D01*
X658874Y627023D01*
X658885Y627294D01*
X658874Y627555D01*
X658839Y627800D01*
X658782Y628030D01*
X658702Y628243D01*
X658599Y628440D01*
X658474Y628621D01*
X658325Y628787D01*
X658154Y628936D01*
X657961Y629068D01*
X657748Y629183D01*
X657515Y629280D01*
X657261Y629360D01*
X656988Y629421D01*
X656695Y629465D01*
X656381Y629492D01*
X656047Y629501D01*
X652080Y629501D01*
X652080Y624946D01*
X656117Y624946D01*
G37*
%LPD*%
G36*
X670947Y618500D02*
X662775Y618500D01*
X662775Y619612D01*
X663011Y620110D01*
X663271Y620577D01*
X663556Y621014D01*
X663865Y621421D01*
X664191Y621804D01*
X664526Y622168D01*
X664868Y622513D01*
X665219Y622840D01*
X665925Y623452D01*
X666624Y624018D01*
X667287Y624561D01*
X667881Y625104D01*
X668148Y625379D01*
X668388Y625660D01*
X668601Y625948D01*
X668788Y626243D01*
X668939Y626550D01*
X669047Y626878D01*
X669112Y627225D01*
X669134Y627591D01*
X669124Y627838D01*
X669097Y628071D01*
X669050Y628289D01*
X668985Y628493D01*
X668901Y628683D01*
X668799Y628859D01*
X668678Y629021D01*
X668538Y629168D01*
X668382Y629299D01*
X668211Y629413D01*
X668026Y629509D01*
X667827Y629588D01*
X667612Y629650D01*
X667384Y629693D01*
X667140Y629720D01*
X666883Y629728D01*
X666637Y629720D01*
X666401Y629694D01*
X666177Y629651D01*
X665964Y629592D01*
X665762Y629515D01*
X665571Y629421D01*
X665392Y629309D01*
X665223Y629181D01*
X665068Y629037D01*
X664930Y628880D01*
X664809Y628708D01*
X664705Y628523D01*
X664618Y628324D01*
X664547Y628111D01*
X664494Y627884D01*
X664457Y627644D01*
X662845Y627793D01*
X662903Y628153D01*
X662989Y628495D01*
X663104Y628818D01*
X663247Y629122D01*
X663418Y629407D01*
X663618Y629673D01*
X663846Y629920D01*
X664102Y630149D01*
X664382Y630354D01*
X664681Y630532D01*
X665000Y630683D01*
X665338Y630806D01*
X665695Y630902D01*
X666072Y630970D01*
X666468Y631011D01*
X666883Y631025D01*
X667336Y631011D01*
X667762Y630970D01*
X668161Y630901D01*
X668533Y630805D01*
X668878Y630681D01*
X669196Y630530D01*
X669487Y630351D01*
X669751Y630144D01*
X669986Y629913D01*
X670190Y629658D01*
X670362Y629380D01*
X670503Y629079D01*
X670613Y628755D01*
X670691Y628408D01*
X670738Y628037D01*
X670754Y627644D01*
X670734Y627285D01*
X670672Y626928D01*
X670569Y626572D01*
X670426Y626216D01*
X670241Y625862D01*
X670017Y625507D01*
X669753Y625152D01*
X669449Y624797D01*
X669051Y624394D01*
X668505Y623893D01*
X667812Y623295D01*
X666970Y622599D01*
X666492Y622197D01*
X666066Y621816D01*
X665691Y621455D01*
X665368Y621114D01*
X665091Y620787D01*
X664855Y620465D01*
X664661Y620150D01*
X664509Y619840D01*
X670947Y619840D01*
X670947Y618500D01*
G37*
G36*
X549570Y827613D02*
X549103Y827625D01*
X548652Y827661D01*
X548218Y827721D01*
X547799Y827806D01*
X547398Y827914D01*
X547012Y828046D01*
X546643Y828203D01*
X546290Y828384D01*
X545955Y828587D01*
X545641Y828812D01*
X545347Y829058D01*
X545073Y829326D01*
X544820Y829616D01*
X544588Y829926D01*
X544375Y830259D01*
X544183Y830613D01*
X544013Y830985D01*
X543865Y831372D01*
X543740Y831775D01*
X543638Y832192D01*
X543559Y832625D01*
X543502Y833074D01*
X543468Y833537D01*
X543456Y834015D01*
X543463Y834380D01*
X543482Y834735D01*
X543513Y835080D01*
X543558Y835415D01*
X543615Y835739D01*
X543684Y836054D01*
X543766Y836358D01*
X543861Y836653D01*
X543969Y836937D01*
X544089Y837211D01*
X544222Y837475D01*
X544368Y837729D01*
X544697Y838207D01*
X545077Y838644D01*
X545502Y839035D01*
X545729Y839211D01*
X545966Y839374D01*
X546213Y839524D01*
X546470Y839661D01*
X546738Y839785D01*
X547014Y839896D01*
X547301Y839993D01*
X547598Y840078D01*
X547905Y840150D01*
X548222Y840208D01*
X548548Y840254D01*
X548885Y840287D01*
X549231Y840306D01*
X549587Y840313D01*
X550050Y840301D01*
X550498Y840266D01*
X550929Y840207D01*
X551346Y840126D01*
X551746Y840020D01*
X552131Y839891D01*
X552500Y839739D01*
X552854Y839564D01*
X553190Y839366D01*
X553505Y839147D01*
X553800Y838907D01*
X554075Y838645D01*
X554329Y838363D01*
X554563Y838059D01*
X554776Y837734D01*
X554969Y837387D01*
X555141Y837022D01*
X555289Y836641D01*
X555415Y836244D01*
X555518Y835831D01*
X555598Y835401D01*
X555655Y834955D01*
X555689Y834493D01*
X555701Y834015D01*
X555689Y833539D01*
X555655Y833078D01*
X555597Y832631D01*
X555516Y832200D01*
X555412Y831784D01*
X555284Y831383D01*
X555134Y830997D01*
X554961Y830626D01*
X554766Y830273D01*
X554550Y829941D01*
X554315Y829630D01*
X554060Y829340D01*
X553784Y829072D01*
X553488Y828824D01*
X553173Y828598D01*
X552837Y828392D01*
X552483Y828210D01*
X552114Y828051D01*
X551729Y827917D01*
X551328Y827808D01*
X550912Y827722D01*
X550480Y827662D01*
X550033Y827625D01*
X549570Y827613D01*
G37*
%LPC*%
G36*
X549570Y828970D02*
X550089Y828991D01*
X550576Y829053D01*
X551033Y829156D01*
X551458Y829300D01*
X551853Y829485D01*
X552216Y829712D01*
X552549Y829980D01*
X552850Y830289D01*
X553118Y830635D01*
X553350Y831016D01*
X553546Y831431D01*
X553707Y831879D01*
X553832Y832362D01*
X553921Y832879D01*
X553975Y833430D01*
X553993Y834015D01*
X553975Y834576D01*
X553921Y835105D01*
X553831Y835604D01*
X553705Y836071D01*
X553543Y836508D01*
X553345Y836914D01*
X553111Y837289D01*
X552841Y837633D01*
X552538Y837941D01*
X552206Y838207D01*
X551844Y838433D01*
X551452Y838618D01*
X551030Y838762D01*
X550579Y838864D01*
X550098Y838926D01*
X549587Y838946D01*
X549072Y838926D01*
X548588Y838865D01*
X548133Y838764D01*
X547709Y838622D01*
X547314Y838440D01*
X546950Y838217D01*
X546616Y837954D01*
X546312Y837650D01*
X546041Y837310D01*
X545806Y836937D01*
X545607Y836531D01*
X545445Y836093D01*
X545318Y835623D01*
X545228Y835119D01*
X545174Y834584D01*
X545155Y834015D01*
X545174Y833450D01*
X545229Y832915D01*
X545320Y832409D01*
X545448Y831934D01*
X545612Y831489D01*
X545813Y831073D01*
X546051Y830688D01*
X546325Y830332D01*
X546631Y830013D01*
X546966Y829737D01*
X547329Y829502D01*
X547721Y829311D01*
X548140Y829162D01*
X548589Y829056D01*
X549065Y828992D01*
X549570Y828970D01*
G37*
%LPD*%
G36*
X559689Y827788D02*
X558016Y827788D01*
X558016Y840129D01*
X563823Y840129D01*
X564329Y840114D01*
X564805Y840070D01*
X565252Y839998D01*
X565670Y839896D01*
X566057Y839764D01*
X566415Y839604D01*
X566743Y839415D01*
X567041Y839196D01*
X567307Y838951D01*
X567538Y838684D01*
X567733Y838394D01*
X567892Y838080D01*
X568016Y837744D01*
X568105Y837385D01*
X568158Y837004D01*
X568176Y836599D01*
X568163Y836262D01*
X568126Y835939D01*
X568063Y835629D01*
X567975Y835333D01*
X567863Y835051D01*
X567725Y834783D01*
X567562Y834528D01*
X567374Y834287D01*
X567164Y834063D01*
X566935Y833862D01*
X566688Y833681D01*
X566577Y833615D01*
X566421Y833523D01*
X566135Y833386D01*
X565830Y833270D01*
X565506Y833177D01*
X565163Y833104D01*
X566654Y830841D01*
X568666Y827788D01*
X566739Y827788D01*
X563534Y832912D01*
X559689Y832912D01*
X559689Y827788D01*
G37*
%LPC*%
G36*
X563726Y834234D02*
X564048Y834244D01*
X564350Y834273D01*
X564634Y834321D01*
X564899Y834389D01*
X565145Y834475D01*
X565373Y834582D01*
X565581Y834707D01*
X565771Y834852D01*
X565941Y835014D01*
X566088Y835191D01*
X566212Y835384D01*
X566313Y835593D01*
X566392Y835817D01*
X566449Y836056D01*
X566483Y836311D01*
X566494Y836582D01*
X566483Y836843D01*
X566448Y837088D01*
X566391Y837318D01*
X566311Y837531D01*
X566208Y837728D01*
X566083Y837909D01*
X565934Y838075D01*
X565763Y838224D01*
X565570Y838356D01*
X565357Y838471D01*
X565124Y838568D01*
X564870Y838648D01*
X564597Y838709D01*
X564303Y838753D01*
X563990Y838780D01*
X563656Y838789D01*
X559689Y838789D01*
X559689Y834234D01*
X563726Y834234D01*
G37*
%LPD*%
G36*
X571282Y827788D02*
X569548Y827788D01*
X574584Y840129D01*
X576485Y840129D01*
X581442Y827788D01*
X579734Y827788D01*
X578324Y831397D01*
X572701Y831397D01*
X571282Y827788D01*
G37*
%LPC*%
G36*
X577825Y832702D02*
X576240Y836774D01*
X575994Y837418D01*
X575749Y838141D01*
X575513Y838868D01*
X575434Y838622D01*
X575162Y837792D01*
X574786Y836757D01*
X573209Y832702D01*
X577825Y832702D01*
G37*
%LPD*%
G36*
X542018Y827788D02*
X534109Y827788D01*
X534109Y840129D01*
X535782Y840129D01*
X535782Y829154D01*
X542018Y829154D01*
X542018Y827788D01*
G37*
G36*
X596996Y675072D02*
X596429Y675092D01*
X595894Y675152D01*
X595391Y675252D01*
X594919Y675391D01*
X594480Y675571D01*
X594072Y675790D01*
X593696Y676049D01*
X593351Y676348D01*
X593043Y676683D01*
X592776Y677049D01*
X592551Y677446D01*
X592366Y677874D01*
X592222Y678334D01*
X592119Y678825D01*
X592058Y679347D01*
X592037Y679900D01*
X592047Y680265D01*
X592074Y680617D01*
X592120Y680957D01*
X592185Y681285D01*
X592268Y681600D01*
X592369Y681903D01*
X592489Y682194D01*
X592627Y682473D01*
X592783Y682737D01*
X592955Y682985D01*
X593144Y683218D01*
X593350Y683434D01*
X593573Y683634D01*
X593812Y683818D01*
X594068Y683986D01*
X594341Y684138D01*
X594628Y684273D01*
X594928Y684390D01*
X595241Y684489D01*
X595567Y684570D01*
X595905Y684633D01*
X596256Y684678D01*
X596620Y684705D01*
X596996Y684714D01*
X597371Y684705D01*
X597735Y684678D01*
X598086Y684632D01*
X598426Y684569D01*
X598753Y684487D01*
X599069Y684386D01*
X599373Y684268D01*
X599665Y684131D01*
X599943Y683978D01*
X600205Y683808D01*
X600449Y683623D01*
X600678Y683422D01*
X600889Y683205D01*
X601084Y682972D01*
X601262Y682723D01*
X601424Y682459D01*
X601568Y682180D01*
X601693Y681890D01*
X601798Y681586D01*
X601885Y681271D01*
X601952Y680943D01*
X602000Y680603D01*
X602028Y680251D01*
X602038Y679886D01*
X602028Y679519D01*
X602000Y679164D01*
X601953Y678822D01*
X601886Y678492D01*
X601801Y678176D01*
X601697Y677872D01*
X601573Y677581D01*
X601431Y677303D01*
X601271Y677040D01*
X601094Y676792D01*
X600900Y676561D01*
X600689Y676346D01*
X600461Y676146D01*
X600216Y675963D01*
X599954Y675796D01*
X599676Y675645D01*
X599383Y675511D01*
X599078Y675394D01*
X598761Y675296D01*
X598432Y675215D01*
X598091Y675153D01*
X597738Y675108D01*
X597373Y675081D01*
X596996Y675072D01*
G37*
%LPC*%
G36*
X596996Y676410D02*
X597441Y676425D01*
X597863Y676468D01*
X598261Y676540D01*
X598635Y676640D01*
X598986Y676770D01*
X599313Y676928D01*
X599617Y677115D01*
X599896Y677331D01*
X600148Y677572D01*
X600366Y677836D01*
X600550Y678122D01*
X600701Y678430D01*
X600818Y678761D01*
X600902Y679114D01*
X600952Y679489D01*
X600969Y679886D01*
X600953Y680295D01*
X600904Y680679D01*
X600823Y681038D01*
X600709Y681374D01*
X600563Y681684D01*
X600385Y681970D01*
X600174Y682232D01*
X599931Y682469D01*
X599658Y682680D01*
X599358Y682863D01*
X599032Y683018D01*
X598678Y683144D01*
X598298Y683243D01*
X597891Y683313D01*
X597457Y683355D01*
X596996Y683369D01*
X596555Y683355D01*
X596138Y683313D01*
X595745Y683242D01*
X595377Y683143D01*
X595033Y683015D01*
X594714Y682859D01*
X594419Y682675D01*
X594148Y682462D01*
X593905Y682224D01*
X593695Y681962D01*
X593517Y681677D01*
X593372Y681368D01*
X593259Y681036D01*
X593178Y680681D01*
X593129Y680302D01*
X593113Y679900D01*
X593129Y679495D01*
X593177Y679113D01*
X593257Y678755D01*
X593368Y678421D01*
X593512Y678110D01*
X593687Y677823D01*
X593895Y677560D01*
X594134Y677321D01*
X594402Y677107D01*
X594696Y676922D01*
X595015Y676766D01*
X595360Y676638D01*
X595731Y676538D01*
X596127Y676467D01*
X596549Y676425D01*
X596996Y676410D01*
G37*
%LPD*%
G36*
X596996Y726072D02*
X596429Y726092D01*
X595894Y726152D01*
X595391Y726252D01*
X594919Y726391D01*
X594480Y726571D01*
X594072Y726790D01*
X593696Y727049D01*
X593351Y727348D01*
X593043Y727683D01*
X592776Y728049D01*
X592551Y728446D01*
X592366Y728874D01*
X592222Y729334D01*
X592119Y729825D01*
X592058Y730347D01*
X592037Y730900D01*
X592047Y731265D01*
X592074Y731617D01*
X592120Y731957D01*
X592185Y732285D01*
X592268Y732600D01*
X592369Y732903D01*
X592489Y733194D01*
X592627Y733473D01*
X592783Y733737D01*
X592955Y733985D01*
X593144Y734218D01*
X593350Y734434D01*
X593573Y734634D01*
X593812Y734818D01*
X594068Y734986D01*
X594341Y735138D01*
X594628Y735273D01*
X594928Y735390D01*
X595241Y735489D01*
X595567Y735570D01*
X595905Y735633D01*
X596256Y735678D01*
X596620Y735705D01*
X596996Y735714D01*
X597371Y735705D01*
X597735Y735678D01*
X598086Y735632D01*
X598426Y735569D01*
X598753Y735487D01*
X599069Y735386D01*
X599373Y735268D01*
X599665Y735131D01*
X599943Y734978D01*
X600205Y734808D01*
X600449Y734623D01*
X600678Y734422D01*
X600889Y734205D01*
X601084Y733972D01*
X601262Y733723D01*
X601424Y733459D01*
X601568Y733180D01*
X601693Y732890D01*
X601798Y732586D01*
X601885Y732271D01*
X601952Y731943D01*
X602000Y731603D01*
X602028Y731251D01*
X602038Y730886D01*
X602028Y730519D01*
X602000Y730164D01*
X601953Y729822D01*
X601886Y729492D01*
X601801Y729176D01*
X601697Y728872D01*
X601573Y728581D01*
X601431Y728303D01*
X601271Y728040D01*
X601094Y727792D01*
X600900Y727561D01*
X600689Y727346D01*
X600461Y727146D01*
X600216Y726963D01*
X599954Y726796D01*
X599676Y726645D01*
X599383Y726511D01*
X599078Y726394D01*
X598761Y726296D01*
X598432Y726215D01*
X598091Y726153D01*
X597738Y726108D01*
X597373Y726081D01*
X596996Y726072D01*
G37*
%LPC*%
G36*
X596996Y727410D02*
X597441Y727425D01*
X597863Y727468D01*
X598261Y727540D01*
X598635Y727640D01*
X598986Y727770D01*
X599313Y727928D01*
X599617Y728115D01*
X599896Y728331D01*
X600148Y728572D01*
X600366Y728836D01*
X600550Y729122D01*
X600701Y729430D01*
X600818Y729761D01*
X600902Y730114D01*
X600952Y730489D01*
X600969Y730886D01*
X600953Y731295D01*
X600904Y731679D01*
X600823Y732038D01*
X600709Y732374D01*
X600563Y732684D01*
X600385Y732970D01*
X600174Y733232D01*
X599931Y733469D01*
X599658Y733680D01*
X599358Y733863D01*
X599032Y734018D01*
X598678Y734144D01*
X598298Y734243D01*
X597891Y734313D01*
X597457Y734355D01*
X596996Y734369D01*
X596555Y734355D01*
X596138Y734313D01*
X595745Y734242D01*
X595377Y734143D01*
X595033Y734015D01*
X594714Y733859D01*
X594419Y733675D01*
X594148Y733462D01*
X593905Y733224D01*
X593695Y732962D01*
X593517Y732677D01*
X593372Y732368D01*
X593259Y732036D01*
X593178Y731681D01*
X593129Y731302D01*
X593113Y730900D01*
X593129Y730495D01*
X593177Y730113D01*
X593257Y729755D01*
X593368Y729421D01*
X593512Y729110D01*
X593687Y728823D01*
X593895Y728560D01*
X594134Y728321D01*
X594402Y728107D01*
X594696Y727922D01*
X595015Y727766D01*
X595360Y727638D01*
X595731Y727538D01*
X596127Y727467D01*
X596549Y727425D01*
X596996Y727410D01*
G37*
%LPD*%
G36*
X601900Y716374D02*
X592182Y716374D01*
X592182Y720947D01*
X592194Y721346D01*
X592228Y721721D01*
X592285Y722073D01*
X592366Y722402D01*
X592469Y722707D01*
X592595Y722988D01*
X592745Y723247D01*
X592917Y723482D01*
X593109Y723691D01*
X593320Y723873D01*
X593549Y724026D01*
X593795Y724152D01*
X594060Y724249D01*
X594342Y724319D01*
X594643Y724361D01*
X594962Y724375D01*
X595227Y724365D01*
X595482Y724336D01*
X595725Y724286D01*
X595958Y724217D01*
X596181Y724128D01*
X596392Y724020D01*
X596593Y723892D01*
X596782Y723744D01*
X596958Y723579D01*
X597117Y723398D01*
X597259Y723203D01*
X597311Y723116D01*
X597384Y722993D01*
X597492Y722768D01*
X597583Y722528D01*
X597657Y722273D01*
X597714Y722002D01*
X599496Y723177D01*
X601900Y724761D01*
X601900Y723244D01*
X597865Y720720D01*
X597865Y717692D01*
X601900Y717692D01*
X601900Y716374D01*
G37*
%LPC*%
G36*
X596824Y717692D02*
X596824Y720871D01*
X596816Y721124D01*
X596793Y721362D01*
X596755Y721586D01*
X596702Y721795D01*
X596634Y721989D01*
X596550Y722168D01*
X596452Y722332D01*
X596338Y722482D01*
X596210Y722615D01*
X596070Y722731D01*
X595918Y722828D01*
X595754Y722908D01*
X595578Y722971D01*
X595389Y723015D01*
X595188Y723042D01*
X594975Y723051D01*
X594770Y723042D01*
X594577Y723015D01*
X594396Y722970D01*
X594228Y722907D01*
X594073Y722826D01*
X593930Y722727D01*
X593800Y722610D01*
X593682Y722475D01*
X593578Y722323D01*
X593488Y722155D01*
X593411Y721972D01*
X593349Y721772D01*
X593300Y721557D01*
X593265Y721326D01*
X593244Y721079D01*
X593237Y720816D01*
X593237Y717692D01*
X596824Y717692D01*
G37*
%LPD*%
G36*
X601900Y686562D02*
X592182Y686562D01*
X592182Y688293D01*
X598921Y690879D01*
X599793Y691145D01*
X600465Y691314D01*
X600118Y691399D01*
X599627Y691545D01*
X598921Y691783D01*
X592182Y694321D01*
X592182Y696011D01*
X601900Y696011D01*
X601900Y694825D01*
X595417Y694825D01*
X594362Y694840D01*
X593348Y694887D01*
X594448Y694566D01*
X595279Y694280D01*
X601900Y691769D01*
X601900Y690845D01*
X595279Y688300D01*
X594106Y687914D01*
X593348Y687686D01*
X594113Y687707D01*
X595417Y687734D01*
X601900Y687734D01*
X601900Y686562D01*
G37*
G36*
X601900Y635212D02*
X592182Y639178D01*
X592182Y640675D01*
X601900Y644578D01*
X601900Y643233D01*
X599058Y642123D01*
X599058Y637695D01*
X601900Y636578D01*
X601900Y635212D01*
G37*
%LPC*%
G36*
X598031Y638095D02*
X598031Y641730D01*
X594824Y640481D01*
X594317Y640288D01*
X593748Y640095D01*
X593175Y639909D01*
X593368Y639847D01*
X594022Y639633D01*
X594838Y639337D01*
X598031Y638095D01*
G37*
%LPD*%
G36*
X601900Y645749D02*
X592182Y645749D01*
X592182Y647281D01*
X600514Y652536D01*
X599348Y652474D01*
X598555Y652453D01*
X592182Y652453D01*
X592182Y653640D01*
X601900Y653640D01*
X601900Y652053D01*
X593624Y646853D01*
X594293Y646887D01*
X595444Y646922D01*
X601900Y646922D01*
X601900Y645749D01*
G37*
G36*
X601900Y665374D02*
X592182Y665374D01*
X592182Y666906D01*
X600514Y672161D01*
X599348Y672099D01*
X598555Y672078D01*
X592182Y672078D01*
X592182Y673265D01*
X601900Y673265D01*
X601900Y671678D01*
X593624Y666478D01*
X594293Y666512D01*
X595444Y666547D01*
X601900Y666547D01*
X601900Y665374D01*
G37*
G36*
X601900Y655937D02*
X592182Y655937D01*
X592182Y663310D01*
X593258Y663310D01*
X593258Y657254D01*
X596376Y657254D01*
X596376Y662896D01*
X597438Y662896D01*
X597438Y657254D01*
X600824Y657254D01*
X600824Y663593D01*
X601900Y663593D01*
X601900Y655937D01*
G37*
G36*
X601900Y698312D02*
X592182Y698312D01*
X592182Y705685D01*
X593258Y705685D01*
X593258Y699629D01*
X596376Y699629D01*
X596376Y705271D01*
X597438Y705271D01*
X597438Y699629D01*
X600824Y699629D01*
X600824Y705968D01*
X601900Y705968D01*
X601900Y698312D01*
G37*
G36*
X593258Y706908D02*
X592182Y706908D01*
X592182Y714895D01*
X593258Y714895D01*
X593258Y711557D01*
X601900Y711557D01*
X601900Y710246D01*
X593258Y710246D01*
X593258Y706908D01*
G37*
G36*
X512204Y439362D02*
X511836Y439372D01*
X511481Y439400D01*
X511139Y439447D01*
X510810Y439514D01*
X510493Y439599D01*
X510189Y439703D01*
X509899Y439827D01*
X509621Y439969D01*
X509357Y440129D01*
X509110Y440306D01*
X508878Y440500D01*
X508663Y440711D01*
X508464Y440939D01*
X508280Y441184D01*
X508113Y441446D01*
X507962Y441724D01*
X507828Y442017D01*
X507711Y442322D01*
X507613Y442639D01*
X507533Y442968D01*
X507470Y443309D01*
X507425Y443662D01*
X507398Y444027D01*
X507389Y444404D01*
X507409Y444971D01*
X507469Y445506D01*
X507569Y446009D01*
X507708Y446481D01*
X507888Y446920D01*
X508107Y447328D01*
X508366Y447704D01*
X508665Y448049D01*
X509000Y448357D01*
X509366Y448624D01*
X509763Y448849D01*
X510191Y449034D01*
X510651Y449178D01*
X511142Y449281D01*
X511664Y449342D01*
X512217Y449363D01*
X512582Y449353D01*
X512934Y449326D01*
X513274Y449280D01*
X513602Y449215D01*
X513917Y449132D01*
X514220Y449031D01*
X514511Y448911D01*
X514790Y448773D01*
X515054Y448617D01*
X515303Y448445D01*
X515535Y448256D01*
X515751Y448050D01*
X515951Y447827D01*
X516135Y447588D01*
X516304Y447332D01*
X516456Y447059D01*
X516591Y446772D01*
X516708Y446472D01*
X516806Y446159D01*
X516887Y445833D01*
X516950Y445495D01*
X516995Y445144D01*
X517022Y444780D01*
X517031Y444404D01*
X517022Y444029D01*
X516995Y443665D01*
X516949Y443314D01*
X516886Y442974D01*
X516804Y442647D01*
X516704Y442331D01*
X516585Y442027D01*
X516449Y441735D01*
X516295Y441457D01*
X516126Y441195D01*
X515940Y440951D01*
X515739Y440722D01*
X515522Y440511D01*
X515289Y440316D01*
X515041Y440138D01*
X514776Y439976D01*
X514498Y439832D01*
X514207Y439707D01*
X513904Y439602D01*
X513588Y439516D01*
X513260Y439448D01*
X512920Y439400D01*
X512568Y439372D01*
X512204Y439362D01*
G37*
%LPC*%
G36*
X512204Y440431D02*
X512612Y440447D01*
X512996Y440496D01*
X513356Y440577D01*
X513691Y440691D01*
X514001Y440837D01*
X514288Y441015D01*
X514549Y441226D01*
X514786Y441469D01*
X514997Y441742D01*
X515180Y442042D01*
X515335Y442368D01*
X515462Y442722D01*
X515560Y443102D01*
X515630Y443509D01*
X515672Y443943D01*
X515687Y444404D01*
X515672Y444845D01*
X515630Y445262D01*
X515559Y445655D01*
X515460Y446023D01*
X515332Y446367D01*
X515176Y446686D01*
X514992Y446981D01*
X514780Y447252D01*
X514541Y447495D01*
X514279Y447705D01*
X513994Y447883D01*
X513686Y448028D01*
X513354Y448141D01*
X512998Y448222D01*
X512619Y448271D01*
X512217Y448287D01*
X511812Y448271D01*
X511430Y448223D01*
X511072Y448143D01*
X510738Y448032D01*
X510427Y447888D01*
X510141Y447713D01*
X509877Y447505D01*
X509638Y447266D01*
X509425Y446998D01*
X509240Y446704D01*
X509083Y446385D01*
X508955Y446040D01*
X508856Y445669D01*
X508784Y445273D01*
X508742Y444851D01*
X508727Y444404D01*
X508742Y443959D01*
X508785Y443537D01*
X508857Y443139D01*
X508958Y442765D01*
X509087Y442414D01*
X509245Y442087D01*
X509432Y441783D01*
X509648Y441504D01*
X509890Y441252D01*
X510153Y441034D01*
X510439Y440850D01*
X510747Y440699D01*
X511078Y440582D01*
X511431Y440498D01*
X511806Y440448D01*
X512204Y440431D01*
G37*
%LPD*%
G36*
X532701Y439500D02*
X529067Y439500D01*
X529067Y449218D01*
X532281Y449218D01*
X532880Y449198D01*
X533445Y449140D01*
X533974Y449044D01*
X534468Y448908D01*
X534927Y448734D01*
X535350Y448521D01*
X535738Y448270D01*
X536091Y447980D01*
X536406Y447654D01*
X536678Y447296D01*
X536909Y446904D01*
X537097Y446481D01*
X537244Y446024D01*
X537349Y445535D01*
X537412Y445013D01*
X537433Y444459D01*
X537424Y444089D01*
X537396Y443731D01*
X537350Y443384D01*
X537286Y443049D01*
X537204Y442726D01*
X537103Y442415D01*
X536984Y442116D01*
X536846Y441828D01*
X536692Y441554D01*
X536523Y441297D01*
X536338Y441056D01*
X536138Y440832D01*
X535922Y440624D01*
X535692Y440433D01*
X535446Y440258D01*
X535184Y440100D01*
X534910Y439959D01*
X534626Y439838D01*
X534331Y439734D01*
X534026Y439650D01*
X533710Y439584D01*
X533384Y439538D01*
X533048Y439509D01*
X532701Y439500D01*
G37*
%LPC*%
G36*
X532550Y440555D02*
X532813Y440563D01*
X533068Y440585D01*
X533315Y440621D01*
X533554Y440672D01*
X533785Y440738D01*
X534008Y440819D01*
X534222Y440914D01*
X534429Y441024D01*
X534626Y441148D01*
X534811Y441285D01*
X534984Y441434D01*
X535145Y441597D01*
X535295Y441772D01*
X535433Y441960D01*
X535559Y442162D01*
X535674Y442376D01*
X535776Y442602D01*
X535864Y442837D01*
X535939Y443083D01*
X536000Y443338D01*
X536047Y443603D01*
X536081Y443879D01*
X536102Y444164D01*
X536108Y444459D01*
X536093Y444897D01*
X536047Y445309D01*
X535969Y445693D01*
X535861Y446051D01*
X535722Y446382D01*
X535552Y446686D01*
X535351Y446964D01*
X535119Y447214D01*
X534857Y447437D01*
X534569Y447629D01*
X534252Y447792D01*
X533907Y447926D01*
X533535Y448029D01*
X533136Y448103D01*
X532708Y448148D01*
X532253Y448163D01*
X530384Y448163D01*
X530384Y440555D01*
X532550Y440555D01*
G37*
%LPD*%
G36*
X520020Y439500D02*
X518848Y439500D01*
X518848Y449218D01*
X520379Y449218D01*
X525635Y440886D01*
X525572Y442052D01*
X525552Y442845D01*
X525552Y449218D01*
X526738Y449218D01*
X526738Y439500D01*
X525152Y439500D01*
X519951Y447776D01*
X519986Y447107D01*
X520020Y445956D01*
X520020Y439500D01*
G37*
G36*
X543137Y439362D02*
X542844Y439369D01*
X542560Y439389D01*
X542285Y439423D01*
X542020Y439471D01*
X541764Y439532D01*
X541518Y439606D01*
X541281Y439695D01*
X541054Y439797D01*
X540838Y439911D01*
X540634Y440038D01*
X540443Y440178D01*
X540265Y440329D01*
X540098Y440493D01*
X539945Y440669D01*
X539804Y440858D01*
X539675Y441059D01*
X539560Y441271D01*
X539461Y441492D01*
X539376Y441724D01*
X539308Y441966D01*
X539254Y442217D01*
X539216Y442479D01*
X539193Y442750D01*
X539185Y443031D01*
X539185Y449218D01*
X540503Y449218D01*
X540503Y443142D01*
X540513Y442819D01*
X540545Y442516D01*
X540598Y442233D01*
X540671Y441971D01*
X540767Y441728D01*
X540883Y441506D01*
X541020Y441303D01*
X541178Y441121D01*
X541357Y440959D01*
X541554Y440819D01*
X541770Y440701D01*
X542004Y440604D01*
X542258Y440528D01*
X542530Y440474D01*
X542821Y440442D01*
X543130Y440431D01*
X543449Y440442D01*
X543749Y440476D01*
X544031Y440531D01*
X544295Y440610D01*
X544541Y440710D01*
X544768Y440833D01*
X544977Y440978D01*
X545168Y441145D01*
X545339Y441334D01*
X545487Y441543D01*
X545612Y441773D01*
X545714Y442023D01*
X545794Y442295D01*
X545850Y442586D01*
X545885Y442898D01*
X545896Y443231D01*
X545896Y449218D01*
X547206Y449218D01*
X547206Y443155D01*
X547199Y442866D01*
X547175Y442586D01*
X547136Y442316D01*
X547081Y442057D01*
X547011Y441808D01*
X546925Y441569D01*
X546824Y441340D01*
X546706Y441121D01*
X546575Y440913D01*
X546430Y440718D01*
X546273Y440536D01*
X546103Y440366D01*
X545920Y440209D01*
X545724Y440065D01*
X545514Y439933D01*
X545292Y439814D01*
X545059Y439708D01*
X544815Y439616D01*
X544561Y439539D01*
X544297Y439475D01*
X544022Y439426D01*
X543737Y439390D01*
X543442Y439369D01*
X543137Y439362D01*
G37*
G36*
X501988Y439362D02*
X501627Y439372D01*
X501279Y439400D01*
X500942Y439448D01*
X500619Y439515D01*
X500307Y439600D01*
X500008Y439705D01*
X499721Y439829D01*
X499447Y439972D01*
X499187Y440133D01*
X498943Y440310D01*
X498714Y440504D01*
X498502Y440714D01*
X498306Y440940D01*
X498125Y441183D01*
X497961Y441442D01*
X497812Y441717D01*
X497681Y442008D01*
X497566Y442311D01*
X497470Y442627D01*
X497391Y442956D01*
X497329Y443299D01*
X497285Y443654D01*
X497259Y444022D01*
X497250Y444404D01*
X497270Y444969D01*
X497329Y445503D01*
X497427Y446005D01*
X497564Y446476D01*
X497741Y446916D01*
X497956Y447324D01*
X498211Y447700D01*
X498506Y448045D01*
X498834Y448354D01*
X499193Y448622D01*
X499583Y448848D01*
X500002Y449033D01*
X500452Y449177D01*
X500932Y449280D01*
X501441Y449342D01*
X501982Y449363D01*
X502362Y449353D01*
X502726Y449325D01*
X503074Y449277D01*
X503406Y449211D01*
X503722Y449126D01*
X504022Y449021D01*
X504307Y448898D01*
X504575Y448756D01*
X504827Y448595D01*
X505061Y448416D01*
X505278Y448218D01*
X505478Y448002D01*
X505661Y447768D01*
X505827Y447516D01*
X505975Y447245D01*
X506106Y446956D01*
X504858Y446542D01*
X504767Y446748D01*
X504663Y446941D01*
X504546Y447122D01*
X504417Y447290D01*
X504275Y447446D01*
X504120Y447589D01*
X503952Y447720D01*
X503771Y447838D01*
X503580Y447944D01*
X503380Y448035D01*
X503171Y448112D01*
X502953Y448175D01*
X502727Y448224D01*
X502492Y448259D01*
X502248Y448280D01*
X501995Y448287D01*
X501603Y448271D01*
X501233Y448222D01*
X500886Y448141D01*
X500561Y448027D01*
X500258Y447881D01*
X499978Y447703D01*
X499720Y447492D01*
X499485Y447249D01*
X499275Y446977D01*
X499093Y446682D01*
X498939Y446362D01*
X498812Y446019D01*
X498714Y445651D01*
X498644Y445259D01*
X498602Y444843D01*
X498588Y444404D01*
X498603Y443968D01*
X498647Y443554D01*
X498720Y443162D01*
X498822Y442792D01*
X498953Y442444D01*
X499114Y442118D01*
X499304Y441814D01*
X499523Y441531D01*
X499767Y441277D01*
X500031Y441056D01*
X500316Y440869D01*
X500622Y440716D01*
X500948Y440598D01*
X501295Y440513D01*
X501663Y440462D01*
X502051Y440445D01*
X502302Y440453D01*
X502545Y440476D01*
X502780Y440516D01*
X503008Y440571D01*
X503227Y440642D01*
X503439Y440729D01*
X503643Y440832D01*
X503839Y440950D01*
X504026Y441084D01*
X504206Y441234D01*
X504378Y441400D01*
X504543Y441582D01*
X504847Y441992D01*
X505120Y442466D01*
X506196Y441928D01*
X506038Y441623D01*
X505865Y441338D01*
X505677Y441071D01*
X505474Y440822D01*
X505256Y440593D01*
X505022Y440382D01*
X504773Y440190D01*
X504509Y440017D01*
X504232Y439864D01*
X503944Y439731D01*
X503646Y439618D01*
X503336Y439526D01*
X503015Y439454D01*
X502684Y439403D01*
X502342Y439372D01*
X501988Y439362D01*
G37*
G36*
X553770Y439362D02*
X553409Y439372D01*
X553060Y439400D01*
X552724Y439448D01*
X552400Y439515D01*
X552088Y439600D01*
X551789Y439705D01*
X551503Y439829D01*
X551228Y439972D01*
X550968Y440133D01*
X550724Y440310D01*
X550496Y440504D01*
X550283Y440714D01*
X550087Y440940D01*
X549907Y441183D01*
X549742Y441442D01*
X549594Y441717D01*
X549462Y442008D01*
X549348Y442311D01*
X549251Y442627D01*
X549172Y442956D01*
X549111Y443299D01*
X549067Y443654D01*
X549040Y444022D01*
X549032Y444404D01*
X549051Y444969D01*
X549110Y445503D01*
X549208Y446005D01*
X549345Y446476D01*
X549522Y446916D01*
X549738Y447324D01*
X549993Y447700D01*
X550287Y448045D01*
X550616Y448354D01*
X550975Y448622D01*
X551364Y448848D01*
X551783Y449033D01*
X552233Y449177D01*
X552713Y449280D01*
X553223Y449342D01*
X553763Y449363D01*
X554143Y449353D01*
X554507Y449325D01*
X554855Y449277D01*
X555187Y449211D01*
X555503Y449126D01*
X555803Y449021D01*
X556088Y448898D01*
X556356Y448756D01*
X556608Y448595D01*
X556842Y448416D01*
X557060Y448218D01*
X557260Y448002D01*
X557442Y447768D01*
X557608Y447516D01*
X557756Y447245D01*
X557887Y446956D01*
X556639Y446542D01*
X556548Y446748D01*
X556444Y446941D01*
X556328Y447122D01*
X556198Y447290D01*
X556056Y447446D01*
X555901Y447589D01*
X555733Y447720D01*
X555553Y447838D01*
X555361Y447944D01*
X555161Y448035D01*
X554952Y448112D01*
X554734Y448175D01*
X554508Y448224D01*
X554273Y448259D01*
X554029Y448280D01*
X553777Y448287D01*
X553384Y448271D01*
X553015Y448222D01*
X552667Y448141D01*
X552342Y448027D01*
X552039Y447881D01*
X551759Y447703D01*
X551501Y447492D01*
X551266Y447249D01*
X551056Y446977D01*
X550874Y446682D01*
X550720Y446362D01*
X550594Y446019D01*
X550496Y445651D01*
X550426Y445259D01*
X550384Y444843D01*
X550370Y444404D01*
X550384Y443968D01*
X550428Y443554D01*
X550501Y443162D01*
X550603Y442792D01*
X550735Y442444D01*
X550895Y442118D01*
X551085Y441814D01*
X551304Y441531D01*
X551548Y441277D01*
X551812Y441056D01*
X552098Y440869D01*
X552403Y440716D01*
X552730Y440598D01*
X553076Y440513D01*
X553444Y440462D01*
X553832Y440445D01*
X554083Y440453D01*
X554326Y440476D01*
X554562Y440516D01*
X554789Y440571D01*
X555009Y440642D01*
X555220Y440729D01*
X555424Y440832D01*
X555620Y440950D01*
X555808Y441084D01*
X555988Y441234D01*
X556160Y441400D01*
X556324Y441582D01*
X556628Y441992D01*
X556901Y442466D01*
X557977Y441928D01*
X557819Y441623D01*
X557646Y441338D01*
X557458Y441071D01*
X557255Y440822D01*
X557037Y440593D01*
X556803Y440382D01*
X556555Y440190D01*
X556291Y440017D01*
X556014Y439864D01*
X555726Y439731D01*
X555427Y439618D01*
X555117Y439526D01*
X554797Y439454D01*
X554465Y439403D01*
X554123Y439372D01*
X553770Y439362D01*
G37*
G36*
X576458Y439500D02*
X575092Y439500D01*
X571126Y449218D01*
X572513Y449218D01*
X575202Y442376D01*
X575782Y440659D01*
X576361Y442376D01*
X579037Y449218D01*
X580423Y449218D01*
X576458Y439500D01*
G37*
G36*
X598392Y439500D02*
X597081Y439500D01*
X597081Y443528D01*
X593343Y449218D01*
X594792Y449218D01*
X597750Y444590D01*
X600696Y449218D01*
X602144Y449218D01*
X598392Y443528D01*
X598392Y439500D01*
G37*
G36*
X563468Y439500D02*
X562157Y439500D01*
X562157Y448142D01*
X558819Y448142D01*
X558819Y449218D01*
X566806Y449218D01*
X566806Y448142D01*
X563468Y448142D01*
X563468Y439500D01*
G37*
G36*
X589374Y439500D02*
X588063Y439500D01*
X588063Y448142D01*
X584725Y448142D01*
X584725Y449218D01*
X592712Y449218D01*
X592712Y448142D01*
X589374Y448142D01*
X589374Y439500D01*
G37*
G36*
X569748Y439500D02*
X568430Y439500D01*
X568430Y449218D01*
X569748Y449218D01*
X569748Y439500D01*
G37*
G36*
X583091Y439500D02*
X581774Y439500D01*
X581774Y449218D01*
X583091Y449218D01*
X583091Y439500D01*
G37*
G36*
X532437Y312362D02*
X532069Y312372D01*
X531714Y312400D01*
X531372Y312447D01*
X531042Y312514D01*
X530726Y312599D01*
X530422Y312703D01*
X530132Y312827D01*
X529854Y312969D01*
X529590Y313129D01*
X529343Y313306D01*
X529111Y313500D01*
X528896Y313711D01*
X528696Y313939D01*
X528513Y314184D01*
X528346Y314446D01*
X528195Y314724D01*
X528061Y315017D01*
X527944Y315322D01*
X527846Y315639D01*
X527766Y315968D01*
X527703Y316309D01*
X527658Y316662D01*
X527631Y317027D01*
X527622Y317404D01*
X527642Y317971D01*
X527702Y318506D01*
X527802Y319009D01*
X527941Y319481D01*
X528121Y319920D01*
X528340Y320328D01*
X528599Y320704D01*
X528898Y321049D01*
X529233Y321357D01*
X529599Y321624D01*
X529996Y321849D01*
X530424Y322034D01*
X530884Y322178D01*
X531375Y322281D01*
X531897Y322342D01*
X532450Y322363D01*
X532815Y322353D01*
X533167Y322326D01*
X533507Y322280D01*
X533835Y322215D01*
X534150Y322132D01*
X534453Y322031D01*
X534744Y321911D01*
X535023Y321773D01*
X535287Y321617D01*
X535536Y321445D01*
X535768Y321256D01*
X535984Y321050D01*
X536184Y320827D01*
X536368Y320588D01*
X536537Y320332D01*
X536689Y320059D01*
X536823Y319772D01*
X536940Y319472D01*
X537039Y319159D01*
X537120Y318833D01*
X537183Y318495D01*
X537228Y318144D01*
X537255Y317780D01*
X537264Y317404D01*
X537255Y317029D01*
X537228Y316665D01*
X537182Y316314D01*
X537119Y315974D01*
X537037Y315647D01*
X536937Y315331D01*
X536818Y315027D01*
X536682Y314735D01*
X536528Y314457D01*
X536359Y314195D01*
X536173Y313951D01*
X535972Y313722D01*
X535755Y313511D01*
X535522Y313316D01*
X535274Y313138D01*
X535009Y312976D01*
X534731Y312832D01*
X534440Y312707D01*
X534137Y312602D01*
X533821Y312516D01*
X533493Y312448D01*
X533153Y312400D01*
X532801Y312372D01*
X532437Y312362D01*
G37*
%LPC*%
G36*
X532437Y313431D02*
X532845Y313447D01*
X533229Y313496D01*
X533589Y313577D01*
X533924Y313691D01*
X534234Y313837D01*
X534520Y314015D01*
X534782Y314226D01*
X535019Y314469D01*
X535230Y314742D01*
X535413Y315042D01*
X535568Y315368D01*
X535694Y315722D01*
X535793Y316102D01*
X535863Y316509D01*
X535905Y316943D01*
X535920Y317404D01*
X535905Y317845D01*
X535863Y318262D01*
X535792Y318655D01*
X535693Y319023D01*
X535565Y319367D01*
X535409Y319686D01*
X535225Y319981D01*
X535013Y320252D01*
X534774Y320495D01*
X534512Y320705D01*
X534227Y320883D01*
X533919Y321028D01*
X533587Y321141D01*
X533231Y321222D01*
X532852Y321271D01*
X532450Y321287D01*
X532045Y321271D01*
X531663Y321223D01*
X531305Y321143D01*
X530971Y321032D01*
X530660Y320888D01*
X530373Y320713D01*
X530110Y320505D01*
X529871Y320266D01*
X529657Y319998D01*
X529473Y319704D01*
X529316Y319385D01*
X529188Y319040D01*
X529088Y318669D01*
X529017Y318273D01*
X528975Y317851D01*
X528960Y317404D01*
X528975Y316959D01*
X529018Y316537D01*
X529090Y316139D01*
X529191Y315765D01*
X529320Y315414D01*
X529478Y315087D01*
X529665Y314783D01*
X529881Y314504D01*
X530123Y314252D01*
X530386Y314034D01*
X530672Y313850D01*
X530980Y313699D01*
X531311Y313582D01*
X531664Y313498D01*
X532039Y313448D01*
X532437Y313431D01*
G37*
%LPD*%
G36*
X500372Y312500D02*
X496737Y312500D01*
X496737Y322218D01*
X499951Y322218D01*
X500551Y322198D01*
X501115Y322140D01*
X501644Y322044D01*
X502138Y321908D01*
X502597Y321734D01*
X503020Y321521D01*
X503409Y321270D01*
X503762Y320980D01*
X504076Y320654D01*
X504349Y320296D01*
X504579Y319904D01*
X504768Y319481D01*
X504915Y319024D01*
X505019Y318535D01*
X505082Y318013D01*
X505103Y317459D01*
X505094Y317089D01*
X505067Y316731D01*
X505021Y316384D01*
X504957Y316049D01*
X504874Y315726D01*
X504773Y315415D01*
X504654Y315116D01*
X504517Y314828D01*
X504363Y314554D01*
X504193Y314297D01*
X504008Y314056D01*
X503808Y313832D01*
X503593Y313624D01*
X503362Y313433D01*
X503116Y313258D01*
X502855Y313100D01*
X502581Y312959D01*
X502296Y312838D01*
X502001Y312734D01*
X501696Y312650D01*
X501381Y312584D01*
X501055Y312538D01*
X500718Y312509D01*
X500372Y312500D01*
G37*
%LPC*%
G36*
X500220Y313555D02*
X500483Y313563D01*
X500738Y313585D01*
X500986Y313621D01*
X501224Y313672D01*
X501455Y313738D01*
X501678Y313819D01*
X501893Y313914D01*
X502100Y314024D01*
X502296Y314148D01*
X502481Y314285D01*
X502654Y314434D01*
X502816Y314597D01*
X502966Y314772D01*
X503104Y314960D01*
X503230Y315162D01*
X503344Y315376D01*
X503446Y315602D01*
X503535Y315837D01*
X503609Y316083D01*
X503670Y316338D01*
X503718Y316603D01*
X503752Y316879D01*
X503772Y317164D01*
X503779Y317459D01*
X503763Y317897D01*
X503717Y318309D01*
X503640Y318693D01*
X503532Y319051D01*
X503392Y319382D01*
X503222Y319686D01*
X503021Y319964D01*
X502789Y320214D01*
X502528Y320437D01*
X502239Y320629D01*
X501922Y320792D01*
X501578Y320926D01*
X501206Y321029D01*
X500806Y321103D01*
X500379Y321148D01*
X499924Y321163D01*
X498054Y321163D01*
X498054Y313555D01*
X500220Y313555D01*
G37*
%LPD*%
G36*
X514431Y312362D02*
X513999Y312372D01*
X513590Y312401D01*
X513204Y312449D01*
X512842Y312516D01*
X512503Y312603D01*
X512187Y312709D01*
X511895Y312835D01*
X511626Y312979D01*
X511380Y313143D01*
X511158Y313327D01*
X510959Y313529D01*
X510783Y313751D01*
X510631Y313992D01*
X510502Y314252D01*
X510396Y314532D01*
X510314Y314831D01*
X511590Y315086D01*
X511652Y314875D01*
X511731Y314678D01*
X511825Y314495D01*
X511934Y314327D01*
X512059Y314173D01*
X512200Y314034D01*
X512356Y313910D01*
X512528Y313800D01*
X512715Y313704D01*
X512919Y313621D01*
X513138Y313550D01*
X513374Y313492D01*
X513626Y313447D01*
X513894Y313415D01*
X514179Y313396D01*
X514479Y313390D01*
X514789Y313397D01*
X515081Y313417D01*
X515354Y313451D01*
X515610Y313499D01*
X515847Y313561D01*
X516065Y313636D01*
X516266Y313725D01*
X516448Y313828D01*
X516611Y313944D01*
X516752Y314072D01*
X516871Y314214D01*
X516968Y314368D01*
X517044Y314535D01*
X517098Y314715D01*
X517131Y314908D01*
X517142Y315114D01*
X517128Y315341D01*
X517087Y315545D01*
X517019Y315727D01*
X516924Y315886D01*
X516805Y316028D01*
X516663Y316157D01*
X516500Y316273D01*
X516314Y316376D01*
X515883Y316554D01*
X515376Y316700D01*
X514169Y316983D01*
X513628Y317111D01*
X513156Y317238D01*
X512754Y317366D01*
X512421Y317493D01*
X512138Y317625D01*
X511887Y317763D01*
X511667Y317909D01*
X511479Y318062D01*
X511317Y318226D01*
X511175Y318403D01*
X511053Y318593D01*
X510952Y318797D01*
X510872Y319015D01*
X510814Y319249D01*
X510780Y319498D01*
X510769Y319763D01*
X510784Y320066D01*
X510829Y320351D01*
X510903Y320618D01*
X511008Y320868D01*
X511142Y321099D01*
X511306Y321313D01*
X511500Y321509D01*
X511724Y321687D01*
X511976Y321845D01*
X512253Y321982D01*
X512556Y322099D01*
X512885Y322194D01*
X513240Y322268D01*
X513620Y322320D01*
X514027Y322352D01*
X514459Y322363D01*
X514860Y322355D01*
X515238Y322331D01*
X515591Y322291D01*
X515919Y322236D01*
X516223Y322165D01*
X516503Y322078D01*
X516759Y321975D01*
X516990Y321856D01*
X517201Y321718D01*
X517395Y321558D01*
X517573Y321375D01*
X517735Y321170D01*
X517880Y320943D01*
X518009Y320694D01*
X518121Y320422D01*
X518218Y320128D01*
X516921Y319900D01*
X516861Y320087D01*
X516790Y320260D01*
X516706Y320420D01*
X516611Y320567D01*
X516503Y320700D01*
X516383Y320821D01*
X516251Y320928D01*
X516107Y321021D01*
X515950Y321103D01*
X515778Y321174D01*
X515392Y321282D01*
X514947Y321348D01*
X514445Y321370D01*
X514162Y321363D01*
X513897Y321345D01*
X513648Y321315D01*
X513417Y321273D01*
X513203Y321219D01*
X513007Y321152D01*
X512828Y321074D01*
X512665Y320983D01*
X512522Y320881D01*
X512397Y320766D01*
X512291Y320640D01*
X512205Y320502D01*
X512138Y320352D01*
X512090Y320191D01*
X512061Y320017D01*
X512052Y319831D01*
X512067Y319617D01*
X512111Y319422D01*
X512185Y319246D01*
X512290Y319090D01*
X512422Y318949D01*
X512580Y318819D01*
X512765Y318701D01*
X512976Y318593D01*
X513256Y318486D01*
X513647Y318367D01*
X514149Y318236D01*
X514762Y318093D01*
X515655Y317883D01*
X516091Y317766D01*
X516507Y317628D01*
X516901Y317467D01*
X517269Y317280D01*
X517601Y317057D01*
X517886Y316790D01*
X518010Y316639D01*
X518120Y316474D01*
X518216Y316297D01*
X518297Y316107D01*
X518362Y315902D01*
X518408Y315680D01*
X518436Y315440D01*
X518445Y315183D01*
X518429Y314856D01*
X518379Y314548D01*
X518297Y314260D01*
X518182Y313990D01*
X518034Y313739D01*
X517854Y313507D01*
X517640Y313294D01*
X517393Y313100D01*
X517117Y312927D01*
X516814Y312777D01*
X516484Y312650D01*
X516127Y312547D01*
X515743Y312466D01*
X515333Y312408D01*
X514895Y312374D01*
X514431Y312362D01*
G37*
G36*
X545099Y312500D02*
X538664Y312500D01*
X538664Y313376D01*
X538849Y313768D01*
X539054Y314135D01*
X539279Y314480D01*
X539522Y314800D01*
X540042Y315388D01*
X540588Y315917D01*
X541144Y316399D01*
X541695Y316845D01*
X542217Y317273D01*
X542685Y317700D01*
X542895Y317917D01*
X543084Y318138D01*
X543252Y318365D01*
X543399Y318597D01*
X543518Y318839D01*
X543603Y319097D01*
X543654Y319370D01*
X543671Y319659D01*
X543664Y319853D01*
X543642Y320037D01*
X543605Y320209D01*
X543554Y320369D01*
X543488Y320519D01*
X543407Y320657D01*
X543312Y320785D01*
X543202Y320901D01*
X543079Y321004D01*
X542945Y321094D01*
X542799Y321169D01*
X542642Y321232D01*
X542473Y321280D01*
X542293Y321314D01*
X542101Y321335D01*
X541899Y321342D01*
X541705Y321335D01*
X541519Y321315D01*
X541343Y321281D01*
X541175Y321234D01*
X541016Y321174D01*
X540866Y321099D01*
X540592Y320911D01*
X540470Y320798D01*
X540361Y320674D01*
X540266Y320539D01*
X540184Y320393D01*
X540115Y320236D01*
X540059Y320068D01*
X540017Y319890D01*
X539988Y319700D01*
X538719Y319818D01*
X538765Y320102D01*
X538833Y320371D01*
X538923Y320625D01*
X539035Y320864D01*
X539170Y321089D01*
X539327Y321298D01*
X539507Y321493D01*
X539709Y321673D01*
X539929Y321835D01*
X540165Y321975D01*
X540416Y322093D01*
X540682Y322190D01*
X540963Y322266D01*
X541260Y322320D01*
X541572Y322352D01*
X541899Y322363D01*
X542255Y322352D01*
X542591Y322319D01*
X542905Y322265D01*
X543198Y322189D01*
X543469Y322092D01*
X543720Y321973D01*
X543949Y321832D01*
X544157Y321670D01*
X544342Y321487D01*
X544503Y321287D01*
X544638Y321068D01*
X544750Y320831D01*
X544836Y320575D01*
X544898Y320302D01*
X544935Y320010D01*
X544947Y319700D01*
X544931Y319418D01*
X544882Y319137D01*
X544801Y318856D01*
X544688Y318576D01*
X544543Y318297D01*
X544367Y318018D01*
X544159Y317738D01*
X543919Y317459D01*
X543606Y317141D01*
X543176Y316747D01*
X541967Y315728D01*
X541255Y315111D01*
X540960Y314827D01*
X540705Y314559D01*
X540487Y314301D01*
X540302Y314048D01*
X540149Y313799D01*
X540029Y313555D01*
X545099Y313555D01*
X545099Y312500D01*
G37*
G36*
X508387Y312500D02*
X507069Y312500D01*
X507069Y322218D01*
X508387Y322218D01*
X508387Y312500D01*
G37*
G36*
X527124Y309693D02*
X518896Y309693D01*
X518896Y310590D01*
X527124Y310590D01*
X527124Y309693D01*
G37*
G36*
X614965Y439500D02*
X613648Y439500D01*
X613648Y449218D01*
X617738Y449218D01*
X618135Y449206D01*
X618509Y449170D01*
X618860Y449110D01*
X619188Y449026D01*
X619493Y448919D01*
X619775Y448787D01*
X620034Y448632D01*
X620269Y448452D01*
X620479Y448251D01*
X620662Y448030D01*
X620816Y447790D01*
X620942Y447530D01*
X621040Y447250D01*
X621110Y446951D01*
X621152Y446632D01*
X621166Y446294D01*
X621152Y445958D01*
X621110Y445639D01*
X621039Y445339D01*
X620941Y445056D01*
X620814Y444790D01*
X620660Y444543D01*
X620477Y444313D01*
X620266Y444100D01*
X620031Y443910D01*
X619775Y443744D01*
X619500Y443604D01*
X619205Y443490D01*
X618889Y443401D01*
X618553Y443337D01*
X618197Y443299D01*
X617821Y443286D01*
X614965Y443286D01*
X614965Y439500D01*
G37*
%LPC*%
G36*
X617635Y444328D02*
X617902Y444336D01*
X618152Y444358D01*
X618385Y444397D01*
X618600Y444450D01*
X618798Y444518D01*
X618980Y444602D01*
X619143Y444701D01*
X619290Y444816D01*
X619419Y444945D01*
X619531Y445090D01*
X619626Y445250D01*
X619704Y445426D01*
X619764Y445616D01*
X619807Y445822D01*
X619833Y446043D01*
X619842Y446280D01*
X619833Y446508D01*
X619806Y446721D01*
X619762Y446920D01*
X619700Y447103D01*
X619621Y447273D01*
X619524Y447427D01*
X619409Y447567D01*
X619276Y447692D01*
X619126Y447802D01*
X618958Y447898D01*
X618772Y447979D01*
X618569Y448045D01*
X618348Y448096D01*
X618110Y448133D01*
X617853Y448155D01*
X617579Y448163D01*
X614965Y448163D01*
X614965Y444328D01*
X617635Y444328D01*
G37*
%LPD*%
G36*
X624372Y439500D02*
X623054Y439500D01*
X623054Y449218D01*
X624372Y449218D01*
X624372Y445107D01*
X629627Y445107D01*
X629627Y449218D01*
X630945Y449218D01*
X630945Y439500D01*
X629627Y439500D01*
X629627Y444004D01*
X624372Y444004D01*
X624372Y439500D01*
G37*
G36*
X622952Y312500D02*
X621641Y312500D01*
X621641Y321142D01*
X618303Y321142D01*
X618303Y322218D01*
X626290Y322218D01*
X626290Y321142D01*
X622952Y321142D01*
X622952Y312500D01*
G37*
G36*
X1083686Y754888D02*
X1081689Y754888D01*
X1078054Y767229D01*
X1079797Y767229D01*
X1082013Y759390D01*
X1082392Y757897D01*
X1082740Y756359D01*
X1083226Y758461D01*
X1083482Y759436D01*
X1083972Y761223D01*
X1085657Y767229D01*
X1087260Y767229D01*
X1089405Y759548D01*
X1089843Y757809D01*
X1090176Y756359D01*
X1090255Y756666D01*
X1090640Y758308D01*
X1091330Y760856D01*
X1093102Y767229D01*
X1094844Y767229D01*
X1091210Y754888D01*
X1089213Y754888D01*
X1087076Y762727D01*
X1086817Y763754D01*
X1086463Y765363D01*
X1086077Y763664D01*
X1085401Y761128D01*
X1083686Y754888D01*
G37*
G36*
X1126964Y754888D02*
X1125291Y754888D01*
X1125291Y767229D01*
X1126964Y767229D01*
X1126964Y762009D01*
X1133638Y762009D01*
X1133638Y767229D01*
X1135310Y767229D01*
X1135310Y754888D01*
X1133638Y754888D01*
X1133638Y760607D01*
X1126964Y760607D01*
X1126964Y754888D01*
G37*
G36*
X1072081Y754713D02*
X1071532Y754725D01*
X1071013Y754762D01*
X1070523Y754823D01*
X1070063Y754909D01*
X1069633Y755019D01*
X1069232Y755154D01*
X1068860Y755313D01*
X1068519Y755497D01*
X1068207Y755705D01*
X1067925Y755938D01*
X1067672Y756195D01*
X1067449Y756477D01*
X1067255Y756783D01*
X1067091Y757113D01*
X1066957Y757469D01*
X1066853Y757848D01*
X1068473Y758172D01*
X1068553Y757904D01*
X1068652Y757653D01*
X1068772Y757421D01*
X1068911Y757208D01*
X1069070Y757013D01*
X1069248Y756837D01*
X1069446Y756679D01*
X1069664Y756539D01*
X1069902Y756417D01*
X1070161Y756311D01*
X1070440Y756221D01*
X1070739Y756148D01*
X1071059Y756091D01*
X1071400Y756050D01*
X1071761Y756026D01*
X1072143Y756018D01*
X1072536Y756027D01*
X1072907Y756053D01*
X1073254Y756096D01*
X1073578Y756157D01*
X1073879Y756235D01*
X1074157Y756331D01*
X1074412Y756444D01*
X1074643Y756574D01*
X1074850Y756721D01*
X1075028Y756885D01*
X1075180Y757064D01*
X1075303Y757260D01*
X1075400Y757473D01*
X1075468Y757701D01*
X1075510Y757946D01*
X1075524Y758207D01*
X1075506Y758495D01*
X1075455Y758755D01*
X1075368Y758986D01*
X1075248Y759188D01*
X1075096Y759369D01*
X1074916Y759532D01*
X1074708Y759679D01*
X1074472Y759810D01*
X1074211Y759928D01*
X1073925Y760036D01*
X1073615Y760134D01*
X1073281Y760222D01*
X1071749Y760581D01*
X1071061Y760743D01*
X1070462Y760905D01*
X1069951Y761067D01*
X1069528Y761229D01*
X1069169Y761396D01*
X1068851Y761572D01*
X1068572Y761757D01*
X1068333Y761952D01*
X1068127Y762160D01*
X1067946Y762384D01*
X1067792Y762626D01*
X1067663Y762885D01*
X1067561Y763162D01*
X1067489Y763458D01*
X1067445Y763775D01*
X1067431Y764111D01*
X1067450Y764496D01*
X1067506Y764858D01*
X1067601Y765197D01*
X1067734Y765514D01*
X1067904Y765808D01*
X1068113Y766080D01*
X1068359Y766328D01*
X1068644Y766554D01*
X1068963Y766756D01*
X1069316Y766930D01*
X1069701Y767077D01*
X1070118Y767198D01*
X1070569Y767292D01*
X1071052Y767359D01*
X1071568Y767399D01*
X1072116Y767413D01*
X1072626Y767403D01*
X1073106Y767372D01*
X1073554Y767322D01*
X1073971Y767252D01*
X1074357Y767161D01*
X1074713Y767051D01*
X1075037Y766920D01*
X1075331Y766769D01*
X1075598Y766594D01*
X1075845Y766390D01*
X1076071Y766159D01*
X1076277Y765899D01*
X1076461Y765610D01*
X1076625Y765293D01*
X1076768Y764948D01*
X1076890Y764575D01*
X1075243Y764286D01*
X1075168Y764523D01*
X1075077Y764743D01*
X1074971Y764946D01*
X1074849Y765132D01*
X1074712Y765302D01*
X1074560Y765454D01*
X1074393Y765590D01*
X1074210Y765709D01*
X1074010Y765813D01*
X1073792Y765903D01*
X1073556Y765979D01*
X1073301Y766041D01*
X1073028Y766089D01*
X1072737Y766124D01*
X1072427Y766145D01*
X1072099Y766151D01*
X1071740Y766144D01*
X1071403Y766121D01*
X1071087Y766083D01*
X1070794Y766029D01*
X1070522Y765960D01*
X1070273Y765876D01*
X1070045Y765776D01*
X1069839Y765661D01*
X1069657Y765531D01*
X1069498Y765386D01*
X1069364Y765225D01*
X1069255Y765050D01*
X1069169Y764860D01*
X1069108Y764654D01*
X1069072Y764434D01*
X1069060Y764198D01*
X1069079Y763926D01*
X1069135Y763678D01*
X1069230Y763455D01*
X1069362Y763257D01*
X1069530Y763078D01*
X1069731Y762913D01*
X1069965Y762762D01*
X1070233Y762626D01*
X1070589Y762490D01*
X1071085Y762338D01*
X1071723Y762172D01*
X1072502Y761991D01*
X1073636Y761724D01*
X1074189Y761575D01*
X1074718Y761400D01*
X1075218Y761195D01*
X1075686Y760958D01*
X1075904Y760824D01*
X1076107Y760675D01*
X1076296Y760513D01*
X1076469Y760336D01*
X1076627Y760144D01*
X1076766Y759935D01*
X1076887Y759710D01*
X1076991Y759469D01*
X1077073Y759208D01*
X1077132Y758926D01*
X1077167Y758621D01*
X1077179Y758295D01*
X1077158Y757880D01*
X1077095Y757489D01*
X1076991Y757123D01*
X1076845Y756780D01*
X1076657Y756461D01*
X1076428Y756167D01*
X1076156Y755896D01*
X1075843Y755650D01*
X1075492Y755430D01*
X1075107Y755240D01*
X1074688Y755079D01*
X1074235Y754947D01*
X1073748Y754845D01*
X1073226Y754771D01*
X1072671Y754728D01*
X1072081Y754713D01*
G37*
G36*
X1117779Y754713D02*
X1117320Y754725D01*
X1116877Y754761D01*
X1116450Y754822D01*
X1116039Y754907D01*
X1115643Y755016D01*
X1115263Y755149D01*
X1114899Y755306D01*
X1114551Y755488D01*
X1114221Y755692D01*
X1113911Y755917D01*
X1113621Y756163D01*
X1113351Y756430D01*
X1113102Y756717D01*
X1112873Y757025D01*
X1112664Y757354D01*
X1112475Y757704D01*
X1112308Y758072D01*
X1112163Y758457D01*
X1112040Y758859D01*
X1111940Y759277D01*
X1111862Y759712D01*
X1111806Y760163D01*
X1111773Y760631D01*
X1111761Y761115D01*
X1111768Y761479D01*
X1111786Y761833D01*
X1111817Y762177D01*
X1111861Y762511D01*
X1111917Y762835D01*
X1111986Y763149D01*
X1112067Y763453D01*
X1112160Y763747D01*
X1112266Y764031D01*
X1112384Y764305D01*
X1112658Y764823D01*
X1112982Y765302D01*
X1113355Y765740D01*
X1113773Y766132D01*
X1114229Y766472D01*
X1114471Y766622D01*
X1114723Y766759D01*
X1114985Y766883D01*
X1115256Y766994D01*
X1115537Y767093D01*
X1115827Y767177D01*
X1116127Y767249D01*
X1116436Y767308D01*
X1116755Y767354D01*
X1117084Y767387D01*
X1117422Y767406D01*
X1117770Y767413D01*
X1118252Y767401D01*
X1118715Y767365D01*
X1119157Y767304D01*
X1119578Y767220D01*
X1119980Y767112D01*
X1120361Y766979D01*
X1120722Y766823D01*
X1121063Y766642D01*
X1121383Y766438D01*
X1121680Y766210D01*
X1121956Y765959D01*
X1122210Y765685D01*
X1122442Y765388D01*
X1122653Y765067D01*
X1122841Y764723D01*
X1123007Y764356D01*
X1121422Y763830D01*
X1121307Y764092D01*
X1121175Y764337D01*
X1121027Y764567D01*
X1120863Y764781D01*
X1120682Y764979D01*
X1120485Y765161D01*
X1120272Y765327D01*
X1120043Y765477D01*
X1119799Y765611D01*
X1119545Y765726D01*
X1119280Y765824D01*
X1119004Y765904D01*
X1118716Y765966D01*
X1118418Y766011D01*
X1118108Y766037D01*
X1117787Y766046D01*
X1117289Y766026D01*
X1116819Y765964D01*
X1116378Y765861D01*
X1115965Y765717D01*
X1115581Y765531D01*
X1115225Y765305D01*
X1114898Y765037D01*
X1114599Y764728D01*
X1114332Y764383D01*
X1114101Y764008D01*
X1113905Y763602D01*
X1113745Y763166D01*
X1113621Y762699D01*
X1113532Y762202D01*
X1113478Y761674D01*
X1113461Y761115D01*
X1113479Y760562D01*
X1113535Y760037D01*
X1113627Y759539D01*
X1113757Y759069D01*
X1113924Y758627D01*
X1114128Y758213D01*
X1114369Y757826D01*
X1114647Y757467D01*
X1114957Y757144D01*
X1115293Y756864D01*
X1115655Y756627D01*
X1116043Y756433D01*
X1116458Y756282D01*
X1116898Y756174D01*
X1117365Y756109D01*
X1117857Y756088D01*
X1118176Y756098D01*
X1118485Y756128D01*
X1118784Y756178D01*
X1119073Y756248D01*
X1119352Y756339D01*
X1119621Y756449D01*
X1119879Y756579D01*
X1120128Y756729D01*
X1120367Y756900D01*
X1120595Y757090D01*
X1120814Y757301D01*
X1121022Y757531D01*
X1121220Y757782D01*
X1121409Y758053D01*
X1121587Y758343D01*
X1121755Y758654D01*
X1123121Y757971D01*
X1122921Y757584D01*
X1122702Y757222D01*
X1122463Y756883D01*
X1122205Y756567D01*
X1121928Y756276D01*
X1121631Y756009D01*
X1121315Y755765D01*
X1120980Y755545D01*
X1120628Y755350D01*
X1120262Y755181D01*
X1119883Y755038D01*
X1119490Y754921D01*
X1119083Y754830D01*
X1118662Y754765D01*
X1118227Y754726D01*
X1117779Y754713D01*
G37*
G36*
X1106219Y754888D02*
X1104555Y754888D01*
X1104555Y765862D01*
X1100316Y765862D01*
X1100316Y767229D01*
X1110458Y767229D01*
X1110458Y765862D01*
X1106219Y765862D01*
X1106219Y754888D01*
G37*
G36*
X1098241Y754888D02*
X1096568Y754888D01*
X1096568Y767229D01*
X1098241Y767229D01*
X1098241Y754888D01*
G37*
G36*
X1389300Y605020D02*
X1379582Y605020D01*
X1379582Y609110D01*
X1379594Y609507D01*
X1379630Y609881D01*
X1379690Y610232D01*
X1379774Y610560D01*
X1379881Y610865D01*
X1380013Y611147D01*
X1380168Y611406D01*
X1380348Y611641D01*
X1380549Y611851D01*
X1380770Y612034D01*
X1381010Y612188D01*
X1381270Y612314D01*
X1381550Y612412D01*
X1381849Y612482D01*
X1382168Y612524D01*
X1382507Y612538D01*
X1382843Y612524D01*
X1383161Y612482D01*
X1383462Y612411D01*
X1383745Y612313D01*
X1384010Y612186D01*
X1384257Y612032D01*
X1384487Y611849D01*
X1384700Y611638D01*
X1384890Y611403D01*
X1385056Y611148D01*
X1385196Y610872D01*
X1385310Y610577D01*
X1385399Y610261D01*
X1385463Y609925D01*
X1385501Y609569D01*
X1385514Y609193D01*
X1385514Y606338D01*
X1389300Y606338D01*
X1389300Y605020D01*
G37*
%LPC*%
G36*
X1384472Y606338D02*
X1384472Y609007D01*
X1384465Y609274D01*
X1384442Y609524D01*
X1384404Y609757D01*
X1384350Y609972D01*
X1384282Y610171D01*
X1384198Y610352D01*
X1384099Y610515D01*
X1383984Y610662D01*
X1383855Y610791D01*
X1383710Y610903D01*
X1383550Y610998D01*
X1383374Y611076D01*
X1383184Y611136D01*
X1382978Y611179D01*
X1382757Y611205D01*
X1382520Y611214D01*
X1382292Y611205D01*
X1382079Y611178D01*
X1381880Y611134D01*
X1381697Y611072D01*
X1381527Y610993D01*
X1381373Y610896D01*
X1381233Y610781D01*
X1381108Y610648D01*
X1380998Y610498D01*
X1380902Y610330D01*
X1380821Y610144D01*
X1380755Y609941D01*
X1380704Y609720D01*
X1380667Y609482D01*
X1380645Y609225D01*
X1380637Y608951D01*
X1380637Y606338D01*
X1384472Y606338D01*
G37*
%LPD*%
G36*
X1389300Y631676D02*
X1379582Y631676D01*
X1379582Y632994D01*
X1383693Y632994D01*
X1383693Y638249D01*
X1379582Y638249D01*
X1379582Y639567D01*
X1389300Y639567D01*
X1389300Y638249D01*
X1384796Y638249D01*
X1384796Y632994D01*
X1389300Y632994D01*
X1389300Y631676D01*
G37*
G36*
X1380658Y618273D02*
X1379582Y618273D01*
X1379582Y626259D01*
X1380658Y626259D01*
X1380658Y622921D01*
X1389300Y622921D01*
X1389300Y621611D01*
X1380658Y621611D01*
X1380658Y618273D01*
G37*
G36*
X1386100Y613895D02*
X1384996Y613895D01*
X1384996Y617344D01*
X1386100Y617344D01*
X1386100Y613895D01*
G37*
G36*
X1386100Y626458D02*
X1384996Y626458D01*
X1384996Y629906D01*
X1386100Y629906D01*
X1386100Y626458D01*
G37*
G36*
X642047Y274400D02*
X640730Y274400D01*
X640730Y284118D01*
X644820Y284118D01*
X645217Y284106D01*
X645591Y284070D01*
X645942Y284010D01*
X646270Y283926D01*
X646575Y283819D01*
X646857Y283687D01*
X647115Y283532D01*
X647351Y283352D01*
X647561Y283151D01*
X647743Y282930D01*
X647897Y282690D01*
X648024Y282430D01*
X648122Y282150D01*
X648192Y281851D01*
X648234Y281532D01*
X648248Y281194D01*
X648234Y280858D01*
X648191Y280539D01*
X648121Y280239D01*
X648023Y279956D01*
X647896Y279690D01*
X647741Y279443D01*
X647559Y279213D01*
X647348Y279000D01*
X647113Y278810D01*
X646857Y278644D01*
X646582Y278504D01*
X646286Y278390D01*
X645971Y278301D01*
X645635Y278237D01*
X645279Y278199D01*
X644903Y278186D01*
X642047Y278186D01*
X642047Y274400D01*
G37*
%LPC*%
G36*
X644716Y279228D02*
X644984Y279236D01*
X645234Y279258D01*
X645467Y279297D01*
X645682Y279350D01*
X645880Y279418D01*
X646061Y279502D01*
X646225Y279601D01*
X646372Y279716D01*
X646501Y279845D01*
X646613Y279990D01*
X646708Y280150D01*
X646786Y280326D01*
X646846Y280516D01*
X646889Y280722D01*
X646915Y280943D01*
X646924Y281180D01*
X646915Y281408D01*
X646888Y281621D01*
X646844Y281820D01*
X646782Y282003D01*
X646703Y282173D01*
X646605Y282327D01*
X646491Y282467D01*
X646358Y282592D01*
X646208Y282702D01*
X646040Y282798D01*
X645854Y282879D01*
X645651Y282945D01*
X645430Y282996D01*
X645192Y283033D01*
X644935Y283055D01*
X644661Y283063D01*
X642047Y283063D01*
X642047Y279228D01*
X644716Y279228D01*
G37*
%LPD*%
G36*
X634924Y274262D02*
X634492Y274272D01*
X634083Y274301D01*
X633697Y274349D01*
X633335Y274416D01*
X632996Y274503D01*
X632680Y274609D01*
X632388Y274735D01*
X632119Y274879D01*
X631873Y275043D01*
X631651Y275227D01*
X631452Y275429D01*
X631276Y275651D01*
X631124Y275892D01*
X630995Y276152D01*
X630889Y276432D01*
X630807Y276731D01*
X632082Y276986D01*
X632145Y276775D01*
X632224Y276578D01*
X632318Y276395D01*
X632427Y276227D01*
X632552Y276073D01*
X632693Y275934D01*
X632849Y275810D01*
X633020Y275700D01*
X633208Y275604D01*
X633411Y275521D01*
X633631Y275450D01*
X633867Y275392D01*
X634119Y275347D01*
X634387Y275315D01*
X634672Y275296D01*
X634972Y275290D01*
X635282Y275297D01*
X635574Y275317D01*
X635847Y275351D01*
X636103Y275399D01*
X636340Y275461D01*
X636558Y275536D01*
X636759Y275625D01*
X636941Y275728D01*
X637104Y275844D01*
X637245Y275972D01*
X637364Y276114D01*
X637461Y276268D01*
X637537Y276435D01*
X637591Y276615D01*
X637624Y276808D01*
X637635Y277014D01*
X637621Y277241D01*
X637580Y277445D01*
X637512Y277627D01*
X637417Y277786D01*
X637298Y277928D01*
X637156Y278057D01*
X636992Y278173D01*
X636807Y278276D01*
X636376Y278454D01*
X635869Y278600D01*
X634662Y278883D01*
X634121Y279011D01*
X633649Y279138D01*
X633247Y279266D01*
X632914Y279393D01*
X632631Y279525D01*
X632380Y279663D01*
X632160Y279809D01*
X631972Y279962D01*
X631810Y280126D01*
X631668Y280303D01*
X631546Y280493D01*
X631444Y280697D01*
X631365Y280915D01*
X631307Y281149D01*
X631273Y281398D01*
X631262Y281663D01*
X631277Y281966D01*
X631321Y282251D01*
X631396Y282518D01*
X631501Y282768D01*
X631635Y282999D01*
X631799Y283213D01*
X631993Y283409D01*
X632217Y283587D01*
X632469Y283745D01*
X632746Y283882D01*
X633049Y283999D01*
X633378Y284094D01*
X633733Y284168D01*
X634113Y284220D01*
X634520Y284252D01*
X634952Y284263D01*
X635353Y284255D01*
X635731Y284231D01*
X636083Y284191D01*
X636412Y284136D01*
X636716Y284065D01*
X636996Y283978D01*
X637252Y283875D01*
X637483Y283756D01*
X637694Y283618D01*
X637888Y283458D01*
X638066Y283275D01*
X638228Y283070D01*
X638373Y282843D01*
X638502Y282594D01*
X638614Y282322D01*
X638710Y282028D01*
X637414Y281800D01*
X637354Y281987D01*
X637283Y282160D01*
X637199Y282320D01*
X637103Y282467D01*
X636996Y282600D01*
X636876Y282721D01*
X636744Y282828D01*
X636600Y282921D01*
X636443Y283003D01*
X636271Y283074D01*
X635884Y283182D01*
X635440Y283248D01*
X634938Y283270D01*
X634655Y283263D01*
X634389Y283245D01*
X634141Y283215D01*
X633910Y283173D01*
X633696Y283119D01*
X633500Y283052D01*
X633320Y282974D01*
X633158Y282883D01*
X633015Y282781D01*
X632890Y282666D01*
X632784Y282540D01*
X632698Y282402D01*
X632631Y282252D01*
X632583Y282091D01*
X632554Y281917D01*
X632545Y281731D01*
X632559Y281517D01*
X632604Y281322D01*
X632678Y281146D01*
X632782Y280990D01*
X632915Y280849D01*
X633073Y280719D01*
X633258Y280601D01*
X633469Y280493D01*
X633749Y280386D01*
X634139Y280267D01*
X634642Y280136D01*
X635255Y279993D01*
X636148Y279783D01*
X636584Y279666D01*
X637000Y279528D01*
X637394Y279367D01*
X637762Y279180D01*
X638094Y278957D01*
X638379Y278690D01*
X638503Y278539D01*
X638613Y278374D01*
X638709Y278197D01*
X638790Y278007D01*
X638855Y277802D01*
X638901Y277580D01*
X638929Y277340D01*
X638938Y277083D01*
X638922Y276756D01*
X638872Y276448D01*
X638790Y276160D01*
X638675Y275890D01*
X638527Y275639D01*
X638346Y275407D01*
X638133Y275194D01*
X637886Y275000D01*
X637610Y274827D01*
X637307Y274677D01*
X636977Y274550D01*
X636620Y274447D01*
X636236Y274366D01*
X635826Y274308D01*
X635388Y274274D01*
X634924Y274262D01*
G37*
G36*
X661149Y274400D02*
X659839Y274400D01*
X659839Y278428D01*
X656100Y284118D01*
X657549Y284118D01*
X660508Y279490D01*
X663453Y284118D01*
X664901Y284118D01*
X661149Y278428D01*
X661149Y274400D01*
G37*
G36*
X656364Y274400D02*
X650136Y274400D01*
X650136Y284118D01*
X651454Y284118D01*
X651454Y275476D01*
X656364Y275476D01*
X656364Y274400D01*
G37*
G36*
X554982Y185500D02*
X553664Y185500D01*
X553664Y195218D01*
X557754Y195218D01*
X558151Y195206D01*
X558526Y195170D01*
X558877Y195110D01*
X559204Y195026D01*
X559509Y194919D01*
X559791Y194787D01*
X560050Y194632D01*
X560286Y194452D01*
X560496Y194251D01*
X560678Y194030D01*
X560832Y193790D01*
X560958Y193530D01*
X561056Y193250D01*
X561126Y192951D01*
X561168Y192632D01*
X561182Y192294D01*
X561168Y191958D01*
X561126Y191639D01*
X561056Y191339D01*
X560957Y191056D01*
X560831Y190790D01*
X560676Y190543D01*
X560493Y190313D01*
X560282Y190100D01*
X560047Y189910D01*
X559792Y189744D01*
X559516Y189604D01*
X559221Y189490D01*
X558905Y189401D01*
X558569Y189337D01*
X558213Y189299D01*
X557837Y189286D01*
X554982Y189286D01*
X554982Y185500D01*
G37*
%LPC*%
G36*
X557651Y190328D02*
X557918Y190336D01*
X558168Y190358D01*
X558401Y190397D01*
X558616Y190450D01*
X558815Y190518D01*
X558996Y190602D01*
X559160Y190701D01*
X559306Y190816D01*
X559436Y190945D01*
X559548Y191090D01*
X559642Y191250D01*
X559720Y191426D01*
X559780Y191616D01*
X559823Y191822D01*
X559849Y192043D01*
X559858Y192280D01*
X559849Y192508D01*
X559823Y192721D01*
X559778Y192920D01*
X559717Y193103D01*
X559637Y193273D01*
X559540Y193427D01*
X559425Y193567D01*
X559292Y193692D01*
X559142Y193802D01*
X558974Y193898D01*
X558789Y193979D01*
X558585Y194045D01*
X558365Y194096D01*
X558126Y194133D01*
X557870Y194155D01*
X557596Y194163D01*
X554982Y194163D01*
X554982Y190328D01*
X557651Y190328D01*
G37*
%LPD*%
G36*
X547827Y185362D02*
X547395Y185372D01*
X546986Y185401D01*
X546600Y185449D01*
X546238Y185516D01*
X545899Y185603D01*
X545583Y185709D01*
X545291Y185835D01*
X545022Y185979D01*
X544776Y186143D01*
X544554Y186327D01*
X544355Y186529D01*
X544179Y186751D01*
X544027Y186992D01*
X543898Y187252D01*
X543792Y187532D01*
X543710Y187831D01*
X544986Y188086D01*
X545049Y187875D01*
X545127Y187678D01*
X545221Y187495D01*
X545330Y187327D01*
X545455Y187173D01*
X545596Y187034D01*
X545752Y186910D01*
X545924Y186800D01*
X546111Y186704D01*
X546315Y186621D01*
X546534Y186550D01*
X546770Y186492D01*
X547022Y186447D01*
X547291Y186415D01*
X547575Y186396D01*
X547875Y186390D01*
X548185Y186397D01*
X548477Y186417D01*
X548750Y186451D01*
X549006Y186499D01*
X549243Y186561D01*
X549462Y186636D01*
X549662Y186725D01*
X549845Y186828D01*
X550007Y186944D01*
X550148Y187072D01*
X550267Y187214D01*
X550364Y187368D01*
X550440Y187535D01*
X550494Y187715D01*
X550527Y187908D01*
X550538Y188114D01*
X550524Y188341D01*
X550483Y188545D01*
X550415Y188727D01*
X550320Y188886D01*
X550201Y189028D01*
X550059Y189157D01*
X549896Y189273D01*
X549710Y189376D01*
X549279Y189554D01*
X548772Y189700D01*
X547565Y189983D01*
X547024Y190111D01*
X546552Y190238D01*
X546150Y190366D01*
X545817Y190493D01*
X545534Y190625D01*
X545283Y190763D01*
X545063Y190909D01*
X544875Y191062D01*
X544713Y191226D01*
X544571Y191403D01*
X544449Y191593D01*
X544348Y191797D01*
X544268Y192015D01*
X544211Y192249D01*
X544176Y192498D01*
X544165Y192763D01*
X544180Y193066D01*
X544225Y193351D01*
X544299Y193618D01*
X544404Y193868D01*
X544538Y194099D01*
X544702Y194313D01*
X544896Y194509D01*
X545120Y194687D01*
X545372Y194845D01*
X545649Y194982D01*
X545952Y195099D01*
X546281Y195194D01*
X546636Y195268D01*
X547017Y195320D01*
X547423Y195352D01*
X547855Y195363D01*
X548256Y195355D01*
X548634Y195331D01*
X548987Y195291D01*
X549315Y195236D01*
X549619Y195165D01*
X549899Y195078D01*
X550155Y194975D01*
X550386Y194856D01*
X550597Y194718D01*
X550791Y194558D01*
X550969Y194375D01*
X551131Y194170D01*
X551276Y193943D01*
X551405Y193694D01*
X551518Y193422D01*
X551614Y193128D01*
X550317Y192900D01*
X550258Y193087D01*
X550186Y193260D01*
X550102Y193420D01*
X550007Y193567D01*
X549899Y193700D01*
X549779Y193821D01*
X549647Y193928D01*
X549503Y194021D01*
X549346Y194103D01*
X549174Y194174D01*
X548788Y194282D01*
X548343Y194348D01*
X547841Y194370D01*
X547558Y194363D01*
X547293Y194345D01*
X547044Y194315D01*
X546813Y194273D01*
X546600Y194219D01*
X546403Y194152D01*
X546224Y194074D01*
X546062Y193983D01*
X545918Y193881D01*
X545793Y193766D01*
X545688Y193640D01*
X545601Y193502D01*
X545534Y193352D01*
X545486Y193191D01*
X545457Y193017D01*
X545448Y192831D01*
X545463Y192617D01*
X545507Y192422D01*
X545582Y192246D01*
X545686Y192090D01*
X545818Y191949D01*
X545976Y191819D01*
X546161Y191701D01*
X546372Y191593D01*
X546652Y191486D01*
X547043Y191367D01*
X547545Y191236D01*
X548158Y191093D01*
X549051Y190883D01*
X549487Y190766D01*
X549903Y190628D01*
X550297Y190467D01*
X550665Y190280D01*
X550997Y190057D01*
X551283Y189790D01*
X551407Y189639D01*
X551516Y189474D01*
X551612Y189297D01*
X551693Y189107D01*
X551758Y188902D01*
X551804Y188680D01*
X551832Y188440D01*
X551841Y188183D01*
X551825Y187856D01*
X551775Y187548D01*
X551693Y187260D01*
X551578Y186990D01*
X551430Y186739D01*
X551250Y186507D01*
X551036Y186294D01*
X550789Y186100D01*
X550513Y185927D01*
X550210Y185777D01*
X549880Y185650D01*
X549523Y185547D01*
X549139Y185466D01*
X548729Y185408D01*
X548291Y185374D01*
X547827Y185362D01*
G37*
G36*
X535118Y185500D02*
X533752Y185500D01*
X529787Y195218D01*
X531173Y195218D01*
X533863Y188376D01*
X534442Y186659D01*
X535021Y188376D01*
X537697Y195218D01*
X539084Y195218D01*
X535118Y185500D01*
G37*
G36*
X529026Y185500D02*
X522591Y185500D01*
X522591Y186376D01*
X522777Y186768D01*
X522982Y187135D01*
X523206Y187480D01*
X523450Y187800D01*
X523970Y188388D01*
X524515Y188917D01*
X525071Y189399D01*
X525622Y189845D01*
X526144Y190273D01*
X526612Y190700D01*
X526822Y190917D01*
X527011Y191138D01*
X527179Y191365D01*
X527326Y191597D01*
X527445Y191839D01*
X527530Y192097D01*
X527581Y192370D01*
X527598Y192659D01*
X527591Y192853D01*
X527569Y193037D01*
X527532Y193209D01*
X527481Y193369D01*
X527415Y193519D01*
X527335Y193657D01*
X527239Y193785D01*
X527129Y193901D01*
X527006Y194004D01*
X526872Y194094D01*
X526726Y194169D01*
X526569Y194232D01*
X526400Y194280D01*
X526220Y194314D01*
X526029Y194335D01*
X525826Y194342D01*
X525632Y194335D01*
X525447Y194315D01*
X525270Y194281D01*
X525103Y194234D01*
X524944Y194174D01*
X524793Y194099D01*
X524519Y193911D01*
X524397Y193798D01*
X524288Y193674D01*
X524193Y193539D01*
X524111Y193393D01*
X524042Y193236D01*
X523987Y193068D01*
X523944Y192890D01*
X523915Y192700D01*
X522646Y192818D01*
X522692Y193102D01*
X522760Y193371D01*
X522850Y193625D01*
X522963Y193864D01*
X523098Y194089D01*
X523255Y194298D01*
X523434Y194493D01*
X523636Y194673D01*
X523857Y194835D01*
X524092Y194975D01*
X524343Y195093D01*
X524609Y195190D01*
X524891Y195266D01*
X525187Y195320D01*
X525499Y195352D01*
X525826Y195363D01*
X526182Y195352D01*
X526518Y195319D01*
X526832Y195265D01*
X527125Y195189D01*
X527397Y195092D01*
X527647Y194973D01*
X527877Y194832D01*
X528085Y194670D01*
X528270Y194487D01*
X528430Y194287D01*
X528566Y194068D01*
X528677Y193831D01*
X528763Y193575D01*
X528825Y193302D01*
X528862Y193010D01*
X528874Y192700D01*
X528858Y192418D01*
X528810Y192137D01*
X528729Y191856D01*
X528616Y191576D01*
X528471Y191297D01*
X528294Y191018D01*
X528086Y190738D01*
X527847Y190459D01*
X527533Y190141D01*
X527104Y189747D01*
X525895Y188728D01*
X525183Y188111D01*
X524887Y187827D01*
X524633Y187559D01*
X524415Y187301D01*
X524229Y187048D01*
X524077Y186799D01*
X523957Y186555D01*
X529026Y186555D01*
X529026Y185500D01*
G37*
G36*
X574083Y185500D02*
X572773Y185500D01*
X572773Y189528D01*
X569035Y195218D01*
X570483Y195218D01*
X573442Y190590D01*
X576387Y195218D01*
X577835Y195218D01*
X574083Y189528D01*
X574083Y185500D01*
G37*
G36*
X521203Y185500D02*
X515113Y185500D01*
X515113Y186555D01*
X517589Y186555D01*
X517589Y194032D01*
X515396Y192466D01*
X515396Y193638D01*
X517692Y195218D01*
X518837Y195218D01*
X518837Y186555D01*
X521203Y186555D01*
X521203Y185500D01*
G37*
G36*
X569299Y185500D02*
X563071Y185500D01*
X563071Y195218D01*
X564388Y195218D01*
X564388Y186576D01*
X569299Y186576D01*
X569299Y185500D01*
G37*
G36*
X542457Y188700D02*
X539008Y188700D01*
X539008Y189804D01*
X542457Y189804D01*
X542457Y188700D01*
G37*
G36*
X1116007Y647058D02*
X1115636Y647072D01*
X1115285Y647112D01*
X1114955Y647179D01*
X1114645Y647272D01*
X1114356Y647392D01*
X1114087Y647539D01*
X1113838Y647713D01*
X1113610Y647913D01*
X1113405Y648138D01*
X1113228Y648383D01*
X1113078Y648649D01*
X1112956Y648936D01*
X1112860Y649244D01*
X1112792Y649573D01*
X1112751Y649922D01*
X1112737Y650293D01*
X1112756Y650686D01*
X1112812Y651054D01*
X1112906Y651398D01*
X1113037Y651717D01*
X1113206Y652012D01*
X1113412Y652282D01*
X1113656Y652527D01*
X1113937Y652748D01*
X1114256Y652944D01*
X1114613Y653113D01*
X1115007Y653257D01*
X1115439Y653374D01*
X1115909Y653465D01*
X1116416Y653531D01*
X1116962Y653570D01*
X1117545Y653583D01*
X1118152Y653569D01*
X1118724Y653526D01*
X1119259Y653454D01*
X1119759Y653354D01*
X1120221Y653226D01*
X1120648Y653069D01*
X1121039Y652883D01*
X1121393Y652669D01*
X1121708Y652428D01*
X1121981Y652164D01*
X1122213Y651874D01*
X1122402Y651561D01*
X1122549Y651224D01*
X1122654Y650862D01*
X1122717Y650476D01*
X1122738Y650065D01*
X1122730Y649788D01*
X1122708Y649525D01*
X1122671Y649275D01*
X1122618Y649040D01*
X1122551Y648819D01*
X1122468Y648612D01*
X1122371Y648420D01*
X1122259Y648241D01*
X1122130Y648076D01*
X1121982Y647922D01*
X1121816Y647781D01*
X1121632Y647652D01*
X1121429Y647536D01*
X1121208Y647431D01*
X1120968Y647339D01*
X1120710Y647258D01*
X1120524Y648445D01*
X1120809Y648552D01*
X1121055Y648687D01*
X1121264Y648850D01*
X1121434Y649041D01*
X1121567Y649260D01*
X1121662Y649508D01*
X1121719Y649783D01*
X1121738Y650086D01*
X1121722Y650346D01*
X1121676Y650590D01*
X1121598Y650820D01*
X1121490Y651034D01*
X1121350Y651234D01*
X1121179Y651418D01*
X1120978Y651587D01*
X1120745Y651741D01*
X1120483Y651879D01*
X1120195Y652000D01*
X1119881Y652102D01*
X1119540Y652188D01*
X1119172Y652256D01*
X1118778Y652306D01*
X1118357Y652340D01*
X1117910Y652355D01*
X1118205Y652193D01*
X1118470Y651981D01*
X1118703Y651720D01*
X1118907Y651410D01*
X1119071Y651068D01*
X1119189Y650708D01*
X1119259Y650333D01*
X1119283Y649941D01*
X1119269Y649622D01*
X1119227Y649319D01*
X1119157Y649032D01*
X1119058Y648762D01*
X1118932Y648508D01*
X1118778Y648270D01*
X1118596Y648049D01*
X1118386Y647845D01*
X1118153Y647660D01*
X1117901Y647501D01*
X1117631Y647365D01*
X1117343Y647255D01*
X1117036Y647169D01*
X1116711Y647107D01*
X1116368Y647071D01*
X1116007Y647058D01*
G37*
%LPC*%
G36*
X1116007Y648320D02*
X1116265Y648328D01*
X1116510Y648353D01*
X1116741Y648393D01*
X1116957Y648450D01*
X1117160Y648522D01*
X1117350Y648611D01*
X1117525Y648716D01*
X1117686Y648838D01*
X1117831Y648973D01*
X1117956Y649119D01*
X1118062Y649277D01*
X1118149Y649446D01*
X1118216Y649627D01*
X1118265Y649819D01*
X1118294Y650023D01*
X1118303Y650238D01*
X1118288Y650502D01*
X1118242Y650757D01*
X1118166Y651002D01*
X1118058Y651238D01*
X1117923Y651457D01*
X1117763Y651651D01*
X1117577Y651820D01*
X1117365Y651965D01*
X1117133Y652082D01*
X1116886Y652165D01*
X1116623Y652214D01*
X1116345Y652231D01*
X1116059Y652223D01*
X1115787Y652197D01*
X1115530Y652155D01*
X1115287Y652097D01*
X1115058Y652021D01*
X1114844Y651928D01*
X1114644Y651819D01*
X1114458Y651693D01*
X1114291Y651553D01*
X1114146Y651401D01*
X1114023Y651238D01*
X1113923Y651064D01*
X1113845Y650878D01*
X1113789Y650680D01*
X1113756Y650472D01*
X1113744Y650252D01*
X1113754Y650033D01*
X1113782Y649827D01*
X1113830Y649632D01*
X1113897Y649450D01*
X1113983Y649279D01*
X1114088Y649120D01*
X1114212Y648973D01*
X1114355Y648838D01*
X1114514Y648716D01*
X1114687Y648611D01*
X1114873Y648522D01*
X1115073Y648450D01*
X1115286Y648393D01*
X1115513Y648353D01*
X1115753Y648328D01*
X1116007Y648320D01*
G37*
%LPD*%
G36*
X1122600Y604455D02*
X1112882Y608421D01*
X1112882Y609917D01*
X1122600Y613821D01*
X1122600Y612476D01*
X1119759Y611366D01*
X1119759Y606938D01*
X1122600Y605821D01*
X1122600Y604455D01*
G37*
%LPC*%
G36*
X1118731Y607338D02*
X1118731Y610973D01*
X1115524Y609724D01*
X1115017Y609531D01*
X1114448Y609338D01*
X1113875Y609152D01*
X1114069Y609090D01*
X1114722Y608876D01*
X1115538Y608579D01*
X1118731Y607338D01*
G37*
%LPD*%
G36*
X1122600Y595399D02*
X1112882Y595399D01*
X1112882Y596930D01*
X1121214Y602185D01*
X1120048Y602123D01*
X1119255Y602102D01*
X1112882Y602102D01*
X1112882Y603289D01*
X1122600Y603289D01*
X1122600Y601702D01*
X1114324Y596502D01*
X1114993Y596537D01*
X1116144Y596571D01*
X1122600Y596571D01*
X1122600Y595399D01*
G37*
G36*
X1120269Y617194D02*
X1120014Y618470D01*
X1120225Y618533D01*
X1120423Y618611D01*
X1120605Y618705D01*
X1120773Y618815D01*
X1120927Y618940D01*
X1121066Y619080D01*
X1121190Y619236D01*
X1121300Y619408D01*
X1121396Y619595D01*
X1121480Y619799D01*
X1121550Y620018D01*
X1121608Y620254D01*
X1121653Y620506D01*
X1121685Y620775D01*
X1121704Y621059D01*
X1121710Y621360D01*
X1121704Y621669D01*
X1121683Y621961D01*
X1121649Y622235D01*
X1121601Y622490D01*
X1121539Y622727D01*
X1121464Y622946D01*
X1121375Y623146D01*
X1121272Y623329D01*
X1121156Y623491D01*
X1121028Y623632D01*
X1120886Y623751D01*
X1120732Y623849D01*
X1120565Y623924D01*
X1120385Y623979D01*
X1120192Y624011D01*
X1119986Y624022D01*
X1119759Y624008D01*
X1119555Y623968D01*
X1119373Y623900D01*
X1119214Y623805D01*
X1119072Y623685D01*
X1118943Y623543D01*
X1118827Y623380D01*
X1118724Y623194D01*
X1118546Y622763D01*
X1118400Y622256D01*
X1118117Y621049D01*
X1117989Y620508D01*
X1117862Y620036D01*
X1117734Y619634D01*
X1117607Y619301D01*
X1117475Y619018D01*
X1117337Y618767D01*
X1117191Y618548D01*
X1117038Y618359D01*
X1116874Y618197D01*
X1116697Y618055D01*
X1116507Y617933D01*
X1116303Y617832D01*
X1116085Y617752D01*
X1115851Y617695D01*
X1115602Y617660D01*
X1115338Y617649D01*
X1115034Y617664D01*
X1114749Y617709D01*
X1114482Y617783D01*
X1114232Y617888D01*
X1114001Y618022D01*
X1113787Y618186D01*
X1113591Y618380D01*
X1113413Y618604D01*
X1113255Y618856D01*
X1113118Y619133D01*
X1113001Y619437D01*
X1112906Y619766D01*
X1112832Y620120D01*
X1112780Y620501D01*
X1112748Y620907D01*
X1112737Y621339D01*
X1112745Y621741D01*
X1112769Y622118D01*
X1112809Y622471D01*
X1112864Y622799D01*
X1112935Y623104D01*
X1113023Y623383D01*
X1113126Y623639D01*
X1113244Y623870D01*
X1113382Y624081D01*
X1113542Y624275D01*
X1113725Y624453D01*
X1113930Y624615D01*
X1114157Y624760D01*
X1114406Y624889D01*
X1114678Y625002D01*
X1114972Y625098D01*
X1115200Y623801D01*
X1115013Y623742D01*
X1114840Y623670D01*
X1114680Y623586D01*
X1114533Y623491D01*
X1114400Y623383D01*
X1114280Y623263D01*
X1114173Y623131D01*
X1114079Y622987D01*
X1113997Y622830D01*
X1113926Y622658D01*
X1113818Y622272D01*
X1113752Y621827D01*
X1113731Y621325D01*
X1113737Y621042D01*
X1113755Y620777D01*
X1113785Y620529D01*
X1113827Y620297D01*
X1113881Y620084D01*
X1113948Y619887D01*
X1114026Y619708D01*
X1114117Y619546D01*
X1114219Y619402D01*
X1114334Y619277D01*
X1114460Y619172D01*
X1114598Y619085D01*
X1114748Y619018D01*
X1114910Y618970D01*
X1115083Y618941D01*
X1115269Y618932D01*
X1115483Y618947D01*
X1115678Y618991D01*
X1115854Y619066D01*
X1116010Y619170D01*
X1116151Y619302D01*
X1116281Y619460D01*
X1116399Y619645D01*
X1116507Y619856D01*
X1116614Y620136D01*
X1116733Y620527D01*
X1116864Y621029D01*
X1117007Y621642D01*
X1117217Y622536D01*
X1117334Y622971D01*
X1117472Y623387D01*
X1117633Y623781D01*
X1117820Y624149D01*
X1118043Y624481D01*
X1118310Y624767D01*
X1118461Y624891D01*
X1118626Y625000D01*
X1118803Y625096D01*
X1118993Y625177D01*
X1119198Y625242D01*
X1119421Y625288D01*
X1119660Y625316D01*
X1119917Y625325D01*
X1120244Y625309D01*
X1120552Y625260D01*
X1120840Y625177D01*
X1121110Y625062D01*
X1121361Y624915D01*
X1121593Y624734D01*
X1121806Y624520D01*
X1122000Y624274D01*
X1122173Y623997D01*
X1122323Y623694D01*
X1122450Y623364D01*
X1122554Y623007D01*
X1122634Y622623D01*
X1122692Y622213D01*
X1122726Y621776D01*
X1122738Y621311D01*
X1122728Y620879D01*
X1122699Y620470D01*
X1122651Y620084D01*
X1122584Y619722D01*
X1122497Y619383D01*
X1122391Y619067D01*
X1122265Y618775D01*
X1122121Y618506D01*
X1121957Y618260D01*
X1121774Y618038D01*
X1121571Y617839D01*
X1121349Y617663D01*
X1121108Y617511D01*
X1120848Y617382D01*
X1120568Y617276D01*
X1120269Y617194D01*
G37*
G36*
X1122600Y631388D02*
X1121724Y631388D01*
X1121333Y631573D01*
X1120965Y631778D01*
X1120620Y632003D01*
X1120300Y632246D01*
X1119712Y632766D01*
X1119183Y633312D01*
X1118701Y633868D01*
X1118255Y634419D01*
X1117827Y634941D01*
X1117400Y635409D01*
X1117183Y635619D01*
X1116962Y635808D01*
X1116735Y635976D01*
X1116503Y636123D01*
X1116261Y636242D01*
X1116003Y636327D01*
X1115730Y636378D01*
X1115441Y636395D01*
X1115247Y636388D01*
X1115063Y636366D01*
X1114891Y636329D01*
X1114731Y636278D01*
X1114581Y636212D01*
X1114443Y636131D01*
X1114316Y636036D01*
X1114200Y635926D01*
X1114096Y635803D01*
X1114006Y635669D01*
X1113931Y635523D01*
X1113868Y635366D01*
X1113820Y635197D01*
X1113786Y635017D01*
X1113765Y634825D01*
X1113758Y634622D01*
X1113765Y634429D01*
X1113785Y634243D01*
X1113819Y634067D01*
X1113866Y633899D01*
X1113927Y633740D01*
X1114001Y633590D01*
X1114189Y633315D01*
X1114302Y633194D01*
X1114427Y633085D01*
X1114561Y632990D01*
X1114707Y632908D01*
X1114864Y632839D01*
X1115032Y632783D01*
X1115210Y632741D01*
X1115400Y632712D01*
X1115282Y631443D01*
X1114998Y631489D01*
X1114729Y631557D01*
X1114475Y631647D01*
X1114236Y631759D01*
X1114011Y631894D01*
X1113802Y632051D01*
X1113607Y632231D01*
X1113427Y632433D01*
X1113265Y632653D01*
X1113125Y632889D01*
X1113007Y633140D01*
X1112910Y633406D01*
X1112834Y633687D01*
X1112780Y633984D01*
X1112748Y634296D01*
X1112737Y634622D01*
X1112748Y634979D01*
X1112781Y635315D01*
X1112835Y635629D01*
X1112911Y635922D01*
X1113008Y636193D01*
X1113127Y636444D01*
X1113268Y636673D01*
X1113431Y636881D01*
X1113613Y637066D01*
X1113814Y637227D01*
X1114032Y637362D01*
X1114269Y637474D01*
X1114525Y637560D01*
X1114798Y637622D01*
X1115090Y637659D01*
X1115400Y637671D01*
X1115682Y637655D01*
X1115963Y637606D01*
X1116244Y637525D01*
X1116524Y637412D01*
X1116803Y637267D01*
X1117082Y637091D01*
X1117362Y636883D01*
X1117641Y636643D01*
X1117959Y636330D01*
X1118353Y635900D01*
X1119372Y634691D01*
X1119989Y633979D01*
X1120273Y633684D01*
X1120541Y633429D01*
X1120799Y633211D01*
X1121053Y633026D01*
X1121301Y632873D01*
X1121545Y632753D01*
X1121545Y637823D01*
X1122600Y637823D01*
X1122600Y631388D01*
G37*
G36*
X1122600Y639628D02*
X1121545Y639628D01*
X1121545Y642104D01*
X1114069Y642104D01*
X1115634Y639911D01*
X1114462Y639911D01*
X1112882Y642208D01*
X1112882Y643353D01*
X1121545Y643353D01*
X1121545Y645718D01*
X1122600Y645718D01*
X1122600Y639628D01*
G37*
G36*
X1122600Y591637D02*
X1112882Y591637D01*
X1112882Y592955D01*
X1122600Y592955D01*
X1122600Y591637D01*
G37*
G36*
X1119400Y626618D02*
X1118296Y626618D01*
X1118296Y630066D01*
X1119400Y630066D01*
X1119400Y626618D01*
G37*
G36*
X1112882Y614582D02*
X1112882Y615851D01*
X1115938Y615700D01*
X1115938Y614727D01*
X1112882Y614582D01*
G37*
G36*
X1245578Y562365D02*
X1245211Y562374D01*
X1244856Y562400D01*
X1244512Y562444D01*
X1244180Y562507D01*
X1243860Y562586D01*
X1243551Y562684D01*
X1243254Y562799D01*
X1242968Y562932D01*
X1242694Y563083D01*
X1242432Y563251D01*
X1242181Y563437D01*
X1241941Y563641D01*
X1241714Y563863D01*
X1241498Y564102D01*
X1241293Y564359D01*
X1241100Y564634D01*
X1240919Y564926D01*
X1240749Y565234D01*
X1240592Y565559D01*
X1240445Y565899D01*
X1240311Y566256D01*
X1240188Y566630D01*
X1240077Y567019D01*
X1239978Y567425D01*
X1239890Y567847D01*
X1239814Y568286D01*
X1239750Y568741D01*
X1239697Y569212D01*
X1239656Y569699D01*
X1239627Y570203D01*
X1239609Y570723D01*
X1239604Y571259D01*
X1239626Y572337D01*
X1239655Y572850D01*
X1239694Y573346D01*
X1239746Y573824D01*
X1239808Y574285D01*
X1239882Y574728D01*
X1239967Y575154D01*
X1240064Y575562D01*
X1240171Y575953D01*
X1240291Y576327D01*
X1240421Y576683D01*
X1240563Y577022D01*
X1240717Y577343D01*
X1240881Y577647D01*
X1241057Y577933D01*
X1241246Y578202D01*
X1241447Y578453D01*
X1241662Y578687D01*
X1241890Y578904D01*
X1242131Y579104D01*
X1242385Y579286D01*
X1242652Y579451D01*
X1242933Y579598D01*
X1243227Y579728D01*
X1243533Y579841D01*
X1243854Y579936D01*
X1244187Y580015D01*
X1244533Y580075D01*
X1244893Y580119D01*
X1245266Y580145D01*
X1245652Y580153D01*
X1246027Y580145D01*
X1246390Y580118D01*
X1246741Y580074D01*
X1247079Y580013D01*
X1247405Y579934D01*
X1247718Y579838D01*
X1248018Y579724D01*
X1248306Y579592D01*
X1248582Y579443D01*
X1248845Y579276D01*
X1249095Y579092D01*
X1249333Y578890D01*
X1249559Y578671D01*
X1249772Y578434D01*
X1249972Y578180D01*
X1250160Y577908D01*
X1250336Y577619D01*
X1250501Y577313D01*
X1250654Y576990D01*
X1250796Y576651D01*
X1250927Y576294D01*
X1251046Y575921D01*
X1251154Y575531D01*
X1251251Y575123D01*
X1251336Y574699D01*
X1251410Y574259D01*
X1251472Y573801D01*
X1251523Y573326D01*
X1251591Y572326D01*
X1251614Y571259D01*
X1251608Y570726D01*
X1251590Y570208D01*
X1251560Y569707D01*
X1251519Y569222D01*
X1251465Y568752D01*
X1251399Y568299D01*
X1251322Y567862D01*
X1251232Y567441D01*
X1251131Y567035D01*
X1251017Y566646D01*
X1250892Y566273D01*
X1250755Y565915D01*
X1250606Y565574D01*
X1250445Y565249D01*
X1250272Y564940D01*
X1250087Y564646D01*
X1249890Y564370D01*
X1249682Y564112D01*
X1249463Y563871D01*
X1249232Y563648D01*
X1248990Y563443D01*
X1248737Y563256D01*
X1248472Y563087D01*
X1248196Y562935D01*
X1247908Y562801D01*
X1247610Y562686D01*
X1247299Y562588D01*
X1246978Y562507D01*
X1246645Y562445D01*
X1246301Y562400D01*
X1245945Y562374D01*
X1245578Y562365D01*
G37*
%LPC*%
G36*
X1245603Y564168D02*
X1245842Y564175D01*
X1246074Y564195D01*
X1246297Y564229D01*
X1246513Y564277D01*
X1246720Y564338D01*
X1246919Y564413D01*
X1247110Y564501D01*
X1247293Y564604D01*
X1247634Y564849D01*
X1247942Y565148D01*
X1248218Y565502D01*
X1248461Y565910D01*
X1248674Y566375D01*
X1248858Y566898D01*
X1249014Y567479D01*
X1249142Y568118D01*
X1249241Y568816D01*
X1249312Y569572D01*
X1249355Y570386D01*
X1249369Y571259D01*
X1249355Y572162D01*
X1249315Y573001D01*
X1249247Y573775D01*
X1249153Y574485D01*
X1249031Y575131D01*
X1248882Y575712D01*
X1248707Y576229D01*
X1248504Y576681D01*
X1248270Y577075D01*
X1248001Y577417D01*
X1247697Y577706D01*
X1247358Y577942D01*
X1246984Y578126D01*
X1246784Y578198D01*
X1246575Y578257D01*
X1246358Y578303D01*
X1246131Y578336D01*
X1245896Y578356D01*
X1245652Y578362D01*
X1245402Y578356D01*
X1245160Y578336D01*
X1244928Y578304D01*
X1244705Y578259D01*
X1244491Y578200D01*
X1244286Y578129D01*
X1243902Y577948D01*
X1243554Y577715D01*
X1243242Y577431D01*
X1242966Y577094D01*
X1242726Y576706D01*
X1242517Y576259D01*
X1242337Y575744D01*
X1242184Y575164D01*
X1242059Y574516D01*
X1241961Y573802D01*
X1241892Y573021D01*
X1241850Y572173D01*
X1241836Y571259D01*
X1241850Y570370D01*
X1241893Y569542D01*
X1241963Y568776D01*
X1242062Y568072D01*
X1242189Y567430D01*
X1242344Y566849D01*
X1242527Y566330D01*
X1242738Y565873D01*
X1242980Y565474D01*
X1243255Y565127D01*
X1243564Y564834D01*
X1243905Y564594D01*
X1244280Y564408D01*
X1244479Y564335D01*
X1244688Y564275D01*
X1244904Y564228D01*
X1245128Y564195D01*
X1245361Y564175D01*
X1245603Y564168D01*
G37*
%LPD*%
G36*
X1203211Y562365D02*
X1202718Y562378D01*
X1202249Y562418D01*
X1201806Y562485D01*
X1201388Y562578D01*
X1200995Y562698D01*
X1200627Y562844D01*
X1200284Y563017D01*
X1199966Y563217D01*
X1199672Y563447D01*
X1199399Y563709D01*
X1199148Y564004D01*
X1198919Y564332D01*
X1198711Y564693D01*
X1198525Y565086D01*
X1198361Y565512D01*
X1198218Y565971D01*
X1200328Y566303D01*
X1200417Y566041D01*
X1200519Y565797D01*
X1200633Y565569D01*
X1200759Y565358D01*
X1200898Y565164D01*
X1201049Y564987D01*
X1201213Y564827D01*
X1201389Y564683D01*
X1201578Y564557D01*
X1201779Y564447D01*
X1201993Y564354D01*
X1202219Y564278D01*
X1202458Y564219D01*
X1202709Y564177D01*
X1202972Y564152D01*
X1203248Y564144D01*
X1203482Y564150D01*
X1203710Y564171D01*
X1203931Y564206D01*
X1204145Y564254D01*
X1204353Y564316D01*
X1204553Y564392D01*
X1204935Y564585D01*
X1205289Y564834D01*
X1205617Y565137D01*
X1205918Y565496D01*
X1206192Y565910D01*
X1206438Y566375D01*
X1206652Y566888D01*
X1206835Y567447D01*
X1206987Y568054D01*
X1207108Y568708D01*
X1207198Y569409D01*
X1207256Y570157D01*
X1207284Y570952D01*
X1207151Y570683D01*
X1206995Y570427D01*
X1206818Y570185D01*
X1206619Y569957D01*
X1206398Y569742D01*
X1206155Y569541D01*
X1205890Y569354D01*
X1205603Y569180D01*
X1205302Y569023D01*
X1204994Y568887D01*
X1204678Y568772D01*
X1204355Y568678D01*
X1204025Y568605D01*
X1203687Y568553D01*
X1203343Y568521D01*
X1202990Y568511D01*
X1202703Y568517D01*
X1202422Y568536D01*
X1202149Y568567D01*
X1201883Y568611D01*
X1201373Y568735D01*
X1200893Y568910D01*
X1200441Y569134D01*
X1200018Y569408D01*
X1199625Y569732D01*
X1199261Y570106D01*
X1198933Y570521D01*
X1198649Y570968D01*
X1198409Y571449D01*
X1198212Y571961D01*
X1198059Y572507D01*
X1197950Y573085D01*
X1197884Y573695D01*
X1197862Y574338D01*
X1197868Y574673D01*
X1197886Y574998D01*
X1197957Y575621D01*
X1198076Y576209D01*
X1198243Y576760D01*
X1198457Y577274D01*
X1198718Y577753D01*
X1199027Y578195D01*
X1199384Y578601D01*
X1199782Y578965D01*
X1200219Y579280D01*
X1200692Y579547D01*
X1201202Y579765D01*
X1201750Y579935D01*
X1202335Y580056D01*
X1202641Y580099D01*
X1202957Y580129D01*
X1203282Y580147D01*
X1203616Y580153D01*
X1203971Y580145D01*
X1204315Y580120D01*
X1204648Y580078D01*
X1204970Y580020D01*
X1205281Y579945D01*
X1205582Y579853D01*
X1205871Y579745D01*
X1206149Y579620D01*
X1206417Y579478D01*
X1206673Y579319D01*
X1206919Y579144D01*
X1207154Y578953D01*
X1207378Y578744D01*
X1207591Y578519D01*
X1207792Y578277D01*
X1207983Y578019D01*
X1208163Y577743D01*
X1208331Y577451D01*
X1208488Y577143D01*
X1208633Y576817D01*
X1208766Y576475D01*
X1208888Y576116D01*
X1208998Y575740D01*
X1209097Y575347D01*
X1209184Y574938D01*
X1209259Y574512D01*
X1209323Y574069D01*
X1209375Y573609D01*
X1209416Y573133D01*
X1209445Y572639D01*
X1209468Y571602D01*
X1209462Y571054D01*
X1209443Y570521D01*
X1209411Y570005D01*
X1209366Y569505D01*
X1209309Y569020D01*
X1209239Y568552D01*
X1209157Y568100D01*
X1209062Y567664D01*
X1208954Y567245D01*
X1208833Y566841D01*
X1208700Y566453D01*
X1208554Y566082D01*
X1208395Y565726D01*
X1208223Y565387D01*
X1208039Y565064D01*
X1207842Y564757D01*
X1207634Y564467D01*
X1207414Y564196D01*
X1207184Y563944D01*
X1206943Y563710D01*
X1206692Y563495D01*
X1206429Y563299D01*
X1206156Y563122D01*
X1205872Y562963D01*
X1205577Y562823D01*
X1205271Y562701D01*
X1204955Y562598D01*
X1204628Y562514D01*
X1204290Y562449D01*
X1203941Y562402D01*
X1203582Y562374D01*
X1203211Y562365D01*
G37*
%LPC*%
G36*
X1203518Y570253D02*
X1203755Y570260D01*
X1203988Y570280D01*
X1204217Y570314D01*
X1204441Y570362D01*
X1204877Y570498D01*
X1205297Y570689D01*
X1205686Y570929D01*
X1206031Y571215D01*
X1206333Y571545D01*
X1206591Y571921D01*
X1206702Y572124D01*
X1206798Y572334D01*
X1206879Y572551D01*
X1206945Y572774D01*
X1206997Y573005D01*
X1207034Y573242D01*
X1207056Y573486D01*
X1207063Y573737D01*
X1207048Y574246D01*
X1207004Y574729D01*
X1206929Y575187D01*
X1206824Y575619D01*
X1206690Y576025D01*
X1206525Y576407D01*
X1206331Y576762D01*
X1206106Y577092D01*
X1205857Y577390D01*
X1205587Y577648D01*
X1205297Y577866D01*
X1204987Y578045D01*
X1204656Y578184D01*
X1204305Y578283D01*
X1203934Y578342D01*
X1203542Y578362D01*
X1203154Y578345D01*
X1202787Y578294D01*
X1202441Y578210D01*
X1202116Y578091D01*
X1201812Y577938D01*
X1201530Y577751D01*
X1201268Y577531D01*
X1201027Y577276D01*
X1200812Y576993D01*
X1200625Y576686D01*
X1200467Y576354D01*
X1200337Y575999D01*
X1200237Y575620D01*
X1200165Y575217D01*
X1200122Y574789D01*
X1200107Y574338D01*
X1200122Y573878D01*
X1200165Y573443D01*
X1200237Y573033D01*
X1200337Y572647D01*
X1200467Y572286D01*
X1200625Y571949D01*
X1200812Y571638D01*
X1201027Y571351D01*
X1201268Y571094D01*
X1201528Y570871D01*
X1201809Y570682D01*
X1202110Y570528D01*
X1202432Y570407D01*
X1202773Y570322D01*
X1203135Y570270D01*
X1203518Y570253D01*
G37*
%LPD*%
G36*
X1170377Y562365D02*
X1169711Y562382D01*
X1169068Y562432D01*
X1168449Y562516D01*
X1167853Y562635D01*
X1167281Y562786D01*
X1166731Y562972D01*
X1166206Y563191D01*
X1165703Y563444D01*
X1165227Y563729D01*
X1164780Y564043D01*
X1164361Y564388D01*
X1163972Y564762D01*
X1163611Y565165D01*
X1163280Y565598D01*
X1162977Y566061D01*
X1162704Y566554D01*
X1162461Y567073D01*
X1162250Y567614D01*
X1162072Y568178D01*
X1161926Y568764D01*
X1161813Y569372D01*
X1161732Y570003D01*
X1161683Y570657D01*
X1161667Y571333D01*
X1161676Y571851D01*
X1161702Y572355D01*
X1161746Y572844D01*
X1161808Y573318D01*
X1161887Y573777D01*
X1161984Y574221D01*
X1162099Y574651D01*
X1162231Y575065D01*
X1162381Y575465D01*
X1162549Y575850D01*
X1162734Y576220D01*
X1162937Y576575D01*
X1163157Y576915D01*
X1163395Y577241D01*
X1163651Y577551D01*
X1163924Y577847D01*
X1164214Y578126D01*
X1164517Y578388D01*
X1164835Y578631D01*
X1165167Y578856D01*
X1165514Y579063D01*
X1165874Y579252D01*
X1166249Y579424D01*
X1166639Y579577D01*
X1167042Y579712D01*
X1167460Y579829D01*
X1167892Y579928D01*
X1168338Y580009D01*
X1168799Y580072D01*
X1169274Y580117D01*
X1169763Y580144D01*
X1170267Y580153D01*
X1170968Y580138D01*
X1171635Y580093D01*
X1172268Y580017D01*
X1172868Y579911D01*
X1173434Y579775D01*
X1173966Y579608D01*
X1174464Y579411D01*
X1174929Y579184D01*
X1175364Y578924D01*
X1175773Y578627D01*
X1176156Y578293D01*
X1176514Y577924D01*
X1176847Y577517D01*
X1177153Y577075D01*
X1177434Y576596D01*
X1177689Y576080D01*
X1175456Y575418D01*
X1175264Y575773D01*
X1175053Y576104D01*
X1174826Y576410D01*
X1174581Y576691D01*
X1174318Y576947D01*
X1174038Y577178D01*
X1173741Y577384D01*
X1173426Y577565D01*
X1173092Y577723D01*
X1172739Y577860D01*
X1172366Y577976D01*
X1171974Y578071D01*
X1171561Y578145D01*
X1171129Y578197D01*
X1170677Y578229D01*
X1170206Y578240D01*
X1169837Y578232D01*
X1169479Y578211D01*
X1169133Y578176D01*
X1168797Y578126D01*
X1168472Y578063D01*
X1168159Y577985D01*
X1167856Y577893D01*
X1167565Y577787D01*
X1167284Y577667D01*
X1167015Y577533D01*
X1166756Y577384D01*
X1166509Y577222D01*
X1166273Y577045D01*
X1166047Y576854D01*
X1165833Y576649D01*
X1165630Y576430D01*
X1165438Y576198D01*
X1165259Y575954D01*
X1165092Y575699D01*
X1164937Y575433D01*
X1164795Y575155D01*
X1164665Y574865D01*
X1164548Y574564D01*
X1164443Y574251D01*
X1164350Y573926D01*
X1164270Y573591D01*
X1164202Y573243D01*
X1164146Y572884D01*
X1164103Y572514D01*
X1164072Y572131D01*
X1164053Y571738D01*
X1164047Y571333D01*
X1164054Y570929D01*
X1164073Y570535D01*
X1164106Y570153D01*
X1164152Y569781D01*
X1164211Y569420D01*
X1164283Y569070D01*
X1164369Y568731D01*
X1164467Y568402D01*
X1164579Y568084D01*
X1164703Y567777D01*
X1164841Y567481D01*
X1164992Y567196D01*
X1165157Y566921D01*
X1165334Y566657D01*
X1165524Y566404D01*
X1165728Y566162D01*
X1165943Y565932D01*
X1166168Y565717D01*
X1166403Y565517D01*
X1166649Y565332D01*
X1166904Y565162D01*
X1167169Y565007D01*
X1167445Y564866D01*
X1167730Y564740D01*
X1168026Y564629D01*
X1168332Y564533D01*
X1168648Y564451D01*
X1168973Y564385D01*
X1169309Y564333D01*
X1169655Y564296D01*
X1170011Y564274D01*
X1170377Y564266D01*
X1170797Y564274D01*
X1171210Y564298D01*
X1171615Y564339D01*
X1172014Y564395D01*
X1172405Y564467D01*
X1172789Y564556D01*
X1173166Y564661D01*
X1173536Y564781D01*
X1173894Y564916D01*
X1174234Y565062D01*
X1174557Y565220D01*
X1174863Y565389D01*
X1175151Y565569D01*
X1175421Y565761D01*
X1175674Y565965D01*
X1175910Y566180D01*
X1175910Y569296D01*
X1170745Y569296D01*
X1170745Y571259D01*
X1178069Y571259D01*
X1178069Y565297D01*
X1177716Y564957D01*
X1177344Y564637D01*
X1176952Y564337D01*
X1176540Y564056D01*
X1176110Y563795D01*
X1175660Y563554D01*
X1175190Y563333D01*
X1174702Y563131D01*
X1174198Y562952D01*
X1173684Y562796D01*
X1173159Y562664D01*
X1172624Y562556D01*
X1172078Y562472D01*
X1171522Y562413D01*
X1170955Y562377D01*
X1170377Y562365D01*
G37*
G36*
X1231406Y562365D02*
X1230817Y562381D01*
X1230256Y562431D01*
X1229725Y562513D01*
X1229223Y562628D01*
X1228750Y562777D01*
X1228306Y562958D01*
X1227891Y563172D01*
X1227505Y563420D01*
X1227151Y563698D01*
X1226831Y564006D01*
X1226545Y564344D01*
X1226294Y564711D01*
X1226076Y565108D01*
X1225893Y565534D01*
X1225743Y565989D01*
X1225628Y566474D01*
X1227861Y566732D01*
X1227957Y566422D01*
X1228070Y566131D01*
X1228200Y565861D01*
X1228348Y565610D01*
X1228512Y565380D01*
X1228694Y565170D01*
X1228893Y564979D01*
X1229109Y564809D01*
X1229342Y564659D01*
X1229593Y564529D01*
X1229860Y564418D01*
X1230145Y564328D01*
X1230447Y564258D01*
X1230766Y564208D01*
X1231102Y564178D01*
X1231455Y564168D01*
X1231888Y564185D01*
X1232297Y564235D01*
X1232681Y564319D01*
X1233041Y564436D01*
X1233377Y564587D01*
X1233689Y564772D01*
X1233977Y564990D01*
X1234240Y565242D01*
X1234476Y565522D01*
X1234680Y565828D01*
X1234853Y566160D01*
X1234995Y566516D01*
X1235105Y566897D01*
X1235183Y567304D01*
X1235231Y567735D01*
X1235246Y568192D01*
X1235230Y568590D01*
X1235183Y568969D01*
X1235104Y569328D01*
X1234993Y569667D01*
X1234851Y569987D01*
X1234677Y570288D01*
X1234471Y570568D01*
X1234234Y570830D01*
X1233970Y571065D01*
X1233684Y571270D01*
X1233376Y571443D01*
X1233046Y571584D01*
X1232693Y571694D01*
X1232319Y571773D01*
X1231923Y571820D01*
X1231504Y571836D01*
X1231064Y571818D01*
X1230640Y571765D01*
X1230230Y571677D01*
X1229836Y571553D01*
X1229450Y571388D01*
X1229063Y571173D01*
X1228677Y570909D01*
X1228290Y570597D01*
X1226131Y570597D01*
X1226708Y579896D01*
X1236534Y579896D01*
X1236534Y578019D01*
X1228720Y578019D01*
X1228388Y572535D01*
X1228758Y572794D01*
X1229150Y573018D01*
X1229563Y573208D01*
X1229999Y573363D01*
X1230456Y573484D01*
X1230935Y573570D01*
X1231436Y573622D01*
X1231958Y573639D01*
X1232580Y573616D01*
X1233169Y573545D01*
X1233726Y573429D01*
X1234251Y573265D01*
X1234743Y573054D01*
X1235203Y572797D01*
X1235630Y572493D01*
X1236025Y572142D01*
X1236380Y571754D01*
X1236688Y571337D01*
X1236949Y570892D01*
X1237162Y570419D01*
X1237327Y569917D01*
X1237446Y569387D01*
X1237517Y568828D01*
X1237540Y568241D01*
X1237534Y567904D01*
X1237515Y567575D01*
X1237483Y567256D01*
X1237439Y566946D01*
X1237382Y566645D01*
X1237312Y566353D01*
X1237229Y566070D01*
X1237134Y565797D01*
X1236905Y565277D01*
X1236626Y564793D01*
X1236296Y564346D01*
X1235915Y563935D01*
X1235489Y563567D01*
X1235023Y563248D01*
X1234519Y562978D01*
X1233975Y562757D01*
X1233392Y562585D01*
X1233085Y562518D01*
X1232769Y562463D01*
X1232443Y562420D01*
X1232107Y562389D01*
X1231762Y562371D01*
X1231406Y562365D01*
G37*
G36*
X1223363Y562610D02*
X1211917Y562610D01*
X1211917Y564168D01*
X1212247Y564865D01*
X1212612Y565519D01*
X1213011Y566131D01*
X1213444Y566701D01*
X1213901Y567237D01*
X1214369Y567747D01*
X1214849Y568231D01*
X1215340Y568689D01*
X1216329Y569546D01*
X1217309Y570339D01*
X1218237Y571100D01*
X1219069Y571860D01*
X1219443Y572245D01*
X1219779Y572639D01*
X1220078Y573042D01*
X1220339Y573455D01*
X1220453Y573667D01*
X1220551Y573886D01*
X1220634Y574112D01*
X1220702Y574344D01*
X1220755Y574584D01*
X1220793Y574831D01*
X1220816Y575084D01*
X1220824Y575344D01*
X1220811Y575690D01*
X1220771Y576016D01*
X1220706Y576322D01*
X1220615Y576608D01*
X1220498Y576874D01*
X1220354Y577120D01*
X1220185Y577346D01*
X1219989Y577553D01*
X1219771Y577737D01*
X1219532Y577896D01*
X1219272Y578031D01*
X1218993Y578141D01*
X1218693Y578227D01*
X1218372Y578289D01*
X1218032Y578325D01*
X1217671Y578338D01*
X1217326Y578326D01*
X1216996Y578290D01*
X1216682Y578230D01*
X1216384Y578146D01*
X1216101Y578038D01*
X1215834Y577906D01*
X1215582Y577751D01*
X1215346Y577571D01*
X1215129Y577370D01*
X1214936Y577149D01*
X1214767Y576909D01*
X1214621Y576649D01*
X1214498Y576370D01*
X1214399Y576072D01*
X1214324Y575755D01*
X1214272Y575418D01*
X1212015Y575626D01*
X1212096Y576132D01*
X1212217Y576610D01*
X1212378Y577062D01*
X1212578Y577488D01*
X1212818Y577887D01*
X1213097Y578260D01*
X1213417Y578607D01*
X1213776Y578927D01*
X1214168Y579214D01*
X1214587Y579463D01*
X1215034Y579674D01*
X1215507Y579847D01*
X1216007Y579981D01*
X1216535Y580077D01*
X1217089Y580134D01*
X1217671Y580153D01*
X1218305Y580134D01*
X1218902Y580076D01*
X1219461Y579980D01*
X1219982Y579845D01*
X1220465Y579672D01*
X1220911Y579460D01*
X1221318Y579209D01*
X1221688Y578920D01*
X1222018Y578596D01*
X1222303Y578239D01*
X1222544Y577850D01*
X1222742Y577428D01*
X1222896Y576974D01*
X1223005Y576488D01*
X1223071Y575969D01*
X1223093Y575418D01*
X1223086Y575167D01*
X1223064Y574916D01*
X1223028Y574665D01*
X1222978Y574415D01*
X1222834Y573916D01*
X1222633Y573418D01*
X1222375Y572921D01*
X1222061Y572424D01*
X1221691Y571928D01*
X1221265Y571431D01*
X1220708Y570866D01*
X1219943Y570164D01*
X1218972Y569326D01*
X1217793Y568351D01*
X1217124Y567789D01*
X1216527Y567255D01*
X1216001Y566749D01*
X1215548Y566272D01*
X1215160Y565813D01*
X1214831Y565363D01*
X1214559Y564921D01*
X1214346Y564487D01*
X1223363Y564487D01*
X1223363Y562610D01*
G37*
G36*
X1189467Y562610D02*
X1187136Y562610D01*
X1187136Y569775D01*
X1180487Y579896D01*
X1183063Y579896D01*
X1188326Y571664D01*
X1193564Y579896D01*
X1196141Y579896D01*
X1189467Y569775D01*
X1189467Y562610D01*
G37*
G36*
X1122600Y519017D02*
X1112882Y519017D01*
X1112882Y523107D01*
X1112894Y523504D01*
X1112930Y523878D01*
X1112990Y524229D01*
X1113074Y524557D01*
X1113181Y524862D01*
X1113313Y525144D01*
X1113468Y525403D01*
X1113648Y525638D01*
X1113849Y525848D01*
X1114070Y526031D01*
X1114310Y526185D01*
X1114570Y526311D01*
X1114850Y526409D01*
X1115149Y526479D01*
X1115468Y526521D01*
X1115807Y526535D01*
X1116143Y526521D01*
X1116461Y526479D01*
X1116762Y526408D01*
X1117045Y526310D01*
X1117310Y526183D01*
X1117557Y526029D01*
X1117787Y525846D01*
X1118000Y525635D01*
X1118190Y525400D01*
X1118356Y525144D01*
X1118496Y524869D01*
X1118610Y524574D01*
X1118699Y524258D01*
X1118763Y523922D01*
X1118801Y523566D01*
X1118814Y523190D01*
X1118814Y520334D01*
X1122600Y520334D01*
X1122600Y519017D01*
G37*
%LPC*%
G36*
X1117772Y520334D02*
X1117772Y523004D01*
X1117765Y523271D01*
X1117742Y523521D01*
X1117704Y523754D01*
X1117650Y523969D01*
X1117582Y524167D01*
X1117498Y524349D01*
X1117399Y524512D01*
X1117284Y524659D01*
X1117155Y524788D01*
X1117010Y524900D01*
X1116850Y524995D01*
X1116674Y525073D01*
X1116484Y525133D01*
X1116278Y525176D01*
X1116057Y525202D01*
X1115820Y525211D01*
X1115592Y525202D01*
X1115379Y525175D01*
X1115180Y525131D01*
X1114997Y525069D01*
X1114827Y524990D01*
X1114673Y524893D01*
X1114533Y524778D01*
X1114408Y524645D01*
X1114298Y524495D01*
X1114202Y524327D01*
X1114121Y524141D01*
X1114055Y523938D01*
X1114004Y523717D01*
X1113967Y523479D01*
X1113945Y523222D01*
X1113937Y522948D01*
X1113937Y520334D01*
X1117772Y520334D01*
G37*
%LPD*%
G36*
X1117696Y507600D02*
X1117122Y507620D01*
X1116580Y507679D01*
X1116072Y507779D01*
X1115598Y507917D01*
X1115157Y508096D01*
X1114749Y508314D01*
X1114375Y508572D01*
X1114034Y508869D01*
X1113730Y509202D01*
X1113467Y509568D01*
X1113244Y509965D01*
X1113062Y510395D01*
X1112920Y510857D01*
X1112818Y511351D01*
X1112758Y511877D01*
X1112737Y512435D01*
X1112746Y512829D01*
X1112771Y513204D01*
X1112814Y513560D01*
X1112874Y513897D01*
X1112950Y514215D01*
X1113044Y514514D01*
X1113155Y514795D01*
X1113282Y515056D01*
X1113429Y515300D01*
X1113596Y515530D01*
X1113783Y515746D01*
X1113991Y515947D01*
X1114219Y516134D01*
X1114468Y516306D01*
X1114737Y516464D01*
X1115027Y516608D01*
X1115400Y515352D01*
X1115014Y515126D01*
X1114684Y514860D01*
X1114540Y514712D01*
X1114410Y514555D01*
X1114294Y514388D01*
X1114193Y514211D01*
X1114027Y513825D01*
X1113908Y513394D01*
X1113867Y513163D01*
X1113837Y512920D01*
X1113819Y512666D01*
X1113813Y512400D01*
X1113829Y511992D01*
X1113877Y511609D01*
X1113956Y511250D01*
X1114068Y510916D01*
X1114211Y510607D01*
X1114386Y510322D01*
X1114592Y510063D01*
X1114831Y509828D01*
X1115098Y509619D01*
X1115391Y509439D01*
X1115710Y509286D01*
X1116056Y509161D01*
X1116427Y509063D01*
X1116824Y508994D01*
X1117247Y508952D01*
X1117696Y508938D01*
X1118145Y508953D01*
X1118569Y508997D01*
X1118968Y509071D01*
X1119344Y509174D01*
X1119695Y509307D01*
X1120022Y509470D01*
X1120325Y509662D01*
X1120603Y509883D01*
X1120853Y510131D01*
X1121070Y510401D01*
X1121253Y510694D01*
X1121403Y511009D01*
X1121519Y511347D01*
X1121602Y511708D01*
X1121652Y512091D01*
X1121669Y512497D01*
X1121651Y512965D01*
X1121597Y513417D01*
X1121506Y513853D01*
X1121379Y514273D01*
X1121221Y514665D01*
X1121038Y515019D01*
X1120828Y515333D01*
X1120593Y515607D01*
X1118841Y515607D01*
X1118841Y512704D01*
X1117738Y512704D01*
X1117738Y516821D01*
X1121090Y516821D01*
X1121461Y516413D01*
X1121787Y515962D01*
X1122069Y515467D01*
X1122307Y514928D01*
X1122495Y514356D01*
X1122570Y514061D01*
X1122630Y513760D01*
X1122677Y513453D01*
X1122711Y513140D01*
X1122731Y512822D01*
X1122738Y512497D01*
X1122728Y512122D01*
X1122700Y511761D01*
X1122653Y511413D01*
X1122586Y511078D01*
X1122501Y510756D01*
X1122397Y510447D01*
X1122273Y510152D01*
X1122131Y509869D01*
X1121971Y509601D01*
X1121794Y509350D01*
X1121601Y509115D01*
X1121390Y508896D01*
X1121164Y508693D01*
X1120920Y508507D01*
X1120660Y508337D01*
X1120383Y508183D01*
X1120091Y508046D01*
X1119787Y507928D01*
X1119470Y507828D01*
X1119140Y507746D01*
X1118798Y507682D01*
X1118444Y507637D01*
X1118076Y507609D01*
X1117696Y507600D01*
G37*
G36*
X1120269Y527937D02*
X1120014Y529213D01*
X1120225Y529276D01*
X1120423Y529355D01*
X1120605Y529449D01*
X1120773Y529558D01*
X1120927Y529683D01*
X1121066Y529824D01*
X1121190Y529980D01*
X1121300Y530151D01*
X1121396Y530339D01*
X1121479Y530542D01*
X1121550Y530762D01*
X1121608Y530998D01*
X1121653Y531250D01*
X1121685Y531518D01*
X1121704Y531803D01*
X1121710Y532103D01*
X1121703Y532413D01*
X1121683Y532705D01*
X1121649Y532978D01*
X1121601Y533233D01*
X1121539Y533470D01*
X1121464Y533689D01*
X1121375Y533890D01*
X1121272Y534072D01*
X1121156Y534235D01*
X1121028Y534375D01*
X1120886Y534495D01*
X1120732Y534592D01*
X1120565Y534668D01*
X1120385Y534722D01*
X1120192Y534755D01*
X1119986Y534765D01*
X1119759Y534752D01*
X1119555Y534711D01*
X1119373Y534643D01*
X1119214Y534548D01*
X1119072Y534429D01*
X1118943Y534287D01*
X1118827Y534123D01*
X1118724Y533938D01*
X1118546Y533507D01*
X1118400Y533000D01*
X1118117Y531793D01*
X1117989Y531252D01*
X1117862Y530780D01*
X1117734Y530377D01*
X1117607Y530044D01*
X1117475Y529762D01*
X1117337Y529511D01*
X1117191Y529291D01*
X1117038Y529103D01*
X1116874Y528941D01*
X1116697Y528799D01*
X1116507Y528677D01*
X1116303Y528575D01*
X1116085Y528495D01*
X1115851Y528438D01*
X1115602Y528404D01*
X1115338Y528393D01*
X1115034Y528408D01*
X1114749Y528452D01*
X1114482Y528527D01*
X1114232Y528631D01*
X1114001Y528766D01*
X1113787Y528930D01*
X1113591Y529124D01*
X1113413Y529348D01*
X1113255Y529600D01*
X1113118Y529877D01*
X1113001Y530180D01*
X1112906Y530509D01*
X1112832Y530864D01*
X1112780Y531244D01*
X1112748Y531650D01*
X1112737Y532082D01*
X1112745Y532484D01*
X1112769Y532861D01*
X1112809Y533214D01*
X1112864Y533543D01*
X1112935Y533847D01*
X1113023Y534127D01*
X1113125Y534383D01*
X1113244Y534614D01*
X1113382Y534824D01*
X1113542Y535019D01*
X1113725Y535197D01*
X1113930Y535359D01*
X1114157Y535504D01*
X1114406Y535633D01*
X1114678Y535745D01*
X1114972Y535841D01*
X1115200Y534545D01*
X1115013Y534485D01*
X1114840Y534414D01*
X1114680Y534330D01*
X1114533Y534234D01*
X1114400Y534127D01*
X1114279Y534007D01*
X1114173Y533875D01*
X1114079Y533731D01*
X1113997Y533574D01*
X1113926Y533402D01*
X1113818Y533015D01*
X1113752Y532571D01*
X1113731Y532069D01*
X1113737Y531786D01*
X1113755Y531520D01*
X1113785Y531272D01*
X1113827Y531041D01*
X1113881Y530827D01*
X1113948Y530631D01*
X1114026Y530451D01*
X1114117Y530289D01*
X1114219Y530145D01*
X1114334Y530021D01*
X1114460Y529915D01*
X1114598Y529829D01*
X1114748Y529762D01*
X1114909Y529714D01*
X1115083Y529685D01*
X1115269Y529675D01*
X1115483Y529690D01*
X1115678Y529735D01*
X1115854Y529809D01*
X1116010Y529913D01*
X1116151Y530045D01*
X1116281Y530204D01*
X1116399Y530389D01*
X1116507Y530600D01*
X1116614Y530879D01*
X1116733Y531270D01*
X1116864Y531773D01*
X1117007Y532386D01*
X1117217Y533279D01*
X1117334Y533714D01*
X1117472Y534131D01*
X1117633Y534525D01*
X1117820Y534893D01*
X1118043Y535225D01*
X1118310Y535510D01*
X1118461Y535634D01*
X1118626Y535744D01*
X1118803Y535839D01*
X1118993Y535921D01*
X1119198Y535986D01*
X1119421Y536032D01*
X1119660Y536060D01*
X1119917Y536069D01*
X1120244Y536052D01*
X1120552Y536003D01*
X1120840Y535921D01*
X1121110Y535806D01*
X1121361Y535658D01*
X1121593Y535477D01*
X1121806Y535264D01*
X1122000Y535017D01*
X1122173Y534741D01*
X1122323Y534438D01*
X1122450Y534108D01*
X1122553Y533751D01*
X1122634Y533367D01*
X1122692Y532956D01*
X1122726Y532519D01*
X1122738Y532055D01*
X1122728Y531623D01*
X1122699Y531214D01*
X1122651Y530828D01*
X1122584Y530466D01*
X1122497Y530127D01*
X1122391Y529811D01*
X1122265Y529519D01*
X1122121Y529250D01*
X1121957Y529004D01*
X1121773Y528782D01*
X1121571Y528582D01*
X1121349Y528407D01*
X1121108Y528254D01*
X1120848Y528125D01*
X1120568Y528020D01*
X1120269Y527937D01*
G37*
G36*
X1085088Y318114D02*
X1072747Y318114D01*
X1072747Y323308D01*
X1072762Y323812D01*
X1072808Y324287D01*
X1072884Y324733D01*
X1072990Y325149D01*
X1073127Y325536D01*
X1073294Y325894D01*
X1073492Y326223D01*
X1073719Y326522D01*
X1073975Y326789D01*
X1074255Y327020D01*
X1074561Y327216D01*
X1074891Y327376D01*
X1075246Y327501D01*
X1075626Y327590D01*
X1076031Y327643D01*
X1076461Y327661D01*
X1076888Y327643D01*
X1077292Y327589D01*
X1077674Y327500D01*
X1078033Y327375D01*
X1078370Y327214D01*
X1078684Y327018D01*
X1078976Y326786D01*
X1079246Y326518D01*
X1079488Y326219D01*
X1079698Y325895D01*
X1079876Y325545D01*
X1080021Y325170D01*
X1080134Y324769D01*
X1080215Y324343D01*
X1080263Y323891D01*
X1080280Y323413D01*
X1080280Y319787D01*
X1085088Y319787D01*
X1085088Y318114D01*
G37*
%LPC*%
G36*
X1078957Y319787D02*
X1078957Y323176D01*
X1078947Y323516D01*
X1078918Y323833D01*
X1078870Y324129D01*
X1078802Y324403D01*
X1078715Y324654D01*
X1078608Y324884D01*
X1078483Y325092D01*
X1078337Y325278D01*
X1078173Y325443D01*
X1077989Y325585D01*
X1077785Y325705D01*
X1077563Y325804D01*
X1077321Y325881D01*
X1077059Y325935D01*
X1076779Y325968D01*
X1076478Y325979D01*
X1076189Y325968D01*
X1075918Y325934D01*
X1075666Y325878D01*
X1075432Y325800D01*
X1075217Y325699D01*
X1075021Y325575D01*
X1074844Y325429D01*
X1074685Y325261D01*
X1074545Y325070D01*
X1074424Y324857D01*
X1074321Y324621D01*
X1074237Y324363D01*
X1074171Y324083D01*
X1074125Y323780D01*
X1074097Y323454D01*
X1074087Y323106D01*
X1074087Y319787D01*
X1078957Y319787D01*
G37*
%LPD*%
G36*
X1085088Y329482D02*
X1083976Y329482D01*
X1083478Y329718D01*
X1083011Y329978D01*
X1082574Y330263D01*
X1082167Y330573D01*
X1081784Y330899D01*
X1081420Y331233D01*
X1081075Y331575D01*
X1080748Y331926D01*
X1080136Y332632D01*
X1079570Y333332D01*
X1079027Y333994D01*
X1078484Y334588D01*
X1078209Y334855D01*
X1077928Y335095D01*
X1077640Y335309D01*
X1077345Y335495D01*
X1077038Y335646D01*
X1076710Y335754D01*
X1076363Y335819D01*
X1075997Y335841D01*
X1075750Y335832D01*
X1075517Y335804D01*
X1075299Y335757D01*
X1075095Y335692D01*
X1074905Y335608D01*
X1074729Y335506D01*
X1074567Y335385D01*
X1074420Y335245D01*
X1074289Y335089D01*
X1074175Y334919D01*
X1074079Y334733D01*
X1074000Y334534D01*
X1073938Y334320D01*
X1073895Y334091D01*
X1073868Y333848D01*
X1073860Y333590D01*
X1073868Y333344D01*
X1073894Y333109D01*
X1073937Y332884D01*
X1073996Y332671D01*
X1074073Y332469D01*
X1074167Y332279D01*
X1074279Y332099D01*
X1074407Y331930D01*
X1074551Y331775D01*
X1074708Y331638D01*
X1074880Y331517D01*
X1075065Y331412D01*
X1075264Y331325D01*
X1075477Y331254D01*
X1075704Y331201D01*
X1075944Y331164D01*
X1075795Y329552D01*
X1075435Y329610D01*
X1075093Y329697D01*
X1074770Y329811D01*
X1074466Y329954D01*
X1074181Y330125D01*
X1073915Y330325D01*
X1073668Y330553D01*
X1073439Y330809D01*
X1073234Y331089D01*
X1073056Y331389D01*
X1072905Y331707D01*
X1072782Y332045D01*
X1072686Y332402D01*
X1072618Y332779D01*
X1072577Y333175D01*
X1072563Y333590D01*
X1072577Y334043D01*
X1072618Y334469D01*
X1072687Y334868D01*
X1072783Y335240D01*
X1072907Y335585D01*
X1073058Y335903D01*
X1073237Y336194D01*
X1073444Y336458D01*
X1073675Y336693D01*
X1073930Y336897D01*
X1074208Y337069D01*
X1074509Y337211D01*
X1074833Y337320D01*
X1075180Y337399D01*
X1075551Y337446D01*
X1075944Y337461D01*
X1076303Y337441D01*
X1076660Y337379D01*
X1077016Y337276D01*
X1077372Y337133D01*
X1077726Y336949D01*
X1078081Y336724D01*
X1078436Y336460D01*
X1078791Y336156D01*
X1079194Y335758D01*
X1079695Y335212D01*
X1080293Y334519D01*
X1080989Y333678D01*
X1081391Y333200D01*
X1081772Y332773D01*
X1082133Y332398D01*
X1082474Y332075D01*
X1082801Y331798D01*
X1083123Y331562D01*
X1083438Y331369D01*
X1083748Y331216D01*
X1083748Y337654D01*
X1085088Y337654D01*
X1085088Y329482D01*
G37*
G36*
X1082023Y307954D02*
X1081751Y309592D01*
X1081998Y309638D01*
X1082231Y309695D01*
X1082450Y309766D01*
X1082655Y309848D01*
X1082847Y309943D01*
X1083024Y310050D01*
X1083187Y310170D01*
X1083336Y310301D01*
X1083470Y310444D01*
X1083585Y310595D01*
X1083683Y310755D01*
X1083763Y310923D01*
X1083826Y311101D01*
X1083870Y311287D01*
X1083897Y311482D01*
X1083906Y311685D01*
X1083896Y311907D01*
X1083866Y312117D01*
X1083818Y312314D01*
X1083749Y312500D01*
X1083661Y312673D01*
X1083553Y312835D01*
X1083426Y312984D01*
X1083279Y313122D01*
X1083114Y313245D01*
X1082930Y313352D01*
X1082728Y313442D01*
X1082508Y313516D01*
X1082269Y313573D01*
X1082012Y313614D01*
X1081738Y313639D01*
X1081444Y313647D01*
X1074114Y313647D01*
X1074114Y311274D01*
X1072747Y311274D01*
X1072747Y315311D01*
X1081409Y315311D01*
X1081846Y315296D01*
X1082259Y315251D01*
X1082648Y315175D01*
X1083013Y315068D01*
X1083354Y314931D01*
X1083672Y314764D01*
X1083965Y314567D01*
X1084234Y314339D01*
X1084475Y314085D01*
X1084684Y313808D01*
X1084861Y313509D01*
X1085006Y313187D01*
X1085118Y312843D01*
X1085199Y312477D01*
X1085247Y312088D01*
X1085263Y311676D01*
X1085251Y311294D01*
X1085213Y310932D01*
X1085149Y310590D01*
X1085061Y310268D01*
X1084947Y309966D01*
X1084807Y309683D01*
X1084643Y309421D01*
X1084453Y309178D01*
X1084238Y308955D01*
X1083997Y308753D01*
X1083731Y308570D01*
X1083440Y308407D01*
X1083124Y308264D01*
X1082782Y308141D01*
X1082415Y308037D01*
X1082023Y307954D01*
G37*
G36*
X1384726Y424688D02*
X1383053Y424688D01*
X1383053Y437029D01*
X1388247Y437029D01*
X1388751Y437014D01*
X1389226Y436968D01*
X1389672Y436892D01*
X1390088Y436786D01*
X1390476Y436649D01*
X1390834Y436482D01*
X1391162Y436284D01*
X1391461Y436057D01*
X1391728Y435801D01*
X1391960Y435521D01*
X1392155Y435215D01*
X1392315Y434885D01*
X1392440Y434530D01*
X1392529Y434150D01*
X1392582Y433745D01*
X1392600Y433315D01*
X1392582Y432888D01*
X1392529Y432484D01*
X1392439Y432102D01*
X1392314Y431743D01*
X1392154Y431406D01*
X1391957Y431092D01*
X1391725Y430800D01*
X1391457Y430530D01*
X1391158Y430288D01*
X1390834Y430078D01*
X1390485Y429900D01*
X1390109Y429755D01*
X1389708Y429642D01*
X1389282Y429561D01*
X1388830Y429513D01*
X1388352Y429496D01*
X1384726Y429496D01*
X1384726Y424688D01*
G37*
%LPC*%
G36*
X1388116Y430819D02*
X1388455Y430829D01*
X1388773Y430858D01*
X1389068Y430906D01*
X1389342Y430974D01*
X1389594Y431061D01*
X1389824Y431168D01*
X1390032Y431293D01*
X1390218Y431439D01*
X1390382Y431603D01*
X1390524Y431787D01*
X1390645Y431991D01*
X1390743Y432213D01*
X1390820Y432455D01*
X1390875Y432717D01*
X1390907Y432997D01*
X1390918Y433298D01*
X1390907Y433587D01*
X1390873Y433858D01*
X1390817Y434110D01*
X1390739Y434344D01*
X1390638Y434559D01*
X1390514Y434755D01*
X1390368Y434932D01*
X1390200Y435091D01*
X1390009Y435231D01*
X1389796Y435352D01*
X1389561Y435455D01*
X1389302Y435539D01*
X1389022Y435605D01*
X1388719Y435651D01*
X1388393Y435679D01*
X1388046Y435689D01*
X1384726Y435689D01*
X1384726Y430819D01*
X1388116Y430819D01*
G37*
%LPD*%
G36*
X1375656Y424513D02*
X1375107Y424525D01*
X1374588Y424562D01*
X1374098Y424623D01*
X1373638Y424709D01*
X1373208Y424819D01*
X1372807Y424954D01*
X1372435Y425113D01*
X1372094Y425297D01*
X1371782Y425505D01*
X1371500Y425738D01*
X1371247Y425995D01*
X1371024Y426277D01*
X1370830Y426583D01*
X1370666Y426913D01*
X1370532Y427269D01*
X1370428Y427648D01*
X1372048Y427972D01*
X1372128Y427704D01*
X1372227Y427453D01*
X1372347Y427221D01*
X1372486Y427008D01*
X1372645Y426813D01*
X1372823Y426637D01*
X1373021Y426479D01*
X1373239Y426339D01*
X1373477Y426217D01*
X1373736Y426111D01*
X1374015Y426021D01*
X1374314Y425948D01*
X1374634Y425891D01*
X1374975Y425850D01*
X1375336Y425826D01*
X1375718Y425818D01*
X1376111Y425827D01*
X1376482Y425853D01*
X1376829Y425896D01*
X1377153Y425957D01*
X1377454Y426035D01*
X1377732Y426131D01*
X1377987Y426244D01*
X1378218Y426374D01*
X1378425Y426521D01*
X1378603Y426685D01*
X1378755Y426864D01*
X1378878Y427060D01*
X1378975Y427273D01*
X1379043Y427501D01*
X1379085Y427746D01*
X1379099Y428007D01*
X1379081Y428295D01*
X1379030Y428555D01*
X1378943Y428786D01*
X1378823Y428988D01*
X1378671Y429169D01*
X1378491Y429332D01*
X1378283Y429479D01*
X1378047Y429610D01*
X1377786Y429728D01*
X1377500Y429836D01*
X1377190Y429934D01*
X1376856Y430022D01*
X1375324Y430381D01*
X1374636Y430543D01*
X1374037Y430705D01*
X1373526Y430867D01*
X1373103Y431029D01*
X1372744Y431196D01*
X1372426Y431372D01*
X1372147Y431557D01*
X1371908Y431752D01*
X1371702Y431960D01*
X1371521Y432184D01*
X1371367Y432426D01*
X1371238Y432685D01*
X1371136Y432962D01*
X1371064Y433258D01*
X1371020Y433575D01*
X1371006Y433911D01*
X1371025Y434296D01*
X1371081Y434658D01*
X1371176Y434997D01*
X1371309Y435314D01*
X1371479Y435608D01*
X1371688Y435880D01*
X1371934Y436128D01*
X1372219Y436354D01*
X1372538Y436556D01*
X1372891Y436730D01*
X1373276Y436877D01*
X1373693Y436998D01*
X1374144Y437092D01*
X1374627Y437159D01*
X1375143Y437199D01*
X1375691Y437213D01*
X1376201Y437203D01*
X1376681Y437172D01*
X1377129Y437122D01*
X1377546Y437052D01*
X1377932Y436961D01*
X1378288Y436851D01*
X1378612Y436720D01*
X1378906Y436569D01*
X1379173Y436394D01*
X1379420Y436190D01*
X1379646Y435959D01*
X1379852Y435699D01*
X1380036Y435410D01*
X1380200Y435093D01*
X1380343Y434748D01*
X1380465Y434375D01*
X1378818Y434086D01*
X1378743Y434323D01*
X1378652Y434543D01*
X1378546Y434746D01*
X1378424Y434932D01*
X1378287Y435102D01*
X1378135Y435254D01*
X1377968Y435390D01*
X1377785Y435509D01*
X1377585Y435613D01*
X1377367Y435703D01*
X1377131Y435779D01*
X1376876Y435841D01*
X1376603Y435889D01*
X1376312Y435924D01*
X1376002Y435945D01*
X1375674Y435951D01*
X1375315Y435944D01*
X1374978Y435921D01*
X1374662Y435883D01*
X1374369Y435829D01*
X1374097Y435760D01*
X1373848Y435676D01*
X1373620Y435576D01*
X1373414Y435461D01*
X1373232Y435331D01*
X1373073Y435186D01*
X1372939Y435025D01*
X1372830Y434850D01*
X1372744Y434660D01*
X1372683Y434454D01*
X1372647Y434234D01*
X1372635Y433998D01*
X1372654Y433726D01*
X1372710Y433478D01*
X1372805Y433255D01*
X1372937Y433057D01*
X1373105Y432878D01*
X1373306Y432713D01*
X1373540Y432562D01*
X1373808Y432426D01*
X1374164Y432290D01*
X1374660Y432138D01*
X1375298Y431972D01*
X1376077Y431791D01*
X1377211Y431524D01*
X1377764Y431375D01*
X1378293Y431200D01*
X1378793Y430995D01*
X1379261Y430758D01*
X1379479Y430624D01*
X1379682Y430475D01*
X1379871Y430313D01*
X1380044Y430136D01*
X1380202Y429944D01*
X1380341Y429735D01*
X1380462Y429510D01*
X1380566Y429269D01*
X1380648Y429008D01*
X1380707Y428726D01*
X1380742Y428421D01*
X1380754Y428095D01*
X1380733Y427680D01*
X1380670Y427289D01*
X1380566Y426923D01*
X1380420Y426580D01*
X1380232Y426261D01*
X1380003Y425967D01*
X1379731Y425696D01*
X1379418Y425450D01*
X1379067Y425230D01*
X1378682Y425040D01*
X1378263Y424879D01*
X1377810Y424747D01*
X1377323Y424645D01*
X1376801Y424571D01*
X1376246Y424528D01*
X1375656Y424513D01*
G37*
G36*
X1359525Y424688D02*
X1357790Y424688D01*
X1352754Y437029D01*
X1354515Y437029D01*
X1357931Y428340D01*
X1358666Y426159D01*
X1359402Y428340D01*
X1362800Y437029D01*
X1364561Y437029D01*
X1359525Y424688D01*
G37*
G36*
X1351781Y424688D02*
X1343609Y424688D01*
X1343609Y425800D01*
X1343845Y426298D01*
X1344105Y426765D01*
X1344390Y427202D01*
X1344699Y427609D01*
X1345025Y427992D01*
X1345359Y428356D01*
X1345702Y428701D01*
X1346053Y429028D01*
X1346759Y429640D01*
X1347458Y430206D01*
X1348121Y430749D01*
X1348715Y431292D01*
X1348982Y431567D01*
X1349222Y431848D01*
X1349435Y432136D01*
X1349622Y432431D01*
X1349773Y432738D01*
X1349881Y433066D01*
X1349946Y433413D01*
X1349968Y433779D01*
X1349958Y434026D01*
X1349930Y434259D01*
X1349884Y434477D01*
X1349819Y434681D01*
X1349735Y434871D01*
X1349633Y435047D01*
X1349512Y435209D01*
X1349372Y435356D01*
X1349216Y435487D01*
X1349045Y435601D01*
X1348860Y435697D01*
X1348660Y435776D01*
X1348446Y435838D01*
X1348218Y435881D01*
X1347974Y435908D01*
X1347717Y435916D01*
X1347470Y435908D01*
X1347235Y435882D01*
X1347011Y435839D01*
X1346798Y435780D01*
X1346596Y435703D01*
X1346405Y435609D01*
X1346226Y435497D01*
X1346057Y435369D01*
X1345902Y435225D01*
X1345764Y435068D01*
X1345643Y434896D01*
X1345539Y434711D01*
X1345452Y434512D01*
X1345381Y434299D01*
X1345327Y434072D01*
X1345291Y433832D01*
X1343679Y433981D01*
X1343737Y434341D01*
X1343823Y434683D01*
X1343938Y435006D01*
X1344081Y435310D01*
X1344252Y435595D01*
X1344452Y435861D01*
X1344680Y436108D01*
X1344936Y436337D01*
X1345216Y436542D01*
X1345515Y436720D01*
X1345834Y436871D01*
X1346172Y436994D01*
X1346529Y437090D01*
X1346906Y437158D01*
X1347301Y437199D01*
X1347717Y437213D01*
X1348170Y437199D01*
X1348596Y437158D01*
X1348994Y437089D01*
X1349367Y436993D01*
X1349712Y436869D01*
X1350030Y436718D01*
X1350321Y436539D01*
X1350585Y436332D01*
X1350820Y436101D01*
X1351024Y435846D01*
X1351196Y435568D01*
X1351337Y435267D01*
X1351447Y434943D01*
X1351525Y434596D01*
X1351572Y434225D01*
X1351588Y433832D01*
X1351567Y433473D01*
X1351506Y433116D01*
X1351403Y432760D01*
X1351259Y432404D01*
X1351075Y432050D01*
X1350851Y431695D01*
X1350587Y431340D01*
X1350283Y430985D01*
X1349885Y430582D01*
X1349339Y430081D01*
X1348646Y429483D01*
X1347804Y428787D01*
X1347326Y428385D01*
X1346900Y428004D01*
X1346525Y427643D01*
X1346201Y427302D01*
X1345924Y426975D01*
X1345689Y426653D01*
X1345495Y426338D01*
X1345343Y426028D01*
X1351781Y426028D01*
X1351781Y424688D01*
G37*
G36*
X1409012Y424688D02*
X1407348Y424688D01*
X1407348Y429803D01*
X1402601Y437029D01*
X1404440Y437029D01*
X1408198Y431152D01*
X1411937Y437029D01*
X1413777Y437029D01*
X1409012Y429803D01*
X1409012Y424688D01*
G37*
G36*
X1341838Y424688D02*
X1334104Y424688D01*
X1334104Y426028D01*
X1337249Y426028D01*
X1337249Y435522D01*
X1334463Y433534D01*
X1334463Y435023D01*
X1337380Y437029D01*
X1338834Y437029D01*
X1338834Y426028D01*
X1341838Y426028D01*
X1341838Y424688D01*
G37*
G36*
X1423244Y424688D02*
X1415511Y424688D01*
X1415511Y426028D01*
X1418655Y426028D01*
X1418655Y435522D01*
X1415870Y433534D01*
X1415870Y435023D01*
X1418786Y437029D01*
X1420240Y437029D01*
X1420240Y426028D01*
X1423244Y426028D01*
X1423244Y424688D01*
G37*
G36*
X1402931Y424688D02*
X1395022Y424688D01*
X1395022Y437029D01*
X1396695Y437029D01*
X1396695Y426054D01*
X1402931Y426054D01*
X1402931Y424688D01*
G37*
G36*
X1368821Y428752D02*
X1364441Y428752D01*
X1364441Y430153D01*
X1368821Y430153D01*
X1368821Y428752D01*
G37*
G36*
X894978Y533225D02*
X894511Y533237D01*
X894060Y533273D01*
X893625Y533333D01*
X893207Y533418D01*
X892805Y533526D01*
X892420Y533658D01*
X892051Y533815D01*
X891698Y533996D01*
X891363Y534199D01*
X891049Y534424D01*
X890755Y534670D01*
X890481Y534938D01*
X890228Y535228D01*
X889995Y535538D01*
X889783Y535871D01*
X889591Y536225D01*
X889421Y536597D01*
X889273Y536984D01*
X889148Y537387D01*
X889046Y537804D01*
X888966Y538237D01*
X888910Y538686D01*
X888876Y539149D01*
X888864Y539627D01*
X888870Y539992D01*
X888889Y540347D01*
X888921Y540692D01*
X888965Y541027D01*
X889022Y541351D01*
X889092Y541666D01*
X889174Y541970D01*
X889269Y542265D01*
X889377Y542549D01*
X889497Y542823D01*
X889630Y543087D01*
X889776Y543341D01*
X890105Y543819D01*
X890484Y544256D01*
X890909Y544647D01*
X891137Y544823D01*
X891374Y544986D01*
X891621Y545136D01*
X891878Y545273D01*
X892145Y545397D01*
X892422Y545508D01*
X892709Y545605D01*
X893006Y545690D01*
X893313Y545762D01*
X893629Y545820D01*
X893956Y545866D01*
X894292Y545899D01*
X894639Y545918D01*
X894995Y545925D01*
X895458Y545913D01*
X895905Y545878D01*
X896337Y545819D01*
X896753Y545738D01*
X897154Y545632D01*
X897539Y545503D01*
X897908Y545351D01*
X898262Y545176D01*
X898598Y544978D01*
X898913Y544759D01*
X899208Y544519D01*
X899483Y544257D01*
X899737Y543975D01*
X899971Y543671D01*
X900184Y543346D01*
X900377Y542999D01*
X900549Y542634D01*
X900697Y542253D01*
X900823Y541856D01*
X900926Y541443D01*
X901006Y541013D01*
X901063Y540567D01*
X901097Y540105D01*
X901109Y539627D01*
X901097Y539151D01*
X901062Y538690D01*
X901005Y538243D01*
X900924Y537812D01*
X900819Y537396D01*
X900692Y536995D01*
X900542Y536609D01*
X900368Y536238D01*
X900173Y535885D01*
X899958Y535553D01*
X899723Y535242D01*
X899467Y534952D01*
X899192Y534684D01*
X898896Y534436D01*
X898580Y534210D01*
X898245Y534004D01*
X897891Y533822D01*
X897521Y533663D01*
X897136Y533529D01*
X896736Y533420D01*
X896320Y533334D01*
X895888Y533274D01*
X895441Y533237D01*
X894978Y533225D01*
G37*
%LPC*%
G36*
X894978Y534582D02*
X895496Y534603D01*
X895984Y534665D01*
X896441Y534768D01*
X896866Y534912D01*
X897261Y535097D01*
X897624Y535324D01*
X897956Y535592D01*
X898258Y535901D01*
X898526Y536247D01*
X898758Y536628D01*
X898954Y537043D01*
X899115Y537491D01*
X899240Y537974D01*
X899329Y538491D01*
X899383Y539042D01*
X899401Y539627D01*
X899383Y540188D01*
X899329Y540717D01*
X899239Y541216D01*
X899113Y541683D01*
X898951Y542120D01*
X898753Y542526D01*
X898519Y542901D01*
X898249Y543245D01*
X897946Y543553D01*
X897614Y543819D01*
X897251Y544045D01*
X896860Y544230D01*
X896438Y544374D01*
X895987Y544476D01*
X895506Y544538D01*
X894995Y544558D01*
X894480Y544538D01*
X893996Y544477D01*
X893541Y544376D01*
X893116Y544234D01*
X892722Y544052D01*
X892358Y543829D01*
X892024Y543566D01*
X891719Y543262D01*
X891448Y542922D01*
X891214Y542549D01*
X891015Y542143D01*
X890852Y541705D01*
X890726Y541235D01*
X890636Y540731D01*
X890581Y540196D01*
X890563Y539627D01*
X890582Y539062D01*
X890636Y538527D01*
X890728Y538021D01*
X890856Y537546D01*
X891020Y537101D01*
X891221Y536685D01*
X891459Y536300D01*
X891733Y535944D01*
X892039Y535625D01*
X892374Y535349D01*
X892737Y535114D01*
X893128Y534923D01*
X893548Y534774D01*
X893996Y534668D01*
X894473Y534604D01*
X894978Y534582D01*
G37*
%LPD*%
G36*
X908915Y533225D02*
X908448Y533237D01*
X907997Y533273D01*
X907563Y533333D01*
X907145Y533418D01*
X906743Y533526D01*
X906357Y533658D01*
X905988Y533815D01*
X905635Y533996D01*
X905300Y534199D01*
X904986Y534424D01*
X904692Y534670D01*
X904419Y534938D01*
X904166Y535228D01*
X903933Y535538D01*
X903721Y535871D01*
X903529Y536225D01*
X903358Y536597D01*
X903211Y536984D01*
X903086Y537387D01*
X902983Y537804D01*
X902904Y538237D01*
X902847Y538686D01*
X902813Y539149D01*
X902802Y539627D01*
X902808Y539992D01*
X902827Y540347D01*
X902859Y540692D01*
X902903Y541027D01*
X902960Y541351D01*
X903030Y541666D01*
X903112Y541970D01*
X903207Y542265D01*
X903314Y542549D01*
X903435Y542823D01*
X903568Y543087D01*
X903713Y543341D01*
X904042Y543819D01*
X904422Y544256D01*
X904847Y544647D01*
X905074Y544823D01*
X905312Y544986D01*
X905559Y545136D01*
X905816Y545273D01*
X906083Y545397D01*
X906360Y545508D01*
X906647Y545605D01*
X906943Y545690D01*
X907250Y545762D01*
X907567Y545820D01*
X907893Y545866D01*
X908230Y545899D01*
X908576Y545918D01*
X908933Y545925D01*
X909396Y545913D01*
X909843Y545878D01*
X910275Y545819D01*
X910691Y545738D01*
X911091Y545632D01*
X911476Y545503D01*
X911846Y545351D01*
X912200Y545176D01*
X912535Y544978D01*
X912851Y544759D01*
X913146Y544519D01*
X913420Y544257D01*
X913674Y543975D01*
X913908Y543671D01*
X914122Y543346D01*
X914315Y542999D01*
X914486Y542634D01*
X914635Y542253D01*
X914760Y541856D01*
X914863Y541443D01*
X914943Y541013D01*
X915000Y540567D01*
X915035Y540105D01*
X915046Y539627D01*
X915035Y539151D01*
X915000Y538690D01*
X914942Y538243D01*
X914861Y537812D01*
X914757Y537396D01*
X914630Y536995D01*
X914479Y536609D01*
X914306Y536238D01*
X914111Y535885D01*
X913896Y535553D01*
X913660Y535242D01*
X913405Y534952D01*
X913129Y534684D01*
X912834Y534436D01*
X912518Y534210D01*
X912182Y534004D01*
X911828Y533822D01*
X911459Y533663D01*
X911074Y533529D01*
X910673Y533420D01*
X910257Y533334D01*
X909825Y533274D01*
X909378Y533237D01*
X908915Y533225D01*
G37*
%LPC*%
G36*
X908915Y534582D02*
X909434Y534603D01*
X909922Y534665D01*
X910378Y534768D01*
X910804Y534912D01*
X911198Y535097D01*
X911562Y535324D01*
X911894Y535592D01*
X912195Y535901D01*
X912463Y536247D01*
X912695Y536628D01*
X912892Y537043D01*
X913052Y537491D01*
X913177Y537974D01*
X913267Y538491D01*
X913320Y539042D01*
X913338Y539627D01*
X913320Y540188D01*
X913266Y540717D01*
X913176Y541216D01*
X913050Y541683D01*
X912888Y542120D01*
X912690Y542526D01*
X912456Y542901D01*
X912186Y543245D01*
X911884Y543553D01*
X911551Y543819D01*
X911189Y544045D01*
X910797Y544230D01*
X910376Y544374D01*
X909924Y544476D01*
X909443Y544538D01*
X908933Y544558D01*
X908418Y544538D01*
X907933Y544477D01*
X907478Y544376D01*
X907054Y544234D01*
X906660Y544052D01*
X906295Y543829D01*
X905961Y543566D01*
X905657Y543262D01*
X905386Y542922D01*
X905151Y542549D01*
X904952Y542143D01*
X904790Y541705D01*
X904663Y541235D01*
X904573Y540731D01*
X904519Y540196D01*
X904501Y539627D01*
X904519Y539062D01*
X904574Y538527D01*
X904665Y538021D01*
X904793Y537546D01*
X904958Y537101D01*
X905159Y536685D01*
X905396Y536300D01*
X905670Y535944D01*
X905977Y535625D01*
X906311Y535349D01*
X906674Y535114D01*
X907066Y534923D01*
X907486Y534774D01*
X907934Y534668D01*
X908410Y534604D01*
X908915Y534582D01*
G37*
%LPD*%
G36*
X878190Y533400D02*
X876517Y533400D01*
X876517Y545741D01*
X882324Y545741D01*
X882830Y545726D01*
X883307Y545682D01*
X883754Y545610D01*
X884171Y545508D01*
X884559Y545376D01*
X884916Y545216D01*
X885245Y545027D01*
X885543Y544808D01*
X885809Y544563D01*
X886039Y544296D01*
X886234Y544006D01*
X886394Y543692D01*
X886518Y543356D01*
X886606Y542997D01*
X886659Y542616D01*
X886677Y542211D01*
X886665Y541874D01*
X886627Y541551D01*
X886564Y541241D01*
X886477Y540945D01*
X886364Y540663D01*
X886226Y540395D01*
X886064Y540140D01*
X885876Y539899D01*
X885666Y539675D01*
X885437Y539474D01*
X885189Y539293D01*
X885078Y539227D01*
X884922Y539135D01*
X884636Y538998D01*
X884331Y538882D01*
X884007Y538789D01*
X883664Y538716D01*
X885156Y536453D01*
X887168Y533400D01*
X885241Y533400D01*
X882035Y538524D01*
X878190Y538524D01*
X878190Y533400D01*
G37*
%LPC*%
G36*
X882228Y539846D02*
X882549Y539856D01*
X882852Y539885D01*
X883135Y539933D01*
X883400Y540001D01*
X883647Y540087D01*
X883874Y540194D01*
X884083Y540319D01*
X884273Y540464D01*
X884442Y540626D01*
X884589Y540803D01*
X884713Y540996D01*
X884815Y541205D01*
X884894Y541429D01*
X884950Y541668D01*
X884984Y541923D01*
X884996Y542194D01*
X884984Y542455D01*
X884950Y542700D01*
X884893Y542930D01*
X884813Y543143D01*
X884710Y543340D01*
X884584Y543521D01*
X884436Y543687D01*
X884264Y543836D01*
X884071Y543968D01*
X883858Y544083D01*
X883625Y544180D01*
X883372Y544260D01*
X883099Y544321D01*
X882805Y544365D01*
X882491Y544392D01*
X882158Y544401D01*
X878190Y544401D01*
X878190Y539846D01*
X882228Y539846D01*
G37*
%LPD*%
G36*
X823378Y533400D02*
X821705Y533400D01*
X821705Y545741D01*
X826899Y545741D01*
X827403Y545726D01*
X827878Y545680D01*
X828324Y545604D01*
X828740Y545498D01*
X829127Y545361D01*
X829485Y545194D01*
X829814Y544996D01*
X830113Y544769D01*
X830380Y544513D01*
X830611Y544233D01*
X830807Y543927D01*
X830967Y543597D01*
X831091Y543242D01*
X831180Y542862D01*
X831234Y542457D01*
X831252Y542027D01*
X831234Y541600D01*
X831180Y541196D01*
X831091Y540814D01*
X830966Y540455D01*
X830805Y540118D01*
X830609Y539804D01*
X830376Y539512D01*
X830109Y539242D01*
X829810Y539000D01*
X829486Y538790D01*
X829136Y538612D01*
X828761Y538467D01*
X828360Y538354D01*
X827933Y538273D01*
X827481Y538225D01*
X827004Y538208D01*
X823378Y538208D01*
X823378Y533400D01*
G37*
%LPC*%
G36*
X826767Y539531D02*
X827107Y539541D01*
X827424Y539570D01*
X827720Y539618D01*
X827993Y539686D01*
X828245Y539773D01*
X828475Y539880D01*
X828683Y540005D01*
X828869Y540151D01*
X829033Y540315D01*
X829176Y540499D01*
X829296Y540703D01*
X829395Y540925D01*
X829471Y541167D01*
X829526Y541429D01*
X829559Y541709D01*
X829570Y542010D01*
X829559Y542299D01*
X829525Y542570D01*
X829469Y542822D01*
X829390Y543056D01*
X829289Y543271D01*
X829166Y543467D01*
X829020Y543644D01*
X828852Y543803D01*
X828661Y543943D01*
X828448Y544064D01*
X828212Y544167D01*
X827954Y544251D01*
X827673Y544317D01*
X827370Y544363D01*
X827045Y544391D01*
X826697Y544401D01*
X823378Y544401D01*
X823378Y539531D01*
X826767Y539531D01*
G37*
%LPD*%
G36*
X863850Y533400D02*
X861853Y533400D01*
X858218Y545741D01*
X859961Y545741D01*
X862177Y537902D01*
X862556Y536409D01*
X862904Y534871D01*
X863390Y536973D01*
X863646Y537948D01*
X864136Y539735D01*
X865821Y545741D01*
X867424Y545741D01*
X869569Y538060D01*
X870007Y536321D01*
X870340Y534871D01*
X870419Y535178D01*
X870804Y536820D01*
X871494Y539368D01*
X873266Y545741D01*
X875009Y545741D01*
X871374Y533400D01*
X869377Y533400D01*
X867240Y541239D01*
X866981Y542266D01*
X866627Y543875D01*
X866241Y542176D01*
X865565Y539640D01*
X863850Y533400D01*
G37*
G36*
X918881Y533400D02*
X917392Y533400D01*
X917392Y545741D01*
X919591Y545741D01*
X922875Y537184D01*
X923047Y536648D01*
X923212Y536076D01*
X923427Y535222D01*
X923535Y535663D01*
X923720Y536286D01*
X923908Y536867D01*
X924022Y537184D01*
X927246Y545741D01*
X929391Y545741D01*
X929391Y533400D01*
X927885Y533400D01*
X927885Y541633D01*
X927905Y542973D01*
X927964Y544261D01*
X927557Y542864D01*
X927369Y542293D01*
X927193Y541808D01*
X924005Y533400D01*
X922831Y533400D01*
X919599Y541808D01*
X919109Y543297D01*
X918820Y544261D01*
X918846Y543288D01*
X918881Y541633D01*
X918881Y533400D01*
G37*
G36*
X807520Y533400D02*
X797798Y533400D01*
X797798Y545741D01*
X807161Y545741D01*
X807161Y544374D01*
X799471Y544374D01*
X799471Y540416D01*
X806636Y540416D01*
X806636Y539067D01*
X799471Y539067D01*
X799471Y534766D01*
X807520Y534766D01*
X807520Y533400D01*
G37*
G36*
X814308Y533225D02*
X813759Y533237D01*
X813240Y533274D01*
X812750Y533335D01*
X812290Y533421D01*
X811859Y533531D01*
X811458Y533666D01*
X811087Y533825D01*
X810745Y534009D01*
X810433Y534217D01*
X810151Y534450D01*
X809898Y534707D01*
X809675Y534989D01*
X809482Y535295D01*
X809318Y535625D01*
X809184Y535981D01*
X809079Y536360D01*
X810699Y536684D01*
X810779Y536416D01*
X810879Y536165D01*
X810998Y535933D01*
X811137Y535720D01*
X811296Y535525D01*
X811475Y535349D01*
X811673Y535191D01*
X811891Y535051D01*
X812129Y534929D01*
X812387Y534823D01*
X812666Y534733D01*
X812966Y534660D01*
X813286Y534603D01*
X813626Y534562D01*
X813988Y534538D01*
X814369Y534530D01*
X814763Y534539D01*
X815133Y534565D01*
X815480Y534608D01*
X815805Y534669D01*
X816106Y534747D01*
X816383Y534843D01*
X816638Y534956D01*
X816870Y535086D01*
X817076Y535233D01*
X817255Y535397D01*
X817406Y535576D01*
X817530Y535772D01*
X817626Y535985D01*
X817695Y536213D01*
X817736Y536458D01*
X817750Y536719D01*
X817733Y537007D01*
X817681Y537267D01*
X817595Y537498D01*
X817474Y537700D01*
X817322Y537881D01*
X817142Y538044D01*
X816935Y538191D01*
X816699Y538322D01*
X816437Y538440D01*
X816152Y538548D01*
X815842Y538646D01*
X815508Y538734D01*
X813975Y539093D01*
X813288Y539255D01*
X812689Y539417D01*
X812178Y539579D01*
X811755Y539741D01*
X811396Y539908D01*
X811077Y540084D01*
X810798Y540269D01*
X810559Y540464D01*
X810353Y540672D01*
X810173Y540896D01*
X810018Y541138D01*
X809889Y541397D01*
X809788Y541674D01*
X809715Y541970D01*
X809672Y542287D01*
X809657Y542623D01*
X809676Y543008D01*
X809733Y543370D01*
X809828Y543709D01*
X809960Y544026D01*
X810131Y544320D01*
X810340Y544592D01*
X810586Y544840D01*
X810870Y545066D01*
X811190Y545268D01*
X811542Y545442D01*
X811927Y545589D01*
X812345Y545710D01*
X812795Y545804D01*
X813279Y545871D01*
X813794Y545911D01*
X814343Y545925D01*
X814853Y545915D01*
X815332Y545884D01*
X815780Y545834D01*
X816198Y545764D01*
X816584Y545673D01*
X816939Y545563D01*
X817264Y545432D01*
X817557Y545281D01*
X817825Y545106D01*
X818072Y544902D01*
X818298Y544671D01*
X818503Y544411D01*
X818688Y544122D01*
X818851Y543805D01*
X818994Y543460D01*
X819116Y543087D01*
X817470Y542798D01*
X817394Y543035D01*
X817303Y543255D01*
X817197Y543458D01*
X817076Y543644D01*
X816939Y543814D01*
X816787Y543966D01*
X816619Y544102D01*
X816436Y544221D01*
X816237Y544325D01*
X816019Y544415D01*
X815782Y544491D01*
X815528Y544553D01*
X815255Y544601D01*
X814963Y544636D01*
X814654Y544657D01*
X814325Y544663D01*
X813966Y544656D01*
X813629Y544633D01*
X813314Y544595D01*
X813020Y544541D01*
X812749Y544472D01*
X812499Y544388D01*
X812272Y544288D01*
X812066Y544173D01*
X811883Y544043D01*
X811725Y543898D01*
X811591Y543737D01*
X811481Y543562D01*
X811396Y543372D01*
X811335Y543166D01*
X811298Y542946D01*
X811286Y542710D01*
X811305Y542438D01*
X811362Y542190D01*
X811456Y541967D01*
X811588Y541769D01*
X811756Y541590D01*
X811957Y541425D01*
X812192Y541274D01*
X812460Y541138D01*
X812815Y541002D01*
X813312Y540850D01*
X813949Y540684D01*
X814728Y540503D01*
X815863Y540236D01*
X816415Y540087D01*
X816944Y539912D01*
X817445Y539707D01*
X817912Y539470D01*
X818130Y539336D01*
X818334Y539187D01*
X818522Y539025D01*
X818696Y538848D01*
X818853Y538656D01*
X818993Y538447D01*
X819114Y538222D01*
X819217Y537981D01*
X819300Y537720D01*
X819358Y537438D01*
X819394Y537133D01*
X819405Y536807D01*
X819385Y536392D01*
X819322Y536001D01*
X819218Y535635D01*
X819072Y535292D01*
X818884Y534973D01*
X818654Y534679D01*
X818383Y534408D01*
X818070Y534162D01*
X817719Y533942D01*
X817334Y533752D01*
X816915Y533591D01*
X816461Y533459D01*
X815974Y533357D01*
X815453Y533283D01*
X814897Y533240D01*
X814308Y533225D01*
G37*
G36*
X837203Y533225D02*
X836746Y533238D01*
X836313Y533278D01*
X835904Y533344D01*
X835518Y533436D01*
X835156Y533555D01*
X834818Y533700D01*
X834503Y533872D01*
X834212Y534070D01*
X833947Y534294D01*
X833710Y534543D01*
X833502Y534818D01*
X833322Y535118D01*
X833170Y535443D01*
X833047Y535794D01*
X832952Y536169D01*
X832885Y536571D01*
X834514Y536719D01*
X834562Y536454D01*
X834625Y536206D01*
X834705Y535975D01*
X834801Y535762D01*
X834912Y535565D01*
X835040Y535385D01*
X835184Y535223D01*
X835344Y535077D01*
X835520Y534949D01*
X835712Y534838D01*
X835921Y534744D01*
X836145Y534667D01*
X836385Y534607D01*
X836642Y534564D01*
X836915Y534538D01*
X837203Y534530D01*
X837493Y534539D01*
X837767Y534567D01*
X838025Y534612D01*
X838266Y534677D01*
X838492Y534759D01*
X838702Y534860D01*
X838895Y534979D01*
X839073Y535117D01*
X839232Y535272D01*
X839370Y535446D01*
X839487Y535637D01*
X839582Y535846D01*
X839656Y536073D01*
X839710Y536317D01*
X839741Y536579D01*
X839752Y536860D01*
X839740Y537105D01*
X839703Y537336D01*
X839643Y537553D01*
X839558Y537756D01*
X839449Y537946D01*
X839316Y538122D01*
X839158Y538284D01*
X838977Y538432D01*
X838772Y538564D01*
X838546Y538679D01*
X838299Y538776D01*
X838030Y538855D01*
X837739Y538917D01*
X837427Y538961D01*
X837094Y538988D01*
X836739Y538997D01*
X835846Y538997D01*
X835846Y540363D01*
X836704Y540363D01*
X837019Y540372D01*
X837316Y540398D01*
X837594Y540442D01*
X837855Y540504D01*
X838097Y540584D01*
X838321Y540681D01*
X838526Y540796D01*
X838714Y540928D01*
X838881Y541076D01*
X839026Y541238D01*
X839149Y541413D01*
X839249Y541601D01*
X839327Y541803D01*
X839383Y542019D01*
X839417Y542249D01*
X839428Y542491D01*
X839419Y542732D01*
X839391Y542960D01*
X839346Y543175D01*
X839282Y543377D01*
X839200Y543566D01*
X839100Y543742D01*
X838982Y543905D01*
X838845Y544055D01*
X838691Y544189D01*
X838519Y544306D01*
X838329Y544404D01*
X838122Y544485D01*
X837897Y544548D01*
X837654Y544593D01*
X837394Y544619D01*
X837116Y544628D01*
X836861Y544620D01*
X836619Y544595D01*
X836390Y544553D01*
X836173Y544495D01*
X835968Y544420D01*
X835776Y544328D01*
X835597Y544219D01*
X835430Y544094D01*
X835277Y543954D01*
X835141Y543800D01*
X835023Y543632D01*
X834920Y543450D01*
X834835Y543255D01*
X834767Y543046D01*
X834715Y542824D01*
X834681Y542588D01*
X833095Y542710D01*
X833153Y543079D01*
X833240Y543426D01*
X833354Y543753D01*
X833497Y544059D01*
X833669Y544344D01*
X833868Y544609D01*
X834096Y544852D01*
X834352Y545075D01*
X834632Y545274D01*
X834932Y545447D01*
X835250Y545593D01*
X835588Y545712D01*
X835946Y545805D01*
X836322Y545872D01*
X836718Y545911D01*
X837133Y545925D01*
X837584Y545911D01*
X838010Y545871D01*
X838409Y545803D01*
X838783Y545709D01*
X839131Y545588D01*
X839453Y545439D01*
X839749Y545264D01*
X840019Y545062D01*
X840260Y544836D01*
X840469Y544588D01*
X840646Y544320D01*
X840791Y544030D01*
X840903Y543718D01*
X840984Y543386D01*
X841032Y543033D01*
X841048Y542658D01*
X841038Y542369D01*
X841007Y542094D01*
X840955Y541833D01*
X840883Y541586D01*
X840790Y541353D01*
X840676Y541133D01*
X840542Y540927D01*
X840387Y540735D01*
X840212Y540558D01*
X840019Y540395D01*
X839807Y540247D01*
X839576Y540115D01*
X839326Y539997D01*
X839058Y539894D01*
X838770Y539806D01*
X838464Y539732D01*
X838464Y539697D01*
X838801Y539650D01*
X839118Y539584D01*
X839416Y539497D01*
X839695Y539391D01*
X839955Y539265D01*
X840195Y539119D01*
X840417Y538954D01*
X840619Y538769D01*
X840800Y538568D01*
X840956Y538354D01*
X841089Y538128D01*
X841197Y537889D01*
X841281Y537637D01*
X841342Y537373D01*
X841378Y537096D01*
X841390Y536807D01*
X841373Y536392D01*
X841322Y536001D01*
X841237Y535635D01*
X841118Y535292D01*
X840966Y534973D01*
X840779Y534679D01*
X840558Y534408D01*
X840304Y534162D01*
X840018Y533942D01*
X839703Y533752D01*
X839359Y533591D01*
X838986Y533459D01*
X838583Y533357D01*
X838152Y533283D01*
X837692Y533240D01*
X837203Y533225D01*
G37*
G36*
X851245Y533400D02*
X843073Y533400D01*
X843073Y534512D01*
X843309Y535010D01*
X843569Y535477D01*
X843854Y535914D01*
X844163Y536321D01*
X844489Y536704D01*
X844824Y537068D01*
X845166Y537413D01*
X845517Y537740D01*
X846223Y538352D01*
X846922Y538918D01*
X847585Y539461D01*
X848179Y540004D01*
X848446Y540279D01*
X848686Y540560D01*
X848899Y540848D01*
X849086Y541143D01*
X849237Y541450D01*
X849345Y541778D01*
X849410Y542125D01*
X849432Y542491D01*
X849422Y542738D01*
X849394Y542971D01*
X849348Y543189D01*
X849283Y543393D01*
X849199Y543583D01*
X849097Y543759D01*
X848976Y543921D01*
X848836Y544068D01*
X848680Y544199D01*
X848509Y544313D01*
X848324Y544409D01*
X848124Y544488D01*
X847910Y544550D01*
X847682Y544593D01*
X847438Y544620D01*
X847181Y544628D01*
X846934Y544620D01*
X846699Y544594D01*
X846475Y544551D01*
X846262Y544492D01*
X846060Y544415D01*
X845869Y544321D01*
X845690Y544209D01*
X845521Y544081D01*
X845366Y543937D01*
X845228Y543780D01*
X845107Y543608D01*
X845003Y543423D01*
X844916Y543224D01*
X844845Y543011D01*
X844791Y542784D01*
X844755Y542544D01*
X843143Y542693D01*
X843201Y543053D01*
X843287Y543395D01*
X843402Y543718D01*
X843545Y544022D01*
X843716Y544307D01*
X843916Y544573D01*
X844144Y544820D01*
X844400Y545049D01*
X844680Y545254D01*
X844979Y545432D01*
X845298Y545583D01*
X845636Y545706D01*
X845993Y545802D01*
X846370Y545870D01*
X846766Y545911D01*
X847181Y545925D01*
X847634Y545911D01*
X848060Y545870D01*
X848459Y545801D01*
X848831Y545705D01*
X849176Y545581D01*
X849494Y545430D01*
X849785Y545251D01*
X850049Y545044D01*
X850284Y544813D01*
X850488Y544558D01*
X850660Y544280D01*
X850801Y543979D01*
X850911Y543655D01*
X850989Y543308D01*
X851036Y542937D01*
X851052Y542544D01*
X851031Y542185D01*
X850970Y541828D01*
X850867Y541472D01*
X850724Y541116D01*
X850539Y540762D01*
X850315Y540407D01*
X850051Y540052D01*
X849747Y539697D01*
X849349Y539294D01*
X848803Y538793D01*
X848110Y538195D01*
X847268Y537499D01*
X846790Y537097D01*
X846364Y536716D01*
X845989Y536355D01*
X845665Y536014D01*
X845388Y535687D01*
X845153Y535365D01*
X844959Y535050D01*
X844807Y534740D01*
X851245Y534740D01*
X851245Y533400D01*
G37*
G36*
X857316Y537464D02*
X852937Y537464D01*
X852937Y538865D01*
X857316Y538865D01*
X857316Y537464D01*
G37*
D10*
X638800Y695950D02*
X638800Y675650D01*
X682000Y675650D01*
X682000Y695950D01*
X638800Y695950D01*
X638800Y685800D02*
X633040Y685800D01*
X682000Y685800D02*
X687760Y685800D01*
X682000Y657850D02*
X682000Y637550D01*
X682000Y657850D02*
X638800Y657850D01*
X638800Y637550D01*
X682000Y637550D01*
X682000Y647700D02*
X687760Y647700D01*
X638800Y647700D02*
X633040Y647700D01*
D11*
X812800Y815850D02*
X819150Y822200D01*
X831850Y822200D01*
X838200Y815850D01*
X838200Y803150D01*
X831850Y796800D01*
X819150Y796800D01*
X812800Y803150D01*
X781050Y822200D02*
X768350Y822200D01*
X781050Y822200D02*
X787400Y815850D01*
X787400Y803150D01*
X781050Y796800D01*
X787400Y815850D02*
X793750Y822200D01*
X806450Y822200D01*
X812800Y815850D01*
X812800Y803150D01*
X806450Y796800D01*
X793750Y796800D01*
X787400Y803150D01*
X742950Y822200D02*
X736600Y815850D01*
X742950Y822200D02*
X755650Y822200D01*
X762000Y815850D01*
X762000Y803150D01*
X755650Y796800D01*
X742950Y796800D01*
X736600Y803150D01*
X762000Y815850D02*
X768350Y822200D01*
X762000Y803150D02*
X768350Y796800D01*
X781050Y796800D01*
X704850Y822200D02*
X692150Y822200D01*
X704850Y822200D02*
X711200Y815850D01*
X711200Y803150D01*
X704850Y796800D01*
X711200Y815850D02*
X717550Y822200D01*
X730250Y822200D01*
X736600Y815850D01*
X736600Y803150D01*
X730250Y796800D01*
X717550Y796800D01*
X711200Y803150D01*
X666750Y822200D02*
X660400Y815850D01*
X666750Y822200D02*
X679450Y822200D01*
X685800Y815850D01*
X685800Y803150D01*
X679450Y796800D01*
X666750Y796800D01*
X660400Y803150D01*
X685800Y815850D02*
X692150Y822200D01*
X685800Y803150D02*
X692150Y796800D01*
X704850Y796800D01*
X628650Y822200D02*
X615950Y822200D01*
X628650Y822200D02*
X635000Y815850D01*
X635000Y803150D01*
X628650Y796800D01*
X635000Y815850D02*
X641350Y822200D01*
X654050Y822200D01*
X660400Y815850D01*
X660400Y803150D01*
X654050Y796800D01*
X641350Y796800D01*
X635000Y803150D01*
X590550Y822200D02*
X584200Y815850D01*
X590550Y822200D02*
X603250Y822200D01*
X609600Y815850D01*
X609600Y803150D01*
X603250Y796800D01*
X590550Y796800D01*
X584200Y803150D01*
X609600Y815850D02*
X615950Y822200D01*
X609600Y803150D02*
X615950Y796800D01*
X628650Y796800D01*
X552450Y822200D02*
X539750Y822200D01*
X552450Y822200D02*
X558800Y815850D01*
X558800Y803150D01*
X552450Y796800D01*
X558800Y815850D02*
X565150Y822200D01*
X577850Y822200D01*
X584200Y815850D01*
X584200Y803150D01*
X577850Y796800D01*
X565150Y796800D01*
X558800Y803150D01*
X533400Y803150D02*
X533400Y815850D01*
X539750Y822200D01*
X533400Y803150D02*
X539750Y796800D01*
X552450Y796800D01*
X838200Y815850D02*
X844550Y822200D01*
X857250Y822200D01*
X863600Y815850D01*
X863600Y803150D01*
X857250Y796800D01*
X844550Y796800D01*
X838200Y803150D01*
X524300Y734900D02*
X524300Y635900D01*
X581800Y635900D02*
X581800Y734900D01*
X581800Y635900D02*
X524300Y635900D01*
X524300Y734900D02*
X581800Y734900D01*
X598600Y517100D02*
X499600Y517100D01*
X499600Y459600D02*
X598600Y459600D01*
X499600Y459600D02*
X499600Y517100D01*
X598600Y517100D02*
X598600Y459600D01*
X595200Y390100D02*
X496200Y390100D01*
X496200Y332600D02*
X595200Y332600D01*
X496200Y332600D02*
X496200Y390100D01*
X595200Y390100D02*
X595200Y332600D01*
X610500Y517100D02*
X709500Y517100D01*
X709500Y459600D02*
X610500Y459600D01*
X610500Y517100D01*
X709500Y517100D02*
X709500Y459600D01*
X709500Y390100D02*
X610500Y390100D01*
X610500Y332600D02*
X709500Y332600D01*
X610500Y332600D02*
X610500Y390100D01*
X709500Y390100D02*
X709500Y332600D01*
X1073150Y749300D02*
X1085850Y749300D01*
X1092200Y742950D01*
X1092200Y730250D01*
X1085850Y723900D01*
X1066800Y730250D02*
X1066800Y742950D01*
X1073150Y749300D01*
X1066800Y730250D02*
X1073150Y723900D01*
X1085850Y723900D01*
X1368000Y684900D02*
X1368000Y560900D01*
X1310500Y560900D02*
X1310500Y684900D01*
X1368000Y684900D01*
X1368000Y560900D02*
X1310500Y560900D01*
X709500Y263100D02*
X610500Y263100D01*
X610500Y205600D02*
X709500Y205600D01*
X610500Y205600D02*
X610500Y263100D01*
X709500Y263100D02*
X709500Y205600D01*
X583300Y205100D02*
X509300Y205100D01*
X583300Y205100D02*
X583300Y262600D01*
X509300Y262600D02*
X509300Y205100D01*
X509300Y262600D02*
X583300Y262600D01*
X594254Y292100D02*
X594259Y292475D01*
X594272Y292851D01*
X594295Y293225D01*
X594327Y293599D01*
X594367Y293972D01*
X594417Y294344D01*
X594476Y294715D01*
X594543Y295084D01*
X594620Y295452D01*
X594705Y295818D01*
X594800Y296181D01*
X594903Y296542D01*
X595014Y296900D01*
X595135Y297256D01*
X595263Y297608D01*
X595401Y297958D01*
X595547Y298304D01*
X595701Y298646D01*
X595863Y298985D01*
X596033Y299319D01*
X596212Y299649D01*
X596398Y299975D01*
X596592Y300296D01*
X596794Y300613D01*
X597004Y300924D01*
X597221Y301231D01*
X597445Y301532D01*
X597677Y301827D01*
X597915Y302117D01*
X598161Y302401D01*
X598413Y302679D01*
X598672Y302951D01*
X598937Y303216D01*
X599209Y303475D01*
X599487Y303727D01*
X599771Y303973D01*
X600061Y304211D01*
X600356Y304443D01*
X600657Y304667D01*
X600964Y304884D01*
X601275Y305094D01*
X601592Y305296D01*
X601913Y305490D01*
X602239Y305676D01*
X602569Y305855D01*
X602903Y306025D01*
X603242Y306187D01*
X603584Y306341D01*
X603930Y306487D01*
X604280Y306625D01*
X604632Y306753D01*
X604988Y306874D01*
X605346Y306985D01*
X605707Y307088D01*
X606070Y307183D01*
X606436Y307268D01*
X606804Y307345D01*
X607173Y307412D01*
X607544Y307471D01*
X607916Y307521D01*
X608289Y307561D01*
X608663Y307593D01*
X609037Y307616D01*
X609413Y307629D01*
X609788Y307634D01*
X629520Y307634D01*
X629895Y307629D01*
X630271Y307616D01*
X630645Y307593D01*
X631019Y307561D01*
X631392Y307521D01*
X631764Y307471D01*
X632135Y307412D01*
X632504Y307345D01*
X632872Y307268D01*
X633238Y307183D01*
X633601Y307088D01*
X633962Y306985D01*
X634320Y306874D01*
X634676Y306753D01*
X635028Y306625D01*
X635378Y306487D01*
X635724Y306341D01*
X636066Y306187D01*
X636405Y306025D01*
X636739Y305855D01*
X637069Y305676D01*
X637395Y305490D01*
X637716Y305296D01*
X638033Y305094D01*
X638344Y304884D01*
X638651Y304667D01*
X638952Y304443D01*
X639247Y304211D01*
X639537Y303973D01*
X639821Y303727D01*
X640099Y303475D01*
X640371Y303216D01*
X640636Y302951D01*
X640895Y302679D01*
X641147Y302401D01*
X641393Y302117D01*
X641631Y301827D01*
X641863Y301532D01*
X642087Y301231D01*
X642304Y300924D01*
X642514Y300613D01*
X642716Y300296D01*
X642910Y299975D01*
X643096Y299649D01*
X643275Y299319D01*
X643445Y298985D01*
X643607Y298646D01*
X643761Y298304D01*
X643907Y297958D01*
X644045Y297608D01*
X644173Y297256D01*
X644294Y296900D01*
X644405Y296542D01*
X644508Y296181D01*
X644603Y295818D01*
X644688Y295452D01*
X644765Y295084D01*
X644832Y294715D01*
X644891Y294344D01*
X644941Y293972D01*
X644981Y293599D01*
X645013Y293225D01*
X645036Y292851D01*
X645049Y292475D01*
X645054Y292100D01*
X645050Y291735D01*
X645036Y291371D01*
X645014Y291006D01*
X644984Y290643D01*
X644944Y290280D01*
X644896Y289919D01*
X644838Y289558D01*
X644773Y289199D01*
X644698Y288842D01*
X644615Y288487D01*
X644524Y288134D01*
X644424Y287783D01*
X644315Y287434D01*
X644198Y287089D01*
X644073Y286746D01*
X643939Y286407D01*
X643798Y286070D01*
X643648Y285738D01*
X643490Y285409D01*
X643325Y285084D01*
X643151Y284763D01*
X642970Y284446D01*
X642781Y284134D01*
X642585Y283826D01*
X642381Y283523D01*
X642171Y283226D01*
X641953Y282933D01*
X641728Y282646D01*
X641496Y282364D01*
X641257Y282088D01*
X641012Y281818D01*
X640760Y281554D01*
X640502Y281296D01*
X640238Y281044D01*
X639968Y280799D01*
X639692Y280560D01*
X639410Y280328D01*
X639123Y280103D01*
X638830Y279885D01*
X638533Y279675D01*
X638230Y279471D01*
X637922Y279275D01*
X637610Y279086D01*
X637293Y278905D01*
X636972Y278731D01*
X636647Y278566D01*
X636318Y278408D01*
X635986Y278258D01*
X635649Y278117D01*
X635310Y277983D01*
X634967Y277858D01*
X634622Y277741D01*
X634273Y277632D01*
X633922Y277532D01*
X633569Y277441D01*
X633214Y277358D01*
X632857Y277283D01*
X632498Y277218D01*
X632137Y277160D01*
X631776Y277112D01*
X631413Y277072D01*
X631050Y277042D01*
X630685Y277020D01*
X630321Y277006D01*
X629956Y277002D01*
X609352Y277002D02*
X608987Y277006D01*
X608623Y277020D01*
X608258Y277042D01*
X607895Y277072D01*
X607532Y277112D01*
X607171Y277160D01*
X606810Y277218D01*
X606451Y277283D01*
X606094Y277358D01*
X605739Y277441D01*
X605386Y277532D01*
X605035Y277632D01*
X604686Y277741D01*
X604341Y277858D01*
X603998Y277983D01*
X603659Y278117D01*
X603322Y278258D01*
X602990Y278408D01*
X602661Y278566D01*
X602336Y278731D01*
X602015Y278905D01*
X601698Y279086D01*
X601386Y279275D01*
X601078Y279471D01*
X600775Y279675D01*
X600478Y279885D01*
X600185Y280103D01*
X599898Y280328D01*
X599616Y280560D01*
X599340Y280799D01*
X599070Y281044D01*
X598806Y281296D01*
X598548Y281554D01*
X598296Y281818D01*
X598051Y282088D01*
X597812Y282364D01*
X597580Y282646D01*
X597355Y282933D01*
X597137Y283226D01*
X596927Y283523D01*
X596723Y283826D01*
X596527Y284134D01*
X596338Y284446D01*
X596157Y284763D01*
X595983Y285084D01*
X595818Y285409D01*
X595660Y285738D01*
X595510Y286070D01*
X595369Y286407D01*
X595235Y286746D01*
X595110Y287089D01*
X594993Y287434D01*
X594884Y287783D01*
X594784Y288134D01*
X594693Y288487D01*
X594610Y288842D01*
X594535Y289199D01*
X594470Y289558D01*
X594412Y289919D01*
X594364Y290280D01*
X594324Y290643D01*
X594294Y291006D01*
X594272Y291371D01*
X594258Y291735D01*
X594254Y292100D01*
X609352Y277002D02*
X629956Y277002D01*
X705720Y276566D02*
X706095Y276571D01*
X706471Y276584D01*
X706845Y276607D01*
X707219Y276639D01*
X707592Y276679D01*
X707964Y276729D01*
X708335Y276788D01*
X708704Y276855D01*
X709072Y276932D01*
X709438Y277017D01*
X709801Y277112D01*
X710162Y277215D01*
X710520Y277326D01*
X710876Y277447D01*
X711228Y277575D01*
X711578Y277713D01*
X711924Y277859D01*
X712266Y278013D01*
X712605Y278175D01*
X712939Y278345D01*
X713269Y278524D01*
X713595Y278710D01*
X713916Y278904D01*
X714233Y279106D01*
X714544Y279316D01*
X714851Y279533D01*
X715152Y279757D01*
X715447Y279989D01*
X715737Y280227D01*
X716021Y280473D01*
X716299Y280725D01*
X716571Y280984D01*
X716836Y281249D01*
X717095Y281521D01*
X717347Y281799D01*
X717593Y282083D01*
X717831Y282373D01*
X718063Y282668D01*
X718287Y282969D01*
X718504Y283276D01*
X718714Y283587D01*
X718916Y283904D01*
X719110Y284225D01*
X719296Y284551D01*
X719475Y284881D01*
X719645Y285215D01*
X719807Y285554D01*
X719961Y285896D01*
X720107Y286242D01*
X720245Y286592D01*
X720373Y286944D01*
X720494Y287300D01*
X720605Y287658D01*
X720708Y288019D01*
X720803Y288382D01*
X720888Y288748D01*
X720965Y289116D01*
X721032Y289485D01*
X721091Y289856D01*
X721141Y290228D01*
X721181Y290601D01*
X721213Y290975D01*
X721236Y291349D01*
X721249Y291725D01*
X721254Y292100D01*
X705720Y276566D02*
X685988Y276566D01*
X685613Y276571D01*
X685237Y276584D01*
X684863Y276607D01*
X684489Y276639D01*
X684116Y276679D01*
X683744Y276729D01*
X683373Y276788D01*
X683004Y276855D01*
X682636Y276932D01*
X682270Y277017D01*
X681907Y277112D01*
X681546Y277215D01*
X681188Y277326D01*
X680832Y277447D01*
X680480Y277575D01*
X680130Y277713D01*
X679784Y277859D01*
X679442Y278013D01*
X679103Y278175D01*
X678769Y278345D01*
X678439Y278524D01*
X678113Y278710D01*
X677792Y278904D01*
X677475Y279106D01*
X677164Y279316D01*
X676857Y279533D01*
X676556Y279757D01*
X676261Y279989D01*
X675971Y280227D01*
X675687Y280473D01*
X675409Y280725D01*
X675137Y280984D01*
X674872Y281249D01*
X674613Y281521D01*
X674361Y281799D01*
X674115Y282083D01*
X673877Y282373D01*
X673645Y282668D01*
X673421Y282969D01*
X673204Y283276D01*
X672994Y283587D01*
X672792Y283904D01*
X672598Y284225D01*
X672412Y284551D01*
X672233Y284881D01*
X672063Y285215D01*
X671901Y285554D01*
X671747Y285896D01*
X671601Y286242D01*
X671463Y286592D01*
X671335Y286944D01*
X671214Y287300D01*
X671103Y287658D01*
X671000Y288019D01*
X670905Y288382D01*
X670820Y288748D01*
X670743Y289116D01*
X670676Y289485D01*
X670617Y289856D01*
X670567Y290228D01*
X670527Y290601D01*
X670495Y290975D01*
X670472Y291349D01*
X670459Y291725D01*
X670454Y292100D01*
X670458Y292465D01*
X670472Y292829D01*
X670494Y293194D01*
X670524Y293557D01*
X670564Y293920D01*
X670612Y294281D01*
X670670Y294642D01*
X670735Y295001D01*
X670810Y295358D01*
X670893Y295713D01*
X670984Y296066D01*
X671084Y296417D01*
X671193Y296766D01*
X671310Y297111D01*
X671435Y297454D01*
X671569Y297793D01*
X671710Y298130D01*
X671860Y298462D01*
X672018Y298791D01*
X672183Y299116D01*
X672357Y299437D01*
X672538Y299754D01*
X672727Y300066D01*
X672923Y300374D01*
X673127Y300677D01*
X673337Y300974D01*
X673555Y301267D01*
X673780Y301554D01*
X674012Y301836D01*
X674251Y302112D01*
X674496Y302382D01*
X674748Y302646D01*
X675006Y302904D01*
X675270Y303156D01*
X675540Y303401D01*
X675816Y303640D01*
X676098Y303872D01*
X676385Y304097D01*
X676678Y304315D01*
X676975Y304525D01*
X677278Y304729D01*
X677586Y304925D01*
X677898Y305114D01*
X678215Y305295D01*
X678536Y305469D01*
X678861Y305634D01*
X679190Y305792D01*
X679522Y305942D01*
X679859Y306083D01*
X680198Y306217D01*
X680541Y306342D01*
X680886Y306459D01*
X681235Y306568D01*
X681586Y306668D01*
X681939Y306759D01*
X682294Y306842D01*
X682651Y306917D01*
X683010Y306982D01*
X683371Y307040D01*
X683732Y307088D01*
X684095Y307128D01*
X684458Y307158D01*
X684823Y307180D01*
X685187Y307194D01*
X685552Y307198D01*
X706156Y307198D02*
X706521Y307194D01*
X706885Y307180D01*
X707250Y307158D01*
X707613Y307128D01*
X707976Y307088D01*
X708337Y307040D01*
X708698Y306982D01*
X709057Y306917D01*
X709414Y306842D01*
X709769Y306759D01*
X710122Y306668D01*
X710473Y306568D01*
X710822Y306459D01*
X711167Y306342D01*
X711510Y306217D01*
X711849Y306083D01*
X712186Y305942D01*
X712518Y305792D01*
X712847Y305634D01*
X713172Y305469D01*
X713493Y305295D01*
X713810Y305114D01*
X714122Y304925D01*
X714430Y304729D01*
X714733Y304525D01*
X715030Y304315D01*
X715323Y304097D01*
X715610Y303872D01*
X715892Y303640D01*
X716168Y303401D01*
X716438Y303156D01*
X716702Y302904D01*
X716960Y302646D01*
X717212Y302382D01*
X717457Y302112D01*
X717696Y301836D01*
X717928Y301554D01*
X718153Y301267D01*
X718371Y300974D01*
X718581Y300677D01*
X718785Y300374D01*
X718981Y300066D01*
X719170Y299754D01*
X719351Y299437D01*
X719525Y299116D01*
X719690Y298791D01*
X719848Y298462D01*
X719998Y298130D01*
X720139Y297793D01*
X720273Y297454D01*
X720398Y297111D01*
X720515Y296766D01*
X720624Y296417D01*
X720724Y296066D01*
X720815Y295713D01*
X720898Y295358D01*
X720973Y295001D01*
X721038Y294642D01*
X721096Y294281D01*
X721144Y293920D01*
X721184Y293557D01*
X721214Y293194D01*
X721236Y292829D01*
X721250Y292465D01*
X721254Y292100D01*
X706156Y307198D02*
X685552Y307198D01*
X1081836Y403566D02*
X1082211Y403571D01*
X1082587Y403584D01*
X1082961Y403607D01*
X1083335Y403639D01*
X1083708Y403679D01*
X1084080Y403729D01*
X1084451Y403788D01*
X1084820Y403855D01*
X1085188Y403932D01*
X1085554Y404017D01*
X1085917Y404112D01*
X1086278Y404215D01*
X1086636Y404326D01*
X1086992Y404447D01*
X1087344Y404575D01*
X1087694Y404713D01*
X1088040Y404859D01*
X1088382Y405013D01*
X1088721Y405175D01*
X1089055Y405345D01*
X1089385Y405524D01*
X1089711Y405710D01*
X1090032Y405904D01*
X1090349Y406106D01*
X1090660Y406316D01*
X1090967Y406533D01*
X1091268Y406757D01*
X1091563Y406989D01*
X1091853Y407227D01*
X1092137Y407473D01*
X1092415Y407725D01*
X1092687Y407984D01*
X1092952Y408249D01*
X1093211Y408521D01*
X1093463Y408799D01*
X1093709Y409083D01*
X1093947Y409373D01*
X1094179Y409668D01*
X1094403Y409969D01*
X1094620Y410276D01*
X1094830Y410587D01*
X1095032Y410904D01*
X1095226Y411225D01*
X1095412Y411551D01*
X1095591Y411881D01*
X1095761Y412215D01*
X1095923Y412554D01*
X1096077Y412896D01*
X1096223Y413242D01*
X1096361Y413592D01*
X1096489Y413944D01*
X1096610Y414300D01*
X1096721Y414658D01*
X1096824Y415019D01*
X1096919Y415382D01*
X1097004Y415748D01*
X1097081Y416116D01*
X1097148Y416485D01*
X1097207Y416856D01*
X1097257Y417228D01*
X1097297Y417601D01*
X1097329Y417975D01*
X1097352Y418349D01*
X1097365Y418725D01*
X1097370Y419100D01*
X1081836Y403566D02*
X1062103Y403566D01*
X1061728Y403571D01*
X1061352Y403584D01*
X1060978Y403607D01*
X1060604Y403639D01*
X1060231Y403679D01*
X1059859Y403729D01*
X1059488Y403788D01*
X1059119Y403855D01*
X1058751Y403932D01*
X1058385Y404017D01*
X1058022Y404112D01*
X1057661Y404215D01*
X1057303Y404326D01*
X1056947Y404447D01*
X1056595Y404575D01*
X1056245Y404713D01*
X1055899Y404859D01*
X1055557Y405013D01*
X1055218Y405175D01*
X1054884Y405345D01*
X1054554Y405524D01*
X1054228Y405710D01*
X1053907Y405904D01*
X1053590Y406106D01*
X1053279Y406316D01*
X1052972Y406533D01*
X1052671Y406757D01*
X1052376Y406989D01*
X1052086Y407227D01*
X1051802Y407473D01*
X1051524Y407725D01*
X1051252Y407984D01*
X1050987Y408249D01*
X1050728Y408521D01*
X1050476Y408799D01*
X1050230Y409083D01*
X1049992Y409373D01*
X1049760Y409668D01*
X1049536Y409969D01*
X1049319Y410276D01*
X1049109Y410587D01*
X1048907Y410904D01*
X1048713Y411225D01*
X1048527Y411551D01*
X1048348Y411881D01*
X1048178Y412215D01*
X1048016Y412554D01*
X1047862Y412896D01*
X1047716Y413242D01*
X1047578Y413592D01*
X1047450Y413944D01*
X1047329Y414300D01*
X1047218Y414658D01*
X1047115Y415019D01*
X1047020Y415382D01*
X1046935Y415748D01*
X1046858Y416116D01*
X1046791Y416485D01*
X1046732Y416856D01*
X1046682Y417228D01*
X1046642Y417601D01*
X1046610Y417975D01*
X1046587Y418349D01*
X1046574Y418725D01*
X1046569Y419100D01*
X1046570Y419100D02*
X1046574Y419465D01*
X1046588Y419829D01*
X1046610Y420194D01*
X1046640Y420557D01*
X1046680Y420920D01*
X1046728Y421281D01*
X1046786Y421642D01*
X1046851Y422001D01*
X1046926Y422358D01*
X1047009Y422713D01*
X1047100Y423066D01*
X1047200Y423417D01*
X1047309Y423766D01*
X1047426Y424111D01*
X1047551Y424454D01*
X1047685Y424793D01*
X1047826Y425130D01*
X1047976Y425462D01*
X1048134Y425791D01*
X1048299Y426116D01*
X1048473Y426437D01*
X1048654Y426754D01*
X1048843Y427066D01*
X1049039Y427374D01*
X1049243Y427677D01*
X1049453Y427974D01*
X1049671Y428267D01*
X1049896Y428554D01*
X1050128Y428836D01*
X1050367Y429112D01*
X1050612Y429382D01*
X1050864Y429646D01*
X1051122Y429904D01*
X1051386Y430156D01*
X1051656Y430401D01*
X1051932Y430640D01*
X1052214Y430872D01*
X1052501Y431097D01*
X1052794Y431315D01*
X1053091Y431525D01*
X1053394Y431729D01*
X1053702Y431925D01*
X1054014Y432114D01*
X1054331Y432295D01*
X1054652Y432469D01*
X1054977Y432634D01*
X1055306Y432792D01*
X1055638Y432942D01*
X1055975Y433083D01*
X1056314Y433217D01*
X1056657Y433342D01*
X1057002Y433459D01*
X1057351Y433568D01*
X1057702Y433668D01*
X1058055Y433759D01*
X1058410Y433842D01*
X1058767Y433917D01*
X1059126Y433982D01*
X1059487Y434040D01*
X1059848Y434088D01*
X1060211Y434128D01*
X1060574Y434158D01*
X1060939Y434180D01*
X1061303Y434194D01*
X1061668Y434198D01*
X1082271Y434198D02*
X1082636Y434194D01*
X1083000Y434180D01*
X1083365Y434158D01*
X1083728Y434128D01*
X1084091Y434088D01*
X1084452Y434040D01*
X1084813Y433982D01*
X1085172Y433917D01*
X1085529Y433842D01*
X1085884Y433759D01*
X1086237Y433668D01*
X1086588Y433568D01*
X1086937Y433459D01*
X1087282Y433342D01*
X1087625Y433217D01*
X1087964Y433083D01*
X1088301Y432942D01*
X1088633Y432792D01*
X1088962Y432634D01*
X1089287Y432469D01*
X1089608Y432295D01*
X1089925Y432114D01*
X1090237Y431925D01*
X1090545Y431729D01*
X1090848Y431525D01*
X1091145Y431315D01*
X1091438Y431097D01*
X1091725Y430872D01*
X1092007Y430640D01*
X1092283Y430401D01*
X1092553Y430156D01*
X1092817Y429904D01*
X1093075Y429646D01*
X1093327Y429382D01*
X1093572Y429112D01*
X1093811Y428836D01*
X1094043Y428554D01*
X1094268Y428267D01*
X1094486Y427974D01*
X1094696Y427677D01*
X1094900Y427374D01*
X1095096Y427066D01*
X1095285Y426754D01*
X1095466Y426437D01*
X1095640Y426116D01*
X1095805Y425791D01*
X1095963Y425462D01*
X1096113Y425130D01*
X1096254Y424793D01*
X1096388Y424454D01*
X1096513Y424111D01*
X1096630Y423766D01*
X1096739Y423417D01*
X1096839Y423066D01*
X1096930Y422713D01*
X1097013Y422358D01*
X1097088Y422001D01*
X1097153Y421642D01*
X1097211Y421281D01*
X1097259Y420920D01*
X1097299Y420557D01*
X1097329Y420194D01*
X1097351Y419829D01*
X1097365Y419465D01*
X1097369Y419100D01*
X1082271Y434198D02*
X1061668Y434198D01*
X544882Y631484D02*
X544507Y631479D01*
X544131Y631466D01*
X543757Y631443D01*
X543383Y631411D01*
X543010Y631371D01*
X542638Y631321D01*
X542267Y631262D01*
X541898Y631195D01*
X541530Y631118D01*
X541164Y631033D01*
X540801Y630938D01*
X540440Y630835D01*
X540082Y630724D01*
X539726Y630603D01*
X539374Y630475D01*
X539024Y630337D01*
X538678Y630191D01*
X538336Y630037D01*
X537997Y629875D01*
X537663Y629705D01*
X537333Y629526D01*
X537007Y629340D01*
X536686Y629146D01*
X536369Y628944D01*
X536058Y628734D01*
X535751Y628517D01*
X535450Y628293D01*
X535155Y628061D01*
X534865Y627823D01*
X534581Y627577D01*
X534303Y627325D01*
X534031Y627066D01*
X533766Y626801D01*
X533507Y626529D01*
X533255Y626251D01*
X533009Y625967D01*
X532771Y625677D01*
X532539Y625382D01*
X532315Y625081D01*
X532098Y624774D01*
X531888Y624463D01*
X531686Y624146D01*
X531492Y623825D01*
X531306Y623499D01*
X531127Y623169D01*
X530957Y622835D01*
X530795Y622496D01*
X530641Y622154D01*
X530495Y621808D01*
X530357Y621458D01*
X530229Y621106D01*
X530108Y620750D01*
X529997Y620392D01*
X529894Y620031D01*
X529799Y619668D01*
X529714Y619302D01*
X529637Y618934D01*
X529570Y618565D01*
X529511Y618194D01*
X529461Y617822D01*
X529421Y617449D01*
X529389Y617075D01*
X529366Y616701D01*
X529353Y616325D01*
X529348Y615950D01*
X544882Y631484D02*
X564615Y631484D01*
X564990Y631479D01*
X565366Y631466D01*
X565740Y631443D01*
X566114Y631411D01*
X566487Y631371D01*
X566859Y631321D01*
X567230Y631262D01*
X567599Y631195D01*
X567967Y631118D01*
X568333Y631033D01*
X568696Y630938D01*
X569057Y630835D01*
X569415Y630724D01*
X569771Y630603D01*
X570123Y630475D01*
X570473Y630337D01*
X570819Y630191D01*
X571161Y630037D01*
X571500Y629875D01*
X571834Y629705D01*
X572164Y629526D01*
X572490Y629340D01*
X572811Y629146D01*
X573128Y628944D01*
X573439Y628734D01*
X573746Y628517D01*
X574047Y628293D01*
X574342Y628061D01*
X574632Y627823D01*
X574916Y627577D01*
X575194Y627325D01*
X575466Y627066D01*
X575731Y626801D01*
X575990Y626529D01*
X576242Y626251D01*
X576488Y625967D01*
X576726Y625677D01*
X576958Y625382D01*
X577182Y625081D01*
X577399Y624774D01*
X577609Y624463D01*
X577811Y624146D01*
X578005Y623825D01*
X578191Y623499D01*
X578370Y623169D01*
X578540Y622835D01*
X578702Y622496D01*
X578856Y622154D01*
X579002Y621808D01*
X579140Y621458D01*
X579268Y621106D01*
X579389Y620750D01*
X579500Y620392D01*
X579603Y620031D01*
X579698Y619668D01*
X579783Y619302D01*
X579860Y618934D01*
X579927Y618565D01*
X579986Y618194D01*
X580036Y617822D01*
X580076Y617449D01*
X580108Y617075D01*
X580131Y616701D01*
X580144Y616325D01*
X580149Y615950D01*
X580148Y615950D02*
X580144Y615585D01*
X580130Y615221D01*
X580108Y614856D01*
X580078Y614493D01*
X580038Y614130D01*
X579990Y613769D01*
X579932Y613408D01*
X579867Y613049D01*
X579792Y612692D01*
X579709Y612337D01*
X579618Y611984D01*
X579518Y611633D01*
X579409Y611284D01*
X579292Y610939D01*
X579167Y610596D01*
X579033Y610257D01*
X578892Y609920D01*
X578742Y609588D01*
X578584Y609259D01*
X578419Y608934D01*
X578245Y608613D01*
X578064Y608296D01*
X577875Y607984D01*
X577679Y607676D01*
X577475Y607373D01*
X577265Y607076D01*
X577047Y606783D01*
X576822Y606496D01*
X576590Y606214D01*
X576351Y605938D01*
X576106Y605668D01*
X575854Y605404D01*
X575596Y605146D01*
X575332Y604894D01*
X575062Y604649D01*
X574786Y604410D01*
X574504Y604178D01*
X574217Y603953D01*
X573924Y603735D01*
X573627Y603525D01*
X573324Y603321D01*
X573016Y603125D01*
X572704Y602936D01*
X572387Y602755D01*
X572066Y602581D01*
X571741Y602416D01*
X571412Y602258D01*
X571080Y602108D01*
X570743Y601967D01*
X570404Y601833D01*
X570061Y601708D01*
X569716Y601591D01*
X569367Y601482D01*
X569016Y601382D01*
X568663Y601291D01*
X568308Y601208D01*
X567951Y601133D01*
X567592Y601068D01*
X567231Y601010D01*
X566870Y600962D01*
X566507Y600922D01*
X566144Y600892D01*
X565779Y600870D01*
X565415Y600856D01*
X565050Y600852D01*
X544447Y600852D02*
X544082Y600856D01*
X543718Y600870D01*
X543353Y600892D01*
X542990Y600922D01*
X542627Y600962D01*
X542266Y601010D01*
X541905Y601068D01*
X541546Y601133D01*
X541189Y601208D01*
X540834Y601291D01*
X540481Y601382D01*
X540130Y601482D01*
X539781Y601591D01*
X539436Y601708D01*
X539093Y601833D01*
X538754Y601967D01*
X538417Y602108D01*
X538085Y602258D01*
X537756Y602416D01*
X537431Y602581D01*
X537110Y602755D01*
X536793Y602936D01*
X536481Y603125D01*
X536173Y603321D01*
X535870Y603525D01*
X535573Y603735D01*
X535280Y603953D01*
X534993Y604178D01*
X534711Y604410D01*
X534435Y604649D01*
X534165Y604894D01*
X533901Y605146D01*
X533643Y605404D01*
X533391Y605668D01*
X533146Y605938D01*
X532907Y606214D01*
X532675Y606496D01*
X532450Y606783D01*
X532232Y607076D01*
X532022Y607373D01*
X531818Y607676D01*
X531622Y607984D01*
X531433Y608296D01*
X531252Y608613D01*
X531078Y608934D01*
X530913Y609259D01*
X530755Y609588D01*
X530605Y609920D01*
X530464Y610257D01*
X530330Y610596D01*
X530205Y610939D01*
X530088Y611284D01*
X529979Y611633D01*
X529879Y611984D01*
X529788Y612337D01*
X529705Y612692D01*
X529630Y613049D01*
X529565Y613408D01*
X529507Y613769D01*
X529459Y614130D01*
X529419Y614493D01*
X529389Y614856D01*
X529367Y615221D01*
X529353Y615585D01*
X529349Y615950D01*
X544447Y600852D02*
X565050Y600852D01*
X635000Y723900D02*
X635005Y724275D01*
X635018Y724651D01*
X635041Y725025D01*
X635073Y725399D01*
X635113Y725772D01*
X635163Y726144D01*
X635222Y726515D01*
X635289Y726884D01*
X635366Y727252D01*
X635451Y727618D01*
X635546Y727981D01*
X635649Y728342D01*
X635760Y728700D01*
X635881Y729056D01*
X636009Y729408D01*
X636147Y729758D01*
X636293Y730104D01*
X636447Y730446D01*
X636609Y730785D01*
X636779Y731119D01*
X636958Y731449D01*
X637144Y731775D01*
X637338Y732096D01*
X637540Y732413D01*
X637750Y732724D01*
X637967Y733031D01*
X638191Y733332D01*
X638423Y733627D01*
X638661Y733917D01*
X638907Y734201D01*
X639159Y734479D01*
X639418Y734751D01*
X639683Y735016D01*
X639955Y735275D01*
X640233Y735527D01*
X640517Y735773D01*
X640807Y736011D01*
X641102Y736243D01*
X641403Y736467D01*
X641710Y736684D01*
X642021Y736894D01*
X642338Y737096D01*
X642659Y737290D01*
X642985Y737476D01*
X643315Y737655D01*
X643649Y737825D01*
X643988Y737987D01*
X644330Y738141D01*
X644676Y738287D01*
X645026Y738425D01*
X645378Y738553D01*
X645734Y738674D01*
X646092Y738785D01*
X646453Y738888D01*
X646816Y738983D01*
X647182Y739068D01*
X647550Y739145D01*
X647919Y739212D01*
X648290Y739271D01*
X648662Y739321D01*
X649035Y739361D01*
X649409Y739393D01*
X649783Y739416D01*
X650159Y739429D01*
X650534Y739434D01*
X670266Y739434D01*
X670641Y739429D01*
X671017Y739416D01*
X671391Y739393D01*
X671765Y739361D01*
X672138Y739321D01*
X672510Y739271D01*
X672881Y739212D01*
X673250Y739145D01*
X673618Y739068D01*
X673984Y738983D01*
X674347Y738888D01*
X674708Y738785D01*
X675066Y738674D01*
X675422Y738553D01*
X675774Y738425D01*
X676124Y738287D01*
X676470Y738141D01*
X676812Y737987D01*
X677151Y737825D01*
X677485Y737655D01*
X677815Y737476D01*
X678141Y737290D01*
X678462Y737096D01*
X678779Y736894D01*
X679090Y736684D01*
X679397Y736467D01*
X679698Y736243D01*
X679993Y736011D01*
X680283Y735773D01*
X680567Y735527D01*
X680845Y735275D01*
X681117Y735016D01*
X681382Y734751D01*
X681641Y734479D01*
X681893Y734201D01*
X682139Y733917D01*
X682377Y733627D01*
X682609Y733332D01*
X682833Y733031D01*
X683050Y732724D01*
X683260Y732413D01*
X683462Y732096D01*
X683656Y731775D01*
X683842Y731449D01*
X684021Y731119D01*
X684191Y730785D01*
X684353Y730446D01*
X684507Y730104D01*
X684653Y729758D01*
X684791Y729408D01*
X684919Y729056D01*
X685040Y728700D01*
X685151Y728342D01*
X685254Y727981D01*
X685349Y727618D01*
X685434Y727252D01*
X685511Y726884D01*
X685578Y726515D01*
X685637Y726144D01*
X685687Y725772D01*
X685727Y725399D01*
X685759Y725025D01*
X685782Y724651D01*
X685795Y724275D01*
X685800Y723900D01*
X685796Y723535D01*
X685782Y723171D01*
X685760Y722806D01*
X685730Y722443D01*
X685690Y722080D01*
X685642Y721719D01*
X685584Y721358D01*
X685519Y720999D01*
X685444Y720642D01*
X685361Y720287D01*
X685270Y719934D01*
X685170Y719583D01*
X685061Y719234D01*
X684944Y718889D01*
X684819Y718546D01*
X684685Y718207D01*
X684544Y717870D01*
X684394Y717538D01*
X684236Y717209D01*
X684071Y716884D01*
X683897Y716563D01*
X683716Y716246D01*
X683527Y715934D01*
X683331Y715626D01*
X683127Y715323D01*
X682917Y715026D01*
X682699Y714733D01*
X682474Y714446D01*
X682242Y714164D01*
X682003Y713888D01*
X681758Y713618D01*
X681506Y713354D01*
X681248Y713096D01*
X680984Y712844D01*
X680714Y712599D01*
X680438Y712360D01*
X680156Y712128D01*
X679869Y711903D01*
X679576Y711685D01*
X679279Y711475D01*
X678976Y711271D01*
X678668Y711075D01*
X678356Y710886D01*
X678039Y710705D01*
X677718Y710531D01*
X677393Y710366D01*
X677064Y710208D01*
X676732Y710058D01*
X676395Y709917D01*
X676056Y709783D01*
X675713Y709658D01*
X675368Y709541D01*
X675019Y709432D01*
X674668Y709332D01*
X674315Y709241D01*
X673960Y709158D01*
X673603Y709083D01*
X673244Y709018D01*
X672883Y708960D01*
X672522Y708912D01*
X672159Y708872D01*
X671796Y708842D01*
X671431Y708820D01*
X671067Y708806D01*
X670702Y708802D01*
X650098Y708802D02*
X649733Y708806D01*
X649369Y708820D01*
X649004Y708842D01*
X648641Y708872D01*
X648278Y708912D01*
X647917Y708960D01*
X647556Y709018D01*
X647197Y709083D01*
X646840Y709158D01*
X646485Y709241D01*
X646132Y709332D01*
X645781Y709432D01*
X645432Y709541D01*
X645087Y709658D01*
X644744Y709783D01*
X644405Y709917D01*
X644068Y710058D01*
X643736Y710208D01*
X643407Y710366D01*
X643082Y710531D01*
X642761Y710705D01*
X642444Y710886D01*
X642132Y711075D01*
X641824Y711271D01*
X641521Y711475D01*
X641224Y711685D01*
X640931Y711903D01*
X640644Y712128D01*
X640362Y712360D01*
X640086Y712599D01*
X639816Y712844D01*
X639552Y713096D01*
X639294Y713354D01*
X639042Y713618D01*
X638797Y713888D01*
X638558Y714164D01*
X638326Y714446D01*
X638101Y714733D01*
X637883Y715026D01*
X637673Y715323D01*
X637469Y715626D01*
X637273Y715934D01*
X637084Y716246D01*
X636903Y716563D01*
X636729Y716884D01*
X636564Y717209D01*
X636406Y717538D01*
X636256Y717870D01*
X636115Y718207D01*
X635981Y718546D01*
X635856Y718889D01*
X635739Y719234D01*
X635630Y719583D01*
X635530Y719934D01*
X635439Y720287D01*
X635356Y720642D01*
X635281Y720999D01*
X635216Y721358D01*
X635158Y721719D01*
X635110Y722080D01*
X635070Y722443D01*
X635040Y722806D01*
X635018Y723171D01*
X635004Y723535D01*
X635000Y723900D01*
X650098Y708802D02*
X670702Y708802D01*
X539938Y555284D02*
X539563Y555279D01*
X539187Y555266D01*
X538813Y555243D01*
X538439Y555211D01*
X538066Y555171D01*
X537694Y555121D01*
X537323Y555062D01*
X536954Y554995D01*
X536586Y554918D01*
X536220Y554833D01*
X535857Y554738D01*
X535496Y554635D01*
X535138Y554524D01*
X534782Y554403D01*
X534430Y554275D01*
X534080Y554137D01*
X533734Y553991D01*
X533392Y553837D01*
X533053Y553675D01*
X532719Y553505D01*
X532389Y553326D01*
X532063Y553140D01*
X531742Y552946D01*
X531425Y552744D01*
X531114Y552534D01*
X530807Y552317D01*
X530506Y552093D01*
X530211Y551861D01*
X529921Y551623D01*
X529637Y551377D01*
X529359Y551125D01*
X529087Y550866D01*
X528822Y550601D01*
X528563Y550329D01*
X528311Y550051D01*
X528065Y549767D01*
X527827Y549477D01*
X527595Y549182D01*
X527371Y548881D01*
X527154Y548574D01*
X526944Y548263D01*
X526742Y547946D01*
X526548Y547625D01*
X526362Y547299D01*
X526183Y546969D01*
X526013Y546635D01*
X525851Y546296D01*
X525697Y545954D01*
X525551Y545608D01*
X525413Y545258D01*
X525285Y544906D01*
X525164Y544550D01*
X525053Y544192D01*
X524950Y543831D01*
X524855Y543468D01*
X524770Y543102D01*
X524693Y542734D01*
X524626Y542365D01*
X524567Y541994D01*
X524517Y541622D01*
X524477Y541249D01*
X524445Y540875D01*
X524422Y540501D01*
X524409Y540125D01*
X524404Y539750D01*
X539938Y555284D02*
X559670Y555284D01*
X560045Y555279D01*
X560421Y555266D01*
X560795Y555243D01*
X561169Y555211D01*
X561542Y555171D01*
X561914Y555121D01*
X562285Y555062D01*
X562654Y554995D01*
X563022Y554918D01*
X563388Y554833D01*
X563751Y554738D01*
X564112Y554635D01*
X564470Y554524D01*
X564826Y554403D01*
X565178Y554275D01*
X565528Y554137D01*
X565874Y553991D01*
X566216Y553837D01*
X566555Y553675D01*
X566889Y553505D01*
X567219Y553326D01*
X567545Y553140D01*
X567866Y552946D01*
X568183Y552744D01*
X568494Y552534D01*
X568801Y552317D01*
X569102Y552093D01*
X569397Y551861D01*
X569687Y551623D01*
X569971Y551377D01*
X570249Y551125D01*
X570521Y550866D01*
X570786Y550601D01*
X571045Y550329D01*
X571297Y550051D01*
X571543Y549767D01*
X571781Y549477D01*
X572013Y549182D01*
X572237Y548881D01*
X572454Y548574D01*
X572664Y548263D01*
X572866Y547946D01*
X573060Y547625D01*
X573246Y547299D01*
X573425Y546969D01*
X573595Y546635D01*
X573757Y546296D01*
X573911Y545954D01*
X574057Y545608D01*
X574195Y545258D01*
X574323Y544906D01*
X574444Y544550D01*
X574555Y544192D01*
X574658Y543831D01*
X574753Y543468D01*
X574838Y543102D01*
X574915Y542734D01*
X574982Y542365D01*
X575041Y541994D01*
X575091Y541622D01*
X575131Y541249D01*
X575163Y540875D01*
X575186Y540501D01*
X575199Y540125D01*
X575204Y539750D01*
X575200Y539385D01*
X575186Y539021D01*
X575164Y538656D01*
X575134Y538293D01*
X575094Y537930D01*
X575046Y537569D01*
X574988Y537208D01*
X574923Y536849D01*
X574848Y536492D01*
X574765Y536137D01*
X574674Y535784D01*
X574574Y535433D01*
X574465Y535084D01*
X574348Y534739D01*
X574223Y534396D01*
X574089Y534057D01*
X573948Y533720D01*
X573798Y533388D01*
X573640Y533059D01*
X573475Y532734D01*
X573301Y532413D01*
X573120Y532096D01*
X572931Y531784D01*
X572735Y531476D01*
X572531Y531173D01*
X572321Y530876D01*
X572103Y530583D01*
X571878Y530296D01*
X571646Y530014D01*
X571407Y529738D01*
X571162Y529468D01*
X570910Y529204D01*
X570652Y528946D01*
X570388Y528694D01*
X570118Y528449D01*
X569842Y528210D01*
X569560Y527978D01*
X569273Y527753D01*
X568980Y527535D01*
X568683Y527325D01*
X568380Y527121D01*
X568072Y526925D01*
X567760Y526736D01*
X567443Y526555D01*
X567122Y526381D01*
X566797Y526216D01*
X566468Y526058D01*
X566136Y525908D01*
X565799Y525767D01*
X565460Y525633D01*
X565117Y525508D01*
X564772Y525391D01*
X564423Y525282D01*
X564072Y525182D01*
X563719Y525091D01*
X563364Y525008D01*
X563007Y524933D01*
X562648Y524868D01*
X562287Y524810D01*
X561926Y524762D01*
X561563Y524722D01*
X561200Y524692D01*
X560835Y524670D01*
X560471Y524656D01*
X560106Y524652D01*
X539502Y524652D02*
X539137Y524656D01*
X538773Y524670D01*
X538408Y524692D01*
X538045Y524722D01*
X537682Y524762D01*
X537321Y524810D01*
X536960Y524868D01*
X536601Y524933D01*
X536244Y525008D01*
X535889Y525091D01*
X535536Y525182D01*
X535185Y525282D01*
X534836Y525391D01*
X534491Y525508D01*
X534148Y525633D01*
X533809Y525767D01*
X533472Y525908D01*
X533140Y526058D01*
X532811Y526216D01*
X532486Y526381D01*
X532165Y526555D01*
X531848Y526736D01*
X531536Y526925D01*
X531228Y527121D01*
X530925Y527325D01*
X530628Y527535D01*
X530335Y527753D01*
X530048Y527978D01*
X529766Y528210D01*
X529490Y528449D01*
X529220Y528694D01*
X528956Y528946D01*
X528698Y529204D01*
X528446Y529468D01*
X528201Y529738D01*
X527962Y530014D01*
X527730Y530296D01*
X527505Y530583D01*
X527287Y530876D01*
X527077Y531173D01*
X526873Y531476D01*
X526677Y531784D01*
X526488Y532096D01*
X526307Y532413D01*
X526133Y532734D01*
X525968Y533059D01*
X525810Y533388D01*
X525660Y533720D01*
X525519Y534057D01*
X525385Y534396D01*
X525260Y534739D01*
X525143Y535084D01*
X525034Y535433D01*
X524934Y535784D01*
X524843Y536137D01*
X524760Y536492D01*
X524685Y536849D01*
X524620Y537208D01*
X524562Y537569D01*
X524514Y537930D01*
X524474Y538293D01*
X524444Y538656D01*
X524422Y539021D01*
X524408Y539385D01*
X524404Y539750D01*
X539502Y524652D02*
X560106Y524652D01*
X575204Y412750D02*
X575199Y412375D01*
X575186Y411999D01*
X575163Y411625D01*
X575131Y411251D01*
X575091Y410878D01*
X575041Y410506D01*
X574982Y410135D01*
X574915Y409766D01*
X574838Y409398D01*
X574753Y409032D01*
X574658Y408669D01*
X574555Y408308D01*
X574444Y407950D01*
X574323Y407594D01*
X574195Y407242D01*
X574057Y406892D01*
X573911Y406546D01*
X573757Y406204D01*
X573595Y405865D01*
X573425Y405531D01*
X573246Y405201D01*
X573060Y404875D01*
X572866Y404554D01*
X572664Y404237D01*
X572454Y403926D01*
X572237Y403619D01*
X572013Y403318D01*
X571781Y403023D01*
X571543Y402733D01*
X571297Y402449D01*
X571045Y402171D01*
X570786Y401899D01*
X570521Y401634D01*
X570249Y401375D01*
X569971Y401123D01*
X569687Y400877D01*
X569397Y400639D01*
X569102Y400407D01*
X568801Y400183D01*
X568494Y399966D01*
X568183Y399756D01*
X567866Y399554D01*
X567545Y399360D01*
X567219Y399174D01*
X566889Y398995D01*
X566555Y398825D01*
X566216Y398663D01*
X565874Y398509D01*
X565528Y398363D01*
X565178Y398225D01*
X564826Y398097D01*
X564470Y397976D01*
X564112Y397865D01*
X563751Y397762D01*
X563388Y397667D01*
X563022Y397582D01*
X562654Y397505D01*
X562285Y397438D01*
X561914Y397379D01*
X561542Y397329D01*
X561169Y397289D01*
X560795Y397257D01*
X560421Y397234D01*
X560045Y397221D01*
X559670Y397216D01*
X539938Y397216D01*
X539563Y397221D01*
X539187Y397234D01*
X538813Y397257D01*
X538439Y397289D01*
X538066Y397329D01*
X537694Y397379D01*
X537323Y397438D01*
X536954Y397505D01*
X536586Y397582D01*
X536220Y397667D01*
X535857Y397762D01*
X535496Y397865D01*
X535138Y397976D01*
X534782Y398097D01*
X534430Y398225D01*
X534080Y398363D01*
X533734Y398509D01*
X533392Y398663D01*
X533053Y398825D01*
X532719Y398995D01*
X532389Y399174D01*
X532063Y399360D01*
X531742Y399554D01*
X531425Y399756D01*
X531114Y399966D01*
X530807Y400183D01*
X530506Y400407D01*
X530211Y400639D01*
X529921Y400877D01*
X529637Y401123D01*
X529359Y401375D01*
X529087Y401634D01*
X528822Y401899D01*
X528563Y402171D01*
X528311Y402449D01*
X528065Y402733D01*
X527827Y403023D01*
X527595Y403318D01*
X527371Y403619D01*
X527154Y403926D01*
X526944Y404237D01*
X526742Y404554D01*
X526548Y404875D01*
X526362Y405201D01*
X526183Y405531D01*
X526013Y405865D01*
X525851Y406204D01*
X525697Y406546D01*
X525551Y406892D01*
X525413Y407242D01*
X525285Y407594D01*
X525164Y407950D01*
X525053Y408308D01*
X524950Y408669D01*
X524855Y409032D01*
X524770Y409398D01*
X524693Y409766D01*
X524626Y410135D01*
X524567Y410506D01*
X524517Y410878D01*
X524477Y411251D01*
X524445Y411625D01*
X524422Y411999D01*
X524409Y412375D01*
X524404Y412750D01*
X524408Y413115D01*
X524422Y413479D01*
X524444Y413844D01*
X524474Y414207D01*
X524514Y414570D01*
X524562Y414931D01*
X524620Y415292D01*
X524685Y415651D01*
X524760Y416008D01*
X524843Y416363D01*
X524934Y416716D01*
X525034Y417067D01*
X525143Y417416D01*
X525260Y417761D01*
X525385Y418104D01*
X525519Y418443D01*
X525660Y418780D01*
X525810Y419112D01*
X525968Y419441D01*
X526133Y419766D01*
X526307Y420087D01*
X526488Y420404D01*
X526677Y420716D01*
X526873Y421024D01*
X527077Y421327D01*
X527287Y421624D01*
X527505Y421917D01*
X527730Y422204D01*
X527962Y422486D01*
X528201Y422762D01*
X528446Y423032D01*
X528698Y423296D01*
X528956Y423554D01*
X529220Y423806D01*
X529490Y424051D01*
X529766Y424290D01*
X530048Y424522D01*
X530335Y424747D01*
X530628Y424965D01*
X530925Y425175D01*
X531228Y425379D01*
X531536Y425575D01*
X531848Y425764D01*
X532165Y425945D01*
X532486Y426119D01*
X532811Y426284D01*
X533140Y426442D01*
X533472Y426592D01*
X533809Y426733D01*
X534148Y426867D01*
X534491Y426992D01*
X534836Y427109D01*
X535185Y427218D01*
X535536Y427318D01*
X535889Y427409D01*
X536244Y427492D01*
X536601Y427567D01*
X536960Y427632D01*
X537321Y427690D01*
X537682Y427738D01*
X538045Y427778D01*
X538408Y427808D01*
X538773Y427830D01*
X539137Y427844D01*
X539502Y427848D01*
X560106Y427848D02*
X560471Y427844D01*
X560835Y427830D01*
X561200Y427808D01*
X561563Y427778D01*
X561926Y427738D01*
X562287Y427690D01*
X562648Y427632D01*
X563007Y427567D01*
X563364Y427492D01*
X563719Y427409D01*
X564072Y427318D01*
X564423Y427218D01*
X564772Y427109D01*
X565117Y426992D01*
X565460Y426867D01*
X565799Y426733D01*
X566136Y426592D01*
X566468Y426442D01*
X566797Y426284D01*
X567122Y426119D01*
X567443Y425945D01*
X567760Y425764D01*
X568072Y425575D01*
X568380Y425379D01*
X568683Y425175D01*
X568980Y424965D01*
X569273Y424747D01*
X569560Y424522D01*
X569842Y424290D01*
X570118Y424051D01*
X570388Y423806D01*
X570652Y423554D01*
X570910Y423296D01*
X571162Y423032D01*
X571407Y422762D01*
X571646Y422486D01*
X571878Y422204D01*
X572103Y421917D01*
X572321Y421624D01*
X572531Y421327D01*
X572735Y421024D01*
X572931Y420716D01*
X573120Y420404D01*
X573301Y420087D01*
X573475Y419766D01*
X573640Y419441D01*
X573798Y419112D01*
X573948Y418780D01*
X574089Y418443D01*
X574223Y418104D01*
X574348Y417761D01*
X574465Y417416D01*
X574574Y417067D01*
X574674Y416716D01*
X574765Y416363D01*
X574848Y416008D01*
X574923Y415651D01*
X574988Y415292D01*
X575046Y414931D01*
X575094Y414570D01*
X575134Y414207D01*
X575164Y413844D01*
X575186Y413479D01*
X575200Y413115D01*
X575204Y412750D01*
X560106Y427848D02*
X539502Y427848D01*
X673970Y524216D02*
X674345Y524221D01*
X674721Y524234D01*
X675095Y524257D01*
X675469Y524289D01*
X675842Y524329D01*
X676214Y524379D01*
X676585Y524438D01*
X676954Y524505D01*
X677322Y524582D01*
X677688Y524667D01*
X678051Y524762D01*
X678412Y524865D01*
X678770Y524976D01*
X679126Y525097D01*
X679478Y525225D01*
X679828Y525363D01*
X680174Y525509D01*
X680516Y525663D01*
X680855Y525825D01*
X681189Y525995D01*
X681519Y526174D01*
X681845Y526360D01*
X682166Y526554D01*
X682483Y526756D01*
X682794Y526966D01*
X683101Y527183D01*
X683402Y527407D01*
X683697Y527639D01*
X683987Y527877D01*
X684271Y528123D01*
X684549Y528375D01*
X684821Y528634D01*
X685086Y528899D01*
X685345Y529171D01*
X685597Y529449D01*
X685843Y529733D01*
X686081Y530023D01*
X686313Y530318D01*
X686537Y530619D01*
X686754Y530926D01*
X686964Y531237D01*
X687166Y531554D01*
X687360Y531875D01*
X687546Y532201D01*
X687725Y532531D01*
X687895Y532865D01*
X688057Y533204D01*
X688211Y533546D01*
X688357Y533892D01*
X688495Y534242D01*
X688623Y534594D01*
X688744Y534950D01*
X688855Y535308D01*
X688958Y535669D01*
X689053Y536032D01*
X689138Y536398D01*
X689215Y536766D01*
X689282Y537135D01*
X689341Y537506D01*
X689391Y537878D01*
X689431Y538251D01*
X689463Y538625D01*
X689486Y538999D01*
X689499Y539375D01*
X689504Y539750D01*
X673970Y524216D02*
X654238Y524216D01*
X653863Y524221D01*
X653487Y524234D01*
X653113Y524257D01*
X652739Y524289D01*
X652366Y524329D01*
X651994Y524379D01*
X651623Y524438D01*
X651254Y524505D01*
X650886Y524582D01*
X650520Y524667D01*
X650157Y524762D01*
X649796Y524865D01*
X649438Y524976D01*
X649082Y525097D01*
X648730Y525225D01*
X648380Y525363D01*
X648034Y525509D01*
X647692Y525663D01*
X647353Y525825D01*
X647019Y525995D01*
X646689Y526174D01*
X646363Y526360D01*
X646042Y526554D01*
X645725Y526756D01*
X645414Y526966D01*
X645107Y527183D01*
X644806Y527407D01*
X644511Y527639D01*
X644221Y527877D01*
X643937Y528123D01*
X643659Y528375D01*
X643387Y528634D01*
X643122Y528899D01*
X642863Y529171D01*
X642611Y529449D01*
X642365Y529733D01*
X642127Y530023D01*
X641895Y530318D01*
X641671Y530619D01*
X641454Y530926D01*
X641244Y531237D01*
X641042Y531554D01*
X640848Y531875D01*
X640662Y532201D01*
X640483Y532531D01*
X640313Y532865D01*
X640151Y533204D01*
X639997Y533546D01*
X639851Y533892D01*
X639713Y534242D01*
X639585Y534594D01*
X639464Y534950D01*
X639353Y535308D01*
X639250Y535669D01*
X639155Y536032D01*
X639070Y536398D01*
X638993Y536766D01*
X638926Y537135D01*
X638867Y537506D01*
X638817Y537878D01*
X638777Y538251D01*
X638745Y538625D01*
X638722Y538999D01*
X638709Y539375D01*
X638704Y539750D01*
X638708Y540115D01*
X638722Y540479D01*
X638744Y540844D01*
X638774Y541207D01*
X638814Y541570D01*
X638862Y541931D01*
X638920Y542292D01*
X638985Y542651D01*
X639060Y543008D01*
X639143Y543363D01*
X639234Y543716D01*
X639334Y544067D01*
X639443Y544416D01*
X639560Y544761D01*
X639685Y545104D01*
X639819Y545443D01*
X639960Y545780D01*
X640110Y546112D01*
X640268Y546441D01*
X640433Y546766D01*
X640607Y547087D01*
X640788Y547404D01*
X640977Y547716D01*
X641173Y548024D01*
X641377Y548327D01*
X641587Y548624D01*
X641805Y548917D01*
X642030Y549204D01*
X642262Y549486D01*
X642501Y549762D01*
X642746Y550032D01*
X642998Y550296D01*
X643256Y550554D01*
X643520Y550806D01*
X643790Y551051D01*
X644066Y551290D01*
X644348Y551522D01*
X644635Y551747D01*
X644928Y551965D01*
X645225Y552175D01*
X645528Y552379D01*
X645836Y552575D01*
X646148Y552764D01*
X646465Y552945D01*
X646786Y553119D01*
X647111Y553284D01*
X647440Y553442D01*
X647772Y553592D01*
X648109Y553733D01*
X648448Y553867D01*
X648791Y553992D01*
X649136Y554109D01*
X649485Y554218D01*
X649836Y554318D01*
X650189Y554409D01*
X650544Y554492D01*
X650901Y554567D01*
X651260Y554632D01*
X651621Y554690D01*
X651982Y554738D01*
X652345Y554778D01*
X652708Y554808D01*
X653073Y554830D01*
X653437Y554844D01*
X653802Y554848D01*
X674406Y554848D02*
X674771Y554844D01*
X675135Y554830D01*
X675500Y554808D01*
X675863Y554778D01*
X676226Y554738D01*
X676587Y554690D01*
X676948Y554632D01*
X677307Y554567D01*
X677664Y554492D01*
X678019Y554409D01*
X678372Y554318D01*
X678723Y554218D01*
X679072Y554109D01*
X679417Y553992D01*
X679760Y553867D01*
X680099Y553733D01*
X680436Y553592D01*
X680768Y553442D01*
X681097Y553284D01*
X681422Y553119D01*
X681743Y552945D01*
X682060Y552764D01*
X682372Y552575D01*
X682680Y552379D01*
X682983Y552175D01*
X683280Y551965D01*
X683573Y551747D01*
X683860Y551522D01*
X684142Y551290D01*
X684418Y551051D01*
X684688Y550806D01*
X684952Y550554D01*
X685210Y550296D01*
X685462Y550032D01*
X685707Y549762D01*
X685946Y549486D01*
X686178Y549204D01*
X686403Y548917D01*
X686621Y548624D01*
X686831Y548327D01*
X687035Y548024D01*
X687231Y547716D01*
X687420Y547404D01*
X687601Y547087D01*
X687775Y546766D01*
X687940Y546441D01*
X688098Y546112D01*
X688248Y545780D01*
X688389Y545443D01*
X688523Y545104D01*
X688648Y544761D01*
X688765Y544416D01*
X688874Y544067D01*
X688974Y543716D01*
X689065Y543363D01*
X689148Y543008D01*
X689223Y542651D01*
X689288Y542292D01*
X689346Y541931D01*
X689394Y541570D01*
X689434Y541207D01*
X689464Y540844D01*
X689486Y540479D01*
X689500Y540115D01*
X689504Y539750D01*
X674406Y554848D02*
X653802Y554848D01*
X1103000Y585500D02*
X1103000Y659500D01*
X1045500Y659500D01*
X1045500Y585500D02*
X1103000Y585500D01*
X1045500Y585500D02*
X1045500Y659500D01*
X1282700Y700700D02*
X1282700Y444500D01*
X1282700Y700700D02*
X1130300Y700700D01*
X1130300Y444500D02*
X1282700Y444500D01*
X1130300Y700700D02*
X1127934Y700700D01*
X1127934Y444500D01*
X1130300Y444500D01*
X1101300Y447704D02*
X1101300Y571704D01*
X1043800Y571704D02*
X1043800Y447704D01*
X1043800Y571704D02*
X1101300Y571704D01*
X1101300Y447704D02*
X1043800Y447704D01*
X1060450Y287020D02*
X1066800Y280670D01*
X1066800Y267970D01*
X1060450Y261620D01*
X1047750Y261620D01*
X1041400Y267970D01*
X1041400Y280670D01*
X1047750Y287020D01*
X1066800Y318770D02*
X1066800Y331470D01*
X1066800Y318770D02*
X1060450Y312420D01*
X1047750Y312420D01*
X1041400Y318770D01*
X1060450Y312420D02*
X1066800Y306070D01*
X1066800Y293370D01*
X1060450Y287020D01*
X1047750Y287020D01*
X1041400Y293370D01*
X1041400Y306070D01*
X1047750Y312420D01*
X1047750Y337820D02*
X1060450Y337820D01*
X1066800Y331470D01*
X1047750Y337820D02*
X1041400Y331470D01*
X1041400Y318770D01*
X1066800Y255270D02*
X1066800Y242570D01*
X1060450Y236220D01*
X1047750Y236220D01*
X1041400Y242570D01*
X1060450Y261620D02*
X1066800Y255270D01*
X1047750Y261620D02*
X1041400Y255270D01*
X1041400Y242570D01*
X1339850Y419100D02*
X1352550Y419100D01*
X1358900Y412750D01*
X1358900Y400050D01*
X1352550Y393700D01*
X1333500Y400050D02*
X1333500Y412750D01*
X1339850Y419100D01*
X1333500Y400050D02*
X1339850Y393700D01*
X1352550Y393700D01*
X850900Y228600D02*
X812800Y228600D01*
X850900Y228600D02*
X850904Y228907D01*
X850915Y229214D01*
X850933Y229520D01*
X850959Y229826D01*
X850993Y230131D01*
X851033Y230435D01*
X851081Y230738D01*
X851137Y231040D01*
X851199Y231340D01*
X851269Y231639D01*
X851346Y231936D01*
X851430Y232232D01*
X851522Y232525D01*
X851620Y232815D01*
X851725Y233103D01*
X851838Y233389D01*
X851957Y233672D01*
X852083Y233952D01*
X852215Y234229D01*
X852355Y234502D01*
X852501Y234772D01*
X852653Y235038D01*
X852812Y235301D01*
X852977Y235560D01*
X853148Y235814D01*
X853325Y236065D01*
X853509Y236311D01*
X853698Y236553D01*
X853893Y236789D01*
X854094Y237022D01*
X854300Y237249D01*
X854512Y237471D01*
X854729Y237688D01*
X854951Y237900D01*
X855178Y238106D01*
X855411Y238307D01*
X855647Y238502D01*
X855889Y238691D01*
X856135Y238875D01*
X856386Y239052D01*
X856640Y239223D01*
X856899Y239388D01*
X857162Y239547D01*
X857428Y239699D01*
X857698Y239845D01*
X857971Y239985D01*
X858248Y240117D01*
X858528Y240243D01*
X858811Y240362D01*
X859097Y240475D01*
X859385Y240580D01*
X859675Y240678D01*
X859968Y240770D01*
X860264Y240854D01*
X860561Y240931D01*
X860860Y241001D01*
X861160Y241063D01*
X861462Y241119D01*
X861765Y241167D01*
X862069Y241207D01*
X862374Y241241D01*
X862680Y241267D01*
X862986Y241285D01*
X863293Y241296D01*
X863600Y241300D01*
X863907Y241296D01*
X864214Y241285D01*
X864520Y241267D01*
X864826Y241241D01*
X865131Y241207D01*
X865435Y241167D01*
X865738Y241119D01*
X866040Y241063D01*
X866340Y241001D01*
X866639Y240931D01*
X866936Y240854D01*
X867232Y240770D01*
X867525Y240678D01*
X867815Y240580D01*
X868103Y240475D01*
X868389Y240362D01*
X868672Y240243D01*
X868952Y240117D01*
X869229Y239985D01*
X869502Y239845D01*
X869772Y239699D01*
X870038Y239547D01*
X870301Y239388D01*
X870560Y239223D01*
X870814Y239052D01*
X871065Y238875D01*
X871311Y238691D01*
X871553Y238502D01*
X871789Y238307D01*
X872022Y238106D01*
X872249Y237900D01*
X872471Y237688D01*
X872688Y237471D01*
X872900Y237249D01*
X873106Y237022D01*
X873307Y236789D01*
X873502Y236553D01*
X873691Y236311D01*
X873875Y236065D01*
X874052Y235814D01*
X874223Y235560D01*
X874388Y235301D01*
X874547Y235038D01*
X874699Y234772D01*
X874845Y234502D01*
X874985Y234229D01*
X875117Y233952D01*
X875243Y233672D01*
X875362Y233389D01*
X875475Y233103D01*
X875580Y232815D01*
X875678Y232525D01*
X875770Y232232D01*
X875854Y231936D01*
X875931Y231639D01*
X876001Y231340D01*
X876063Y231040D01*
X876119Y230738D01*
X876167Y230435D01*
X876207Y230131D01*
X876241Y229826D01*
X876267Y229520D01*
X876285Y229214D01*
X876296Y228907D01*
X876300Y228600D01*
X914400Y228600D01*
D10*
X787400Y749300D02*
X736600Y749300D01*
X787400Y749300D02*
X939800Y749300D01*
X990600Y749300D01*
X990600Y228600D02*
X914400Y228600D01*
X812800Y228600D02*
X736600Y228600D01*
X736600Y317500D01*
X990600Y317500D02*
X990600Y228600D01*
X736600Y698500D02*
X736600Y749300D01*
X990600Y749300D02*
X990600Y698500D01*
X787400Y711200D02*
X787400Y749300D01*
X787400Y711200D02*
X939800Y711200D01*
X939800Y749300D01*
M02*
