G04 EAGLE Gerber RS-274X export*
G75*
%MOMM*%
%FSLAX34Y34*%
%LPD*%
%INSoldermask Bottom*%
%IPPOS*%
%AMOC8*
5,1,8,0,0,1.08239X$1,22.5*%
G01*
G04 Define Apertures*
%ADD10C,3.203200*%
%ADD11C,1.463200*%
%ADD12C,2.387600*%
%ADD13C,1.981200*%
%ADD14C,2.133600*%
%ADD15C,2.235200*%
D10*
X1358900Y215660D03*
X1358900Y809740D03*
X482598Y216037D03*
X482600Y809740D03*
D11*
X624200Y685800D03*
X696600Y685800D03*
X696600Y647700D03*
X624200Y647700D03*
D12*
X546100Y809500D03*
X571500Y809500D03*
X596900Y809500D03*
X622300Y809500D03*
X647700Y809500D03*
X673100Y809500D03*
X698500Y809500D03*
X723900Y809500D03*
X749300Y809500D03*
X774700Y809500D03*
X800100Y809500D03*
X825500Y809500D03*
X850900Y809500D03*
D13*
X558800Y660400D03*
X558800Y685400D03*
X558800Y710400D03*
X524100Y482600D03*
X549100Y482600D03*
X574100Y482600D03*
X520700Y355600D03*
X545700Y355600D03*
X570700Y355600D03*
X635000Y482600D03*
X660000Y482600D03*
X685000Y482600D03*
X635000Y355600D03*
X660000Y355600D03*
X685000Y355600D03*
D12*
X1079500Y736600D03*
D13*
X1333500Y660400D03*
X1333500Y635400D03*
X1333500Y610400D03*
X1333500Y585400D03*
X635000Y228600D03*
X660000Y228600D03*
X685000Y228600D03*
X558800Y228600D03*
X533800Y228600D03*
X645054Y292100D03*
X594254Y292100D03*
X670454Y292100D03*
X721254Y292100D03*
X1046569Y419100D03*
X1097369Y419100D03*
X580148Y615950D03*
X529348Y615950D03*
X685800Y723900D03*
X635000Y723900D03*
X575204Y539750D03*
X524404Y539750D03*
X524404Y412750D03*
X575204Y412750D03*
X638704Y539750D03*
X689504Y539750D03*
X1079500Y635000D03*
X1079500Y610000D03*
D14*
X1143000Y685800D03*
X1143000Y660400D03*
X1143000Y635000D03*
X1143000Y609600D03*
X1143000Y584200D03*
X1143000Y558800D03*
X1143000Y533400D03*
X1143000Y508000D03*
X1143000Y482600D03*
X1143000Y457200D03*
D13*
X1066800Y547204D03*
X1066800Y522204D03*
X1066800Y497204D03*
X1066800Y472204D03*
D15*
X1054100Y325120D03*
X1054100Y299720D03*
X1054100Y274320D03*
X1054100Y248920D03*
D12*
X1346200Y406400D03*
D15*
X736600Y685800D03*
X736600Y660400D03*
X736600Y635000D03*
X736600Y609600D03*
X736600Y584200D03*
X736600Y558800D03*
X736600Y533400D03*
X736600Y508000D03*
X736600Y482600D03*
X736600Y457200D03*
X736600Y431800D03*
X736600Y406400D03*
X736600Y381000D03*
X736600Y355600D03*
X736600Y330200D03*
X990600Y330200D03*
X990600Y355600D03*
X990600Y381000D03*
X990600Y406400D03*
X990600Y431800D03*
X990600Y457200D03*
X990600Y482600D03*
X990600Y508000D03*
X990600Y533400D03*
X990600Y558800D03*
X990600Y584200D03*
X990600Y609600D03*
X990600Y635000D03*
X990600Y660400D03*
X990600Y685800D03*
M02*
