G04 EAGLE Gerber RS-274X export*
G75*
%MOMM*%
%FSLAX34Y34*%
%LPD*%
%INBottom Copper*%
%IPPOS*%
%AMOC8*
5,1,8,0,0,1.08239X$1,22.5*%
G01*
G04 Define Apertures*
%ADD10C,2.184400*%
%ADD11C,1.778000*%
%ADD12C,2.540000*%
%ADD13C,2.247900*%
%ADD14C,1.016000*%
G36*
X142999Y341323D02*
X142008Y341122D01*
X114300Y341122D01*
X113384Y341293D01*
X112533Y341838D01*
X111961Y342671D01*
X111760Y343662D01*
X111760Y885700D01*
X111931Y886616D01*
X112476Y887467D01*
X113309Y888039D01*
X114300Y888240D01*
X140607Y888240D01*
X141484Y888084D01*
X142344Y887552D01*
X142929Y886728D01*
X143146Y885741D01*
X142961Y884747D01*
X142403Y883904D01*
X142147Y883648D01*
X141341Y883105D01*
X140351Y882904D01*
X138386Y882904D01*
X135959Y881899D01*
X121401Y867341D01*
X120396Y864914D01*
X120396Y824186D01*
X121401Y821759D01*
X128565Y814596D01*
X129091Y813828D01*
X129308Y812841D01*
X129123Y811847D01*
X128565Y811004D01*
X121401Y803841D01*
X120396Y801414D01*
X120396Y760686D01*
X121401Y758259D01*
X128565Y751096D01*
X129091Y750328D01*
X129308Y749341D01*
X129123Y748347D01*
X128565Y747504D01*
X121401Y740341D01*
X120396Y737914D01*
X120396Y697186D01*
X121401Y694759D01*
X128565Y687596D01*
X129091Y686828D01*
X129308Y685841D01*
X129123Y684847D01*
X128565Y684004D01*
X121401Y676841D01*
X120396Y674414D01*
X120396Y633686D01*
X121401Y631259D01*
X128565Y624096D01*
X129091Y623328D01*
X129308Y622341D01*
X129123Y621347D01*
X128565Y620504D01*
X121401Y613341D01*
X120396Y610914D01*
X120396Y544786D01*
X121401Y542359D01*
X135959Y527801D01*
X138386Y526796D01*
X157036Y526796D01*
X157951Y526625D01*
X158803Y526080D01*
X159374Y525247D01*
X159576Y524256D01*
X159576Y519622D01*
X161519Y514931D01*
X165109Y511340D01*
X169800Y509397D01*
X174878Y509397D01*
X179569Y511340D01*
X183159Y514931D01*
X185103Y519622D01*
X185103Y547178D01*
X183159Y551869D01*
X179569Y555460D01*
X174878Y557403D01*
X169800Y557403D01*
X165109Y555460D01*
X161519Y551869D01*
X159576Y547178D01*
X159576Y542544D01*
X159405Y541628D01*
X158860Y540777D01*
X158026Y540205D01*
X157036Y540004D01*
X143488Y540004D01*
X142534Y540190D01*
X141692Y540748D01*
X134348Y548092D01*
X133805Y548897D01*
X133604Y549888D01*
X133604Y605812D01*
X133790Y606766D01*
X134348Y607609D01*
X140123Y613384D01*
X140891Y613910D01*
X141879Y614127D01*
X142872Y613942D01*
X143715Y613384D01*
X144984Y612115D01*
X145511Y611346D01*
X145728Y610359D01*
X145543Y609365D01*
X144984Y608522D01*
X140987Y604526D01*
X138938Y599578D01*
X138938Y594222D01*
X140987Y589274D01*
X143510Y586752D01*
X143510Y605790D01*
X162548Y605790D01*
X159816Y608522D01*
X159289Y609291D01*
X159072Y610278D01*
X159258Y611272D01*
X159816Y612115D01*
X162951Y615250D01*
X164846Y619824D01*
X164846Y624776D01*
X162951Y629350D01*
X159450Y632851D01*
X154876Y634746D01*
X149924Y634746D01*
X145350Y632851D01*
X143715Y631216D01*
X142947Y630690D01*
X141960Y630473D01*
X140966Y630658D01*
X140123Y631216D01*
X134348Y636992D01*
X133805Y637797D01*
X133604Y638788D01*
X133604Y669312D01*
X133790Y670266D01*
X134348Y671109D01*
X140123Y676884D01*
X140891Y677410D01*
X141879Y677627D01*
X142872Y677442D01*
X143715Y676884D01*
X144984Y675615D01*
X145511Y674846D01*
X145728Y673859D01*
X145543Y672865D01*
X144984Y672022D01*
X140987Y668026D01*
X138938Y663078D01*
X138938Y657722D01*
X140987Y652774D01*
X143510Y650252D01*
X143510Y669290D01*
X162548Y669290D01*
X159816Y672022D01*
X159289Y672791D01*
X159072Y673778D01*
X159258Y674772D01*
X159816Y675615D01*
X162951Y678750D01*
X164846Y683324D01*
X164846Y688276D01*
X162951Y692850D01*
X159450Y696351D01*
X154876Y698246D01*
X149924Y698246D01*
X145350Y696351D01*
X143715Y694716D01*
X142947Y694190D01*
X141960Y693973D01*
X140966Y694158D01*
X140123Y694716D01*
X134348Y700492D01*
X133805Y701297D01*
X133604Y702288D01*
X133604Y732812D01*
X133790Y733766D01*
X134348Y734609D01*
X140123Y740384D01*
X140891Y740910D01*
X141879Y741127D01*
X142872Y740942D01*
X143715Y740384D01*
X144984Y739115D01*
X145511Y738346D01*
X145728Y737359D01*
X145543Y736365D01*
X144984Y735522D01*
X140987Y731526D01*
X138938Y726578D01*
X138938Y721222D01*
X140987Y716274D01*
X143510Y713752D01*
X143510Y732790D01*
X162548Y732790D01*
X159816Y735522D01*
X159289Y736291D01*
X159072Y737278D01*
X159258Y738272D01*
X159816Y739115D01*
X162951Y742250D01*
X164846Y746824D01*
X164846Y751776D01*
X162951Y756350D01*
X159450Y759851D01*
X154876Y761746D01*
X149924Y761746D01*
X145350Y759851D01*
X143715Y758216D01*
X142947Y757690D01*
X141960Y757473D01*
X140966Y757658D01*
X140123Y758216D01*
X134348Y763992D01*
X133805Y764797D01*
X133604Y765788D01*
X133604Y796312D01*
X133790Y797266D01*
X134348Y798109D01*
X140123Y803884D01*
X140891Y804410D01*
X141879Y804627D01*
X142872Y804442D01*
X143715Y803884D01*
X144984Y802615D01*
X145511Y801846D01*
X145728Y800859D01*
X145543Y799865D01*
X144984Y799022D01*
X140987Y795026D01*
X138938Y790078D01*
X138938Y784722D01*
X140987Y779774D01*
X143510Y777252D01*
X143510Y796290D01*
X162548Y796290D01*
X159816Y799022D01*
X159289Y799791D01*
X159072Y800778D01*
X159258Y801772D01*
X159816Y802615D01*
X162951Y805750D01*
X164846Y810324D01*
X164846Y815276D01*
X162951Y819850D01*
X159450Y823351D01*
X154876Y825246D01*
X149924Y825246D01*
X145350Y823351D01*
X143715Y821716D01*
X142947Y821190D01*
X141960Y820973D01*
X140966Y821158D01*
X140123Y821716D01*
X134348Y827492D01*
X133805Y828297D01*
X133604Y829288D01*
X133604Y859812D01*
X133790Y860766D01*
X134348Y861609D01*
X140123Y867384D01*
X140891Y867910D01*
X141879Y868127D01*
X142872Y867942D01*
X143715Y867384D01*
X144984Y866115D01*
X145511Y865346D01*
X145728Y864359D01*
X145543Y863365D01*
X144984Y862522D01*
X140987Y858526D01*
X138938Y853578D01*
X138938Y848222D01*
X140987Y843274D01*
X143510Y840752D01*
X143510Y859790D01*
X162548Y859790D01*
X159816Y862522D01*
X159289Y863291D01*
X159072Y864278D01*
X159258Y865272D01*
X159816Y866115D01*
X162951Y869250D01*
X164846Y873824D01*
X164846Y878776D01*
X162951Y883350D01*
X162397Y883904D01*
X161887Y884635D01*
X161655Y885619D01*
X161824Y886616D01*
X162369Y887467D01*
X163203Y888039D01*
X164193Y888240D01*
X991209Y888240D01*
X992408Y887939D01*
X993186Y887294D01*
X993651Y886396D01*
X993729Y885389D01*
X993408Y884430D01*
X992555Y882951D01*
X990840Y876552D01*
X990840Y869928D01*
X992555Y863529D01*
X995867Y857791D01*
X1000551Y853107D01*
X1006289Y849795D01*
X1012688Y848080D01*
X1019312Y848080D01*
X1025711Y849795D01*
X1031449Y853107D01*
X1036133Y857791D01*
X1039000Y862758D01*
X1039320Y863196D01*
X1040135Y863794D01*
X1041119Y864026D01*
X1042116Y863857D01*
X1042967Y863312D01*
X1043539Y862478D01*
X1043740Y861488D01*
X1043740Y343662D01*
X1043569Y342746D01*
X1043024Y341895D01*
X1042191Y341323D01*
X1041200Y341122D01*
X940794Y341122D01*
X939916Y341278D01*
X939056Y341810D01*
X938471Y342634D01*
X938254Y343622D01*
X938439Y344615D01*
X938998Y345458D01*
X996199Y402659D01*
X997204Y405086D01*
X997204Y483251D01*
X997390Y484204D01*
X997948Y485047D01*
X1000853Y487952D01*
X1001659Y488495D01*
X1002649Y488696D01*
X1003951Y488696D01*
X1004904Y488510D01*
X1005747Y487952D01*
X1008950Y484749D01*
X1013524Y482854D01*
X1018476Y482854D01*
X1023050Y484749D01*
X1026551Y488250D01*
X1028446Y492824D01*
X1028446Y497776D01*
X1026551Y502350D01*
X1023050Y505851D01*
X1018476Y507746D01*
X1013524Y507746D01*
X1008950Y505851D01*
X1005747Y502648D01*
X1004941Y502105D01*
X1003951Y501904D01*
X1002649Y501904D01*
X1001696Y502090D01*
X1000853Y502648D01*
X997650Y505851D01*
X993076Y507746D01*
X988124Y507746D01*
X983550Y505851D01*
X979696Y501997D01*
X978928Y501471D01*
X977941Y501254D01*
X976947Y501439D01*
X976104Y501997D01*
X972250Y505851D01*
X967676Y507746D01*
X962724Y507746D01*
X958150Y505851D01*
X954649Y502350D01*
X952754Y497776D01*
X952754Y492824D01*
X954649Y488250D01*
X957852Y485047D01*
X958395Y484241D01*
X958596Y483251D01*
X958596Y440976D01*
X958410Y440022D01*
X957852Y439180D01*
X956371Y437699D01*
X954786Y433871D01*
X954786Y429729D01*
X956371Y425901D01*
X959301Y422971D01*
X963129Y421386D01*
X967271Y421386D01*
X971099Y422971D01*
X974029Y425901D01*
X975614Y429729D01*
X975614Y433871D01*
X974029Y437699D01*
X972548Y439180D01*
X972005Y439985D01*
X971804Y440976D01*
X971804Y483251D01*
X971990Y484204D01*
X972548Y485047D01*
X976104Y488603D01*
X976872Y489129D01*
X977860Y489346D01*
X978853Y489161D01*
X979696Y488603D01*
X983252Y485047D01*
X983795Y484241D01*
X983996Y483251D01*
X983996Y410188D01*
X983810Y409234D01*
X983252Y408392D01*
X928411Y353550D01*
X927605Y353007D01*
X926614Y352806D01*
X863578Y352806D01*
X862700Y352962D01*
X861840Y353494D01*
X861255Y354318D01*
X861038Y355306D01*
X861223Y356299D01*
X861782Y357142D01*
X914279Y409639D01*
X915284Y412066D01*
X915284Y442202D01*
X915462Y443137D01*
X916014Y443984D01*
X916646Y444410D01*
X920739Y448503D01*
X922904Y453731D01*
X922904Y459389D01*
X920739Y464617D01*
X916737Y468619D01*
X911509Y470784D01*
X905851Y470784D01*
X900623Y468619D01*
X896621Y464617D01*
X894456Y459389D01*
X894456Y453731D01*
X896621Y448503D01*
X900704Y444420D01*
X901303Y444027D01*
X901875Y443193D01*
X902076Y442202D01*
X902076Y417168D01*
X901890Y416214D01*
X901332Y415372D01*
X845205Y359245D01*
X844803Y358642D01*
X842071Y355911D01*
X841435Y354374D01*
X840913Y353579D01*
X840079Y353007D01*
X839088Y352806D01*
X825986Y352806D01*
X825032Y352992D01*
X824190Y353550D01*
X811258Y366482D01*
X810715Y367287D01*
X810514Y368278D01*
X810514Y370371D01*
X808929Y374199D01*
X805999Y377129D01*
X802171Y378714D01*
X798029Y378714D01*
X794201Y377129D01*
X791271Y374199D01*
X789947Y371001D01*
X789466Y370250D01*
X788646Y369658D01*
X787661Y369434D01*
X786666Y369611D01*
X785818Y370162D01*
X785253Y371001D01*
X783929Y374199D01*
X782448Y375680D01*
X781905Y376485D01*
X781704Y377476D01*
X781704Y394614D01*
X780699Y397041D01*
X760458Y417282D01*
X759915Y418087D01*
X759714Y419078D01*
X759714Y421171D01*
X758129Y424999D01*
X756648Y426480D01*
X756105Y427285D01*
X755904Y428276D01*
X755904Y591832D01*
X756090Y592786D01*
X756648Y593629D01*
X914289Y751269D01*
X915294Y753696D01*
X915294Y849882D01*
X915472Y850817D01*
X916024Y851664D01*
X916656Y852090D01*
X920830Y856264D01*
X921223Y856863D01*
X922057Y857435D01*
X923048Y857636D01*
X935372Y857636D01*
X936326Y857450D01*
X937169Y856892D01*
X951302Y842759D01*
X951845Y841953D01*
X952046Y840962D01*
X952046Y631476D01*
X951860Y630522D01*
X951302Y629680D01*
X949821Y628199D01*
X948236Y624371D01*
X948236Y622278D01*
X948050Y621324D01*
X947492Y620482D01*
X934201Y607191D01*
X933196Y604764D01*
X933196Y544786D01*
X934201Y542359D01*
X948759Y527801D01*
X951186Y526796D01*
X1004614Y526796D01*
X1007041Y527801D01*
X1021599Y542359D01*
X1022604Y544786D01*
X1022604Y559451D01*
X1022790Y560404D01*
X1023348Y561247D01*
X1026551Y564450D01*
X1028446Y569024D01*
X1028446Y573976D01*
X1026551Y578550D01*
X1023050Y582051D01*
X1018476Y583946D01*
X1013524Y583946D01*
X1008950Y582051D01*
X1005815Y578916D01*
X1005046Y578389D01*
X1004059Y578172D01*
X1003065Y578358D01*
X1002222Y578916D01*
X999490Y581648D01*
X999490Y561352D01*
X1002222Y564084D01*
X1002991Y564611D01*
X1003978Y564828D01*
X1004972Y564643D01*
X1005815Y564084D01*
X1008652Y561247D01*
X1009195Y560441D01*
X1009396Y559451D01*
X1009396Y549888D01*
X1009210Y548934D01*
X1008652Y548092D01*
X1001309Y540748D01*
X1000503Y540205D01*
X999512Y540004D01*
X956288Y540004D01*
X955334Y540190D01*
X954492Y540748D01*
X947148Y548092D01*
X946605Y548897D01*
X946404Y549888D01*
X946404Y599662D01*
X946590Y600616D01*
X947148Y601459D01*
X956832Y611142D01*
X957637Y611685D01*
X958628Y611886D01*
X960721Y611886D01*
X964549Y613471D01*
X967479Y616401D01*
X969064Y620229D01*
X969064Y624371D01*
X967479Y628199D01*
X965998Y629680D01*
X965455Y630485D01*
X965254Y631476D01*
X965254Y846064D01*
X964249Y848491D01*
X942901Y869839D01*
X940474Y870844D01*
X923048Y870844D01*
X922113Y871022D01*
X921266Y871574D01*
X920840Y872206D01*
X916747Y876299D01*
X911519Y878464D01*
X905861Y878464D01*
X900633Y876299D01*
X896631Y872297D01*
X894466Y867069D01*
X894466Y861411D01*
X896631Y856183D01*
X900714Y852100D01*
X901313Y851707D01*
X901885Y850873D01*
X902086Y849882D01*
X902086Y758798D01*
X901900Y757844D01*
X901342Y757002D01*
X743701Y599361D01*
X742696Y596934D01*
X742696Y428276D01*
X742510Y427322D01*
X741952Y426480D01*
X740471Y424999D01*
X738886Y421171D01*
X738886Y417029D01*
X740471Y413201D01*
X743401Y410271D01*
X747229Y408686D01*
X749322Y408686D01*
X750276Y408500D01*
X751119Y407942D01*
X767752Y391309D01*
X768295Y390503D01*
X768496Y389512D01*
X768496Y377476D01*
X768310Y376522D01*
X767752Y375680D01*
X766271Y374199D01*
X764947Y371001D01*
X764466Y370250D01*
X763646Y369658D01*
X762661Y369434D01*
X761666Y369611D01*
X760818Y370162D01*
X760253Y371001D01*
X758929Y374199D01*
X755999Y377129D01*
X752171Y378714D01*
X748029Y378714D01*
X744201Y377129D01*
X741271Y374199D01*
X739686Y370371D01*
X739686Y366229D01*
X741263Y362422D01*
X741456Y361490D01*
X741270Y360496D01*
X740712Y359654D01*
X734609Y353550D01*
X733803Y353007D01*
X732812Y352806D01*
X711686Y352806D01*
X710732Y352992D01*
X709890Y353550D01*
X707733Y355707D01*
X707130Y356109D01*
X704399Y358841D01*
X700571Y360426D01*
X696429Y360426D01*
X692601Y358841D01*
X689671Y355911D01*
X689035Y354374D01*
X688513Y353579D01*
X687679Y353007D01*
X686688Y352806D01*
X589032Y352806D01*
X588173Y352956D01*
X587309Y353480D01*
X586717Y354300D01*
X586492Y355285D01*
X586670Y356280D01*
X587221Y357128D01*
X588060Y357693D01*
X590275Y358610D01*
X591074Y359410D01*
X576526Y359410D01*
X577325Y358610D01*
X579540Y357693D01*
X580276Y357226D01*
X580874Y356411D01*
X581107Y355427D01*
X580938Y354430D01*
X580393Y353579D01*
X579559Y353007D01*
X578568Y352806D01*
X177529Y352806D01*
X176671Y352956D01*
X175806Y353480D01*
X175215Y354300D01*
X174990Y355285D01*
X175167Y356281D01*
X175719Y357128D01*
X176557Y357693D01*
X179569Y358940D01*
X181581Y360952D01*
X182386Y361495D01*
X183377Y361696D01*
X433114Y361696D01*
X435541Y362701D01*
X450099Y377259D01*
X451104Y379686D01*
X451104Y445814D01*
X450099Y448241D01*
X435541Y462799D01*
X433114Y463804D01*
X415576Y463804D01*
X414622Y463990D01*
X413780Y464548D01*
X413748Y464580D01*
X413205Y465385D01*
X413004Y466376D01*
X413004Y689324D01*
X413190Y690278D01*
X413748Y691120D01*
X415229Y692601D01*
X416814Y696429D01*
X416814Y700571D01*
X415229Y704399D01*
X412299Y707329D01*
X408471Y708914D01*
X404329Y708914D01*
X400501Y707329D01*
X397571Y704399D01*
X396047Y700718D01*
X395566Y699967D01*
X394746Y699375D01*
X393761Y699151D01*
X392766Y699328D01*
X391918Y699880D01*
X391353Y700718D01*
X389829Y704399D01*
X388348Y705880D01*
X387805Y706685D01*
X387604Y707676D01*
X387604Y727732D01*
X387790Y728686D01*
X388348Y729529D01*
X508237Y849418D01*
X509024Y849953D01*
X510013Y850162D01*
X510761Y850016D01*
X516549Y850016D01*
X521777Y852181D01*
X525779Y856183D01*
X527944Y861411D01*
X527944Y867069D01*
X525779Y872297D01*
X521777Y876299D01*
X516549Y878464D01*
X510891Y878464D01*
X505663Y876299D01*
X501661Y872297D01*
X499496Y867069D01*
X499496Y861296D01*
X499642Y860594D01*
X499456Y859600D01*
X498898Y858757D01*
X375401Y735261D01*
X374396Y732834D01*
X374396Y707676D01*
X374210Y706722D01*
X373652Y705880D01*
X372171Y704399D01*
X370647Y700718D01*
X370166Y699967D01*
X369346Y699375D01*
X368361Y699151D01*
X367366Y699328D01*
X366518Y699880D01*
X365953Y700718D01*
X364429Y704399D01*
X361499Y707329D01*
X357671Y708914D01*
X353529Y708914D01*
X349701Y707329D01*
X346771Y704399D01*
X345247Y700718D01*
X344766Y699967D01*
X343946Y699375D01*
X342961Y699151D01*
X341966Y699328D01*
X341118Y699880D01*
X340553Y700718D01*
X339029Y704399D01*
X336099Y707329D01*
X332271Y708914D01*
X328129Y708914D01*
X324301Y707329D01*
X321371Y704399D01*
X320397Y702045D01*
X319916Y701294D01*
X319096Y700703D01*
X318111Y700478D01*
X317115Y700656D01*
X316268Y701207D01*
X315703Y702045D01*
X314490Y704975D01*
X313690Y705774D01*
X313690Y691226D01*
X314490Y692025D01*
X315703Y694955D01*
X316184Y695706D01*
X317004Y696297D01*
X317989Y696522D01*
X318984Y696344D01*
X319832Y695793D01*
X320397Y694955D01*
X321371Y692601D01*
X322852Y691120D01*
X323395Y690315D01*
X323596Y689324D01*
X323596Y466376D01*
X323410Y465422D01*
X322852Y464580D01*
X321371Y463099D01*
X320397Y460745D01*
X319916Y459994D01*
X319096Y459403D01*
X318111Y459178D01*
X317115Y459356D01*
X316268Y459907D01*
X315703Y460745D01*
X314490Y463675D01*
X313690Y464474D01*
X313690Y449926D01*
X314490Y450725D01*
X315703Y453655D01*
X316184Y454406D01*
X317004Y454997D01*
X317989Y455222D01*
X318984Y455044D01*
X319832Y454493D01*
X320397Y453655D01*
X321371Y451301D01*
X322720Y449952D01*
X323247Y449184D01*
X323464Y448196D01*
X323279Y447203D01*
X322720Y446360D01*
X281219Y404858D01*
X280413Y404315D01*
X279422Y404114D01*
X277329Y404114D01*
X273501Y402529D01*
X270571Y399599D01*
X268986Y395771D01*
X268986Y391629D01*
X270571Y387801D01*
X273501Y384871D01*
X277329Y383286D01*
X281471Y383286D01*
X285299Y384871D01*
X288229Y387801D01*
X289553Y390999D01*
X290034Y391750D01*
X290854Y392342D01*
X291839Y392567D01*
X292834Y392389D01*
X293682Y391838D01*
X294247Y390999D01*
X295571Y387801D01*
X298501Y384871D01*
X302329Y383286D01*
X306471Y383286D01*
X310299Y384871D01*
X313229Y387801D01*
X314814Y391629D01*
X314814Y393722D01*
X315000Y394676D01*
X315558Y395519D01*
X361199Y441159D01*
X362204Y443586D01*
X362204Y448024D01*
X362390Y448978D01*
X362948Y449820D01*
X364429Y451301D01*
X365953Y454982D01*
X366434Y455733D01*
X367254Y456325D01*
X368239Y456549D01*
X369234Y456372D01*
X370082Y455820D01*
X370647Y454982D01*
X372171Y451301D01*
X373652Y449820D01*
X374195Y449015D01*
X374396Y448024D01*
X374396Y402876D01*
X374210Y401922D01*
X373652Y401080D01*
X372171Y399599D01*
X370586Y395771D01*
X370586Y391629D01*
X372171Y387801D01*
X375101Y384871D01*
X378929Y383286D01*
X383071Y383286D01*
X386899Y384871D01*
X389829Y387801D01*
X390604Y389672D01*
X391084Y390423D01*
X391904Y391014D01*
X392889Y391239D01*
X393885Y391062D01*
X394732Y390510D01*
X395297Y389672D01*
X396310Y387225D01*
X397110Y386426D01*
X397110Y400974D01*
X396310Y400175D01*
X395297Y397728D01*
X394816Y396977D01*
X393997Y396386D01*
X393011Y396161D01*
X392016Y396338D01*
X391168Y396890D01*
X390604Y397728D01*
X389829Y399599D01*
X388348Y401080D01*
X387805Y401885D01*
X387604Y402876D01*
X387604Y448024D01*
X387790Y448978D01*
X388348Y449820D01*
X389829Y451301D01*
X391353Y454982D01*
X391834Y455733D01*
X392654Y456325D01*
X393639Y456549D01*
X394634Y456372D01*
X395482Y455820D01*
X396047Y454982D01*
X397571Y451301D01*
X400501Y448371D01*
X404329Y446786D01*
X408471Y446786D01*
X412299Y448371D01*
X413780Y449852D01*
X414585Y450395D01*
X415576Y450596D01*
X428012Y450596D01*
X428966Y450410D01*
X429809Y449852D01*
X437152Y442509D01*
X437695Y441703D01*
X437896Y440712D01*
X437896Y384788D01*
X437710Y383834D01*
X437152Y382992D01*
X429809Y375648D01*
X429003Y375105D01*
X428012Y374904D01*
X188827Y374904D01*
X187873Y375090D01*
X187031Y375648D01*
X185846Y376832D01*
X185304Y377637D01*
X185103Y378628D01*
X185103Y394778D01*
X183159Y399469D01*
X179569Y403060D01*
X174878Y405003D01*
X169800Y405003D01*
X165109Y403060D01*
X161519Y399469D01*
X159576Y394778D01*
X159576Y367222D01*
X161519Y362531D01*
X165109Y358940D01*
X168121Y357693D01*
X168857Y357226D01*
X169455Y356411D01*
X169687Y355427D01*
X169518Y354430D01*
X168973Y353579D01*
X168139Y353007D01*
X167149Y352806D01*
X156188Y352806D01*
X155234Y352992D01*
X154392Y353550D01*
X134348Y373594D01*
X133805Y374399D01*
X133604Y375390D01*
X133604Y428012D01*
X133790Y428966D01*
X134348Y429809D01*
X154392Y449852D01*
X155197Y450395D01*
X156188Y450596D01*
X270224Y450596D01*
X271178Y450410D01*
X272020Y449852D01*
X273501Y448371D01*
X277329Y446786D01*
X281471Y446786D01*
X285299Y448371D01*
X288229Y451301D01*
X289204Y453655D01*
X289684Y454406D01*
X290504Y454997D01*
X291489Y455222D01*
X292485Y455044D01*
X293332Y454493D01*
X293897Y453655D01*
X295110Y450725D01*
X295910Y449926D01*
X295910Y464474D01*
X295110Y463675D01*
X293897Y460745D01*
X293416Y459994D01*
X292597Y459403D01*
X291611Y459178D01*
X290616Y459356D01*
X289769Y459907D01*
X289204Y460745D01*
X288229Y463099D01*
X286748Y464580D01*
X286205Y465385D01*
X286004Y466376D01*
X286004Y689324D01*
X286190Y690278D01*
X286748Y691120D01*
X288229Y692601D01*
X289204Y694955D01*
X289684Y695706D01*
X290504Y696297D01*
X291489Y696522D01*
X292485Y696344D01*
X293332Y695793D01*
X293897Y694955D01*
X295110Y692025D01*
X295910Y691226D01*
X295910Y705774D01*
X295110Y704975D01*
X293897Y702045D01*
X293416Y701294D01*
X292597Y700703D01*
X291611Y700478D01*
X290616Y700656D01*
X289769Y701207D01*
X289204Y702045D01*
X288229Y704399D01*
X285299Y707329D01*
X281471Y708914D01*
X277329Y708914D01*
X273501Y707329D01*
X270571Y704399D01*
X268986Y700571D01*
X268986Y696429D01*
X270571Y692601D01*
X272052Y691120D01*
X272595Y690315D01*
X272796Y689324D01*
X272796Y466376D01*
X272610Y465422D01*
X272052Y464580D01*
X272020Y464548D01*
X271215Y464005D01*
X270224Y463804D01*
X151086Y463804D01*
X148659Y462799D01*
X121401Y435541D01*
X120396Y433114D01*
X120396Y370288D01*
X121401Y367861D01*
X143805Y345458D01*
X144315Y344727D01*
X144547Y343743D01*
X144378Y342746D01*
X143833Y341895D01*
X142999Y341323D01*
G37*
%LPC*%
G36*
X161290Y842010D02*
X161290Y840752D01*
X162548Y842010D01*
X161290Y842010D01*
G37*
G36*
X339588Y749540D02*
X346212Y749540D01*
X352611Y751255D01*
X358349Y754567D01*
X363033Y759251D01*
X366345Y764989D01*
X368060Y771388D01*
X368060Y778012D01*
X366345Y784411D01*
X363033Y790149D01*
X358349Y794833D01*
X352611Y798145D01*
X346212Y799860D01*
X339588Y799860D01*
X333189Y798145D01*
X327451Y794833D01*
X322767Y790149D01*
X319455Y784411D01*
X317740Y778012D01*
X317740Y771388D01*
X319455Y764989D01*
X322767Y759251D01*
X327451Y754567D01*
X333189Y751255D01*
X339588Y749540D01*
G37*
G36*
X161290Y778510D02*
X161290Y777252D01*
X162548Y778510D01*
X161290Y778510D01*
G37*
G36*
X161290Y715010D02*
X161290Y713752D01*
X162548Y715010D01*
X161290Y715010D01*
G37*
G36*
X917580Y701680D02*
X921353Y701680D01*
X917580Y705453D01*
X917580Y701680D01*
G37*
G36*
X896027Y701680D02*
X899800Y701680D01*
X899800Y705453D01*
X896027Y701680D01*
G37*
G36*
X501057Y701680D02*
X504830Y701680D01*
X504830Y705453D01*
X501057Y701680D01*
G37*
G36*
X522610Y701680D02*
X526383Y701680D01*
X522610Y705453D01*
X522610Y701680D01*
G37*
G36*
X962724Y559054D02*
X967676Y559054D01*
X972250Y560949D01*
X975386Y564084D01*
X976154Y564611D01*
X977141Y564828D01*
X978135Y564643D01*
X978978Y564084D01*
X981710Y561352D01*
X981710Y581648D01*
X978978Y578916D01*
X978209Y578389D01*
X977222Y578172D01*
X976228Y578358D01*
X975386Y578916D01*
X974116Y580185D01*
X973590Y580953D01*
X973373Y581940D01*
X973558Y582934D01*
X974116Y583777D01*
X996199Y605859D01*
X997204Y608286D01*
X997204Y612249D01*
X997360Y613127D01*
X997892Y613987D01*
X998716Y614572D01*
X999704Y614789D01*
X1000560Y614629D01*
X1000560Y629986D01*
X999825Y629812D01*
X998828Y629981D01*
X997977Y630526D01*
X997405Y631360D01*
X997204Y632351D01*
X997204Y661051D01*
X997390Y662004D01*
X997948Y662847D01*
X1001151Y666050D01*
X1003046Y670624D01*
X1003046Y675576D01*
X1001151Y680150D01*
X997650Y683651D01*
X993076Y685546D01*
X988124Y685546D01*
X983550Y683651D01*
X980049Y680150D01*
X978154Y675576D01*
X978154Y670624D01*
X980049Y666050D01*
X983252Y662847D01*
X983795Y662041D01*
X983996Y661051D01*
X983996Y613388D01*
X983810Y612434D01*
X983252Y611592D01*
X959601Y587941D01*
X958596Y585514D01*
X958596Y583549D01*
X958410Y582596D01*
X957852Y581753D01*
X954649Y578550D01*
X952754Y573976D01*
X952754Y569024D01*
X954649Y564450D01*
X958150Y560949D01*
X962724Y559054D01*
G37*
G36*
X501057Y683900D02*
X504830Y680127D01*
X504830Y683900D01*
X501057Y683900D01*
G37*
G36*
X522610Y683900D02*
X522610Y680127D01*
X526383Y683900D01*
X522610Y683900D01*
G37*
G36*
X896027Y683900D02*
X899800Y680127D01*
X899800Y683900D01*
X896027Y683900D01*
G37*
G36*
X917580Y683900D02*
X917580Y680127D01*
X921353Y683900D01*
X917580Y683900D01*
G37*
G36*
X161290Y651510D02*
X161290Y650252D01*
X162548Y651510D01*
X161290Y651510D01*
G37*
G36*
X896017Y636900D02*
X899790Y636900D01*
X899790Y640673D01*
X896017Y636900D01*
G37*
G36*
X522600Y636900D02*
X526373Y636900D01*
X522600Y640673D01*
X522600Y636900D01*
G37*
G36*
X501047Y636900D02*
X504820Y636900D01*
X504820Y640673D01*
X501047Y636900D01*
G37*
G36*
X917570Y636900D02*
X921343Y636900D01*
X917570Y640673D01*
X917570Y636900D01*
G37*
G36*
X896017Y619120D02*
X899790Y615347D01*
X899790Y619120D01*
X896017Y619120D01*
G37*
G36*
X917570Y619120D02*
X917570Y615347D01*
X921343Y619120D01*
X917570Y619120D01*
G37*
G36*
X522600Y619120D02*
X522600Y615347D01*
X526373Y619120D01*
X522600Y619120D01*
G37*
G36*
X501047Y619120D02*
X504820Y615347D01*
X504820Y619120D01*
X501047Y619120D01*
G37*
G36*
X161290Y588010D02*
X161290Y586752D01*
X162548Y588010D01*
X161290Y588010D01*
G37*
G36*
X556729Y357886D02*
X560871Y357886D01*
X564699Y359471D01*
X567629Y362401D01*
X568404Y364272D01*
X568884Y365023D01*
X569704Y365614D01*
X570689Y365839D01*
X571685Y365662D01*
X572532Y365110D01*
X573097Y364272D01*
X574110Y361825D01*
X574910Y361026D01*
X574910Y375574D01*
X574110Y374775D01*
X573097Y372328D01*
X572616Y371577D01*
X571797Y370986D01*
X570811Y370761D01*
X569816Y370938D01*
X568968Y371490D01*
X568404Y372328D01*
X567629Y374199D01*
X566148Y375680D01*
X565605Y376485D01*
X565404Y377476D01*
X565404Y407714D01*
X564399Y410141D01*
X557258Y417282D01*
X556715Y418087D01*
X556514Y419078D01*
X556514Y421171D01*
X554929Y424999D01*
X551999Y427929D01*
X548171Y429514D01*
X546078Y429514D01*
X545124Y429700D01*
X544282Y430258D01*
X527047Y447492D01*
X526512Y448279D01*
X526303Y449268D01*
X526497Y450260D01*
X527934Y453731D01*
X527934Y459389D01*
X525769Y464617D01*
X521767Y468619D01*
X516539Y470784D01*
X510881Y470784D01*
X505653Y468619D01*
X501651Y464617D01*
X499486Y459389D01*
X499486Y453731D01*
X501651Y448503D01*
X505653Y444501D01*
X510881Y442336D01*
X512472Y442336D01*
X513426Y442150D01*
X514269Y441592D01*
X534942Y420919D01*
X535485Y420113D01*
X535686Y419122D01*
X535686Y417029D01*
X537271Y413201D01*
X540201Y410271D01*
X544029Y408686D01*
X546122Y408686D01*
X547076Y408500D01*
X547919Y407942D01*
X551452Y404409D01*
X551995Y403603D01*
X552196Y402612D01*
X552196Y377476D01*
X552010Y376522D01*
X551452Y375680D01*
X549971Y374199D01*
X548386Y370371D01*
X548386Y366229D01*
X549971Y362401D01*
X552901Y359471D01*
X556729Y357886D01*
G37*
G36*
X1006310Y425325D02*
X1007110Y424526D01*
X1007110Y439074D01*
X1006310Y438275D01*
X1004570Y434074D01*
X1004570Y429526D01*
X1006310Y425325D01*
G37*
G36*
X403726Y382270D02*
X408274Y382270D01*
X412475Y384010D01*
X413274Y384810D01*
X398726Y384810D01*
X399525Y384010D01*
X403726Y382270D01*
G37*
%LPD*%
D10*
X152400Y850900D03*
X152400Y876300D03*
X152400Y787400D03*
X152400Y812800D03*
X152400Y723900D03*
X152400Y749300D03*
X152400Y660400D03*
X152400Y685800D03*
X152400Y596900D03*
X152400Y622300D03*
D11*
X279400Y698500D03*
X304800Y698500D03*
X330200Y698500D03*
X355600Y698500D03*
X381000Y698500D03*
X406400Y698500D03*
D12*
X513720Y864240D03*
X513720Y692790D03*
X908690Y692790D03*
X908690Y864240D03*
D11*
X279400Y457200D03*
X304800Y457200D03*
X330200Y457200D03*
X355600Y457200D03*
X381000Y457200D03*
X406400Y457200D03*
D10*
X1016000Y571500D03*
X990600Y571500D03*
X965200Y571500D03*
X1016000Y495300D03*
X990600Y495300D03*
X965200Y495300D03*
D13*
X172339Y392240D02*
X172339Y369761D01*
X172339Y522161D02*
X172339Y544640D01*
D11*
X958650Y622300D03*
X1009450Y622300D03*
X1016000Y431800D03*
X965200Y431800D03*
D10*
X990600Y673100D03*
D11*
X800100Y368300D03*
X775100Y368300D03*
X750100Y368300D03*
X558800Y368300D03*
X583800Y368300D03*
X381000Y393700D03*
X406000Y393700D03*
X279400Y393700D03*
X304400Y393700D03*
X546100Y419100D03*
X596900Y419100D03*
X850900Y350012D03*
X850900Y400812D03*
X749300Y419100D03*
X800100Y419100D03*
X698500Y350012D03*
X698500Y400812D03*
D12*
X908680Y456560D03*
X908680Y628010D03*
X513710Y628010D03*
X513710Y456560D03*
D14*
X152400Y876300D02*
X139700Y876300D01*
X127000Y863600D01*
X127000Y825500D01*
X139700Y812800D01*
X152400Y812800D01*
X139700Y812800D02*
X127000Y800100D01*
X127000Y762000D01*
X139700Y749300D01*
X152400Y749300D01*
X139700Y749300D02*
X127000Y736600D01*
X127000Y698500D01*
X139700Y685800D01*
X152400Y685800D01*
X139700Y685800D02*
X127000Y673100D01*
X127000Y635000D01*
X139700Y622300D01*
X152400Y622300D01*
X139700Y622300D02*
X127000Y609600D01*
X127000Y546100D01*
X139700Y533400D01*
X172339Y533400D01*
X381000Y731520D02*
X513720Y864240D01*
X381000Y731520D02*
X381000Y698500D01*
X381000Y457200D02*
X381000Y393700D01*
X990600Y609600D02*
X990600Y673100D01*
X990600Y609600D02*
X965200Y584200D01*
X965200Y571500D01*
X185039Y368300D02*
X172339Y381000D01*
X185039Y368300D02*
X431800Y368300D01*
X444500Y381000D01*
X444500Y444500D01*
X431800Y457200D01*
X406400Y457200D01*
X406400Y698500D01*
X965200Y495300D02*
X965200Y431800D01*
X822198Y346202D02*
X800100Y368300D01*
X822198Y346202D02*
X847090Y346202D01*
X850900Y350012D01*
X990600Y495300D02*
X1016000Y495300D01*
X990600Y495300D02*
X990600Y406400D01*
X930402Y346202D01*
X854710Y346202D01*
X850900Y350012D01*
X908680Y413380D02*
X908680Y456560D01*
X908680Y413380D02*
X850900Y355600D01*
X908690Y755010D02*
X908690Y864240D01*
X908690Y755010D02*
X749300Y595620D01*
X749300Y419100D01*
X775100Y393300D01*
X775100Y368300D01*
X958650Y622300D02*
X958650Y844750D01*
X939160Y864240D01*
X908690Y864240D01*
X958650Y622300D02*
X939800Y603450D01*
X939800Y546100D01*
X952500Y533400D01*
X1003300Y533400D01*
X1016000Y546100D01*
X1016000Y571500D01*
X279400Y457200D02*
X152400Y457200D01*
X127000Y431800D01*
X127000Y371602D01*
X152400Y346202D01*
X694690Y346202D01*
X698500Y350012D01*
X704088Y350012D01*
X707898Y346202D01*
X736600Y346202D01*
X750100Y359702D01*
X750100Y368300D01*
X279400Y457200D02*
X279400Y698500D01*
X558800Y406400D02*
X558800Y368300D01*
X558800Y406400D02*
X546100Y419100D01*
X513710Y451490D02*
X513710Y456560D01*
X513710Y451490D02*
X546100Y419100D01*
X330200Y457200D02*
X330200Y698500D01*
X330200Y457200D02*
X330200Y444500D01*
X279400Y393700D01*
X355600Y457200D02*
X355600Y698500D01*
X355600Y457200D02*
X355600Y444900D01*
X304400Y393700D01*
M02*
