G04 EAGLE Gerber RS-274X export*
G75*
%MOMM*%
%FSLAX34Y34*%
%LPD*%
%INSilkscreen Top*%
%IPPOS*%
%AMOC8*
5,1,8,0,0,1.08239X$1,22.5*%
G01*
G04 Define Apertures*
%ADD10C,0.152400*%
%ADD11R,5.588000X0.762000*%
%ADD12R,1.270000X0.889000*%
G36*
X206400Y834243D02*
X189114Y834243D01*
X189114Y841518D01*
X189136Y842224D01*
X189199Y842890D01*
X189306Y843514D01*
X189455Y844097D01*
X189646Y844640D01*
X189880Y845141D01*
X190157Y845601D01*
X190476Y846020D01*
X190834Y846394D01*
X191227Y846718D01*
X191654Y846992D01*
X192117Y847217D01*
X192614Y847391D01*
X192876Y847460D01*
X193147Y847516D01*
X193426Y847559D01*
X193714Y847590D01*
X194011Y847609D01*
X194316Y847615D01*
X194619Y847609D01*
X194914Y847590D01*
X195201Y847559D01*
X195480Y847515D01*
X196015Y847390D01*
X196518Y847215D01*
X196990Y846990D01*
X197431Y846715D01*
X197840Y846390D01*
X198217Y846014D01*
X198557Y845596D01*
X198851Y845142D01*
X199099Y844652D01*
X199303Y844127D01*
X199461Y843565D01*
X199574Y842968D01*
X199642Y842334D01*
X199665Y841665D01*
X199665Y836586D01*
X206400Y836586D01*
X206400Y834243D01*
G37*
%LPC*%
G36*
X197812Y836586D02*
X197812Y841334D01*
X197799Y841809D01*
X197758Y842254D01*
X197690Y842668D01*
X197595Y843052D01*
X197473Y843404D01*
X197324Y843726D01*
X197148Y844018D01*
X196944Y844278D01*
X196714Y844508D01*
X196456Y844708D01*
X196171Y844876D01*
X195859Y845014D01*
X195520Y845122D01*
X195154Y845198D01*
X194761Y845244D01*
X194341Y845260D01*
X193935Y845244D01*
X193556Y845197D01*
X193202Y845118D01*
X192875Y845008D01*
X192574Y844867D01*
X192300Y844694D01*
X192051Y844490D01*
X191829Y844254D01*
X191632Y843987D01*
X191462Y843688D01*
X191318Y843358D01*
X191201Y842996D01*
X191109Y842603D01*
X191044Y842179D01*
X191004Y841723D01*
X190991Y841236D01*
X190991Y836586D01*
X197812Y836586D01*
G37*
%LPD*%
G36*
X206400Y850993D02*
X189114Y850993D01*
X189114Y863273D01*
X191028Y863273D01*
X191028Y853336D01*
X197457Y853336D01*
X197457Y862979D01*
X199395Y862979D01*
X199395Y853336D01*
X206400Y853336D01*
X206400Y850993D01*
G37*
G36*
X189114Y864386D02*
X189114Y866852D01*
X201284Y871637D01*
X204339Y872667D01*
X201284Y873698D01*
X189114Y878458D01*
X189114Y880924D01*
X206400Y873869D01*
X206400Y871440D01*
X189114Y864386D01*
G37*
G36*
X206400Y882940D02*
X204523Y882940D01*
X204523Y887344D01*
X191224Y887344D01*
X194009Y883443D01*
X191924Y883443D01*
X189114Y887528D01*
X189114Y889564D01*
X204523Y889564D01*
X204523Y893772D01*
X206400Y893772D01*
X206400Y882940D01*
G37*
G36*
X206400Y770743D02*
X189114Y770743D01*
X189114Y778018D01*
X189136Y778724D01*
X189199Y779390D01*
X189306Y780014D01*
X189455Y780597D01*
X189646Y781140D01*
X189880Y781641D01*
X190157Y782101D01*
X190476Y782520D01*
X190834Y782894D01*
X191227Y783218D01*
X191654Y783492D01*
X192117Y783717D01*
X192614Y783891D01*
X192876Y783960D01*
X193147Y784016D01*
X193426Y784059D01*
X193714Y784090D01*
X194011Y784109D01*
X194316Y784115D01*
X194619Y784109D01*
X194914Y784090D01*
X195201Y784059D01*
X195480Y784015D01*
X196015Y783890D01*
X196518Y783715D01*
X196990Y783490D01*
X197431Y783215D01*
X197840Y782890D01*
X198217Y782514D01*
X198557Y782096D01*
X198851Y781642D01*
X199099Y781152D01*
X199303Y780627D01*
X199461Y780065D01*
X199574Y779468D01*
X199642Y778834D01*
X199665Y778165D01*
X199665Y773086D01*
X206400Y773086D01*
X206400Y770743D01*
G37*
%LPC*%
G36*
X197812Y773086D02*
X197812Y777834D01*
X197799Y778309D01*
X197758Y778754D01*
X197690Y779168D01*
X197595Y779552D01*
X197473Y779904D01*
X197324Y780226D01*
X197148Y780518D01*
X196944Y780778D01*
X196714Y781008D01*
X196456Y781208D01*
X196171Y781376D01*
X195859Y781514D01*
X195520Y781622D01*
X195154Y781698D01*
X194761Y781744D01*
X194341Y781760D01*
X193935Y781744D01*
X193556Y781697D01*
X193202Y781618D01*
X192875Y781508D01*
X192574Y781367D01*
X192300Y781194D01*
X192051Y780990D01*
X191829Y780754D01*
X191632Y780487D01*
X191462Y780188D01*
X191318Y779858D01*
X191201Y779496D01*
X191109Y779103D01*
X191044Y778679D01*
X191004Y778223D01*
X190991Y777736D01*
X190991Y773086D01*
X197812Y773086D01*
G37*
%LPD*%
G36*
X206400Y787493D02*
X189114Y787493D01*
X189114Y799773D01*
X191028Y799773D01*
X191028Y789836D01*
X197457Y789836D01*
X197457Y799479D01*
X199395Y799479D01*
X199395Y789836D01*
X206400Y789836D01*
X206400Y787493D01*
G37*
G36*
X189114Y800886D02*
X189114Y803352D01*
X201284Y808137D01*
X204339Y809167D01*
X201284Y810198D01*
X189114Y814958D01*
X189114Y817424D01*
X206400Y810369D01*
X206400Y807940D01*
X189114Y800886D01*
G37*
G36*
X206400Y818789D02*
X204842Y818789D01*
X204145Y819119D01*
X203491Y819484D01*
X202879Y819883D01*
X202309Y820317D01*
X201773Y820773D01*
X201263Y821241D01*
X200779Y821721D01*
X200321Y822212D01*
X199464Y823201D01*
X198671Y824181D01*
X197911Y825109D01*
X197150Y825942D01*
X196765Y826315D01*
X196371Y826652D01*
X195968Y826950D01*
X195555Y827211D01*
X195343Y827325D01*
X195124Y827423D01*
X194898Y827507D01*
X194666Y827575D01*
X194426Y827628D01*
X194180Y827666D01*
X193926Y827688D01*
X193666Y827696D01*
X193320Y827683D01*
X192994Y827644D01*
X192688Y827579D01*
X192402Y827487D01*
X192136Y827370D01*
X191890Y827227D01*
X191664Y827057D01*
X191458Y826862D01*
X191274Y826643D01*
X191114Y826404D01*
X190979Y826145D01*
X190869Y825865D01*
X190783Y825565D01*
X190721Y825245D01*
X190685Y824904D01*
X190672Y824543D01*
X190684Y824198D01*
X190720Y823869D01*
X190780Y823555D01*
X190864Y823257D01*
X190972Y822974D01*
X191104Y822706D01*
X191259Y822455D01*
X191439Y822218D01*
X191640Y822002D01*
X191861Y821808D01*
X192101Y821639D01*
X192361Y821493D01*
X192640Y821371D01*
X192938Y821272D01*
X193255Y821197D01*
X193592Y821145D01*
X193384Y818888D01*
X192879Y818969D01*
X192400Y819090D01*
X191948Y819250D01*
X191522Y819450D01*
X191123Y819690D01*
X190750Y819970D01*
X190403Y820289D01*
X190084Y820648D01*
X189796Y821040D01*
X189547Y821460D01*
X189336Y821906D01*
X189163Y822379D01*
X189029Y822880D01*
X188933Y823407D01*
X188876Y823962D01*
X188857Y824543D01*
X188876Y825178D01*
X188934Y825774D01*
X189030Y826333D01*
X189165Y826854D01*
X189338Y827337D01*
X189550Y827783D01*
X189801Y828191D01*
X190090Y828561D01*
X190414Y828890D01*
X190771Y829175D01*
X191160Y829417D01*
X191582Y829614D01*
X192036Y829768D01*
X192522Y829878D01*
X193041Y829944D01*
X193592Y829966D01*
X193843Y829958D01*
X194094Y829937D01*
X194345Y829901D01*
X194595Y829851D01*
X195094Y829707D01*
X195592Y829506D01*
X196089Y829248D01*
X196586Y828934D01*
X197082Y828564D01*
X197579Y828138D01*
X198144Y827580D01*
X198846Y826816D01*
X199684Y825844D01*
X200659Y824666D01*
X201221Y823996D01*
X201755Y823399D01*
X202261Y822874D01*
X202738Y822421D01*
X203197Y822033D01*
X203647Y821703D01*
X204089Y821432D01*
X204523Y821218D01*
X204523Y830235D01*
X206400Y830235D01*
X206400Y818789D01*
G37*
G36*
X206400Y707243D02*
X189114Y707243D01*
X189114Y714518D01*
X189136Y715224D01*
X189199Y715890D01*
X189306Y716514D01*
X189455Y717097D01*
X189646Y717640D01*
X189880Y718141D01*
X190157Y718601D01*
X190476Y719020D01*
X190834Y719394D01*
X191227Y719718D01*
X191654Y719992D01*
X192117Y720217D01*
X192614Y720391D01*
X192876Y720460D01*
X193147Y720516D01*
X193426Y720559D01*
X193714Y720590D01*
X194011Y720609D01*
X194316Y720615D01*
X194619Y720609D01*
X194914Y720590D01*
X195201Y720559D01*
X195480Y720515D01*
X196015Y720390D01*
X196518Y720215D01*
X196990Y719990D01*
X197431Y719715D01*
X197840Y719390D01*
X198217Y719014D01*
X198557Y718596D01*
X198851Y718142D01*
X199099Y717652D01*
X199303Y717127D01*
X199461Y716565D01*
X199574Y715968D01*
X199642Y715334D01*
X199665Y714665D01*
X199665Y709586D01*
X206400Y709586D01*
X206400Y707243D01*
G37*
%LPC*%
G36*
X197812Y709586D02*
X197812Y714334D01*
X197799Y714809D01*
X197758Y715254D01*
X197690Y715668D01*
X197595Y716052D01*
X197473Y716404D01*
X197324Y716726D01*
X197148Y717018D01*
X196944Y717278D01*
X196714Y717508D01*
X196456Y717708D01*
X196171Y717876D01*
X195859Y718014D01*
X195520Y718122D01*
X195154Y718198D01*
X194761Y718244D01*
X194341Y718260D01*
X193935Y718244D01*
X193556Y718197D01*
X193202Y718118D01*
X192875Y718008D01*
X192574Y717867D01*
X192300Y717694D01*
X192051Y717490D01*
X191829Y717254D01*
X191632Y716987D01*
X191462Y716688D01*
X191318Y716358D01*
X191201Y715996D01*
X191109Y715603D01*
X191044Y715179D01*
X191004Y714723D01*
X190991Y714236D01*
X190991Y709586D01*
X197812Y709586D01*
G37*
%LPD*%
G36*
X201959Y754983D02*
X201750Y757265D01*
X202122Y757331D01*
X202469Y757420D01*
X202793Y757532D01*
X203092Y757666D01*
X203368Y757822D01*
X203619Y758001D01*
X203847Y758203D01*
X204051Y758427D01*
X204230Y758674D01*
X204386Y758943D01*
X204518Y759234D01*
X204626Y759549D01*
X204710Y759885D01*
X204770Y760245D01*
X204805Y760627D01*
X204817Y761031D01*
X204805Y761437D01*
X204766Y761820D01*
X204702Y762181D01*
X204612Y762520D01*
X204496Y762836D01*
X204355Y763130D01*
X204188Y763401D01*
X203995Y763650D01*
X203778Y763873D01*
X203535Y764066D01*
X203267Y764229D01*
X202974Y764363D01*
X202657Y764467D01*
X202314Y764541D01*
X201947Y764586D01*
X201554Y764601D01*
X201211Y764584D01*
X200887Y764533D01*
X200583Y764448D01*
X200298Y764329D01*
X200033Y764177D01*
X199786Y763990D01*
X199560Y763770D01*
X199352Y763515D01*
X199167Y763229D01*
X199006Y762912D01*
X198870Y762565D01*
X198759Y762189D01*
X198672Y761782D01*
X198610Y761345D01*
X198573Y760878D01*
X198561Y760381D01*
X198561Y759129D01*
X196647Y759129D01*
X196647Y760332D01*
X196635Y760773D01*
X196597Y761188D01*
X196536Y761579D01*
X196449Y761943D01*
X196338Y762282D01*
X196202Y762596D01*
X196041Y762884D01*
X195856Y763147D01*
X195648Y763381D01*
X195422Y763585D01*
X195177Y763756D01*
X194913Y763897D01*
X194629Y764006D01*
X194327Y764084D01*
X194006Y764131D01*
X193666Y764147D01*
X193328Y764134D01*
X193009Y764096D01*
X192708Y764032D01*
X192425Y763943D01*
X192161Y763828D01*
X191914Y763688D01*
X191686Y763522D01*
X191476Y763331D01*
X191288Y763115D01*
X191124Y762874D01*
X190986Y762608D01*
X190873Y762317D01*
X190785Y762002D01*
X190723Y761662D01*
X190685Y761298D01*
X190672Y760908D01*
X190684Y760552D01*
X190719Y760213D01*
X190778Y759892D01*
X190859Y759588D01*
X190965Y759301D01*
X191093Y759032D01*
X191245Y758781D01*
X191421Y758547D01*
X191617Y758333D01*
X191833Y758143D01*
X192068Y757976D01*
X192322Y757833D01*
X192596Y757714D01*
X192888Y757618D01*
X193200Y757546D01*
X193531Y757498D01*
X193359Y755277D01*
X192843Y755358D01*
X192356Y755479D01*
X191898Y755640D01*
X191470Y755840D01*
X191070Y756080D01*
X190700Y756359D01*
X190359Y756679D01*
X190047Y757038D01*
X189768Y757430D01*
X189526Y757849D01*
X189322Y758296D01*
X189154Y758769D01*
X189024Y759269D01*
X188931Y759797D01*
X188875Y760351D01*
X188857Y760933D01*
X188876Y761565D01*
X188932Y762161D01*
X189027Y762720D01*
X189159Y763244D01*
X189329Y763731D01*
X189536Y764182D01*
X189782Y764597D01*
X190065Y764975D01*
X190382Y765313D01*
X190729Y765606D01*
X191105Y765853D01*
X191511Y766056D01*
X191947Y766214D01*
X192413Y766326D01*
X192908Y766394D01*
X193433Y766417D01*
X193837Y766402D01*
X194222Y766359D01*
X194588Y766286D01*
X194934Y766185D01*
X195261Y766055D01*
X195568Y765896D01*
X195857Y765707D01*
X196126Y765490D01*
X196374Y765246D01*
X196602Y764975D01*
X196809Y764677D01*
X196995Y764354D01*
X197160Y764004D01*
X197304Y763628D01*
X197428Y763226D01*
X197530Y762797D01*
X197579Y762797D01*
X197645Y763269D01*
X197739Y763713D01*
X197860Y764130D01*
X198009Y764521D01*
X198185Y764885D01*
X198389Y765222D01*
X198621Y765532D01*
X198880Y765815D01*
X199161Y766068D01*
X199461Y766288D01*
X199778Y766473D01*
X200113Y766625D01*
X200465Y766743D01*
X200835Y766828D01*
X201223Y766878D01*
X201628Y766895D01*
X201923Y766889D01*
X202209Y766871D01*
X202756Y766800D01*
X203270Y766681D01*
X203750Y766515D01*
X204196Y766301D01*
X204609Y766039D01*
X204988Y765730D01*
X205333Y765374D01*
X205640Y764973D01*
X205907Y764532D01*
X206133Y764050D01*
X206317Y763527D01*
X206461Y762964D01*
X206563Y762360D01*
X206625Y761716D01*
X206645Y761031D01*
X206627Y760391D01*
X206571Y759784D01*
X206479Y759211D01*
X206349Y758671D01*
X206183Y758164D01*
X205979Y757690D01*
X205739Y757249D01*
X205462Y756841D01*
X205148Y756470D01*
X204799Y756139D01*
X204414Y755847D01*
X203994Y755595D01*
X203538Y755382D01*
X203047Y755209D01*
X202521Y755076D01*
X201959Y754983D01*
G37*
G36*
X206400Y723993D02*
X189114Y723993D01*
X189114Y736273D01*
X191028Y736273D01*
X191028Y726336D01*
X197457Y726336D01*
X197457Y735979D01*
X199395Y735979D01*
X199395Y726336D01*
X206400Y726336D01*
X206400Y723993D01*
G37*
G36*
X189114Y737386D02*
X189114Y739852D01*
X201284Y744637D01*
X204339Y745667D01*
X201284Y746698D01*
X189114Y751458D01*
X189114Y753924D01*
X206400Y746869D01*
X206400Y744440D01*
X189114Y737386D01*
G37*
G36*
X206400Y643743D02*
X189114Y643743D01*
X189114Y651018D01*
X189136Y651724D01*
X189199Y652390D01*
X189306Y653014D01*
X189455Y653597D01*
X189646Y654140D01*
X189880Y654641D01*
X190157Y655101D01*
X190476Y655520D01*
X190834Y655894D01*
X191227Y656218D01*
X191654Y656492D01*
X192117Y656717D01*
X192614Y656891D01*
X192876Y656960D01*
X193147Y657016D01*
X193426Y657059D01*
X193714Y657090D01*
X194011Y657109D01*
X194316Y657115D01*
X194619Y657109D01*
X194914Y657090D01*
X195201Y657059D01*
X195480Y657015D01*
X196015Y656890D01*
X196518Y656715D01*
X196990Y656490D01*
X197431Y656215D01*
X197840Y655890D01*
X198217Y655514D01*
X198557Y655096D01*
X198851Y654642D01*
X199099Y654152D01*
X199303Y653627D01*
X199461Y653065D01*
X199574Y652468D01*
X199642Y651834D01*
X199665Y651165D01*
X199665Y646086D01*
X206400Y646086D01*
X206400Y643743D01*
G37*
%LPC*%
G36*
X197812Y646086D02*
X197812Y650834D01*
X197799Y651309D01*
X197758Y651754D01*
X197690Y652168D01*
X197595Y652552D01*
X197473Y652904D01*
X197324Y653226D01*
X197148Y653518D01*
X196944Y653778D01*
X196714Y654008D01*
X196456Y654208D01*
X196171Y654376D01*
X195859Y654514D01*
X195520Y654622D01*
X195154Y654698D01*
X194761Y654744D01*
X194341Y654760D01*
X193935Y654744D01*
X193556Y654697D01*
X193202Y654618D01*
X192875Y654508D01*
X192574Y654367D01*
X192300Y654194D01*
X192051Y653990D01*
X191829Y653754D01*
X191632Y653487D01*
X191462Y653188D01*
X191318Y652858D01*
X191201Y652496D01*
X191109Y652103D01*
X191044Y651679D01*
X191004Y651223D01*
X190991Y650736D01*
X190991Y646086D01*
X197812Y646086D01*
G37*
%LPD*%
G36*
X202487Y691102D02*
X200769Y691102D01*
X189114Y699015D01*
X189114Y701334D01*
X200744Y701334D01*
X200744Y703763D01*
X202487Y703763D01*
X202487Y701334D01*
X206400Y701334D01*
X206400Y699248D01*
X202487Y699248D01*
X202487Y691102D01*
G37*
%LPC*%
G36*
X200744Y693139D02*
X200744Y699248D01*
X191605Y699248D01*
X192255Y698905D01*
X192746Y698626D01*
X193065Y698426D01*
X199591Y693998D01*
X200499Y693335D01*
X200744Y693139D01*
G37*
%LPD*%
G36*
X206400Y660493D02*
X189114Y660493D01*
X189114Y672773D01*
X191028Y672773D01*
X191028Y662836D01*
X197457Y662836D01*
X197457Y672479D01*
X199395Y672479D01*
X199395Y662836D01*
X206400Y662836D01*
X206400Y660493D01*
G37*
G36*
X189114Y673886D02*
X189114Y676352D01*
X201284Y681137D01*
X204339Y682167D01*
X201284Y683198D01*
X189114Y687958D01*
X189114Y690424D01*
X206400Y683369D01*
X206400Y680940D01*
X189114Y673886D01*
G37*
G36*
X206400Y580243D02*
X189114Y580243D01*
X189114Y587518D01*
X189136Y588224D01*
X189199Y588890D01*
X189306Y589514D01*
X189455Y590097D01*
X189646Y590640D01*
X189880Y591141D01*
X190157Y591601D01*
X190476Y592020D01*
X190834Y592394D01*
X191227Y592718D01*
X191654Y592992D01*
X192117Y593217D01*
X192614Y593391D01*
X192876Y593460D01*
X193147Y593516D01*
X193426Y593559D01*
X193714Y593590D01*
X194011Y593609D01*
X194316Y593615D01*
X194619Y593609D01*
X194914Y593590D01*
X195201Y593559D01*
X195480Y593515D01*
X196015Y593390D01*
X196518Y593215D01*
X196990Y592990D01*
X197431Y592715D01*
X197840Y592390D01*
X198217Y592014D01*
X198557Y591596D01*
X198851Y591142D01*
X199099Y590652D01*
X199303Y590127D01*
X199461Y589565D01*
X199574Y588968D01*
X199642Y588334D01*
X199665Y587665D01*
X199665Y582586D01*
X206400Y582586D01*
X206400Y580243D01*
G37*
%LPC*%
G36*
X197812Y582586D02*
X197812Y587334D01*
X197799Y587809D01*
X197758Y588254D01*
X197690Y588668D01*
X197595Y589052D01*
X197473Y589404D01*
X197324Y589726D01*
X197148Y590018D01*
X196944Y590278D01*
X196714Y590508D01*
X196456Y590708D01*
X196171Y590876D01*
X195859Y591014D01*
X195520Y591122D01*
X195154Y591198D01*
X194761Y591244D01*
X194341Y591260D01*
X193935Y591244D01*
X193556Y591197D01*
X193202Y591118D01*
X192875Y591008D01*
X192574Y590867D01*
X192300Y590694D01*
X192051Y590490D01*
X191829Y590254D01*
X191632Y589987D01*
X191462Y589688D01*
X191318Y589358D01*
X191201Y588996D01*
X191109Y588603D01*
X191044Y588179D01*
X191004Y587723D01*
X190991Y587236D01*
X190991Y582586D01*
X197812Y582586D01*
G37*
%LPD*%
G36*
X202536Y628032D02*
X202278Y630265D01*
X202588Y630361D01*
X202879Y630474D01*
X203149Y630604D01*
X203400Y630751D01*
X203630Y630916D01*
X203840Y631098D01*
X204031Y631297D01*
X204201Y631513D01*
X204351Y631746D01*
X204481Y631996D01*
X204592Y632264D01*
X204682Y632549D01*
X204752Y632851D01*
X204802Y633170D01*
X204832Y633506D01*
X204842Y633859D01*
X204825Y634292D01*
X204775Y634700D01*
X204691Y635085D01*
X204574Y635445D01*
X204423Y635781D01*
X204238Y636093D01*
X204020Y636380D01*
X203769Y636644D01*
X203488Y636880D01*
X203182Y637084D01*
X202850Y637257D01*
X202494Y637398D01*
X202113Y637508D01*
X201706Y637587D01*
X201275Y637634D01*
X200818Y637650D01*
X200420Y637634D01*
X200041Y637587D01*
X199682Y637508D01*
X199343Y637397D01*
X199023Y637255D01*
X198723Y637081D01*
X198442Y636875D01*
X198180Y636638D01*
X197945Y636374D01*
X197740Y636088D01*
X197567Y635780D01*
X197426Y635449D01*
X197316Y635097D01*
X197237Y634723D01*
X197190Y634327D01*
X197174Y633908D01*
X197192Y633468D01*
X197245Y633043D01*
X197333Y632634D01*
X197457Y632240D01*
X197622Y631853D01*
X197837Y631467D01*
X198101Y631080D01*
X198414Y630694D01*
X198414Y628535D01*
X189114Y629111D01*
X189114Y638938D01*
X190991Y638938D01*
X190991Y631123D01*
X196475Y630792D01*
X196216Y631162D01*
X195992Y631553D01*
X195802Y631967D01*
X195647Y632402D01*
X195526Y632859D01*
X195440Y633338D01*
X195388Y633839D01*
X195371Y634362D01*
X195394Y634984D01*
X195465Y635573D01*
X195582Y636130D01*
X195745Y636655D01*
X195956Y637147D01*
X196213Y637607D01*
X196517Y638034D01*
X196868Y638429D01*
X197256Y638784D01*
X197673Y639092D01*
X198118Y639352D01*
X198591Y639565D01*
X199093Y639731D01*
X199623Y639849D01*
X200182Y639920D01*
X200769Y639944D01*
X201106Y639938D01*
X201435Y639919D01*
X201754Y639887D01*
X202064Y639842D01*
X202365Y639785D01*
X202657Y639715D01*
X202940Y639633D01*
X203213Y639538D01*
X203733Y639309D01*
X204217Y639030D01*
X204664Y638700D01*
X205075Y638319D01*
X205443Y637893D01*
X205762Y637427D01*
X206032Y636923D01*
X206253Y636379D01*
X206425Y635795D01*
X206492Y635489D01*
X206547Y635173D01*
X206590Y634847D01*
X206621Y634511D01*
X206639Y634165D01*
X206645Y633810D01*
X206629Y633220D01*
X206579Y632660D01*
X206497Y632129D01*
X206382Y631626D01*
X206233Y631153D01*
X206052Y630709D01*
X205838Y630294D01*
X205590Y629909D01*
X205312Y629555D01*
X205004Y629235D01*
X204666Y628949D01*
X204299Y628697D01*
X203903Y628480D01*
X203476Y628296D01*
X203021Y628147D01*
X202536Y628032D01*
G37*
G36*
X206400Y596993D02*
X189114Y596993D01*
X189114Y609273D01*
X191028Y609273D01*
X191028Y599336D01*
X197457Y599336D01*
X197457Y608979D01*
X199395Y608979D01*
X199395Y599336D01*
X206400Y599336D01*
X206400Y596993D01*
G37*
G36*
X189114Y610386D02*
X189114Y612852D01*
X201284Y617637D01*
X204339Y618667D01*
X201284Y619698D01*
X189114Y624458D01*
X189114Y626924D01*
X206400Y619869D01*
X206400Y617440D01*
X189114Y610386D01*
G37*
G36*
X377338Y765565D02*
X376845Y765578D01*
X376376Y765618D01*
X375933Y765685D01*
X375515Y765778D01*
X375122Y765898D01*
X374754Y766044D01*
X374411Y766217D01*
X374093Y766417D01*
X373799Y766647D01*
X373526Y766909D01*
X373275Y767204D01*
X373046Y767532D01*
X372838Y767893D01*
X372652Y768286D01*
X372488Y768712D01*
X372345Y769171D01*
X374455Y769503D01*
X374544Y769241D01*
X374646Y768997D01*
X374760Y768769D01*
X374886Y768558D01*
X375025Y768364D01*
X375176Y768187D01*
X375340Y768027D01*
X375516Y767883D01*
X375705Y767757D01*
X375906Y767647D01*
X376120Y767554D01*
X376346Y767478D01*
X376585Y767419D01*
X376836Y767377D01*
X377099Y767352D01*
X377375Y767344D01*
X377609Y767350D01*
X377837Y767371D01*
X378058Y767406D01*
X378272Y767454D01*
X378480Y767516D01*
X378680Y767592D01*
X379062Y767785D01*
X379417Y768034D01*
X379744Y768337D01*
X380045Y768696D01*
X380319Y769110D01*
X380565Y769575D01*
X380779Y770088D01*
X380962Y770647D01*
X381114Y771254D01*
X381235Y771908D01*
X381325Y772609D01*
X381383Y773357D01*
X381411Y774152D01*
X381278Y773883D01*
X381122Y773627D01*
X380945Y773385D01*
X380746Y773157D01*
X380525Y772942D01*
X380282Y772741D01*
X380017Y772554D01*
X379731Y772380D01*
X379429Y772223D01*
X379121Y772087D01*
X378805Y771972D01*
X378482Y771878D01*
X378152Y771805D01*
X377814Y771753D01*
X377470Y771721D01*
X377117Y771711D01*
X376830Y771717D01*
X376549Y771736D01*
X376276Y771767D01*
X376010Y771811D01*
X375500Y771935D01*
X375020Y772110D01*
X374568Y772334D01*
X374145Y772608D01*
X373752Y772932D01*
X373388Y773306D01*
X373060Y773721D01*
X372776Y774168D01*
X372536Y774649D01*
X372339Y775161D01*
X372186Y775707D01*
X372077Y776285D01*
X372011Y776895D01*
X371989Y777538D01*
X371995Y777873D01*
X372013Y778198D01*
X372084Y778821D01*
X372203Y779409D01*
X372370Y779960D01*
X372584Y780474D01*
X372845Y780953D01*
X373154Y781395D01*
X373511Y781801D01*
X373910Y782165D01*
X374346Y782480D01*
X374819Y782747D01*
X375329Y782965D01*
X375877Y783135D01*
X376462Y783256D01*
X376768Y783299D01*
X377084Y783329D01*
X377409Y783347D01*
X377743Y783353D01*
X378098Y783345D01*
X378442Y783320D01*
X378775Y783278D01*
X379097Y783220D01*
X379408Y783145D01*
X379709Y783053D01*
X379998Y782945D01*
X380276Y782820D01*
X380544Y782678D01*
X380801Y782519D01*
X381046Y782344D01*
X381281Y782153D01*
X381505Y781944D01*
X381718Y781719D01*
X381919Y781477D01*
X382111Y781219D01*
X382290Y780943D01*
X382458Y780651D01*
X382615Y780343D01*
X382760Y780017D01*
X382893Y779675D01*
X383015Y779316D01*
X383125Y778940D01*
X383224Y778547D01*
X383311Y778138D01*
X383386Y777712D01*
X383450Y777269D01*
X383502Y776809D01*
X383543Y776333D01*
X383572Y775839D01*
X383595Y774802D01*
X383589Y774254D01*
X383570Y773721D01*
X383538Y773205D01*
X383493Y772705D01*
X383436Y772220D01*
X383366Y771752D01*
X383284Y771300D01*
X383189Y770864D01*
X383081Y770445D01*
X382960Y770041D01*
X382827Y769653D01*
X382681Y769282D01*
X382522Y768926D01*
X382350Y768587D01*
X382166Y768264D01*
X381969Y767957D01*
X381761Y767667D01*
X381541Y767396D01*
X381311Y767144D01*
X381070Y766910D01*
X380819Y766695D01*
X380556Y766499D01*
X380283Y766322D01*
X379999Y766163D01*
X379704Y766023D01*
X379398Y765901D01*
X379082Y765798D01*
X378755Y765714D01*
X378417Y765649D01*
X378068Y765602D01*
X377709Y765574D01*
X377338Y765565D01*
G37*
%LPC*%
G36*
X377645Y773453D02*
X377882Y773460D01*
X378115Y773480D01*
X378344Y773514D01*
X378568Y773562D01*
X379004Y773698D01*
X379424Y773889D01*
X379813Y774129D01*
X380158Y774415D01*
X380460Y774745D01*
X380718Y775121D01*
X380829Y775324D01*
X380925Y775534D01*
X381006Y775751D01*
X381072Y775974D01*
X381124Y776205D01*
X381161Y776442D01*
X381183Y776686D01*
X381190Y776937D01*
X381175Y777446D01*
X381131Y777929D01*
X381056Y778387D01*
X380951Y778819D01*
X380817Y779225D01*
X380652Y779607D01*
X380458Y779962D01*
X380234Y780292D01*
X379984Y780590D01*
X379714Y780848D01*
X379424Y781066D01*
X379114Y781245D01*
X378783Y781384D01*
X378432Y781483D01*
X378061Y781542D01*
X377669Y781562D01*
X377281Y781545D01*
X376914Y781494D01*
X376568Y781410D01*
X376243Y781291D01*
X375939Y781138D01*
X375657Y780951D01*
X375395Y780731D01*
X375155Y780476D01*
X374939Y780193D01*
X374752Y779886D01*
X374594Y779554D01*
X374464Y779199D01*
X374364Y778820D01*
X374292Y778417D01*
X374249Y777989D01*
X374234Y777538D01*
X374249Y777078D01*
X374292Y776643D01*
X374364Y776233D01*
X374464Y775847D01*
X374594Y775486D01*
X374752Y775149D01*
X374939Y774838D01*
X375155Y774551D01*
X375395Y774294D01*
X375655Y774071D01*
X375936Y773882D01*
X376237Y773728D01*
X376559Y773607D01*
X376900Y773522D01*
X377263Y773470D01*
X377645Y773453D01*
G37*
%LPD*%
G36*
X328571Y765810D02*
X326142Y765810D01*
X333196Y783096D01*
X335858Y783096D01*
X342802Y765810D01*
X340410Y765810D01*
X338435Y770864D01*
X330558Y770864D01*
X328571Y765810D01*
G37*
%LPC*%
G36*
X337735Y772692D02*
X335515Y778397D01*
X335171Y779299D01*
X334828Y780311D01*
X334497Y781329D01*
X334386Y780986D01*
X334006Y779823D01*
X333478Y778373D01*
X331270Y772692D01*
X337735Y772692D01*
G37*
%LPD*%
G36*
X312114Y765810D02*
X310029Y765810D01*
X310029Y783096D01*
X312752Y783096D01*
X322101Y768276D01*
X321990Y770349D01*
X321963Y771137D01*
X321953Y771760D01*
X321953Y783096D01*
X324064Y783096D01*
X324064Y765810D01*
X321242Y765810D01*
X311992Y780532D01*
X312053Y779342D01*
X312114Y777293D01*
X312114Y765810D01*
G37*
G36*
X355584Y765810D02*
X344138Y765810D01*
X344138Y767368D01*
X344468Y768065D01*
X344832Y768719D01*
X345232Y769331D01*
X345665Y769901D01*
X346122Y770437D01*
X346590Y770947D01*
X347069Y771431D01*
X347561Y771889D01*
X348550Y772746D01*
X349530Y773539D01*
X350457Y774300D01*
X351290Y775060D01*
X351664Y775445D01*
X352000Y775839D01*
X352299Y776242D01*
X352560Y776655D01*
X352673Y776867D01*
X352772Y777086D01*
X352855Y777312D01*
X352923Y777544D01*
X352976Y777784D01*
X353014Y778031D01*
X353037Y778284D01*
X353044Y778544D01*
X353031Y778890D01*
X352992Y779216D01*
X352927Y779522D01*
X352836Y779808D01*
X352718Y780074D01*
X352575Y780320D01*
X352406Y780546D01*
X352210Y780753D01*
X351991Y780937D01*
X351752Y781096D01*
X351493Y781231D01*
X351213Y781341D01*
X350913Y781427D01*
X350593Y781489D01*
X350252Y781525D01*
X349891Y781538D01*
X349547Y781526D01*
X349217Y781490D01*
X348903Y781430D01*
X348605Y781346D01*
X348322Y781238D01*
X348055Y781106D01*
X347803Y780951D01*
X347567Y780771D01*
X347350Y780570D01*
X347157Y780349D01*
X346987Y780109D01*
X346841Y779849D01*
X346719Y779570D01*
X346620Y779272D01*
X346545Y778955D01*
X346493Y778618D01*
X344236Y778826D01*
X344317Y779332D01*
X344438Y779810D01*
X344598Y780262D01*
X344799Y780688D01*
X345039Y781087D01*
X345318Y781460D01*
X345637Y781807D01*
X345996Y782127D01*
X346389Y782414D01*
X346808Y782663D01*
X347254Y782874D01*
X347728Y783047D01*
X348228Y783181D01*
X348756Y783277D01*
X349310Y783334D01*
X349891Y783353D01*
X350526Y783334D01*
X351122Y783276D01*
X351681Y783180D01*
X352202Y783045D01*
X352686Y782872D01*
X353131Y782660D01*
X353539Y782409D01*
X353909Y782120D01*
X354238Y781796D01*
X354524Y781439D01*
X354765Y781050D01*
X354963Y780628D01*
X355116Y780174D01*
X355226Y779688D01*
X355292Y779169D01*
X355314Y778618D01*
X355307Y778367D01*
X355285Y778116D01*
X355249Y777865D01*
X355199Y777615D01*
X355055Y777116D01*
X354854Y776618D01*
X354596Y776121D01*
X354282Y775624D01*
X353912Y775128D01*
X353486Y774631D01*
X352929Y774066D01*
X352164Y773364D01*
X351193Y772526D01*
X350014Y771551D01*
X349345Y770989D01*
X348747Y770455D01*
X348222Y769949D01*
X347769Y769472D01*
X347381Y769013D01*
X347051Y768563D01*
X346780Y768121D01*
X346567Y767687D01*
X355584Y767687D01*
X355584Y765810D01*
G37*
G36*
X369589Y765810D02*
X358757Y765810D01*
X358757Y767687D01*
X363161Y767687D01*
X363161Y780986D01*
X359260Y778201D01*
X359260Y780286D01*
X363345Y783096D01*
X365381Y783096D01*
X365381Y767687D01*
X369589Y767687D01*
X369589Y765810D01*
G37*
G36*
X305661Y765810D02*
X303318Y765810D01*
X303318Y783096D01*
X305661Y783096D01*
X305661Y765810D01*
G37*
G36*
X679948Y791845D02*
X673483Y791845D01*
X673483Y809131D01*
X679200Y809131D01*
X679741Y809122D01*
X680266Y809096D01*
X680776Y809053D01*
X681270Y808993D01*
X681749Y808916D01*
X682212Y808821D01*
X682659Y808709D01*
X683090Y808580D01*
X683506Y808434D01*
X683906Y808271D01*
X684291Y808090D01*
X684659Y807892D01*
X685012Y807677D01*
X685350Y807445D01*
X685672Y807195D01*
X685978Y806929D01*
X686267Y806646D01*
X686537Y806349D01*
X686789Y806037D01*
X687022Y805711D01*
X687236Y805371D01*
X687432Y805016D01*
X687609Y804646D01*
X687767Y804262D01*
X687907Y803863D01*
X688028Y803450D01*
X688131Y803022D01*
X688215Y802580D01*
X688280Y802123D01*
X688327Y801652D01*
X688355Y801166D01*
X688364Y800666D01*
X688348Y800008D01*
X688299Y799370D01*
X688217Y798754D01*
X688103Y798158D01*
X687957Y797584D01*
X687777Y797030D01*
X687566Y796497D01*
X687321Y795985D01*
X687047Y795499D01*
X686745Y795041D01*
X686417Y794613D01*
X686061Y794214D01*
X685677Y793845D01*
X685267Y793505D01*
X684829Y793194D01*
X684364Y792912D01*
X683877Y792662D01*
X683371Y792445D01*
X682846Y792262D01*
X682303Y792112D01*
X681742Y791995D01*
X681163Y791912D01*
X680564Y791862D01*
X679948Y791845D01*
G37*
%LPC*%
G36*
X679678Y793722D02*
X680146Y793735D01*
X680600Y793774D01*
X681040Y793839D01*
X681465Y793931D01*
X681875Y794048D01*
X682272Y794191D01*
X682654Y794361D01*
X683021Y794556D01*
X683371Y794776D01*
X683700Y795019D01*
X684008Y795285D01*
X684295Y795574D01*
X684562Y795887D01*
X684807Y796222D01*
X685032Y796580D01*
X685236Y796961D01*
X685417Y797362D01*
X685574Y797781D01*
X685707Y798218D01*
X685815Y798672D01*
X685900Y799144D01*
X685960Y799634D01*
X685996Y800141D01*
X686008Y800666D01*
X686002Y801062D01*
X685981Y801445D01*
X685947Y801817D01*
X685898Y802177D01*
X685836Y802525D01*
X685761Y802862D01*
X685671Y803186D01*
X685568Y803498D01*
X685451Y803798D01*
X685321Y804087D01*
X685176Y804363D01*
X685018Y804628D01*
X684846Y804881D01*
X684661Y805121D01*
X684461Y805350D01*
X684248Y805567D01*
X684022Y805771D01*
X683783Y805962D01*
X683532Y806140D01*
X683269Y806305D01*
X682994Y806456D01*
X682706Y806595D01*
X682406Y806720D01*
X682093Y806832D01*
X681769Y806931D01*
X681432Y807016D01*
X681082Y807089D01*
X680720Y807148D01*
X680346Y807194D01*
X679960Y807227D01*
X679562Y807247D01*
X679151Y807254D01*
X675826Y807254D01*
X675826Y793722D01*
X679678Y793722D01*
G37*
%LPD*%
G36*
X723198Y791845D02*
X716733Y791845D01*
X716733Y809131D01*
X722450Y809131D01*
X722991Y809122D01*
X723516Y809096D01*
X724026Y809053D01*
X724520Y808993D01*
X724999Y808916D01*
X725462Y808821D01*
X725909Y808709D01*
X726340Y808580D01*
X726756Y808434D01*
X727156Y808271D01*
X727541Y808090D01*
X727909Y807892D01*
X728262Y807677D01*
X728600Y807445D01*
X728922Y807195D01*
X729228Y806929D01*
X729517Y806646D01*
X729787Y806349D01*
X730039Y806037D01*
X730272Y805711D01*
X730486Y805371D01*
X730682Y805016D01*
X730859Y804646D01*
X731017Y804262D01*
X731157Y803863D01*
X731278Y803450D01*
X731381Y803022D01*
X731465Y802580D01*
X731530Y802123D01*
X731577Y801652D01*
X731605Y801166D01*
X731614Y800666D01*
X731598Y800008D01*
X731549Y799370D01*
X731467Y798754D01*
X731353Y798158D01*
X731207Y797584D01*
X731027Y797030D01*
X730816Y796497D01*
X730571Y795985D01*
X730297Y795499D01*
X729995Y795041D01*
X729667Y794613D01*
X729311Y794214D01*
X728927Y793845D01*
X728517Y793505D01*
X728079Y793194D01*
X727614Y792912D01*
X727127Y792662D01*
X726621Y792445D01*
X726096Y792262D01*
X725553Y792112D01*
X724992Y791995D01*
X724413Y791912D01*
X723814Y791862D01*
X723198Y791845D01*
G37*
%LPC*%
G36*
X722928Y793722D02*
X723396Y793735D01*
X723850Y793774D01*
X724290Y793839D01*
X724715Y793931D01*
X725125Y794048D01*
X725522Y794191D01*
X725904Y794361D01*
X726271Y794556D01*
X726621Y794776D01*
X726950Y795019D01*
X727258Y795285D01*
X727545Y795574D01*
X727812Y795887D01*
X728057Y796222D01*
X728282Y796580D01*
X728486Y796961D01*
X728667Y797362D01*
X728824Y797781D01*
X728957Y798218D01*
X729065Y798672D01*
X729150Y799144D01*
X729210Y799634D01*
X729246Y800141D01*
X729258Y800666D01*
X729252Y801062D01*
X729231Y801445D01*
X729197Y801817D01*
X729148Y802177D01*
X729086Y802525D01*
X729011Y802862D01*
X728921Y803186D01*
X728818Y803498D01*
X728701Y803798D01*
X728571Y804087D01*
X728426Y804363D01*
X728268Y804628D01*
X728096Y804881D01*
X727911Y805121D01*
X727711Y805350D01*
X727498Y805567D01*
X727272Y805771D01*
X727033Y805962D01*
X726782Y806140D01*
X726519Y806305D01*
X726244Y806456D01*
X725956Y806595D01*
X725656Y806720D01*
X725343Y806832D01*
X725019Y806931D01*
X724682Y807016D01*
X724332Y807089D01*
X723970Y807148D01*
X723596Y807194D01*
X723210Y807227D01*
X722812Y807247D01*
X722401Y807254D01*
X719076Y807254D01*
X719076Y793722D01*
X722928Y793722D01*
G37*
%LPD*%
G36*
X681100Y764930D02*
X680742Y764937D01*
X680395Y764957D01*
X680060Y764992D01*
X679735Y765040D01*
X679422Y765103D01*
X679119Y765179D01*
X678828Y765269D01*
X678548Y765373D01*
X678279Y765491D01*
X678021Y765622D01*
X677775Y765768D01*
X677539Y765927D01*
X677315Y766100D01*
X677101Y766287D01*
X676899Y766488D01*
X676708Y766702D01*
X676528Y766930D01*
X676360Y767170D01*
X676204Y767423D01*
X676059Y767687D01*
X675925Y767964D01*
X675803Y768254D01*
X675693Y768555D01*
X675595Y768869D01*
X675508Y769195D01*
X675432Y769534D01*
X675316Y770248D01*
X675247Y771012D01*
X675224Y771824D01*
X675247Y772656D01*
X675276Y773052D01*
X675317Y773434D01*
X675369Y773803D01*
X675433Y774159D01*
X675508Y774501D01*
X675595Y774830D01*
X675694Y775145D01*
X675805Y775447D01*
X675927Y775736D01*
X676060Y776011D01*
X676206Y776272D01*
X676362Y776521D01*
X676531Y776755D01*
X676711Y776977D01*
X676903Y777185D01*
X677106Y777379D01*
X677321Y777561D01*
X677548Y777728D01*
X677786Y777883D01*
X678036Y778023D01*
X678297Y778151D01*
X678570Y778265D01*
X678855Y778366D01*
X679152Y778453D01*
X679459Y778527D01*
X679779Y778587D01*
X680110Y778634D01*
X680453Y778668D01*
X680808Y778688D01*
X681174Y778694D01*
X681548Y778688D01*
X681909Y778668D01*
X682258Y778636D01*
X682594Y778590D01*
X682918Y778531D01*
X683229Y778459D01*
X683528Y778374D01*
X683814Y778276D01*
X684088Y778165D01*
X684349Y778040D01*
X684597Y777903D01*
X684833Y777752D01*
X685057Y777589D01*
X685267Y777412D01*
X685466Y777223D01*
X685651Y777020D01*
X685825Y776803D01*
X685988Y776572D01*
X686139Y776327D01*
X686279Y776067D01*
X686408Y775793D01*
X686526Y775504D01*
X686633Y775201D01*
X686728Y774884D01*
X686812Y774552D01*
X686885Y774205D01*
X686997Y773469D01*
X687064Y772676D01*
X687087Y771824D01*
X687081Y771396D01*
X687063Y770981D01*
X687033Y770580D01*
X686991Y770193D01*
X686937Y769820D01*
X686871Y769461D01*
X686793Y769116D01*
X686703Y768785D01*
X686602Y768467D01*
X686488Y768164D01*
X686362Y767874D01*
X686224Y767599D01*
X686074Y767337D01*
X685913Y767089D01*
X685739Y766855D01*
X685553Y766635D01*
X685356Y766428D01*
X685148Y766235D01*
X684929Y766055D01*
X684700Y765889D01*
X684459Y765736D01*
X684208Y765596D01*
X683946Y765469D01*
X683673Y765356D01*
X683389Y765256D01*
X683095Y765169D01*
X682789Y765096D01*
X682473Y765036D01*
X682146Y764990D01*
X681808Y764956D01*
X681460Y764936D01*
X681100Y764930D01*
G37*
%LPC*%
G36*
X681075Y766561D02*
X681555Y766581D01*
X681998Y766641D01*
X682406Y766741D01*
X682779Y766880D01*
X683116Y767060D01*
X683418Y767279D01*
X683685Y767538D01*
X683916Y767837D01*
X684115Y768179D01*
X684289Y768565D01*
X684435Y768996D01*
X684555Y769472D01*
X684648Y769993D01*
X684715Y770558D01*
X684755Y771169D01*
X684768Y771824D01*
X684755Y772488D01*
X684717Y773104D01*
X684653Y773674D01*
X684564Y774197D01*
X684449Y774672D01*
X684309Y775101D01*
X684144Y775483D01*
X683952Y775818D01*
X683731Y776109D01*
X683475Y776362D01*
X683184Y776576D01*
X682859Y776751D01*
X682499Y776888D01*
X682104Y776985D01*
X681675Y777043D01*
X681210Y777063D01*
X680743Y777043D01*
X680308Y776983D01*
X679908Y776884D01*
X679540Y776745D01*
X679207Y776567D01*
X678907Y776349D01*
X678640Y776091D01*
X678407Y775793D01*
X678204Y775453D01*
X678029Y775069D01*
X677880Y774640D01*
X677758Y774166D01*
X677664Y773648D01*
X677596Y773084D01*
X677556Y772477D01*
X677542Y771824D01*
X677556Y771188D01*
X677596Y770593D01*
X677662Y770039D01*
X677755Y769526D01*
X677875Y769053D01*
X678022Y768621D01*
X678195Y768230D01*
X678395Y767880D01*
X678623Y767571D01*
X678882Y767303D01*
X679172Y767076D01*
X679491Y766891D01*
X679842Y766747D01*
X680222Y766644D01*
X680634Y766582D01*
X681075Y766561D01*
G37*
%LPD*%
G36*
X721759Y764930D02*
X721397Y764937D01*
X721045Y764957D01*
X720705Y764991D01*
X720375Y765039D01*
X720056Y765101D01*
X719749Y765176D01*
X719452Y765265D01*
X719166Y765368D01*
X718892Y765485D01*
X718628Y765615D01*
X718375Y765759D01*
X718133Y765916D01*
X717902Y766088D01*
X717682Y766273D01*
X717473Y766472D01*
X717275Y766684D01*
X717089Y766910D01*
X716915Y767149D01*
X716752Y767402D01*
X716602Y767668D01*
X716464Y767947D01*
X716337Y768240D01*
X716223Y768545D01*
X716121Y768865D01*
X716031Y769197D01*
X715952Y769543D01*
X715886Y769902D01*
X715832Y770275D01*
X715790Y770661D01*
X715760Y771060D01*
X715742Y771472D01*
X715736Y771898D01*
X715742Y772303D01*
X715760Y772696D01*
X715790Y773077D01*
X715832Y773446D01*
X715886Y773803D01*
X715952Y774148D01*
X716031Y774481D01*
X716121Y774802D01*
X716223Y775112D01*
X716337Y775409D01*
X716464Y775694D01*
X716602Y775967D01*
X716752Y776228D01*
X716915Y776478D01*
X717089Y776715D01*
X717275Y776940D01*
X717473Y777153D01*
X717681Y777351D01*
X717899Y777536D01*
X718128Y777708D01*
X718367Y777865D01*
X718616Y778009D01*
X718875Y778139D01*
X719145Y778256D01*
X719425Y778359D01*
X719715Y778448D01*
X720016Y778523D01*
X720327Y778585D01*
X720648Y778633D01*
X720980Y778667D01*
X721321Y778688D01*
X721674Y778694D01*
X722034Y778688D01*
X722382Y778667D01*
X722719Y778632D01*
X723045Y778584D01*
X723359Y778522D01*
X723662Y778446D01*
X723954Y778357D01*
X724234Y778254D01*
X724502Y778136D01*
X724760Y778006D01*
X725005Y777861D01*
X725240Y777702D01*
X725462Y777530D01*
X725674Y777344D01*
X725874Y777144D01*
X726062Y776931D01*
X726240Y776704D01*
X726405Y776462D01*
X726560Y776208D01*
X726703Y775939D01*
X726834Y775656D01*
X726954Y775360D01*
X727063Y775050D01*
X727160Y774726D01*
X727245Y774389D01*
X727320Y774038D01*
X727383Y773672D01*
X727434Y773294D01*
X727503Y772494D01*
X727525Y771640D01*
X727525Y771346D01*
X718055Y771346D01*
X718069Y770792D01*
X718114Y770270D01*
X718187Y769781D01*
X718291Y769325D01*
X718424Y768901D01*
X718586Y768510D01*
X718778Y768151D01*
X718999Y767825D01*
X719249Y767534D01*
X719526Y767283D01*
X719830Y767070D01*
X720162Y766896D01*
X720520Y766760D01*
X720906Y766663D01*
X721319Y766605D01*
X721759Y766586D01*
X722109Y766595D01*
X722442Y766622D01*
X722756Y766667D01*
X723052Y766730D01*
X723331Y766811D01*
X723592Y766910D01*
X723835Y767027D01*
X724060Y767162D01*
X724267Y767311D01*
X724457Y767470D01*
X724630Y767638D01*
X724785Y767816D01*
X724923Y768003D01*
X725043Y768200D01*
X725146Y768406D01*
X725231Y768622D01*
X727170Y768070D01*
X727009Y767690D01*
X726825Y767334D01*
X726617Y767003D01*
X726385Y766696D01*
X726130Y766414D01*
X725851Y766156D01*
X725548Y765923D01*
X725222Y765715D01*
X724872Y765531D01*
X724499Y765371D01*
X724101Y765236D01*
X723680Y765126D01*
X723236Y765040D01*
X722767Y764979D01*
X722275Y764942D01*
X721759Y764930D01*
G37*
%LPC*%
G36*
X725244Y773039D02*
X725187Y773546D01*
X725108Y774017D01*
X725007Y774453D01*
X724885Y774853D01*
X724740Y775218D01*
X724574Y775547D01*
X724386Y775841D01*
X724176Y776100D01*
X723943Y776325D01*
X723686Y776521D01*
X723405Y776687D01*
X723100Y776822D01*
X722770Y776927D01*
X722417Y777003D01*
X722039Y777048D01*
X721637Y777063D01*
X721245Y777046D01*
X720875Y776996D01*
X720525Y776912D01*
X720197Y776794D01*
X719889Y776643D01*
X719602Y776459D01*
X719336Y776241D01*
X719091Y775989D01*
X718870Y775708D01*
X718676Y775402D01*
X718509Y775071D01*
X718369Y774715D01*
X718256Y774334D01*
X718170Y773927D01*
X718111Y773496D01*
X718079Y773039D01*
X725244Y773039D01*
G37*
%LPD*%
G36*
X751103Y764930D02*
X750741Y764937D01*
X750389Y764957D01*
X750048Y764991D01*
X749719Y765039D01*
X749400Y765101D01*
X749093Y765176D01*
X748796Y765265D01*
X748510Y765368D01*
X748235Y765485D01*
X747972Y765615D01*
X747719Y765759D01*
X747477Y765916D01*
X747246Y766088D01*
X747026Y766273D01*
X746817Y766472D01*
X746619Y766684D01*
X746433Y766910D01*
X746258Y767149D01*
X746096Y767402D01*
X745946Y767668D01*
X745807Y767947D01*
X745681Y768240D01*
X745567Y768545D01*
X745465Y768865D01*
X745374Y769197D01*
X745296Y769543D01*
X745230Y769902D01*
X745176Y770275D01*
X745134Y770661D01*
X745104Y771060D01*
X745086Y771472D01*
X745080Y771898D01*
X745086Y772303D01*
X745104Y772696D01*
X745134Y773077D01*
X745176Y773446D01*
X745230Y773803D01*
X745296Y774148D01*
X745374Y774481D01*
X745465Y774802D01*
X745567Y775112D01*
X745681Y775409D01*
X745807Y775694D01*
X745946Y775967D01*
X746096Y776228D01*
X746258Y776478D01*
X746433Y776715D01*
X746619Y776940D01*
X746817Y777153D01*
X747025Y777351D01*
X747243Y777536D01*
X747471Y777708D01*
X747710Y777865D01*
X747959Y778009D01*
X748219Y778139D01*
X748489Y778256D01*
X748769Y778359D01*
X749059Y778448D01*
X749360Y778523D01*
X749671Y778585D01*
X749992Y778633D01*
X750323Y778667D01*
X750665Y778688D01*
X751017Y778694D01*
X751377Y778688D01*
X751726Y778667D01*
X752063Y778632D01*
X752389Y778584D01*
X752703Y778522D01*
X753006Y778446D01*
X753298Y778357D01*
X753578Y778254D01*
X753846Y778136D01*
X754103Y778006D01*
X754349Y777861D01*
X754583Y777702D01*
X754806Y777530D01*
X755018Y777344D01*
X755218Y777144D01*
X755406Y776931D01*
X755583Y776704D01*
X755749Y776462D01*
X755903Y776208D01*
X756046Y775939D01*
X756178Y775656D01*
X756298Y775360D01*
X756406Y775050D01*
X756503Y774726D01*
X756589Y774389D01*
X756663Y774038D01*
X756726Y773672D01*
X756778Y773294D01*
X756846Y772494D01*
X756869Y771640D01*
X756869Y771346D01*
X747398Y771346D01*
X747413Y770792D01*
X747457Y770270D01*
X747531Y769781D01*
X747634Y769325D01*
X747767Y768901D01*
X747930Y768510D01*
X748122Y768151D01*
X748343Y767825D01*
X748593Y767534D01*
X748870Y767283D01*
X749174Y767070D01*
X749505Y766896D01*
X749864Y766760D01*
X750250Y766663D01*
X750663Y766605D01*
X751103Y766586D01*
X751453Y766595D01*
X751785Y766622D01*
X752100Y766667D01*
X752396Y766730D01*
X752675Y766811D01*
X752935Y766910D01*
X753178Y767027D01*
X753403Y767162D01*
X753611Y767311D01*
X753801Y767470D01*
X753974Y767638D01*
X754129Y767816D01*
X754267Y768003D01*
X754387Y768200D01*
X754490Y768406D01*
X754575Y768622D01*
X756513Y768070D01*
X756353Y767690D01*
X756169Y767334D01*
X755961Y767003D01*
X755729Y766696D01*
X755474Y766414D01*
X755195Y766156D01*
X754892Y765923D01*
X754566Y765715D01*
X754216Y765531D01*
X753842Y765371D01*
X753445Y765236D01*
X753024Y765126D01*
X752579Y765040D01*
X752111Y764979D01*
X751619Y764942D01*
X751103Y764930D01*
G37*
%LPC*%
G36*
X754587Y773039D02*
X754530Y773546D01*
X754452Y774017D01*
X754351Y774453D01*
X754229Y774853D01*
X754084Y775218D01*
X753918Y775547D01*
X753730Y775841D01*
X753520Y776100D01*
X753287Y776325D01*
X753030Y776521D01*
X752749Y776687D01*
X752444Y776822D01*
X752114Y776927D01*
X751760Y777003D01*
X751383Y777048D01*
X750981Y777063D01*
X750589Y777046D01*
X750219Y776996D01*
X749869Y776912D01*
X749541Y776794D01*
X749233Y776643D01*
X748946Y776459D01*
X748680Y776241D01*
X748435Y775989D01*
X748214Y775708D01*
X748020Y775402D01*
X747853Y775071D01*
X747713Y774715D01*
X747600Y774334D01*
X747514Y773927D01*
X747455Y773496D01*
X747423Y773039D01*
X754587Y773039D01*
G37*
%LPD*%
G36*
X665748Y764930D02*
X665105Y764947D01*
X664485Y764998D01*
X663887Y765082D01*
X663311Y765201D01*
X662757Y765354D01*
X662225Y765540D01*
X661715Y765761D01*
X661227Y766015D01*
X660764Y766301D01*
X660330Y766616D01*
X659924Y766961D01*
X659546Y767334D01*
X659197Y767737D01*
X658876Y768168D01*
X658583Y768629D01*
X658319Y769119D01*
X658085Y769635D01*
X657882Y770175D01*
X657710Y770737D01*
X657569Y771323D01*
X657460Y771932D01*
X657382Y772564D01*
X657335Y773219D01*
X657319Y773898D01*
X657328Y774407D01*
X657354Y774903D01*
X657398Y775385D01*
X657459Y775853D01*
X657537Y776307D01*
X657633Y776746D01*
X657747Y777172D01*
X657878Y777584D01*
X658026Y777982D01*
X658192Y778366D01*
X658375Y778736D01*
X658575Y779092D01*
X658793Y779433D01*
X659029Y779761D01*
X659282Y780075D01*
X659552Y780375D01*
X659838Y780659D01*
X660137Y780924D01*
X660450Y781171D01*
X660776Y781400D01*
X661115Y781611D01*
X661468Y781803D01*
X661835Y781977D01*
X662214Y782133D01*
X662608Y782270D01*
X663014Y782389D01*
X663434Y782490D01*
X663867Y782572D01*
X664314Y782636D01*
X664775Y782682D01*
X665248Y782709D01*
X665735Y782718D01*
X666411Y782701D01*
X667059Y782651D01*
X667678Y782567D01*
X668269Y782448D01*
X668831Y782297D01*
X669365Y782111D01*
X669871Y781892D01*
X670348Y781639D01*
X670796Y781353D01*
X671213Y781034D01*
X671599Y780682D01*
X671955Y780298D01*
X672280Y779882D01*
X672575Y779433D01*
X672839Y778951D01*
X673072Y778437D01*
X670851Y777701D01*
X670689Y778067D01*
X670505Y778411D01*
X670298Y778732D01*
X670067Y779032D01*
X669815Y779309D01*
X669539Y779564D01*
X669240Y779797D01*
X668919Y780007D01*
X668578Y780194D01*
X668222Y780356D01*
X667851Y780493D01*
X667464Y780605D01*
X667061Y780692D01*
X666643Y780755D01*
X666209Y780792D01*
X665760Y780805D01*
X665406Y780797D01*
X665062Y780776D01*
X664728Y780740D01*
X664404Y780689D01*
X664090Y780624D01*
X663786Y780545D01*
X663492Y780451D01*
X663208Y780343D01*
X662934Y780220D01*
X662670Y780083D01*
X662416Y779932D01*
X662171Y779766D01*
X661937Y779586D01*
X661713Y779391D01*
X661499Y779182D01*
X661294Y778958D01*
X660920Y778475D01*
X660752Y778218D01*
X660597Y777950D01*
X660453Y777671D01*
X660322Y777381D01*
X660204Y777081D01*
X660098Y776770D01*
X660005Y776448D01*
X659924Y776116D01*
X659855Y775773D01*
X659799Y775419D01*
X659755Y775055D01*
X659724Y774680D01*
X659706Y774294D01*
X659699Y773898D01*
X659706Y773505D01*
X659725Y773123D01*
X659758Y772750D01*
X659803Y772387D01*
X659862Y772033D01*
X659933Y771690D01*
X660018Y771356D01*
X660115Y771031D01*
X660225Y770717D01*
X660349Y770412D01*
X660485Y770117D01*
X660634Y769832D01*
X660797Y769556D01*
X660972Y769290D01*
X661362Y768788D01*
X661574Y768554D01*
X661796Y768335D01*
X662026Y768131D01*
X662266Y767943D01*
X662515Y767769D01*
X662773Y767610D01*
X663041Y767467D01*
X663317Y767339D01*
X663603Y767226D01*
X663897Y767127D01*
X664201Y767044D01*
X664514Y766976D01*
X664836Y766924D01*
X665168Y766886D01*
X665508Y766863D01*
X665858Y766856D01*
X666305Y766870D01*
X666738Y766912D01*
X667156Y766982D01*
X667561Y767080D01*
X667951Y767207D01*
X668328Y767361D01*
X668690Y767544D01*
X669038Y767754D01*
X669373Y767993D01*
X669693Y768260D01*
X669999Y768555D01*
X670291Y768878D01*
X670568Y769229D01*
X670832Y769608D01*
X671082Y770015D01*
X671317Y770450D01*
X673231Y769493D01*
X672951Y768952D01*
X672643Y768444D01*
X672309Y767969D01*
X671948Y767527D01*
X671559Y767119D01*
X671144Y766745D01*
X670701Y766403D01*
X670232Y766095D01*
X669739Y765822D01*
X669227Y765585D01*
X668695Y765385D01*
X668144Y765221D01*
X667574Y765094D01*
X666985Y765003D01*
X666376Y764948D01*
X665748Y764930D01*
G37*
G36*
X699251Y791600D02*
X698608Y791617D01*
X697988Y791668D01*
X697390Y791752D01*
X696814Y791871D01*
X696260Y792024D01*
X695728Y792210D01*
X695218Y792431D01*
X694730Y792685D01*
X694267Y792971D01*
X693833Y793286D01*
X693427Y793631D01*
X693049Y794004D01*
X692700Y794407D01*
X692379Y794838D01*
X692087Y795299D01*
X691822Y795789D01*
X691588Y796305D01*
X691385Y796845D01*
X691213Y797407D01*
X691073Y797993D01*
X690963Y798602D01*
X690885Y799234D01*
X690838Y799889D01*
X690823Y800568D01*
X690831Y801077D01*
X690857Y801573D01*
X690901Y802055D01*
X690962Y802523D01*
X691041Y802977D01*
X691137Y803416D01*
X691250Y803842D01*
X691381Y804254D01*
X691529Y804652D01*
X691695Y805036D01*
X691878Y805406D01*
X692079Y805762D01*
X692297Y806103D01*
X692532Y806431D01*
X692785Y806745D01*
X693055Y807045D01*
X693341Y807329D01*
X693640Y807594D01*
X693953Y807841D01*
X694279Y808070D01*
X694619Y808281D01*
X694971Y808473D01*
X695338Y808647D01*
X695718Y808803D01*
X696111Y808940D01*
X696517Y809059D01*
X696937Y809160D01*
X697371Y809242D01*
X697817Y809306D01*
X698278Y809352D01*
X698751Y809379D01*
X699238Y809388D01*
X699914Y809371D01*
X700562Y809321D01*
X701181Y809237D01*
X701772Y809118D01*
X702334Y808967D01*
X702868Y808781D01*
X703374Y808562D01*
X703851Y808309D01*
X704299Y808023D01*
X704716Y807704D01*
X705103Y807352D01*
X705458Y806968D01*
X705783Y806552D01*
X706078Y806103D01*
X706342Y805621D01*
X706575Y805107D01*
X704354Y804371D01*
X704193Y804737D01*
X704008Y805081D01*
X703801Y805402D01*
X703571Y805702D01*
X703318Y805979D01*
X703042Y806234D01*
X702743Y806467D01*
X702422Y806677D01*
X702081Y806864D01*
X701725Y807026D01*
X701354Y807163D01*
X700967Y807275D01*
X700564Y807362D01*
X700146Y807425D01*
X699712Y807462D01*
X699263Y807475D01*
X698909Y807467D01*
X698565Y807446D01*
X698231Y807410D01*
X697907Y807359D01*
X697593Y807294D01*
X697289Y807215D01*
X696995Y807121D01*
X696711Y807013D01*
X696437Y806890D01*
X696173Y806753D01*
X695919Y806602D01*
X695675Y806436D01*
X695440Y806256D01*
X695216Y806061D01*
X695002Y805852D01*
X694797Y805628D01*
X694424Y805145D01*
X694255Y804888D01*
X694100Y804620D01*
X693956Y804341D01*
X693826Y804051D01*
X693707Y803751D01*
X693601Y803440D01*
X693508Y803118D01*
X693427Y802786D01*
X693358Y802443D01*
X693302Y802089D01*
X693259Y801725D01*
X693227Y801350D01*
X693209Y800964D01*
X693203Y800568D01*
X693209Y800175D01*
X693229Y799793D01*
X693261Y799420D01*
X693306Y799057D01*
X693365Y798703D01*
X693436Y798360D01*
X693521Y798026D01*
X693618Y797701D01*
X693729Y797387D01*
X693852Y797082D01*
X693988Y796787D01*
X694138Y796502D01*
X694300Y796226D01*
X694475Y795960D01*
X694865Y795458D01*
X695077Y795224D01*
X695299Y795005D01*
X695529Y794801D01*
X695769Y794613D01*
X696018Y794439D01*
X696276Y794280D01*
X696544Y794137D01*
X696820Y794009D01*
X697106Y793896D01*
X697400Y793797D01*
X697704Y793714D01*
X698017Y793646D01*
X698340Y793594D01*
X698671Y793556D01*
X699011Y793533D01*
X699361Y793526D01*
X699808Y793540D01*
X700241Y793582D01*
X700659Y793652D01*
X701064Y793750D01*
X701455Y793877D01*
X701831Y794031D01*
X702193Y794214D01*
X702542Y794424D01*
X702876Y794663D01*
X703196Y794930D01*
X703502Y795225D01*
X703794Y795548D01*
X704072Y795899D01*
X704335Y796278D01*
X704585Y796685D01*
X704820Y797120D01*
X706734Y796163D01*
X706454Y795622D01*
X706147Y795114D01*
X705812Y794639D01*
X705451Y794197D01*
X705062Y793789D01*
X704647Y793415D01*
X704204Y793073D01*
X703735Y792765D01*
X703242Y792492D01*
X702730Y792255D01*
X702198Y792055D01*
X701648Y791891D01*
X701077Y791764D01*
X700488Y791673D01*
X699879Y791618D01*
X699251Y791600D01*
G37*
G36*
X742532Y791600D02*
X741890Y791617D01*
X741270Y791668D01*
X740671Y791752D01*
X740095Y791871D01*
X739541Y792024D01*
X739009Y792210D01*
X738499Y792431D01*
X738011Y792685D01*
X737548Y792971D01*
X737114Y793286D01*
X736708Y793631D01*
X736330Y794004D01*
X735981Y794407D01*
X735660Y794838D01*
X735368Y795299D01*
X735104Y795789D01*
X734869Y796305D01*
X734666Y796845D01*
X734494Y797407D01*
X734354Y797993D01*
X734244Y798602D01*
X734166Y799234D01*
X734119Y799889D01*
X734104Y800568D01*
X734113Y801077D01*
X734139Y801573D01*
X734182Y802055D01*
X734243Y802523D01*
X734322Y802977D01*
X734418Y803416D01*
X734531Y803842D01*
X734662Y804254D01*
X734810Y804652D01*
X734976Y805036D01*
X735159Y805406D01*
X735360Y805762D01*
X735578Y806103D01*
X735813Y806431D01*
X736066Y806745D01*
X736337Y807045D01*
X736622Y807329D01*
X736922Y807594D01*
X737234Y807841D01*
X737560Y808070D01*
X737900Y808281D01*
X738253Y808473D01*
X738619Y808647D01*
X738999Y808803D01*
X739392Y808940D01*
X739798Y809059D01*
X740218Y809160D01*
X740652Y809242D01*
X741099Y809306D01*
X741559Y809352D01*
X742033Y809379D01*
X742520Y809388D01*
X743196Y809371D01*
X743843Y809321D01*
X744462Y809237D01*
X745053Y809118D01*
X745615Y808967D01*
X746150Y808781D01*
X746655Y808562D01*
X747133Y808309D01*
X747580Y808023D01*
X747997Y807704D01*
X748384Y807352D01*
X748740Y806968D01*
X749065Y806552D01*
X749359Y806103D01*
X749623Y805621D01*
X749856Y805107D01*
X747635Y804371D01*
X747474Y804737D01*
X747289Y805081D01*
X747082Y805402D01*
X746852Y805702D01*
X746599Y805979D01*
X746323Y806234D01*
X746025Y806467D01*
X745703Y806677D01*
X745363Y806864D01*
X745007Y807026D01*
X744635Y807163D01*
X744248Y807275D01*
X743845Y807362D01*
X743427Y807425D01*
X742993Y807462D01*
X742544Y807475D01*
X742190Y807467D01*
X741846Y807446D01*
X741513Y807410D01*
X741189Y807359D01*
X740875Y807294D01*
X740571Y807215D01*
X740277Y807121D01*
X739992Y807013D01*
X739718Y806890D01*
X739454Y806753D01*
X739200Y806602D01*
X738956Y806436D01*
X738722Y806256D01*
X738497Y806061D01*
X738283Y805852D01*
X738079Y805628D01*
X737705Y805145D01*
X737537Y804888D01*
X737381Y804620D01*
X737238Y804341D01*
X737107Y804051D01*
X736988Y803751D01*
X736883Y803440D01*
X736789Y803118D01*
X736708Y802786D01*
X736640Y802443D01*
X736583Y802089D01*
X736540Y801725D01*
X736509Y801350D01*
X736490Y800964D01*
X736484Y800568D01*
X736490Y800175D01*
X736510Y799793D01*
X736542Y799420D01*
X736588Y799057D01*
X736646Y798703D01*
X736718Y798360D01*
X736802Y798026D01*
X736899Y797701D01*
X737010Y797387D01*
X737133Y797082D01*
X737270Y796787D01*
X737419Y796502D01*
X737581Y796226D01*
X737757Y795960D01*
X738146Y795458D01*
X738359Y795224D01*
X738580Y795005D01*
X738811Y794801D01*
X739051Y794613D01*
X739300Y794439D01*
X739558Y794280D01*
X739825Y794137D01*
X740101Y794009D01*
X740387Y793896D01*
X740682Y793797D01*
X740986Y793714D01*
X741299Y793646D01*
X741621Y793594D01*
X741952Y793556D01*
X742293Y793533D01*
X742642Y793526D01*
X743089Y793540D01*
X743522Y793582D01*
X743941Y793652D01*
X744345Y793750D01*
X744736Y793877D01*
X745112Y794031D01*
X745475Y794214D01*
X745823Y794424D01*
X746157Y794663D01*
X746477Y794930D01*
X746783Y795225D01*
X747075Y795548D01*
X747353Y795899D01*
X747617Y796278D01*
X747866Y796685D01*
X748102Y797120D01*
X750015Y796163D01*
X749735Y795622D01*
X749428Y795114D01*
X749093Y794639D01*
X748732Y794197D01*
X748343Y793789D01*
X747928Y793415D01*
X747485Y793073D01*
X747016Y792765D01*
X746523Y792492D01*
X746011Y792255D01*
X745480Y792055D01*
X744929Y791891D01*
X744359Y791764D01*
X743769Y791673D01*
X743160Y791618D01*
X742532Y791600D01*
G37*
G36*
X692088Y765175D02*
X689879Y765175D01*
X689879Y775615D01*
X689861Y777483D01*
X689838Y778079D01*
X689806Y778449D01*
X691891Y778449D01*
X691916Y778118D01*
X691947Y777498D01*
X691989Y776179D01*
X692026Y776179D01*
X692220Y776510D01*
X692422Y776816D01*
X692630Y777097D01*
X692847Y777353D01*
X693070Y777583D01*
X693302Y777788D01*
X693541Y777969D01*
X693787Y778124D01*
X694044Y778258D01*
X694317Y778374D01*
X694605Y778472D01*
X694908Y778552D01*
X695226Y778614D01*
X695559Y778659D01*
X695907Y778685D01*
X696271Y778694D01*
X696799Y778677D01*
X697290Y778627D01*
X697744Y778542D01*
X698162Y778423D01*
X698543Y778270D01*
X698888Y778084D01*
X699196Y777863D01*
X699467Y777609D01*
X699704Y777315D01*
X699910Y776977D01*
X700084Y776595D01*
X700226Y776169D01*
X700337Y775698D01*
X700416Y775183D01*
X700463Y774624D01*
X700479Y774020D01*
X700479Y765175D01*
X698258Y765175D01*
X698258Y773591D01*
X698242Y774210D01*
X698194Y774756D01*
X698114Y775229D01*
X698001Y775627D01*
X697853Y775964D01*
X697667Y776250D01*
X697442Y776485D01*
X697179Y776670D01*
X697030Y776745D01*
X696864Y776810D01*
X696483Y776909D01*
X696036Y776969D01*
X695523Y776989D01*
X695134Y776972D01*
X694767Y776921D01*
X694421Y776836D01*
X694096Y776716D01*
X693793Y776563D01*
X693510Y776375D01*
X693248Y776153D01*
X693008Y775897D01*
X692792Y775611D01*
X692605Y775298D01*
X692447Y774959D01*
X692318Y774594D01*
X692217Y774202D01*
X692145Y773783D01*
X692102Y773338D01*
X692088Y772867D01*
X692088Y765175D01*
G37*
G36*
X709626Y765175D02*
X707013Y765175D01*
X702192Y778449D01*
X704547Y778449D01*
X707467Y769812D01*
X707759Y768840D01*
X708314Y766905D01*
X708743Y768340D01*
X709222Y769788D01*
X712239Y778449D01*
X714583Y778449D01*
X709626Y765175D01*
G37*
G36*
X741576Y764979D02*
X741255Y764990D01*
X740955Y765026D01*
X740675Y765084D01*
X740417Y765167D01*
X740179Y765272D01*
X739961Y765401D01*
X739765Y765554D01*
X739589Y765730D01*
X739433Y765930D01*
X739299Y766153D01*
X739185Y766399D01*
X739092Y766669D01*
X739019Y766963D01*
X738968Y767280D01*
X738936Y767620D01*
X738926Y767984D01*
X738926Y776842D01*
X737393Y776842D01*
X737393Y778449D01*
X739012Y778449D01*
X739662Y781418D01*
X741134Y781418D01*
X741134Y778449D01*
X743588Y778449D01*
X743588Y776842D01*
X741134Y776842D01*
X741134Y768463D01*
X741154Y768020D01*
X741213Y767649D01*
X741257Y767490D01*
X741310Y767348D01*
X741374Y767225D01*
X741447Y767119D01*
X741533Y767029D01*
X741632Y766950D01*
X741747Y766884D01*
X741875Y766830D01*
X742018Y766787D01*
X742175Y766757D01*
X742347Y766739D01*
X742533Y766733D01*
X742778Y766744D01*
X743073Y766776D01*
X743809Y766905D01*
X743809Y765273D01*
X743260Y765144D01*
X742705Y765052D01*
X742143Y764997D01*
X741576Y764979D01*
G37*
G36*
X732619Y765175D02*
X730411Y765175D01*
X730411Y775357D01*
X730392Y776830D01*
X730337Y778449D01*
X732423Y778449D01*
X732496Y776643D01*
X732521Y775738D01*
X732570Y775738D01*
X732704Y776147D01*
X732844Y776523D01*
X732988Y776865D01*
X733137Y777173D01*
X733291Y777448D01*
X733451Y777688D01*
X733615Y777895D01*
X733784Y778069D01*
X733965Y778215D01*
X734163Y778342D01*
X734379Y778450D01*
X734612Y778538D01*
X734864Y778606D01*
X735132Y778655D01*
X735419Y778685D01*
X735723Y778694D01*
X735944Y778687D01*
X736167Y778664D01*
X736392Y778625D01*
X736618Y778572D01*
X736618Y776547D01*
X736379Y776601D01*
X736103Y776640D01*
X735790Y776663D01*
X735441Y776670D01*
X735107Y776652D01*
X734794Y776596D01*
X734501Y776504D01*
X734229Y776374D01*
X733977Y776208D01*
X733745Y776004D01*
X733534Y775764D01*
X733343Y775486D01*
X733173Y775174D01*
X733026Y774830D01*
X732902Y774454D01*
X732800Y774046D01*
X732721Y773606D01*
X732664Y773134D01*
X732630Y772630D01*
X732619Y772094D01*
X732619Y765175D01*
G37*
G36*
X761931Y765175D02*
X759723Y765175D01*
X759723Y775357D01*
X759705Y776830D01*
X759649Y778449D01*
X761735Y778449D01*
X761809Y776643D01*
X761833Y775738D01*
X761882Y775738D01*
X762017Y776147D01*
X762156Y776523D01*
X762300Y776865D01*
X762450Y777173D01*
X762604Y777448D01*
X762763Y777688D01*
X762928Y777895D01*
X763097Y778069D01*
X763277Y778215D01*
X763476Y778342D01*
X763691Y778450D01*
X763925Y778538D01*
X764176Y778606D01*
X764445Y778655D01*
X764731Y778685D01*
X765035Y778694D01*
X765257Y778687D01*
X765480Y778664D01*
X765705Y778625D01*
X765931Y778572D01*
X765931Y776547D01*
X765692Y776601D01*
X765415Y776640D01*
X765103Y776663D01*
X764753Y776670D01*
X764420Y776652D01*
X764107Y776596D01*
X763814Y776504D01*
X763542Y776374D01*
X763289Y776208D01*
X763058Y776004D01*
X762846Y775764D01*
X762655Y775486D01*
X762486Y775174D01*
X762338Y774830D01*
X762214Y774454D01*
X762112Y774046D01*
X762033Y773606D01*
X761977Y773134D01*
X761943Y772630D01*
X761931Y772094D01*
X761931Y765175D01*
G37*
G36*
X709690Y791600D02*
X707703Y791600D01*
X712745Y810051D01*
X714683Y810051D01*
X709690Y791600D01*
G37*
G36*
X377338Y524265D02*
X376845Y524278D01*
X376376Y524318D01*
X375933Y524385D01*
X375515Y524478D01*
X375122Y524598D01*
X374754Y524744D01*
X374411Y524917D01*
X374093Y525117D01*
X373799Y525347D01*
X373526Y525609D01*
X373275Y525904D01*
X373046Y526232D01*
X372838Y526593D01*
X372652Y526986D01*
X372488Y527412D01*
X372345Y527871D01*
X374455Y528203D01*
X374544Y527941D01*
X374646Y527697D01*
X374760Y527469D01*
X374886Y527258D01*
X375025Y527064D01*
X375176Y526887D01*
X375340Y526727D01*
X375516Y526583D01*
X375705Y526457D01*
X375906Y526347D01*
X376120Y526254D01*
X376346Y526178D01*
X376585Y526119D01*
X376836Y526077D01*
X377099Y526052D01*
X377375Y526044D01*
X377609Y526050D01*
X377837Y526071D01*
X378058Y526106D01*
X378272Y526154D01*
X378480Y526216D01*
X378680Y526292D01*
X379062Y526485D01*
X379417Y526734D01*
X379744Y527037D01*
X380045Y527396D01*
X380319Y527810D01*
X380565Y528275D01*
X380779Y528788D01*
X380962Y529347D01*
X381114Y529954D01*
X381235Y530608D01*
X381325Y531309D01*
X381383Y532057D01*
X381411Y532852D01*
X381278Y532583D01*
X381122Y532327D01*
X380945Y532085D01*
X380746Y531857D01*
X380525Y531642D01*
X380282Y531441D01*
X380017Y531254D01*
X379731Y531080D01*
X379429Y530923D01*
X379121Y530787D01*
X378805Y530672D01*
X378482Y530578D01*
X378152Y530505D01*
X377814Y530453D01*
X377470Y530421D01*
X377117Y530411D01*
X376830Y530417D01*
X376549Y530436D01*
X376276Y530467D01*
X376010Y530511D01*
X375500Y530635D01*
X375020Y530810D01*
X374568Y531034D01*
X374145Y531308D01*
X373752Y531632D01*
X373388Y532006D01*
X373060Y532421D01*
X372776Y532868D01*
X372536Y533349D01*
X372339Y533861D01*
X372186Y534407D01*
X372077Y534985D01*
X372011Y535595D01*
X371989Y536238D01*
X371995Y536573D01*
X372013Y536898D01*
X372084Y537521D01*
X372203Y538109D01*
X372370Y538660D01*
X372584Y539174D01*
X372845Y539653D01*
X373154Y540095D01*
X373511Y540501D01*
X373910Y540865D01*
X374346Y541180D01*
X374819Y541447D01*
X375329Y541665D01*
X375877Y541835D01*
X376462Y541956D01*
X376768Y541999D01*
X377084Y542029D01*
X377409Y542047D01*
X377743Y542053D01*
X378098Y542045D01*
X378442Y542020D01*
X378775Y541978D01*
X379097Y541920D01*
X379408Y541845D01*
X379709Y541753D01*
X379998Y541645D01*
X380276Y541520D01*
X380544Y541378D01*
X380801Y541219D01*
X381046Y541044D01*
X381281Y540853D01*
X381505Y540644D01*
X381718Y540419D01*
X381919Y540177D01*
X382111Y539919D01*
X382290Y539643D01*
X382458Y539351D01*
X382615Y539043D01*
X382760Y538717D01*
X382893Y538375D01*
X383015Y538016D01*
X383125Y537640D01*
X383224Y537247D01*
X383311Y536838D01*
X383386Y536412D01*
X383450Y535969D01*
X383502Y535509D01*
X383543Y535033D01*
X383572Y534539D01*
X383595Y533502D01*
X383589Y532954D01*
X383570Y532421D01*
X383538Y531905D01*
X383493Y531405D01*
X383436Y530920D01*
X383366Y530452D01*
X383284Y530000D01*
X383189Y529564D01*
X383081Y529145D01*
X382960Y528741D01*
X382827Y528353D01*
X382681Y527982D01*
X382522Y527626D01*
X382350Y527287D01*
X382166Y526964D01*
X381969Y526657D01*
X381761Y526367D01*
X381541Y526096D01*
X381311Y525844D01*
X381070Y525610D01*
X380819Y525395D01*
X380556Y525199D01*
X380283Y525022D01*
X379999Y524863D01*
X379704Y524723D01*
X379398Y524601D01*
X379082Y524498D01*
X378755Y524414D01*
X378417Y524349D01*
X378068Y524302D01*
X377709Y524274D01*
X377338Y524265D01*
G37*
%LPC*%
G36*
X377645Y532153D02*
X377882Y532160D01*
X378115Y532180D01*
X378344Y532214D01*
X378568Y532262D01*
X379004Y532398D01*
X379424Y532589D01*
X379813Y532829D01*
X380158Y533115D01*
X380460Y533445D01*
X380718Y533821D01*
X380829Y534024D01*
X380925Y534234D01*
X381006Y534451D01*
X381072Y534674D01*
X381124Y534905D01*
X381161Y535142D01*
X381183Y535386D01*
X381190Y535637D01*
X381175Y536146D01*
X381131Y536629D01*
X381056Y537087D01*
X380951Y537519D01*
X380817Y537925D01*
X380652Y538307D01*
X380458Y538662D01*
X380234Y538992D01*
X379984Y539290D01*
X379714Y539548D01*
X379424Y539766D01*
X379114Y539945D01*
X378783Y540084D01*
X378432Y540183D01*
X378061Y540242D01*
X377669Y540262D01*
X377281Y540245D01*
X376914Y540194D01*
X376568Y540110D01*
X376243Y539991D01*
X375939Y539838D01*
X375657Y539651D01*
X375395Y539431D01*
X375155Y539176D01*
X374939Y538893D01*
X374752Y538586D01*
X374594Y538254D01*
X374464Y537899D01*
X374364Y537520D01*
X374292Y537117D01*
X374249Y536689D01*
X374234Y536238D01*
X374249Y535778D01*
X374292Y535343D01*
X374364Y534933D01*
X374464Y534547D01*
X374594Y534186D01*
X374752Y533849D01*
X374939Y533538D01*
X375155Y533251D01*
X375395Y532994D01*
X375655Y532771D01*
X375936Y532582D01*
X376237Y532428D01*
X376559Y532307D01*
X376900Y532222D01*
X377263Y532170D01*
X377645Y532153D01*
G37*
%LPD*%
G36*
X328571Y524510D02*
X326142Y524510D01*
X333196Y541796D01*
X335858Y541796D01*
X342802Y524510D01*
X340410Y524510D01*
X338435Y529564D01*
X330558Y529564D01*
X328571Y524510D01*
G37*
%LPC*%
G36*
X337735Y531392D02*
X335515Y537097D01*
X335171Y537999D01*
X334828Y539011D01*
X334497Y540029D01*
X334386Y539686D01*
X334006Y538523D01*
X333478Y537073D01*
X331270Y531392D01*
X337735Y531392D01*
G37*
%LPD*%
G36*
X312114Y524510D02*
X310029Y524510D01*
X310029Y541796D01*
X312752Y541796D01*
X322101Y526976D01*
X321990Y529049D01*
X321963Y529837D01*
X321953Y530460D01*
X321953Y541796D01*
X324064Y541796D01*
X324064Y524510D01*
X321242Y524510D01*
X311992Y539232D01*
X312053Y538042D01*
X312114Y535993D01*
X312114Y524510D01*
G37*
G36*
X355584Y524510D02*
X344138Y524510D01*
X344138Y526068D01*
X344468Y526765D01*
X344832Y527419D01*
X345232Y528031D01*
X345665Y528601D01*
X346122Y529137D01*
X346590Y529647D01*
X347069Y530131D01*
X347561Y530589D01*
X348550Y531446D01*
X349530Y532239D01*
X350457Y533000D01*
X351290Y533760D01*
X351664Y534145D01*
X352000Y534539D01*
X352299Y534942D01*
X352560Y535355D01*
X352673Y535567D01*
X352772Y535786D01*
X352855Y536012D01*
X352923Y536244D01*
X352976Y536484D01*
X353014Y536731D01*
X353037Y536984D01*
X353044Y537244D01*
X353031Y537590D01*
X352992Y537916D01*
X352927Y538222D01*
X352836Y538508D01*
X352718Y538774D01*
X352575Y539020D01*
X352406Y539246D01*
X352210Y539453D01*
X351991Y539637D01*
X351752Y539796D01*
X351493Y539931D01*
X351213Y540041D01*
X350913Y540127D01*
X350593Y540189D01*
X350252Y540225D01*
X349891Y540238D01*
X349547Y540226D01*
X349217Y540190D01*
X348903Y540130D01*
X348605Y540046D01*
X348322Y539938D01*
X348055Y539806D01*
X347803Y539651D01*
X347567Y539471D01*
X347350Y539270D01*
X347157Y539049D01*
X346987Y538809D01*
X346841Y538549D01*
X346719Y538270D01*
X346620Y537972D01*
X346545Y537655D01*
X346493Y537318D01*
X344236Y537526D01*
X344317Y538032D01*
X344438Y538510D01*
X344598Y538962D01*
X344799Y539388D01*
X345039Y539787D01*
X345318Y540160D01*
X345637Y540507D01*
X345996Y540827D01*
X346389Y541114D01*
X346808Y541363D01*
X347254Y541574D01*
X347728Y541747D01*
X348228Y541881D01*
X348756Y541977D01*
X349310Y542034D01*
X349891Y542053D01*
X350526Y542034D01*
X351122Y541976D01*
X351681Y541880D01*
X352202Y541745D01*
X352686Y541572D01*
X353131Y541360D01*
X353539Y541109D01*
X353909Y540820D01*
X354238Y540496D01*
X354524Y540139D01*
X354765Y539750D01*
X354963Y539328D01*
X355116Y538874D01*
X355226Y538388D01*
X355292Y537869D01*
X355314Y537318D01*
X355307Y537067D01*
X355285Y536816D01*
X355249Y536565D01*
X355199Y536315D01*
X355055Y535816D01*
X354854Y535318D01*
X354596Y534821D01*
X354282Y534324D01*
X353912Y533828D01*
X353486Y533331D01*
X352929Y532766D01*
X352164Y532064D01*
X351193Y531226D01*
X350014Y530251D01*
X349345Y529689D01*
X348747Y529155D01*
X348222Y528649D01*
X347769Y528172D01*
X347381Y527713D01*
X347051Y527263D01*
X346780Y526821D01*
X346567Y526387D01*
X355584Y526387D01*
X355584Y524510D01*
G37*
G36*
X369589Y524510D02*
X358757Y524510D01*
X358757Y526387D01*
X363161Y526387D01*
X363161Y539686D01*
X359260Y536901D01*
X359260Y538986D01*
X363345Y541796D01*
X365381Y541796D01*
X365381Y526387D01*
X369589Y526387D01*
X369589Y524510D01*
G37*
G36*
X305661Y524510D02*
X303318Y524510D01*
X303318Y541796D01*
X305661Y541796D01*
X305661Y524510D01*
G37*
G36*
X1010667Y540512D02*
X1008994Y540512D01*
X1008994Y552853D01*
X1014188Y552853D01*
X1014692Y552838D01*
X1015167Y552792D01*
X1015613Y552716D01*
X1016029Y552610D01*
X1016416Y552473D01*
X1016774Y552306D01*
X1017103Y552108D01*
X1017402Y551881D01*
X1017669Y551625D01*
X1017900Y551345D01*
X1018096Y551039D01*
X1018256Y550709D01*
X1018381Y550354D01*
X1018470Y549974D01*
X1018523Y549569D01*
X1018541Y549139D01*
X1018523Y548712D01*
X1018469Y548308D01*
X1018380Y547926D01*
X1018255Y547567D01*
X1018094Y547230D01*
X1017898Y546916D01*
X1017666Y546624D01*
X1017398Y546354D01*
X1017099Y546112D01*
X1016775Y545902D01*
X1016425Y545724D01*
X1016050Y545579D01*
X1015649Y545466D01*
X1015223Y545385D01*
X1014771Y545337D01*
X1014293Y545320D01*
X1010667Y545320D01*
X1010667Y540512D01*
G37*
%LPC*%
G36*
X1014056Y546643D02*
X1014396Y546653D01*
X1014713Y546682D01*
X1015009Y546730D01*
X1015283Y546798D01*
X1015534Y546885D01*
X1015764Y546992D01*
X1015972Y547117D01*
X1016158Y547263D01*
X1016323Y547427D01*
X1016465Y547611D01*
X1016585Y547815D01*
X1016684Y548037D01*
X1016761Y548279D01*
X1016815Y548541D01*
X1016848Y548821D01*
X1016859Y549122D01*
X1016848Y549411D01*
X1016814Y549682D01*
X1016758Y549934D01*
X1016680Y550168D01*
X1016579Y550383D01*
X1016455Y550579D01*
X1016309Y550756D01*
X1016141Y550915D01*
X1015950Y551055D01*
X1015737Y551176D01*
X1015501Y551279D01*
X1015243Y551363D01*
X1014963Y551429D01*
X1014660Y551475D01*
X1014334Y551503D01*
X1013986Y551513D01*
X1010667Y551513D01*
X1010667Y546643D01*
X1014056Y546643D01*
G37*
%LPD*%
G36*
X1028560Y540512D02*
X1020826Y540512D01*
X1020826Y541852D01*
X1023971Y541852D01*
X1023971Y551346D01*
X1021185Y549358D01*
X1021185Y550847D01*
X1024102Y552853D01*
X1025556Y552853D01*
X1025556Y541852D01*
X1028560Y541852D01*
X1028560Y540512D01*
G37*
G36*
X1002556Y540337D02*
X1002174Y540350D01*
X1001812Y540387D01*
X1001470Y540451D01*
X1001148Y540539D01*
X1000846Y540653D01*
X1000563Y540793D01*
X1000301Y540957D01*
X1000058Y541147D01*
X999835Y541362D01*
X999633Y541603D01*
X999450Y541869D01*
X999287Y542160D01*
X999144Y542476D01*
X999021Y542818D01*
X998917Y543185D01*
X998834Y543577D01*
X1000472Y543849D01*
X1000518Y543602D01*
X1000575Y543369D01*
X1000646Y543150D01*
X1000728Y542945D01*
X1000823Y542754D01*
X1000930Y542576D01*
X1001050Y542413D01*
X1001181Y542264D01*
X1001324Y542130D01*
X1001475Y542015D01*
X1001635Y541917D01*
X1001803Y541837D01*
X1001981Y541774D01*
X1002167Y541730D01*
X1002362Y541703D01*
X1002565Y541694D01*
X1002787Y541704D01*
X1002997Y541734D01*
X1003194Y541782D01*
X1003380Y541851D01*
X1003553Y541939D01*
X1003715Y542047D01*
X1003864Y542174D01*
X1004002Y542321D01*
X1004125Y542486D01*
X1004232Y542670D01*
X1004322Y542872D01*
X1004396Y543092D01*
X1004453Y543331D01*
X1004494Y543588D01*
X1004519Y543862D01*
X1004527Y544156D01*
X1004527Y551486D01*
X1002154Y551486D01*
X1002154Y552853D01*
X1006191Y552853D01*
X1006191Y544191D01*
X1006176Y543754D01*
X1006131Y543341D01*
X1006055Y542952D01*
X1005948Y542587D01*
X1005811Y542246D01*
X1005644Y541928D01*
X1005447Y541635D01*
X1005219Y541366D01*
X1004965Y541125D01*
X1004688Y540916D01*
X1004389Y540739D01*
X1004067Y540594D01*
X1003723Y540482D01*
X1003357Y540401D01*
X1002968Y540353D01*
X1002556Y540337D01*
G37*
G36*
X1010667Y464312D02*
X1008994Y464312D01*
X1008994Y476653D01*
X1014188Y476653D01*
X1014692Y476638D01*
X1015167Y476592D01*
X1015613Y476516D01*
X1016029Y476410D01*
X1016416Y476273D01*
X1016774Y476106D01*
X1017103Y475908D01*
X1017402Y475681D01*
X1017669Y475425D01*
X1017900Y475145D01*
X1018096Y474839D01*
X1018256Y474509D01*
X1018381Y474154D01*
X1018470Y473774D01*
X1018523Y473369D01*
X1018541Y472939D01*
X1018523Y472512D01*
X1018469Y472108D01*
X1018380Y471726D01*
X1018255Y471367D01*
X1018094Y471030D01*
X1017898Y470716D01*
X1017666Y470424D01*
X1017398Y470154D01*
X1017099Y469912D01*
X1016775Y469702D01*
X1016425Y469524D01*
X1016050Y469379D01*
X1015649Y469266D01*
X1015223Y469185D01*
X1014771Y469137D01*
X1014293Y469120D01*
X1010667Y469120D01*
X1010667Y464312D01*
G37*
%LPC*%
G36*
X1014056Y470443D02*
X1014396Y470453D01*
X1014713Y470482D01*
X1015009Y470530D01*
X1015283Y470598D01*
X1015534Y470685D01*
X1015764Y470792D01*
X1015972Y470917D01*
X1016158Y471063D01*
X1016323Y471227D01*
X1016465Y471411D01*
X1016585Y471615D01*
X1016684Y471837D01*
X1016761Y472079D01*
X1016815Y472341D01*
X1016848Y472621D01*
X1016859Y472922D01*
X1016848Y473211D01*
X1016814Y473482D01*
X1016758Y473734D01*
X1016680Y473968D01*
X1016579Y474183D01*
X1016455Y474379D01*
X1016309Y474556D01*
X1016141Y474715D01*
X1015950Y474855D01*
X1015737Y474976D01*
X1015501Y475079D01*
X1015243Y475163D01*
X1014963Y475229D01*
X1014660Y475275D01*
X1014334Y475303D01*
X1013986Y475313D01*
X1010667Y475313D01*
X1010667Y470443D01*
X1014056Y470443D01*
G37*
%LPD*%
G36*
X1028534Y464312D02*
X1020362Y464312D01*
X1020362Y465424D01*
X1020598Y465922D01*
X1020858Y466389D01*
X1021143Y466826D01*
X1021453Y467233D01*
X1021779Y467616D01*
X1022113Y467980D01*
X1022455Y468325D01*
X1022806Y468652D01*
X1023512Y469264D01*
X1024212Y469830D01*
X1024874Y470373D01*
X1025468Y470916D01*
X1025735Y471191D01*
X1025975Y471472D01*
X1026189Y471760D01*
X1026375Y472055D01*
X1026526Y472362D01*
X1026634Y472690D01*
X1026699Y473037D01*
X1026721Y473403D01*
X1026712Y473650D01*
X1026684Y473883D01*
X1026637Y474101D01*
X1026572Y474305D01*
X1026488Y474495D01*
X1026386Y474671D01*
X1026265Y474833D01*
X1026125Y474980D01*
X1025969Y475111D01*
X1025799Y475225D01*
X1025613Y475321D01*
X1025414Y475400D01*
X1025200Y475462D01*
X1024971Y475505D01*
X1024728Y475532D01*
X1024470Y475540D01*
X1024224Y475532D01*
X1023989Y475506D01*
X1023764Y475463D01*
X1023551Y475404D01*
X1023349Y475327D01*
X1023159Y475233D01*
X1022979Y475121D01*
X1022810Y474993D01*
X1022655Y474849D01*
X1022518Y474692D01*
X1022397Y474520D01*
X1022292Y474335D01*
X1022205Y474136D01*
X1022134Y473923D01*
X1022081Y473696D01*
X1022044Y473456D01*
X1020432Y473605D01*
X1020490Y473965D01*
X1020577Y474307D01*
X1020691Y474630D01*
X1020834Y474934D01*
X1021005Y475219D01*
X1021205Y475485D01*
X1021433Y475732D01*
X1021689Y475961D01*
X1021969Y476166D01*
X1022269Y476344D01*
X1022587Y476495D01*
X1022925Y476618D01*
X1023282Y476714D01*
X1023659Y476782D01*
X1024055Y476823D01*
X1024470Y476837D01*
X1024923Y476823D01*
X1025349Y476782D01*
X1025748Y476713D01*
X1026120Y476617D01*
X1026465Y476493D01*
X1026783Y476342D01*
X1027074Y476163D01*
X1027338Y475956D01*
X1027573Y475725D01*
X1027777Y475470D01*
X1027949Y475192D01*
X1028091Y474891D01*
X1028200Y474567D01*
X1028279Y474220D01*
X1028326Y473849D01*
X1028341Y473456D01*
X1028321Y473097D01*
X1028259Y472740D01*
X1028156Y472384D01*
X1028013Y472028D01*
X1027829Y471674D01*
X1027604Y471319D01*
X1027340Y470964D01*
X1027036Y470609D01*
X1026638Y470206D01*
X1026092Y469705D01*
X1025399Y469107D01*
X1024558Y468411D01*
X1024080Y468009D01*
X1023653Y467628D01*
X1023278Y467267D01*
X1022955Y466926D01*
X1022678Y466599D01*
X1022442Y466277D01*
X1022249Y465962D01*
X1022096Y465652D01*
X1028534Y465652D01*
X1028534Y464312D01*
G37*
G36*
X1002556Y464137D02*
X1002174Y464150D01*
X1001812Y464187D01*
X1001470Y464251D01*
X1001148Y464339D01*
X1000846Y464453D01*
X1000563Y464593D01*
X1000301Y464757D01*
X1000058Y464947D01*
X999835Y465162D01*
X999633Y465403D01*
X999450Y465669D01*
X999287Y465960D01*
X999144Y466276D01*
X999021Y466618D01*
X998917Y466985D01*
X998834Y467377D01*
X1000472Y467649D01*
X1000518Y467402D01*
X1000575Y467169D01*
X1000646Y466950D01*
X1000728Y466745D01*
X1000823Y466554D01*
X1000930Y466376D01*
X1001050Y466213D01*
X1001181Y466064D01*
X1001324Y465930D01*
X1001475Y465815D01*
X1001635Y465717D01*
X1001803Y465637D01*
X1001981Y465574D01*
X1002167Y465530D01*
X1002362Y465503D01*
X1002565Y465494D01*
X1002787Y465504D01*
X1002997Y465534D01*
X1003194Y465582D01*
X1003380Y465651D01*
X1003553Y465739D01*
X1003715Y465847D01*
X1003864Y465974D01*
X1004002Y466121D01*
X1004125Y466286D01*
X1004232Y466470D01*
X1004322Y466672D01*
X1004396Y466892D01*
X1004453Y467131D01*
X1004494Y467388D01*
X1004519Y467662D01*
X1004527Y467956D01*
X1004527Y475286D01*
X1002154Y475286D01*
X1002154Y476653D01*
X1006191Y476653D01*
X1006191Y467991D01*
X1006176Y467554D01*
X1006131Y467141D01*
X1006055Y466752D01*
X1005948Y466387D01*
X1005811Y466046D01*
X1005644Y465728D01*
X1005447Y465435D01*
X1005219Y465166D01*
X1004965Y464925D01*
X1004688Y464716D01*
X1004389Y464539D01*
X1004067Y464394D01*
X1003723Y464282D01*
X1003357Y464201D01*
X1002968Y464153D01*
X1002556Y464137D01*
G37*
G36*
X140589Y407871D02*
X128248Y407871D01*
X128248Y411953D01*
X128254Y412339D01*
X128273Y412714D01*
X128304Y413078D01*
X128347Y413431D01*
X128402Y413773D01*
X128469Y414103D01*
X128549Y414422D01*
X128641Y414730D01*
X128746Y415027D01*
X128862Y415313D01*
X128991Y415587D01*
X129133Y415851D01*
X129286Y416103D01*
X129452Y416344D01*
X129630Y416573D01*
X129820Y416792D01*
X130022Y416998D01*
X130234Y417191D01*
X130457Y417371D01*
X130689Y417537D01*
X130933Y417690D01*
X131186Y417830D01*
X131450Y417957D01*
X131724Y418070D01*
X132009Y418169D01*
X132304Y418256D01*
X132609Y418329D01*
X132925Y418389D01*
X133251Y418436D01*
X133588Y418469D01*
X133934Y418489D01*
X134292Y418496D01*
X134762Y418484D01*
X135216Y418449D01*
X135657Y418391D01*
X136082Y418309D01*
X136492Y418205D01*
X136887Y418077D01*
X137268Y417926D01*
X137633Y417751D01*
X137981Y417555D01*
X138307Y417340D01*
X138613Y417105D01*
X138898Y416851D01*
X139161Y416578D01*
X139404Y416285D01*
X139626Y415972D01*
X139827Y415640D01*
X140006Y415292D01*
X140160Y414931D01*
X140291Y414556D01*
X140399Y414169D01*
X140482Y413768D01*
X140541Y413354D01*
X140577Y412927D01*
X140589Y412487D01*
X140589Y407871D01*
G37*
%LPC*%
G36*
X139249Y409544D02*
X139249Y412295D01*
X139240Y412629D01*
X139212Y412953D01*
X139165Y413266D01*
X139100Y413570D01*
X139016Y413863D01*
X138914Y414146D01*
X138793Y414419D01*
X138653Y414681D01*
X138496Y414931D01*
X138323Y415166D01*
X138133Y415386D01*
X137926Y415591D01*
X137704Y415781D01*
X137464Y415956D01*
X137209Y416117D01*
X136937Y416262D01*
X136650Y416391D01*
X136351Y416504D01*
X136039Y416598D01*
X135715Y416676D01*
X135378Y416736D01*
X135028Y416779D01*
X134666Y416805D01*
X134292Y416814D01*
X133735Y416794D01*
X133212Y416735D01*
X132724Y416637D01*
X132270Y416500D01*
X131849Y416323D01*
X131463Y416107D01*
X131111Y415852D01*
X130793Y415557D01*
X130510Y415225D01*
X130266Y414858D01*
X130059Y414456D01*
X129889Y414019D01*
X129758Y413546D01*
X129664Y413039D01*
X129607Y412496D01*
X129588Y411918D01*
X129588Y409544D01*
X139249Y409544D01*
G37*
%LPD*%
G36*
X140589Y420240D02*
X139477Y420240D01*
X138979Y420475D01*
X138512Y420736D01*
X138075Y421021D01*
X137668Y421330D01*
X137285Y421656D01*
X136921Y421990D01*
X136576Y422333D01*
X136249Y422683D01*
X135637Y423389D01*
X135071Y424089D01*
X134528Y424751D01*
X133985Y425346D01*
X133710Y425613D01*
X133429Y425853D01*
X133141Y426066D01*
X132846Y426252D01*
X132539Y426404D01*
X132211Y426512D01*
X131864Y426577D01*
X131498Y426598D01*
X131251Y426589D01*
X131018Y426561D01*
X130800Y426515D01*
X130596Y426449D01*
X130406Y426366D01*
X130230Y426263D01*
X130068Y426142D01*
X129921Y426003D01*
X129790Y425847D01*
X129676Y425676D01*
X129580Y425491D01*
X129501Y425291D01*
X129439Y425077D01*
X129396Y424848D01*
X129369Y424605D01*
X129361Y424347D01*
X129369Y424101D01*
X129395Y423866D01*
X129438Y423642D01*
X129497Y423429D01*
X129574Y423227D01*
X129668Y423036D01*
X129780Y422856D01*
X129908Y422688D01*
X130052Y422533D01*
X130209Y422395D01*
X130381Y422274D01*
X130566Y422170D01*
X130765Y422082D01*
X130978Y422012D01*
X131205Y421958D01*
X131445Y421921D01*
X131296Y420310D01*
X130936Y420368D01*
X130594Y420454D01*
X130271Y420569D01*
X129967Y420711D01*
X129682Y420883D01*
X129416Y421082D01*
X129169Y421310D01*
X128940Y421567D01*
X128735Y421847D01*
X128557Y422146D01*
X128406Y422465D01*
X128283Y422803D01*
X128187Y423160D01*
X128119Y423536D01*
X128078Y423932D01*
X128064Y424347D01*
X128078Y424800D01*
X128119Y425226D01*
X128188Y425625D01*
X128284Y425997D01*
X128408Y426342D01*
X128559Y426660D01*
X128738Y426952D01*
X128945Y427216D01*
X129176Y427451D01*
X129431Y427655D01*
X129709Y427827D01*
X130010Y427968D01*
X130334Y428078D01*
X130681Y428156D01*
X131052Y428203D01*
X131445Y428219D01*
X131804Y428198D01*
X132161Y428137D01*
X132517Y428034D01*
X132873Y427890D01*
X133227Y427706D01*
X133582Y427482D01*
X133937Y427218D01*
X134292Y426914D01*
X134695Y426516D01*
X135196Y425970D01*
X135794Y425276D01*
X136490Y424435D01*
X136892Y423957D01*
X137273Y423531D01*
X137634Y423156D01*
X137975Y422832D01*
X138302Y422555D01*
X138624Y422320D01*
X138939Y422126D01*
X139249Y421974D01*
X139249Y428411D01*
X140589Y428411D01*
X140589Y420240D01*
G37*
G36*
X994786Y691388D02*
X992789Y691388D01*
X989154Y703729D01*
X990897Y703729D01*
X993113Y695890D01*
X993492Y694397D01*
X993840Y692859D01*
X994326Y694961D01*
X994582Y695936D01*
X995072Y697723D01*
X996757Y703729D01*
X998360Y703729D01*
X1000505Y696048D01*
X1000943Y694309D01*
X1001276Y692859D01*
X1001355Y693166D01*
X1001740Y694808D01*
X1002430Y697356D01*
X1004202Y703729D01*
X1005944Y703729D01*
X1002310Y691388D01*
X1000313Y691388D01*
X998176Y699227D01*
X997917Y700254D01*
X997563Y701863D01*
X997177Y700164D01*
X996501Y697628D01*
X994786Y691388D01*
G37*
G36*
X1038064Y691388D02*
X1036391Y691388D01*
X1036391Y703729D01*
X1038064Y703729D01*
X1038064Y698509D01*
X1044738Y698509D01*
X1044738Y703729D01*
X1046410Y703729D01*
X1046410Y691388D01*
X1044738Y691388D01*
X1044738Y697107D01*
X1038064Y697107D01*
X1038064Y691388D01*
G37*
G36*
X983181Y691213D02*
X982632Y691225D01*
X982113Y691262D01*
X981623Y691323D01*
X981163Y691409D01*
X980733Y691519D01*
X980332Y691654D01*
X979960Y691813D01*
X979619Y691997D01*
X979307Y692205D01*
X979025Y692438D01*
X978772Y692695D01*
X978549Y692977D01*
X978355Y693283D01*
X978191Y693613D01*
X978057Y693969D01*
X977953Y694348D01*
X979573Y694672D01*
X979653Y694404D01*
X979752Y694153D01*
X979872Y693921D01*
X980011Y693708D01*
X980170Y693513D01*
X980348Y693337D01*
X980546Y693179D01*
X980764Y693039D01*
X981002Y692917D01*
X981261Y692811D01*
X981540Y692721D01*
X981839Y692648D01*
X982159Y692591D01*
X982500Y692550D01*
X982861Y692526D01*
X983243Y692518D01*
X983636Y692527D01*
X984007Y692553D01*
X984354Y692596D01*
X984678Y692657D01*
X984979Y692735D01*
X985257Y692831D01*
X985512Y692944D01*
X985743Y693074D01*
X985950Y693221D01*
X986128Y693385D01*
X986280Y693564D01*
X986403Y693760D01*
X986500Y693973D01*
X986568Y694201D01*
X986610Y694446D01*
X986624Y694707D01*
X986606Y694995D01*
X986555Y695255D01*
X986468Y695486D01*
X986348Y695688D01*
X986196Y695869D01*
X986016Y696032D01*
X985808Y696179D01*
X985572Y696310D01*
X985311Y696428D01*
X985025Y696536D01*
X984715Y696634D01*
X984381Y696722D01*
X982849Y697081D01*
X982161Y697243D01*
X981562Y697405D01*
X981051Y697567D01*
X980628Y697729D01*
X980269Y697896D01*
X979951Y698072D01*
X979672Y698257D01*
X979433Y698452D01*
X979227Y698660D01*
X979046Y698884D01*
X978892Y699126D01*
X978763Y699385D01*
X978661Y699662D01*
X978589Y699958D01*
X978545Y700275D01*
X978531Y700611D01*
X978550Y700996D01*
X978606Y701358D01*
X978701Y701697D01*
X978834Y702014D01*
X979004Y702308D01*
X979213Y702580D01*
X979459Y702828D01*
X979744Y703054D01*
X980063Y703256D01*
X980416Y703430D01*
X980801Y703577D01*
X981218Y703698D01*
X981669Y703792D01*
X982152Y703859D01*
X982668Y703899D01*
X983216Y703913D01*
X983726Y703903D01*
X984206Y703872D01*
X984654Y703822D01*
X985071Y703752D01*
X985457Y703661D01*
X985813Y703551D01*
X986137Y703420D01*
X986431Y703269D01*
X986698Y703094D01*
X986945Y702890D01*
X987171Y702659D01*
X987377Y702399D01*
X987561Y702110D01*
X987725Y701793D01*
X987868Y701448D01*
X987990Y701075D01*
X986343Y700786D01*
X986268Y701023D01*
X986177Y701243D01*
X986071Y701446D01*
X985949Y701632D01*
X985812Y701802D01*
X985660Y701954D01*
X985493Y702090D01*
X985310Y702209D01*
X985110Y702313D01*
X984892Y702403D01*
X984656Y702479D01*
X984401Y702541D01*
X984128Y702589D01*
X983837Y702624D01*
X983527Y702645D01*
X983199Y702651D01*
X982840Y702644D01*
X982503Y702621D01*
X982187Y702583D01*
X981894Y702529D01*
X981622Y702460D01*
X981373Y702376D01*
X981145Y702276D01*
X980939Y702161D01*
X980757Y702031D01*
X980598Y701886D01*
X980464Y701725D01*
X980355Y701550D01*
X980269Y701360D01*
X980208Y701154D01*
X980172Y700934D01*
X980160Y700698D01*
X980179Y700426D01*
X980235Y700178D01*
X980330Y699955D01*
X980462Y699757D01*
X980630Y699578D01*
X980831Y699413D01*
X981065Y699262D01*
X981333Y699126D01*
X981689Y698990D01*
X982185Y698838D01*
X982823Y698672D01*
X983602Y698491D01*
X984736Y698224D01*
X985289Y698075D01*
X985818Y697900D01*
X986318Y697695D01*
X986786Y697458D01*
X987004Y697324D01*
X987207Y697175D01*
X987396Y697013D01*
X987569Y696836D01*
X987727Y696644D01*
X987866Y696435D01*
X987987Y696210D01*
X988091Y695969D01*
X988173Y695708D01*
X988232Y695426D01*
X988267Y695121D01*
X988279Y694795D01*
X988258Y694380D01*
X988195Y693989D01*
X988091Y693623D01*
X987945Y693280D01*
X987757Y692961D01*
X987528Y692667D01*
X987256Y692396D01*
X986943Y692150D01*
X986592Y691930D01*
X986207Y691740D01*
X985788Y691579D01*
X985335Y691447D01*
X984848Y691345D01*
X984326Y691271D01*
X983771Y691228D01*
X983181Y691213D01*
G37*
G36*
X1028879Y691213D02*
X1028420Y691225D01*
X1027977Y691261D01*
X1027550Y691322D01*
X1027139Y691407D01*
X1026743Y691516D01*
X1026363Y691649D01*
X1025999Y691806D01*
X1025651Y691988D01*
X1025321Y692192D01*
X1025011Y692417D01*
X1024721Y692663D01*
X1024451Y692930D01*
X1024202Y693217D01*
X1023973Y693525D01*
X1023764Y693854D01*
X1023575Y694204D01*
X1023408Y694572D01*
X1023263Y694957D01*
X1023140Y695359D01*
X1023040Y695777D01*
X1022962Y696212D01*
X1022906Y696663D01*
X1022873Y697131D01*
X1022861Y697615D01*
X1022868Y697979D01*
X1022886Y698333D01*
X1022917Y698677D01*
X1022961Y699011D01*
X1023017Y699335D01*
X1023086Y699649D01*
X1023167Y699953D01*
X1023260Y700247D01*
X1023366Y700531D01*
X1023484Y700805D01*
X1023758Y701323D01*
X1024082Y701802D01*
X1024455Y702240D01*
X1024873Y702632D01*
X1025329Y702972D01*
X1025571Y703122D01*
X1025823Y703259D01*
X1026085Y703383D01*
X1026356Y703494D01*
X1026637Y703593D01*
X1026927Y703677D01*
X1027227Y703749D01*
X1027536Y703808D01*
X1027855Y703854D01*
X1028184Y703887D01*
X1028522Y703906D01*
X1028870Y703913D01*
X1029352Y703901D01*
X1029815Y703865D01*
X1030257Y703804D01*
X1030678Y703720D01*
X1031080Y703612D01*
X1031461Y703479D01*
X1031822Y703323D01*
X1032163Y703142D01*
X1032483Y702938D01*
X1032780Y702710D01*
X1033056Y702459D01*
X1033310Y702185D01*
X1033542Y701888D01*
X1033753Y701567D01*
X1033941Y701223D01*
X1034107Y700856D01*
X1032522Y700330D01*
X1032407Y700592D01*
X1032275Y700837D01*
X1032127Y701067D01*
X1031963Y701281D01*
X1031782Y701479D01*
X1031585Y701661D01*
X1031372Y701827D01*
X1031143Y701977D01*
X1030899Y702111D01*
X1030645Y702226D01*
X1030380Y702324D01*
X1030104Y702404D01*
X1029816Y702466D01*
X1029518Y702511D01*
X1029208Y702537D01*
X1028887Y702546D01*
X1028389Y702526D01*
X1027919Y702464D01*
X1027478Y702361D01*
X1027065Y702217D01*
X1026681Y702031D01*
X1026325Y701805D01*
X1025998Y701537D01*
X1025699Y701228D01*
X1025432Y700883D01*
X1025201Y700508D01*
X1025005Y700102D01*
X1024845Y699666D01*
X1024721Y699199D01*
X1024632Y698702D01*
X1024578Y698174D01*
X1024561Y697615D01*
X1024579Y697062D01*
X1024635Y696537D01*
X1024727Y696039D01*
X1024857Y695569D01*
X1025024Y695127D01*
X1025228Y694713D01*
X1025469Y694326D01*
X1025747Y693967D01*
X1026057Y693644D01*
X1026393Y693364D01*
X1026755Y693127D01*
X1027143Y692933D01*
X1027558Y692782D01*
X1027998Y692674D01*
X1028465Y692609D01*
X1028957Y692588D01*
X1029276Y692598D01*
X1029585Y692628D01*
X1029884Y692678D01*
X1030173Y692748D01*
X1030452Y692839D01*
X1030721Y692949D01*
X1030979Y693079D01*
X1031228Y693229D01*
X1031467Y693400D01*
X1031695Y693590D01*
X1031914Y693801D01*
X1032122Y694031D01*
X1032320Y694282D01*
X1032509Y694553D01*
X1032687Y694843D01*
X1032855Y695154D01*
X1034221Y694471D01*
X1034021Y694084D01*
X1033802Y693722D01*
X1033563Y693383D01*
X1033305Y693067D01*
X1033028Y692776D01*
X1032731Y692509D01*
X1032415Y692265D01*
X1032080Y692045D01*
X1031728Y691850D01*
X1031362Y691681D01*
X1030983Y691538D01*
X1030590Y691421D01*
X1030183Y691330D01*
X1029762Y691265D01*
X1029327Y691226D01*
X1028879Y691213D01*
G37*
G36*
X1017319Y691388D02*
X1015655Y691388D01*
X1015655Y702362D01*
X1011416Y702362D01*
X1011416Y703729D01*
X1021558Y703729D01*
X1021558Y702362D01*
X1017319Y702362D01*
X1017319Y691388D01*
G37*
G36*
X1009341Y691388D02*
X1007668Y691388D01*
X1007668Y703729D01*
X1009341Y703729D01*
X1009341Y691388D01*
G37*
G36*
X781747Y312500D02*
X780430Y312500D01*
X780430Y322218D01*
X784520Y322218D01*
X784917Y322206D01*
X785291Y322170D01*
X785642Y322110D01*
X785970Y322026D01*
X786275Y321919D01*
X786557Y321787D01*
X786815Y321632D01*
X787051Y321452D01*
X787261Y321251D01*
X787443Y321030D01*
X787597Y320790D01*
X787724Y320530D01*
X787822Y320250D01*
X787892Y319951D01*
X787934Y319632D01*
X787948Y319294D01*
X787934Y318958D01*
X787891Y318639D01*
X787821Y318339D01*
X787723Y318056D01*
X787596Y317790D01*
X787441Y317543D01*
X787259Y317313D01*
X787048Y317100D01*
X786813Y316910D01*
X786557Y316744D01*
X786282Y316604D01*
X785986Y316490D01*
X785671Y316401D01*
X785335Y316337D01*
X784979Y316299D01*
X784603Y316286D01*
X781747Y316286D01*
X781747Y312500D01*
G37*
%LPC*%
G36*
X784416Y317328D02*
X784684Y317336D01*
X784934Y317358D01*
X785167Y317397D01*
X785382Y317450D01*
X785580Y317518D01*
X785761Y317602D01*
X785925Y317701D01*
X786072Y317816D01*
X786201Y317945D01*
X786313Y318090D01*
X786408Y318250D01*
X786486Y318426D01*
X786546Y318616D01*
X786589Y318822D01*
X786615Y319043D01*
X786624Y319280D01*
X786615Y319508D01*
X786588Y319721D01*
X786544Y319920D01*
X786482Y320103D01*
X786403Y320273D01*
X786305Y320427D01*
X786191Y320567D01*
X786058Y320692D01*
X785908Y320802D01*
X785740Y320898D01*
X785554Y320979D01*
X785351Y321045D01*
X785130Y321096D01*
X784892Y321133D01*
X784635Y321155D01*
X784361Y321163D01*
X781747Y321163D01*
X781747Y317328D01*
X784416Y317328D01*
G37*
%LPD*%
G36*
X774624Y312362D02*
X774192Y312372D01*
X773783Y312401D01*
X773397Y312449D01*
X773035Y312516D01*
X772696Y312603D01*
X772380Y312709D01*
X772088Y312835D01*
X771819Y312979D01*
X771573Y313143D01*
X771351Y313327D01*
X771152Y313529D01*
X770976Y313751D01*
X770824Y313992D01*
X770695Y314252D01*
X770589Y314532D01*
X770507Y314831D01*
X771782Y315086D01*
X771845Y314875D01*
X771924Y314678D01*
X772018Y314495D01*
X772127Y314327D01*
X772252Y314173D01*
X772393Y314034D01*
X772549Y313910D01*
X772720Y313800D01*
X772908Y313704D01*
X773111Y313621D01*
X773331Y313550D01*
X773567Y313492D01*
X773819Y313447D01*
X774087Y313415D01*
X774372Y313396D01*
X774672Y313390D01*
X774982Y313397D01*
X775274Y313417D01*
X775547Y313451D01*
X775803Y313499D01*
X776040Y313561D01*
X776258Y313636D01*
X776459Y313725D01*
X776641Y313828D01*
X776804Y313944D01*
X776945Y314072D01*
X777064Y314214D01*
X777161Y314368D01*
X777237Y314535D01*
X777291Y314715D01*
X777324Y314908D01*
X777335Y315114D01*
X777321Y315341D01*
X777280Y315545D01*
X777212Y315727D01*
X777117Y315886D01*
X776998Y316028D01*
X776856Y316157D01*
X776692Y316273D01*
X776507Y316376D01*
X776076Y316554D01*
X775569Y316700D01*
X774362Y316983D01*
X773821Y317111D01*
X773349Y317238D01*
X772947Y317366D01*
X772614Y317493D01*
X772331Y317625D01*
X772080Y317763D01*
X771860Y317909D01*
X771672Y318062D01*
X771510Y318226D01*
X771368Y318403D01*
X771246Y318593D01*
X771144Y318797D01*
X771065Y319015D01*
X771007Y319249D01*
X770973Y319498D01*
X770962Y319763D01*
X770977Y320066D01*
X771021Y320351D01*
X771096Y320618D01*
X771201Y320868D01*
X771335Y321099D01*
X771499Y321313D01*
X771693Y321509D01*
X771917Y321687D01*
X772169Y321845D01*
X772446Y321982D01*
X772749Y322099D01*
X773078Y322194D01*
X773433Y322268D01*
X773813Y322320D01*
X774220Y322352D01*
X774652Y322363D01*
X775053Y322355D01*
X775431Y322331D01*
X775783Y322291D01*
X776112Y322236D01*
X776416Y322165D01*
X776696Y322078D01*
X776952Y321975D01*
X777183Y321856D01*
X777394Y321718D01*
X777588Y321558D01*
X777766Y321375D01*
X777928Y321170D01*
X778073Y320943D01*
X778202Y320694D01*
X778314Y320422D01*
X778410Y320128D01*
X777114Y319900D01*
X777054Y320087D01*
X776983Y320260D01*
X776899Y320420D01*
X776803Y320567D01*
X776696Y320700D01*
X776576Y320821D01*
X776444Y320928D01*
X776300Y321021D01*
X776143Y321103D01*
X775971Y321174D01*
X775584Y321282D01*
X775140Y321348D01*
X774638Y321370D01*
X774355Y321363D01*
X774089Y321345D01*
X773841Y321315D01*
X773610Y321273D01*
X773396Y321219D01*
X773200Y321152D01*
X773020Y321074D01*
X772858Y320983D01*
X772715Y320881D01*
X772590Y320766D01*
X772484Y320640D01*
X772398Y320502D01*
X772331Y320352D01*
X772283Y320191D01*
X772254Y320017D01*
X772245Y319831D01*
X772259Y319617D01*
X772304Y319422D01*
X772378Y319246D01*
X772482Y319090D01*
X772615Y318949D01*
X772773Y318819D01*
X772958Y318701D01*
X773169Y318593D01*
X773449Y318486D01*
X773839Y318367D01*
X774342Y318236D01*
X774955Y318093D01*
X775848Y317883D01*
X776284Y317766D01*
X776700Y317628D01*
X777094Y317467D01*
X777462Y317280D01*
X777794Y317057D01*
X778079Y316790D01*
X778203Y316639D01*
X778313Y316474D01*
X778409Y316297D01*
X778490Y316107D01*
X778555Y315902D01*
X778601Y315680D01*
X778629Y315440D01*
X778638Y315183D01*
X778622Y314856D01*
X778572Y314548D01*
X778490Y314260D01*
X778375Y313990D01*
X778227Y313739D01*
X778046Y313507D01*
X777833Y313294D01*
X777586Y313100D01*
X777310Y312927D01*
X777007Y312777D01*
X776677Y312650D01*
X776320Y312547D01*
X775936Y312466D01*
X775526Y312408D01*
X775088Y312374D01*
X774624Y312362D01*
G37*
G36*
X800849Y312500D02*
X799539Y312500D01*
X799539Y316528D01*
X795800Y322218D01*
X797249Y322218D01*
X800208Y317590D01*
X803153Y322218D01*
X804601Y322218D01*
X800849Y316528D01*
X800849Y312500D01*
G37*
G36*
X796064Y312500D02*
X789836Y312500D01*
X789836Y322218D01*
X791154Y322218D01*
X791154Y313576D01*
X796064Y313576D01*
X796064Y312500D01*
G37*
G36*
X580382Y401400D02*
X579064Y401400D01*
X579064Y411118D01*
X583154Y411118D01*
X583551Y411106D01*
X583926Y411070D01*
X584277Y411010D01*
X584604Y410926D01*
X584909Y410819D01*
X585191Y410687D01*
X585450Y410532D01*
X585686Y410352D01*
X585896Y410151D01*
X586078Y409930D01*
X586232Y409690D01*
X586358Y409430D01*
X586456Y409150D01*
X586526Y408851D01*
X586568Y408532D01*
X586582Y408194D01*
X586568Y407858D01*
X586526Y407539D01*
X586456Y407239D01*
X586357Y406956D01*
X586231Y406690D01*
X586076Y406443D01*
X585893Y406213D01*
X585682Y406000D01*
X585447Y405810D01*
X585192Y405644D01*
X584916Y405504D01*
X584621Y405390D01*
X584305Y405301D01*
X583969Y405237D01*
X583613Y405199D01*
X583237Y405186D01*
X580382Y405186D01*
X580382Y401400D01*
G37*
%LPC*%
G36*
X583051Y406228D02*
X583318Y406236D01*
X583568Y406258D01*
X583801Y406297D01*
X584016Y406350D01*
X584215Y406418D01*
X584396Y406502D01*
X584560Y406601D01*
X584706Y406716D01*
X584836Y406845D01*
X584948Y406990D01*
X585042Y407150D01*
X585120Y407326D01*
X585180Y407516D01*
X585223Y407722D01*
X585249Y407943D01*
X585258Y408180D01*
X585249Y408408D01*
X585223Y408621D01*
X585178Y408820D01*
X585117Y409003D01*
X585037Y409173D01*
X584940Y409327D01*
X584825Y409467D01*
X584692Y409592D01*
X584542Y409702D01*
X584374Y409798D01*
X584189Y409879D01*
X583985Y409945D01*
X583765Y409996D01*
X583526Y410033D01*
X583270Y410055D01*
X582996Y410063D01*
X580382Y410063D01*
X580382Y406228D01*
X583051Y406228D01*
G37*
%LPD*%
G36*
X573227Y401262D02*
X572795Y401272D01*
X572386Y401301D01*
X572000Y401349D01*
X571638Y401416D01*
X571299Y401503D01*
X570983Y401609D01*
X570691Y401735D01*
X570422Y401879D01*
X570176Y402043D01*
X569954Y402227D01*
X569755Y402429D01*
X569579Y402651D01*
X569427Y402892D01*
X569298Y403152D01*
X569192Y403432D01*
X569110Y403731D01*
X570386Y403986D01*
X570449Y403775D01*
X570527Y403578D01*
X570621Y403395D01*
X570730Y403227D01*
X570855Y403073D01*
X570996Y402934D01*
X571152Y402810D01*
X571324Y402700D01*
X571511Y402604D01*
X571715Y402521D01*
X571934Y402450D01*
X572170Y402392D01*
X572422Y402347D01*
X572691Y402315D01*
X572975Y402296D01*
X573275Y402290D01*
X573585Y402297D01*
X573877Y402317D01*
X574150Y402351D01*
X574406Y402399D01*
X574643Y402461D01*
X574862Y402536D01*
X575062Y402625D01*
X575245Y402728D01*
X575407Y402844D01*
X575548Y402972D01*
X575667Y403114D01*
X575764Y403268D01*
X575840Y403435D01*
X575894Y403615D01*
X575927Y403808D01*
X575938Y404014D01*
X575924Y404241D01*
X575883Y404445D01*
X575815Y404627D01*
X575720Y404786D01*
X575601Y404928D01*
X575459Y405057D01*
X575296Y405173D01*
X575110Y405276D01*
X574679Y405454D01*
X574172Y405600D01*
X572965Y405883D01*
X572424Y406011D01*
X571952Y406138D01*
X571550Y406266D01*
X571217Y406393D01*
X570934Y406525D01*
X570683Y406663D01*
X570463Y406809D01*
X570275Y406962D01*
X570113Y407126D01*
X569971Y407303D01*
X569849Y407493D01*
X569748Y407697D01*
X569668Y407915D01*
X569611Y408149D01*
X569576Y408398D01*
X569565Y408663D01*
X569580Y408966D01*
X569625Y409251D01*
X569699Y409518D01*
X569804Y409768D01*
X569938Y409999D01*
X570102Y410213D01*
X570296Y410409D01*
X570520Y410587D01*
X570772Y410745D01*
X571049Y410882D01*
X571352Y410999D01*
X571681Y411094D01*
X572036Y411168D01*
X572417Y411220D01*
X572823Y411252D01*
X573255Y411263D01*
X573656Y411255D01*
X574034Y411231D01*
X574387Y411191D01*
X574715Y411136D01*
X575019Y411065D01*
X575299Y410978D01*
X575555Y410875D01*
X575786Y410756D01*
X575997Y410618D01*
X576191Y410458D01*
X576369Y410275D01*
X576531Y410070D01*
X576676Y409843D01*
X576805Y409594D01*
X576918Y409322D01*
X577014Y409028D01*
X575717Y408800D01*
X575658Y408987D01*
X575586Y409160D01*
X575502Y409320D01*
X575407Y409467D01*
X575299Y409600D01*
X575179Y409721D01*
X575047Y409828D01*
X574903Y409921D01*
X574746Y410003D01*
X574574Y410074D01*
X574188Y410182D01*
X573743Y410248D01*
X573241Y410270D01*
X572958Y410263D01*
X572693Y410245D01*
X572444Y410215D01*
X572213Y410173D01*
X572000Y410119D01*
X571803Y410052D01*
X571624Y409974D01*
X571462Y409883D01*
X571318Y409781D01*
X571193Y409666D01*
X571088Y409540D01*
X571001Y409402D01*
X570934Y409252D01*
X570886Y409091D01*
X570857Y408917D01*
X570848Y408731D01*
X570863Y408517D01*
X570907Y408322D01*
X570982Y408146D01*
X571086Y407990D01*
X571218Y407849D01*
X571376Y407719D01*
X571561Y407601D01*
X571772Y407493D01*
X572052Y407386D01*
X572443Y407267D01*
X572945Y407136D01*
X573558Y406993D01*
X574451Y406783D01*
X574887Y406666D01*
X575303Y406528D01*
X575697Y406367D01*
X576065Y406180D01*
X576397Y405957D01*
X576683Y405690D01*
X576807Y405539D01*
X576916Y405374D01*
X577012Y405197D01*
X577093Y405007D01*
X577158Y404802D01*
X577204Y404580D01*
X577232Y404340D01*
X577241Y404083D01*
X577225Y403756D01*
X577175Y403448D01*
X577093Y403160D01*
X576978Y402890D01*
X576830Y402639D01*
X576650Y402407D01*
X576436Y402194D01*
X576189Y402000D01*
X575913Y401827D01*
X575610Y401677D01*
X575280Y401550D01*
X574923Y401447D01*
X574539Y401366D01*
X574129Y401308D01*
X573691Y401274D01*
X573227Y401262D01*
G37*
G36*
X560518Y401400D02*
X559152Y401400D01*
X555187Y411118D01*
X556573Y411118D01*
X559263Y404276D01*
X559842Y402559D01*
X560421Y404276D01*
X563097Y411118D01*
X564484Y411118D01*
X560518Y401400D01*
G37*
G36*
X554426Y401400D02*
X547991Y401400D01*
X547991Y402276D01*
X548177Y402668D01*
X548382Y403035D01*
X548606Y403380D01*
X548850Y403700D01*
X549370Y404288D01*
X549915Y404817D01*
X550471Y405299D01*
X551022Y405745D01*
X551544Y406173D01*
X552012Y406600D01*
X552222Y406817D01*
X552411Y407038D01*
X552579Y407265D01*
X552726Y407497D01*
X552845Y407739D01*
X552930Y407997D01*
X552981Y408270D01*
X552998Y408559D01*
X552991Y408753D01*
X552969Y408937D01*
X552932Y409109D01*
X552881Y409269D01*
X552815Y409419D01*
X552735Y409557D01*
X552639Y409685D01*
X552529Y409801D01*
X552406Y409904D01*
X552272Y409994D01*
X552126Y410069D01*
X551969Y410132D01*
X551800Y410180D01*
X551620Y410214D01*
X551429Y410235D01*
X551226Y410242D01*
X551032Y410235D01*
X550847Y410215D01*
X550670Y410181D01*
X550503Y410134D01*
X550344Y410074D01*
X550193Y409999D01*
X549919Y409811D01*
X549797Y409698D01*
X549688Y409574D01*
X549593Y409439D01*
X549511Y409293D01*
X549442Y409136D01*
X549387Y408968D01*
X549344Y408790D01*
X549315Y408600D01*
X548046Y408718D01*
X548092Y409002D01*
X548160Y409271D01*
X548250Y409525D01*
X548363Y409764D01*
X548498Y409989D01*
X548655Y410198D01*
X548834Y410393D01*
X549036Y410573D01*
X549257Y410735D01*
X549492Y410875D01*
X549743Y410993D01*
X550009Y411090D01*
X550291Y411166D01*
X550587Y411220D01*
X550899Y411252D01*
X551226Y411263D01*
X551582Y411252D01*
X551918Y411219D01*
X552232Y411165D01*
X552525Y411089D01*
X552797Y410992D01*
X553047Y410873D01*
X553277Y410732D01*
X553485Y410570D01*
X553670Y410387D01*
X553830Y410187D01*
X553966Y409968D01*
X554077Y409731D01*
X554163Y409475D01*
X554225Y409202D01*
X554262Y408910D01*
X554274Y408600D01*
X554258Y408318D01*
X554210Y408037D01*
X554129Y407756D01*
X554016Y407476D01*
X553871Y407197D01*
X553694Y406918D01*
X553486Y406638D01*
X553247Y406359D01*
X552933Y406041D01*
X552504Y405647D01*
X551295Y404628D01*
X550583Y404011D01*
X550287Y403727D01*
X550033Y403459D01*
X549815Y403201D01*
X549629Y402948D01*
X549477Y402699D01*
X549357Y402455D01*
X554426Y402455D01*
X554426Y401400D01*
G37*
G36*
X599483Y401400D02*
X598173Y401400D01*
X598173Y405428D01*
X594435Y411118D01*
X595883Y411118D01*
X598842Y406490D01*
X601787Y411118D01*
X603235Y411118D01*
X599483Y405428D01*
X599483Y401400D01*
G37*
G36*
X546603Y401400D02*
X540513Y401400D01*
X540513Y402455D01*
X542989Y402455D01*
X542989Y409932D01*
X540796Y408366D01*
X540796Y409538D01*
X543092Y411118D01*
X544237Y411118D01*
X544237Y402455D01*
X546603Y402455D01*
X546603Y401400D01*
G37*
G36*
X594699Y401400D02*
X588471Y401400D01*
X588471Y411118D01*
X589788Y411118D01*
X589788Y402476D01*
X594699Y402476D01*
X594699Y401400D01*
G37*
G36*
X567857Y404600D02*
X564408Y404600D01*
X564408Y405704D01*
X567857Y405704D01*
X567857Y404600D01*
G37*
G36*
X380097Y426800D02*
X376151Y426800D01*
X376151Y436518D01*
X379683Y436518D01*
X380097Y436509D01*
X380484Y436481D01*
X380845Y436435D01*
X381179Y436370D01*
X381487Y436287D01*
X381767Y436186D01*
X382021Y436066D01*
X382248Y435928D01*
X382449Y435772D01*
X382623Y435596D01*
X382770Y435403D01*
X382890Y435191D01*
X382983Y434961D01*
X383050Y434712D01*
X383090Y434445D01*
X383104Y434159D01*
X383096Y433948D01*
X383073Y433745D01*
X383036Y433551D01*
X382983Y433366D01*
X382915Y433189D01*
X382832Y433021D01*
X382734Y432862D01*
X382621Y432711D01*
X382494Y432570D01*
X382416Y432498D01*
X382354Y432442D01*
X382202Y432325D01*
X382038Y432221D01*
X381861Y432129D01*
X381672Y432049D01*
X381470Y431980D01*
X381255Y431924D01*
X381537Y431882D01*
X381801Y431824D01*
X382050Y431751D01*
X382281Y431662D01*
X382496Y431557D01*
X382695Y431436D01*
X382876Y431300D01*
X382953Y431230D01*
X383042Y431149D01*
X383189Y430984D01*
X383316Y430809D01*
X383424Y430623D01*
X383512Y430427D01*
X383581Y430220D01*
X383630Y430003D01*
X383659Y429776D01*
X383669Y429538D01*
X383654Y429223D01*
X383610Y428926D01*
X383536Y428647D01*
X383433Y428385D01*
X383300Y428142D01*
X383138Y427917D01*
X382946Y427710D01*
X382724Y427521D01*
X382477Y427352D01*
X382206Y427205D01*
X381912Y427082D01*
X381595Y426980D01*
X381255Y426901D01*
X380892Y426845D01*
X380506Y426811D01*
X380097Y426800D01*
G37*
%LPC*%
G36*
X380028Y427855D02*
X380319Y427862D01*
X380590Y427883D01*
X380841Y427918D01*
X381071Y427967D01*
X381280Y428030D01*
X381469Y428107D01*
X381638Y428198D01*
X381786Y428304D01*
X381916Y428423D01*
X382028Y428555D01*
X382122Y428702D01*
X382200Y428862D01*
X382260Y429036D01*
X382304Y429224D01*
X382329Y429426D01*
X382338Y429642D01*
X382329Y429850D01*
X382300Y430044D01*
X382253Y430225D01*
X382187Y430393D01*
X382102Y430547D01*
X381999Y430688D01*
X381876Y430816D01*
X381735Y430930D01*
X381574Y431030D01*
X381395Y431117D01*
X381197Y431191D01*
X380980Y431252D01*
X380744Y431299D01*
X380490Y431332D01*
X380216Y431352D01*
X379924Y431359D01*
X377469Y431359D01*
X377469Y427855D01*
X380028Y427855D01*
G37*
G36*
X379683Y432387D02*
X379938Y432393D01*
X380177Y432411D01*
X380399Y432442D01*
X380604Y432486D01*
X380793Y432541D01*
X380965Y432610D01*
X381120Y432690D01*
X381259Y432783D01*
X381381Y432889D01*
X381486Y433008D01*
X381576Y433140D01*
X381649Y433286D01*
X381706Y433445D01*
X381747Y433617D01*
X381771Y433802D01*
X381779Y434000D01*
X381771Y434190D01*
X381746Y434366D01*
X381704Y434527D01*
X381645Y434675D01*
X381569Y434808D01*
X381477Y434928D01*
X381367Y435033D01*
X381241Y435125D01*
X381099Y435204D01*
X380942Y435272D01*
X380583Y435378D01*
X380163Y435441D01*
X379683Y435463D01*
X377469Y435463D01*
X377469Y432387D01*
X379683Y432387D01*
G37*
%LPD*%
G36*
X395500Y426800D02*
X394183Y426800D01*
X394183Y436518D01*
X398755Y436518D01*
X399154Y436506D01*
X399529Y436472D01*
X399881Y436415D01*
X400210Y436334D01*
X400515Y436231D01*
X400797Y436105D01*
X401055Y435955D01*
X401290Y435783D01*
X401499Y435591D01*
X401681Y435380D01*
X401834Y435151D01*
X401960Y434905D01*
X402058Y434640D01*
X402127Y434358D01*
X402169Y434057D01*
X402183Y433738D01*
X402173Y433473D01*
X402144Y433218D01*
X402094Y432975D01*
X402025Y432742D01*
X401937Y432520D01*
X401828Y432308D01*
X401700Y432107D01*
X401552Y431918D01*
X401387Y431742D01*
X401207Y431583D01*
X401011Y431441D01*
X400924Y431389D01*
X400801Y431316D01*
X400576Y431208D01*
X400336Y431117D01*
X400081Y431043D01*
X399811Y430986D01*
X400985Y429204D01*
X402569Y426800D01*
X401052Y426800D01*
X398528Y430835D01*
X395500Y430835D01*
X395500Y426800D01*
G37*
%LPC*%
G36*
X398680Y431876D02*
X398932Y431884D01*
X399171Y431907D01*
X399394Y431945D01*
X399603Y431998D01*
X399797Y432066D01*
X399976Y432150D01*
X400140Y432248D01*
X400290Y432362D01*
X400423Y432490D01*
X400539Y432630D01*
X400637Y432782D01*
X400717Y432946D01*
X400779Y433122D01*
X400823Y433311D01*
X400850Y433512D01*
X400859Y433725D01*
X400850Y433930D01*
X400823Y434124D01*
X400778Y434304D01*
X400715Y434472D01*
X400634Y434627D01*
X400535Y434770D01*
X400418Y434900D01*
X400283Y435018D01*
X400131Y435122D01*
X399963Y435212D01*
X399780Y435289D01*
X399580Y435351D01*
X399365Y435400D01*
X399134Y435435D01*
X398887Y435456D01*
X398624Y435463D01*
X395500Y435463D01*
X395500Y431876D01*
X398680Y431876D01*
G37*
%LPD*%
G36*
X408320Y426800D02*
X407010Y426800D01*
X407010Y430828D01*
X403272Y436518D01*
X404720Y436518D01*
X407679Y431890D01*
X410624Y436518D01*
X412072Y436518D01*
X408320Y430828D01*
X408320Y426800D01*
G37*
G36*
X389365Y426800D02*
X388054Y426800D01*
X388054Y435442D01*
X384716Y435442D01*
X384716Y436518D01*
X392703Y436518D01*
X392703Y435442D01*
X389365Y435442D01*
X389365Y426800D01*
G37*
G36*
X319865Y426662D02*
X319588Y426670D01*
X319325Y426692D01*
X319075Y426729D01*
X318840Y426782D01*
X318619Y426849D01*
X318413Y426932D01*
X318220Y427029D01*
X318041Y427141D01*
X317876Y427270D01*
X317722Y427418D01*
X317581Y427584D01*
X317452Y427768D01*
X317336Y427971D01*
X317231Y428192D01*
X317139Y428432D01*
X317058Y428690D01*
X318245Y428876D01*
X318352Y428591D01*
X318487Y428345D01*
X318650Y428136D01*
X318841Y427966D01*
X319060Y427833D01*
X319308Y427738D01*
X319583Y427681D01*
X319886Y427662D01*
X320146Y427678D01*
X320390Y427724D01*
X320620Y427802D01*
X320834Y427910D01*
X321034Y428050D01*
X321218Y428221D01*
X321387Y428423D01*
X321541Y428655D01*
X321679Y428917D01*
X321800Y429205D01*
X321902Y429519D01*
X321988Y429861D01*
X322056Y430228D01*
X322106Y430622D01*
X322140Y431043D01*
X322155Y431490D01*
X321993Y431195D01*
X321781Y430930D01*
X321520Y430697D01*
X321210Y430493D01*
X320868Y430329D01*
X320509Y430211D01*
X320133Y430141D01*
X319741Y430117D01*
X319422Y430131D01*
X319119Y430173D01*
X318832Y430244D01*
X318562Y430342D01*
X318308Y430468D01*
X318070Y430622D01*
X317849Y430804D01*
X317645Y431014D01*
X317460Y431247D01*
X317301Y431499D01*
X317165Y431769D01*
X317055Y432057D01*
X316969Y432364D01*
X316907Y432689D01*
X316871Y433032D01*
X316858Y433394D01*
X316872Y433764D01*
X316912Y434115D01*
X316979Y434445D01*
X317072Y434755D01*
X317192Y435044D01*
X317339Y435313D01*
X317513Y435562D01*
X317714Y435790D01*
X317938Y435995D01*
X318183Y436172D01*
X318449Y436322D01*
X318736Y436445D01*
X319044Y436540D01*
X319373Y436608D01*
X319722Y436649D01*
X320093Y436663D01*
X320486Y436644D01*
X320854Y436588D01*
X321198Y436494D01*
X321517Y436363D01*
X321812Y436194D01*
X322082Y435988D01*
X322327Y435744D01*
X322548Y435463D01*
X322744Y435144D01*
X322913Y434787D01*
X323057Y434393D01*
X323174Y433961D01*
X323266Y433491D01*
X323331Y432984D01*
X323370Y432438D01*
X323383Y431855D01*
X323369Y431248D01*
X323326Y430676D01*
X323254Y430141D01*
X323154Y429642D01*
X323026Y429179D01*
X322869Y428752D01*
X322683Y428361D01*
X322469Y428007D01*
X322228Y427692D01*
X321964Y427419D01*
X321675Y427187D01*
X321361Y426998D01*
X321024Y426851D01*
X320662Y426746D01*
X320276Y426683D01*
X319865Y426662D01*
G37*
%LPC*%
G36*
X320038Y431097D02*
X320302Y431112D01*
X320557Y431158D01*
X320802Y431235D01*
X321038Y431342D01*
X321257Y431477D01*
X321451Y431637D01*
X321620Y431823D01*
X321766Y432035D01*
X321882Y432267D01*
X321965Y432514D01*
X322014Y432777D01*
X322031Y433056D01*
X322023Y433342D01*
X321997Y433613D01*
X321955Y433870D01*
X321897Y434113D01*
X321821Y434342D01*
X321728Y434556D01*
X321619Y434756D01*
X321493Y434942D01*
X321353Y435109D01*
X321201Y435254D01*
X321038Y435377D01*
X320864Y435477D01*
X320678Y435555D01*
X320481Y435611D01*
X320272Y435645D01*
X320052Y435656D01*
X319833Y435646D01*
X319627Y435618D01*
X319433Y435570D01*
X319250Y435503D01*
X319079Y435417D01*
X318920Y435312D01*
X318773Y435188D01*
X318638Y435045D01*
X318517Y434886D01*
X318411Y434713D01*
X318323Y434527D01*
X318250Y434327D01*
X318193Y434114D01*
X318153Y433887D01*
X318129Y433647D01*
X318120Y433394D01*
X318129Y433135D01*
X318153Y432890D01*
X318193Y432659D01*
X318250Y432443D01*
X318323Y432240D01*
X318411Y432051D01*
X318517Y431875D01*
X318638Y431714D01*
X318773Y431569D01*
X318919Y431444D01*
X319077Y431338D01*
X319246Y431251D01*
X319427Y431184D01*
X319619Y431135D01*
X319823Y431106D01*
X320038Y431097D01*
G37*
%LPD*%
G36*
X275621Y426800D02*
X274255Y426800D01*
X278221Y436518D01*
X279717Y436518D01*
X283621Y426800D01*
X282276Y426800D01*
X281166Y429642D01*
X276738Y429642D01*
X275621Y426800D01*
G37*
%LPC*%
G36*
X280773Y430669D02*
X279524Y433876D01*
X279331Y434383D01*
X279138Y434952D01*
X278952Y435525D01*
X278890Y435332D01*
X278676Y434678D01*
X278379Y433863D01*
X277138Y430669D01*
X280773Y430669D01*
G37*
%LPD*%
G36*
X266371Y426800D02*
X265199Y426800D01*
X265199Y436518D01*
X266730Y436518D01*
X271985Y428186D01*
X271923Y429352D01*
X271903Y430145D01*
X271903Y436518D01*
X273089Y436518D01*
X273089Y426800D01*
X271502Y426800D01*
X266302Y435076D01*
X266337Y434407D01*
X266371Y433256D01*
X266371Y426800D01*
G37*
G36*
X291111Y426662D02*
X290679Y426672D01*
X290270Y426701D01*
X289884Y426749D01*
X289522Y426816D01*
X289183Y426903D01*
X288867Y427009D01*
X288575Y427135D01*
X288306Y427279D01*
X288060Y427443D01*
X287838Y427627D01*
X287639Y427829D01*
X287463Y428051D01*
X287311Y428292D01*
X287182Y428552D01*
X287076Y428832D01*
X286994Y429131D01*
X288270Y429386D01*
X288333Y429175D01*
X288411Y428978D01*
X288505Y428795D01*
X288615Y428627D01*
X288740Y428473D01*
X288880Y428334D01*
X289036Y428210D01*
X289208Y428100D01*
X289395Y428004D01*
X289599Y427921D01*
X289819Y427850D01*
X290054Y427792D01*
X290306Y427747D01*
X290575Y427715D01*
X290859Y427696D01*
X291160Y427690D01*
X291470Y427697D01*
X291761Y427717D01*
X292035Y427751D01*
X292290Y427799D01*
X292527Y427861D01*
X292746Y427936D01*
X292946Y428025D01*
X293129Y428128D01*
X293291Y428244D01*
X293432Y428372D01*
X293551Y428514D01*
X293649Y428668D01*
X293724Y428835D01*
X293779Y429015D01*
X293811Y429208D01*
X293822Y429414D01*
X293808Y429641D01*
X293768Y429845D01*
X293700Y430027D01*
X293605Y430186D01*
X293485Y430328D01*
X293343Y430457D01*
X293180Y430573D01*
X292994Y430676D01*
X292563Y430854D01*
X292056Y431000D01*
X290849Y431283D01*
X290308Y431411D01*
X289836Y431538D01*
X289434Y431666D01*
X289101Y431793D01*
X288818Y431925D01*
X288567Y432063D01*
X288348Y432209D01*
X288159Y432362D01*
X287997Y432526D01*
X287855Y432703D01*
X287733Y432893D01*
X287632Y433097D01*
X287552Y433315D01*
X287495Y433549D01*
X287461Y433798D01*
X287449Y434063D01*
X287464Y434366D01*
X287509Y434651D01*
X287583Y434918D01*
X287688Y435168D01*
X287822Y435399D01*
X287986Y435613D01*
X288180Y435809D01*
X288404Y435987D01*
X288656Y436145D01*
X288933Y436282D01*
X289237Y436399D01*
X289566Y436494D01*
X289920Y436568D01*
X290301Y436620D01*
X290707Y436652D01*
X291139Y436663D01*
X291541Y436655D01*
X291918Y436631D01*
X292271Y436591D01*
X292599Y436536D01*
X292904Y436465D01*
X293183Y436378D01*
X293439Y436275D01*
X293670Y436156D01*
X293881Y436018D01*
X294075Y435858D01*
X294253Y435675D01*
X294415Y435470D01*
X294560Y435243D01*
X294689Y434994D01*
X294802Y434722D01*
X294898Y434428D01*
X293601Y434200D01*
X293542Y434387D01*
X293470Y434560D01*
X293387Y434720D01*
X293291Y434867D01*
X293183Y435000D01*
X293063Y435121D01*
X292931Y435228D01*
X292787Y435321D01*
X292630Y435403D01*
X292458Y435474D01*
X292072Y435582D01*
X291627Y435648D01*
X291125Y435670D01*
X290842Y435663D01*
X290577Y435645D01*
X290329Y435615D01*
X290098Y435573D01*
X289884Y435519D01*
X289687Y435452D01*
X289508Y435374D01*
X289346Y435283D01*
X289202Y435181D01*
X289077Y435066D01*
X288972Y434940D01*
X288885Y434802D01*
X288818Y434652D01*
X288770Y434491D01*
X288742Y434317D01*
X288732Y434131D01*
X288747Y433917D01*
X288791Y433722D01*
X288866Y433546D01*
X288970Y433390D01*
X289102Y433249D01*
X289260Y433119D01*
X289445Y433001D01*
X289656Y432893D01*
X289936Y432786D01*
X290327Y432667D01*
X290829Y432536D01*
X291442Y432393D01*
X292336Y432183D01*
X292771Y432066D01*
X293187Y431928D01*
X293581Y431767D01*
X293949Y431580D01*
X294281Y431357D01*
X294567Y431090D01*
X294691Y430939D01*
X294800Y430774D01*
X294896Y430597D01*
X294977Y430407D01*
X295042Y430202D01*
X295088Y429980D01*
X295116Y429740D01*
X295125Y429483D01*
X295109Y429156D01*
X295060Y428848D01*
X294978Y428560D01*
X294862Y428290D01*
X294715Y428039D01*
X294534Y427807D01*
X294320Y427594D01*
X294074Y427400D01*
X293797Y427227D01*
X293494Y427077D01*
X293164Y426950D01*
X292807Y426847D01*
X292423Y426766D01*
X292013Y426708D01*
X291576Y426674D01*
X291111Y426662D01*
G37*
G36*
X307623Y426800D02*
X301188Y426800D01*
X301188Y427676D01*
X301373Y428068D01*
X301578Y428435D01*
X301803Y428780D01*
X302047Y429100D01*
X302566Y429688D01*
X303112Y430217D01*
X303668Y430699D01*
X304219Y431145D01*
X304741Y431573D01*
X305209Y432000D01*
X305419Y432217D01*
X305608Y432438D01*
X305776Y432665D01*
X305923Y432897D01*
X306042Y433139D01*
X306127Y433397D01*
X306178Y433670D01*
X306195Y433959D01*
X306188Y434153D01*
X306166Y434337D01*
X306129Y434509D01*
X306078Y434669D01*
X306012Y434819D01*
X305931Y434957D01*
X305836Y435085D01*
X305726Y435201D01*
X305603Y435304D01*
X305469Y435394D01*
X305323Y435469D01*
X305166Y435532D01*
X304997Y435580D01*
X304817Y435614D01*
X304625Y435635D01*
X304423Y435642D01*
X304229Y435635D01*
X304043Y435615D01*
X303867Y435581D01*
X303699Y435534D01*
X303540Y435474D01*
X303390Y435399D01*
X303116Y435211D01*
X302994Y435098D01*
X302885Y434974D01*
X302790Y434839D01*
X302708Y434693D01*
X302639Y434536D01*
X302583Y434368D01*
X302541Y434190D01*
X302512Y434000D01*
X301243Y434118D01*
X301289Y434402D01*
X301357Y434671D01*
X301447Y434925D01*
X301559Y435164D01*
X301694Y435389D01*
X301851Y435598D01*
X302031Y435793D01*
X302233Y435973D01*
X302453Y436135D01*
X302689Y436275D01*
X302940Y436393D01*
X303206Y436490D01*
X303487Y436566D01*
X303784Y436620D01*
X304096Y436652D01*
X304423Y436663D01*
X304779Y436652D01*
X305115Y436619D01*
X305429Y436565D01*
X305722Y436489D01*
X305993Y436392D01*
X306244Y436273D01*
X306473Y436132D01*
X306681Y435970D01*
X306866Y435787D01*
X307027Y435587D01*
X307163Y435368D01*
X307274Y435131D01*
X307360Y434875D01*
X307422Y434602D01*
X307459Y434310D01*
X307471Y434000D01*
X307455Y433718D01*
X307406Y433437D01*
X307326Y433156D01*
X307212Y432876D01*
X307067Y432597D01*
X306891Y432318D01*
X306683Y432038D01*
X306443Y431759D01*
X306130Y431441D01*
X305700Y431047D01*
X304492Y430028D01*
X303779Y429411D01*
X303484Y429127D01*
X303229Y428859D01*
X303011Y428601D01*
X302826Y428348D01*
X302673Y428099D01*
X302553Y427855D01*
X307623Y427855D01*
X307623Y426800D01*
G37*
G36*
X315518Y426800D02*
X309428Y426800D01*
X309428Y427855D01*
X311904Y427855D01*
X311904Y435332D01*
X309711Y433766D01*
X309711Y434938D01*
X312008Y436518D01*
X313153Y436518D01*
X313153Y427855D01*
X315518Y427855D01*
X315518Y426800D01*
G37*
G36*
X262755Y426800D02*
X261437Y426800D01*
X261437Y436518D01*
X262755Y436518D01*
X262755Y426800D01*
G37*
G36*
X299866Y430000D02*
X296418Y430000D01*
X296418Y431104D01*
X299866Y431104D01*
X299866Y430000D01*
G37*
G36*
X285500Y433462D02*
X284527Y433462D01*
X284382Y436518D01*
X285651Y436518D01*
X285500Y433462D01*
G37*
G36*
X679948Y537845D02*
X673483Y537845D01*
X673483Y555131D01*
X679200Y555131D01*
X679741Y555122D01*
X680266Y555096D01*
X680776Y555053D01*
X681270Y554993D01*
X681749Y554916D01*
X682212Y554821D01*
X682659Y554709D01*
X683090Y554580D01*
X683506Y554434D01*
X683906Y554271D01*
X684291Y554090D01*
X684659Y553892D01*
X685012Y553677D01*
X685350Y553445D01*
X685672Y553195D01*
X685978Y552929D01*
X686267Y552646D01*
X686537Y552349D01*
X686789Y552037D01*
X687022Y551711D01*
X687236Y551371D01*
X687432Y551016D01*
X687609Y550646D01*
X687767Y550262D01*
X687907Y549863D01*
X688028Y549450D01*
X688131Y549022D01*
X688215Y548580D01*
X688280Y548123D01*
X688327Y547652D01*
X688355Y547166D01*
X688364Y546666D01*
X688348Y546008D01*
X688299Y545370D01*
X688217Y544754D01*
X688103Y544158D01*
X687957Y543584D01*
X687777Y543030D01*
X687566Y542497D01*
X687321Y541985D01*
X687047Y541499D01*
X686745Y541041D01*
X686417Y540613D01*
X686061Y540214D01*
X685677Y539845D01*
X685267Y539505D01*
X684829Y539194D01*
X684364Y538912D01*
X683877Y538662D01*
X683371Y538445D01*
X682846Y538262D01*
X682303Y538112D01*
X681742Y537995D01*
X681163Y537912D01*
X680564Y537862D01*
X679948Y537845D01*
G37*
%LPC*%
G36*
X679678Y539722D02*
X680146Y539735D01*
X680600Y539774D01*
X681040Y539839D01*
X681465Y539931D01*
X681875Y540048D01*
X682272Y540191D01*
X682654Y540361D01*
X683021Y540556D01*
X683371Y540776D01*
X683700Y541019D01*
X684008Y541285D01*
X684295Y541574D01*
X684562Y541887D01*
X684807Y542222D01*
X685032Y542580D01*
X685236Y542961D01*
X685417Y543362D01*
X685574Y543781D01*
X685707Y544218D01*
X685815Y544672D01*
X685900Y545144D01*
X685960Y545634D01*
X685996Y546141D01*
X686008Y546666D01*
X686002Y547062D01*
X685981Y547445D01*
X685947Y547817D01*
X685898Y548177D01*
X685836Y548525D01*
X685761Y548862D01*
X685671Y549186D01*
X685568Y549498D01*
X685451Y549798D01*
X685321Y550087D01*
X685176Y550363D01*
X685018Y550628D01*
X684846Y550881D01*
X684661Y551121D01*
X684461Y551350D01*
X684248Y551567D01*
X684022Y551771D01*
X683783Y551962D01*
X683532Y552140D01*
X683269Y552305D01*
X682994Y552456D01*
X682706Y552595D01*
X682406Y552720D01*
X682093Y552832D01*
X681769Y552931D01*
X681432Y553016D01*
X681082Y553089D01*
X680720Y553148D01*
X680346Y553194D01*
X679960Y553227D01*
X679562Y553247D01*
X679151Y553254D01*
X675826Y553254D01*
X675826Y539722D01*
X679678Y539722D01*
G37*
%LPD*%
G36*
X723198Y537845D02*
X716733Y537845D01*
X716733Y555131D01*
X722450Y555131D01*
X722991Y555122D01*
X723516Y555096D01*
X724026Y555053D01*
X724520Y554993D01*
X724999Y554916D01*
X725462Y554821D01*
X725909Y554709D01*
X726340Y554580D01*
X726756Y554434D01*
X727156Y554271D01*
X727541Y554090D01*
X727909Y553892D01*
X728262Y553677D01*
X728600Y553445D01*
X728922Y553195D01*
X729228Y552929D01*
X729517Y552646D01*
X729787Y552349D01*
X730039Y552037D01*
X730272Y551711D01*
X730486Y551371D01*
X730682Y551016D01*
X730859Y550646D01*
X731017Y550262D01*
X731157Y549863D01*
X731278Y549450D01*
X731381Y549022D01*
X731465Y548580D01*
X731530Y548123D01*
X731577Y547652D01*
X731605Y547166D01*
X731614Y546666D01*
X731598Y546008D01*
X731549Y545370D01*
X731467Y544754D01*
X731353Y544158D01*
X731207Y543584D01*
X731027Y543030D01*
X730816Y542497D01*
X730571Y541985D01*
X730297Y541499D01*
X729995Y541041D01*
X729667Y540613D01*
X729311Y540214D01*
X728927Y539845D01*
X728517Y539505D01*
X728079Y539194D01*
X727614Y538912D01*
X727127Y538662D01*
X726621Y538445D01*
X726096Y538262D01*
X725553Y538112D01*
X724992Y537995D01*
X724413Y537912D01*
X723814Y537862D01*
X723198Y537845D01*
G37*
%LPC*%
G36*
X722928Y539722D02*
X723396Y539735D01*
X723850Y539774D01*
X724290Y539839D01*
X724715Y539931D01*
X725125Y540048D01*
X725522Y540191D01*
X725904Y540361D01*
X726271Y540556D01*
X726621Y540776D01*
X726950Y541019D01*
X727258Y541285D01*
X727545Y541574D01*
X727812Y541887D01*
X728057Y542222D01*
X728282Y542580D01*
X728486Y542961D01*
X728667Y543362D01*
X728824Y543781D01*
X728957Y544218D01*
X729065Y544672D01*
X729150Y545144D01*
X729210Y545634D01*
X729246Y546141D01*
X729258Y546666D01*
X729252Y547062D01*
X729231Y547445D01*
X729197Y547817D01*
X729148Y548177D01*
X729086Y548525D01*
X729011Y548862D01*
X728921Y549186D01*
X728818Y549498D01*
X728701Y549798D01*
X728571Y550087D01*
X728426Y550363D01*
X728268Y550628D01*
X728096Y550881D01*
X727911Y551121D01*
X727711Y551350D01*
X727498Y551567D01*
X727272Y551771D01*
X727033Y551962D01*
X726782Y552140D01*
X726519Y552305D01*
X726244Y552456D01*
X725956Y552595D01*
X725656Y552720D01*
X725343Y552832D01*
X725019Y552931D01*
X724682Y553016D01*
X724332Y553089D01*
X723970Y553148D01*
X723596Y553194D01*
X723210Y553227D01*
X722812Y553247D01*
X722401Y553254D01*
X719076Y553254D01*
X719076Y539722D01*
X722928Y539722D01*
G37*
%LPD*%
G36*
X681100Y510930D02*
X680742Y510937D01*
X680395Y510957D01*
X680060Y510992D01*
X679735Y511040D01*
X679422Y511103D01*
X679119Y511179D01*
X678828Y511269D01*
X678548Y511373D01*
X678279Y511491D01*
X678021Y511622D01*
X677775Y511768D01*
X677539Y511927D01*
X677315Y512100D01*
X677101Y512287D01*
X676899Y512488D01*
X676708Y512702D01*
X676528Y512930D01*
X676360Y513170D01*
X676204Y513423D01*
X676059Y513687D01*
X675925Y513964D01*
X675803Y514254D01*
X675693Y514555D01*
X675595Y514869D01*
X675508Y515195D01*
X675432Y515534D01*
X675316Y516248D01*
X675247Y517012D01*
X675224Y517824D01*
X675247Y518656D01*
X675276Y519052D01*
X675317Y519434D01*
X675369Y519803D01*
X675433Y520159D01*
X675508Y520501D01*
X675595Y520830D01*
X675694Y521145D01*
X675805Y521447D01*
X675927Y521736D01*
X676060Y522011D01*
X676206Y522272D01*
X676362Y522521D01*
X676531Y522755D01*
X676711Y522977D01*
X676903Y523185D01*
X677106Y523379D01*
X677321Y523561D01*
X677548Y523728D01*
X677786Y523883D01*
X678036Y524023D01*
X678297Y524151D01*
X678570Y524265D01*
X678855Y524366D01*
X679152Y524453D01*
X679459Y524527D01*
X679779Y524587D01*
X680110Y524634D01*
X680453Y524668D01*
X680808Y524688D01*
X681174Y524694D01*
X681548Y524688D01*
X681909Y524668D01*
X682258Y524636D01*
X682594Y524590D01*
X682918Y524531D01*
X683229Y524459D01*
X683528Y524374D01*
X683814Y524276D01*
X684088Y524165D01*
X684349Y524040D01*
X684597Y523903D01*
X684833Y523752D01*
X685057Y523589D01*
X685267Y523412D01*
X685466Y523223D01*
X685651Y523020D01*
X685825Y522803D01*
X685988Y522572D01*
X686139Y522327D01*
X686279Y522067D01*
X686408Y521793D01*
X686526Y521504D01*
X686633Y521201D01*
X686728Y520884D01*
X686812Y520552D01*
X686885Y520205D01*
X686997Y519469D01*
X687064Y518676D01*
X687087Y517824D01*
X687081Y517396D01*
X687063Y516981D01*
X687033Y516580D01*
X686991Y516193D01*
X686937Y515820D01*
X686871Y515461D01*
X686793Y515116D01*
X686703Y514785D01*
X686602Y514467D01*
X686488Y514164D01*
X686362Y513874D01*
X686224Y513599D01*
X686074Y513337D01*
X685913Y513089D01*
X685739Y512855D01*
X685553Y512635D01*
X685356Y512428D01*
X685148Y512235D01*
X684929Y512055D01*
X684700Y511889D01*
X684459Y511736D01*
X684208Y511596D01*
X683946Y511469D01*
X683673Y511356D01*
X683389Y511256D01*
X683095Y511169D01*
X682789Y511096D01*
X682473Y511036D01*
X682146Y510990D01*
X681808Y510956D01*
X681460Y510936D01*
X681100Y510930D01*
G37*
%LPC*%
G36*
X681075Y512561D02*
X681555Y512581D01*
X681998Y512641D01*
X682406Y512741D01*
X682779Y512880D01*
X683116Y513060D01*
X683418Y513279D01*
X683685Y513538D01*
X683916Y513837D01*
X684115Y514179D01*
X684289Y514565D01*
X684435Y514996D01*
X684555Y515472D01*
X684648Y515993D01*
X684715Y516558D01*
X684755Y517169D01*
X684768Y517824D01*
X684755Y518488D01*
X684717Y519104D01*
X684653Y519674D01*
X684564Y520197D01*
X684449Y520672D01*
X684309Y521101D01*
X684144Y521483D01*
X683952Y521818D01*
X683731Y522109D01*
X683475Y522362D01*
X683184Y522576D01*
X682859Y522751D01*
X682499Y522888D01*
X682104Y522985D01*
X681675Y523043D01*
X681210Y523063D01*
X680743Y523043D01*
X680308Y522983D01*
X679908Y522884D01*
X679540Y522745D01*
X679207Y522567D01*
X678907Y522349D01*
X678640Y522091D01*
X678407Y521793D01*
X678204Y521453D01*
X678029Y521069D01*
X677880Y520640D01*
X677758Y520166D01*
X677664Y519648D01*
X677596Y519084D01*
X677556Y518477D01*
X677542Y517824D01*
X677556Y517188D01*
X677596Y516593D01*
X677662Y516039D01*
X677755Y515526D01*
X677875Y515053D01*
X678022Y514621D01*
X678195Y514230D01*
X678395Y513880D01*
X678623Y513571D01*
X678882Y513303D01*
X679172Y513076D01*
X679491Y512891D01*
X679842Y512747D01*
X680222Y512644D01*
X680634Y512582D01*
X681075Y512561D01*
G37*
%LPD*%
G36*
X721759Y510930D02*
X721397Y510937D01*
X721045Y510957D01*
X720705Y510991D01*
X720375Y511039D01*
X720056Y511101D01*
X719749Y511176D01*
X719452Y511265D01*
X719166Y511368D01*
X718892Y511485D01*
X718628Y511615D01*
X718375Y511759D01*
X718133Y511916D01*
X717902Y512088D01*
X717682Y512273D01*
X717473Y512472D01*
X717275Y512684D01*
X717089Y512910D01*
X716915Y513149D01*
X716752Y513402D01*
X716602Y513668D01*
X716464Y513947D01*
X716337Y514240D01*
X716223Y514545D01*
X716121Y514865D01*
X716031Y515197D01*
X715952Y515543D01*
X715886Y515902D01*
X715832Y516275D01*
X715790Y516661D01*
X715760Y517060D01*
X715742Y517472D01*
X715736Y517898D01*
X715742Y518303D01*
X715760Y518696D01*
X715790Y519077D01*
X715832Y519446D01*
X715886Y519803D01*
X715952Y520148D01*
X716031Y520481D01*
X716121Y520802D01*
X716223Y521112D01*
X716337Y521409D01*
X716464Y521694D01*
X716602Y521967D01*
X716752Y522228D01*
X716915Y522478D01*
X717089Y522715D01*
X717275Y522940D01*
X717473Y523153D01*
X717681Y523351D01*
X717899Y523536D01*
X718128Y523708D01*
X718367Y523865D01*
X718616Y524009D01*
X718875Y524139D01*
X719145Y524256D01*
X719425Y524359D01*
X719715Y524448D01*
X720016Y524523D01*
X720327Y524585D01*
X720648Y524633D01*
X720980Y524667D01*
X721321Y524688D01*
X721674Y524694D01*
X722034Y524688D01*
X722382Y524667D01*
X722719Y524632D01*
X723045Y524584D01*
X723359Y524522D01*
X723662Y524446D01*
X723954Y524357D01*
X724234Y524254D01*
X724502Y524136D01*
X724760Y524006D01*
X725005Y523861D01*
X725240Y523702D01*
X725462Y523530D01*
X725674Y523344D01*
X725874Y523144D01*
X726062Y522931D01*
X726240Y522704D01*
X726405Y522462D01*
X726560Y522208D01*
X726703Y521939D01*
X726834Y521656D01*
X726954Y521360D01*
X727063Y521050D01*
X727160Y520726D01*
X727245Y520389D01*
X727320Y520038D01*
X727383Y519672D01*
X727434Y519294D01*
X727503Y518494D01*
X727525Y517640D01*
X727525Y517346D01*
X718055Y517346D01*
X718069Y516792D01*
X718114Y516270D01*
X718187Y515781D01*
X718291Y515325D01*
X718424Y514901D01*
X718586Y514510D01*
X718778Y514151D01*
X718999Y513825D01*
X719249Y513534D01*
X719526Y513283D01*
X719830Y513070D01*
X720162Y512896D01*
X720520Y512760D01*
X720906Y512663D01*
X721319Y512605D01*
X721759Y512586D01*
X722109Y512595D01*
X722442Y512622D01*
X722756Y512667D01*
X723052Y512730D01*
X723331Y512811D01*
X723592Y512910D01*
X723835Y513027D01*
X724060Y513162D01*
X724267Y513311D01*
X724457Y513470D01*
X724630Y513638D01*
X724785Y513816D01*
X724923Y514003D01*
X725043Y514200D01*
X725146Y514406D01*
X725231Y514622D01*
X727170Y514070D01*
X727009Y513690D01*
X726825Y513334D01*
X726617Y513003D01*
X726385Y512696D01*
X726130Y512414D01*
X725851Y512156D01*
X725548Y511923D01*
X725222Y511715D01*
X724872Y511531D01*
X724499Y511371D01*
X724101Y511236D01*
X723680Y511126D01*
X723236Y511040D01*
X722767Y510979D01*
X722275Y510942D01*
X721759Y510930D01*
G37*
%LPC*%
G36*
X725244Y519039D02*
X725187Y519546D01*
X725108Y520017D01*
X725007Y520453D01*
X724885Y520853D01*
X724740Y521218D01*
X724574Y521547D01*
X724386Y521841D01*
X724176Y522100D01*
X723943Y522325D01*
X723686Y522521D01*
X723405Y522687D01*
X723100Y522822D01*
X722770Y522927D01*
X722417Y523003D01*
X722039Y523048D01*
X721637Y523063D01*
X721245Y523046D01*
X720875Y522996D01*
X720525Y522912D01*
X720197Y522794D01*
X719889Y522643D01*
X719602Y522459D01*
X719336Y522241D01*
X719091Y521989D01*
X718870Y521708D01*
X718676Y521402D01*
X718509Y521071D01*
X718369Y520715D01*
X718256Y520334D01*
X718170Y519927D01*
X718111Y519496D01*
X718079Y519039D01*
X725244Y519039D01*
G37*
%LPD*%
G36*
X751103Y510930D02*
X750741Y510937D01*
X750389Y510957D01*
X750048Y510991D01*
X749719Y511039D01*
X749400Y511101D01*
X749093Y511176D01*
X748796Y511265D01*
X748510Y511368D01*
X748235Y511485D01*
X747972Y511615D01*
X747719Y511759D01*
X747477Y511916D01*
X747246Y512088D01*
X747026Y512273D01*
X746817Y512472D01*
X746619Y512684D01*
X746433Y512910D01*
X746258Y513149D01*
X746096Y513402D01*
X745946Y513668D01*
X745807Y513947D01*
X745681Y514240D01*
X745567Y514545D01*
X745465Y514865D01*
X745374Y515197D01*
X745296Y515543D01*
X745230Y515902D01*
X745176Y516275D01*
X745134Y516661D01*
X745104Y517060D01*
X745086Y517472D01*
X745080Y517898D01*
X745086Y518303D01*
X745104Y518696D01*
X745134Y519077D01*
X745176Y519446D01*
X745230Y519803D01*
X745296Y520148D01*
X745374Y520481D01*
X745465Y520802D01*
X745567Y521112D01*
X745681Y521409D01*
X745807Y521694D01*
X745946Y521967D01*
X746096Y522228D01*
X746258Y522478D01*
X746433Y522715D01*
X746619Y522940D01*
X746817Y523153D01*
X747025Y523351D01*
X747243Y523536D01*
X747471Y523708D01*
X747710Y523865D01*
X747959Y524009D01*
X748219Y524139D01*
X748489Y524256D01*
X748769Y524359D01*
X749059Y524448D01*
X749360Y524523D01*
X749671Y524585D01*
X749992Y524633D01*
X750323Y524667D01*
X750665Y524688D01*
X751017Y524694D01*
X751377Y524688D01*
X751726Y524667D01*
X752063Y524632D01*
X752389Y524584D01*
X752703Y524522D01*
X753006Y524446D01*
X753298Y524357D01*
X753578Y524254D01*
X753846Y524136D01*
X754103Y524006D01*
X754349Y523861D01*
X754583Y523702D01*
X754806Y523530D01*
X755018Y523344D01*
X755218Y523144D01*
X755406Y522931D01*
X755583Y522704D01*
X755749Y522462D01*
X755903Y522208D01*
X756046Y521939D01*
X756178Y521656D01*
X756298Y521360D01*
X756406Y521050D01*
X756503Y520726D01*
X756589Y520389D01*
X756663Y520038D01*
X756726Y519672D01*
X756778Y519294D01*
X756846Y518494D01*
X756869Y517640D01*
X756869Y517346D01*
X747398Y517346D01*
X747413Y516792D01*
X747457Y516270D01*
X747531Y515781D01*
X747634Y515325D01*
X747767Y514901D01*
X747930Y514510D01*
X748122Y514151D01*
X748343Y513825D01*
X748593Y513534D01*
X748870Y513283D01*
X749174Y513070D01*
X749505Y512896D01*
X749864Y512760D01*
X750250Y512663D01*
X750663Y512605D01*
X751103Y512586D01*
X751453Y512595D01*
X751785Y512622D01*
X752100Y512667D01*
X752396Y512730D01*
X752675Y512811D01*
X752935Y512910D01*
X753178Y513027D01*
X753403Y513162D01*
X753611Y513311D01*
X753801Y513470D01*
X753974Y513638D01*
X754129Y513816D01*
X754267Y514003D01*
X754387Y514200D01*
X754490Y514406D01*
X754575Y514622D01*
X756513Y514070D01*
X756353Y513690D01*
X756169Y513334D01*
X755961Y513003D01*
X755729Y512696D01*
X755474Y512414D01*
X755195Y512156D01*
X754892Y511923D01*
X754566Y511715D01*
X754216Y511531D01*
X753842Y511371D01*
X753445Y511236D01*
X753024Y511126D01*
X752579Y511040D01*
X752111Y510979D01*
X751619Y510942D01*
X751103Y510930D01*
G37*
%LPC*%
G36*
X754587Y519039D02*
X754530Y519546D01*
X754452Y520017D01*
X754351Y520453D01*
X754229Y520853D01*
X754084Y521218D01*
X753918Y521547D01*
X753730Y521841D01*
X753520Y522100D01*
X753287Y522325D01*
X753030Y522521D01*
X752749Y522687D01*
X752444Y522822D01*
X752114Y522927D01*
X751760Y523003D01*
X751383Y523048D01*
X750981Y523063D01*
X750589Y523046D01*
X750219Y522996D01*
X749869Y522912D01*
X749541Y522794D01*
X749233Y522643D01*
X748946Y522459D01*
X748680Y522241D01*
X748435Y521989D01*
X748214Y521708D01*
X748020Y521402D01*
X747853Y521071D01*
X747713Y520715D01*
X747600Y520334D01*
X747514Y519927D01*
X747455Y519496D01*
X747423Y519039D01*
X754587Y519039D01*
G37*
%LPD*%
G36*
X665748Y510930D02*
X665105Y510947D01*
X664485Y510998D01*
X663887Y511082D01*
X663311Y511201D01*
X662757Y511354D01*
X662225Y511540D01*
X661715Y511761D01*
X661227Y512015D01*
X660764Y512301D01*
X660330Y512616D01*
X659924Y512961D01*
X659546Y513334D01*
X659197Y513737D01*
X658876Y514168D01*
X658583Y514629D01*
X658319Y515119D01*
X658085Y515635D01*
X657882Y516175D01*
X657710Y516737D01*
X657569Y517323D01*
X657460Y517932D01*
X657382Y518564D01*
X657335Y519219D01*
X657319Y519898D01*
X657328Y520407D01*
X657354Y520903D01*
X657398Y521385D01*
X657459Y521853D01*
X657537Y522307D01*
X657633Y522746D01*
X657747Y523172D01*
X657878Y523584D01*
X658026Y523982D01*
X658192Y524366D01*
X658375Y524736D01*
X658575Y525092D01*
X658793Y525433D01*
X659029Y525761D01*
X659282Y526075D01*
X659552Y526375D01*
X659838Y526659D01*
X660137Y526924D01*
X660450Y527171D01*
X660776Y527400D01*
X661115Y527611D01*
X661468Y527803D01*
X661835Y527977D01*
X662214Y528133D01*
X662608Y528270D01*
X663014Y528389D01*
X663434Y528490D01*
X663867Y528572D01*
X664314Y528636D01*
X664775Y528682D01*
X665248Y528709D01*
X665735Y528718D01*
X666411Y528701D01*
X667059Y528651D01*
X667678Y528567D01*
X668269Y528448D01*
X668831Y528297D01*
X669365Y528111D01*
X669871Y527892D01*
X670348Y527639D01*
X670796Y527353D01*
X671213Y527034D01*
X671599Y526682D01*
X671955Y526298D01*
X672280Y525882D01*
X672575Y525433D01*
X672839Y524951D01*
X673072Y524437D01*
X670851Y523701D01*
X670689Y524067D01*
X670505Y524411D01*
X670298Y524732D01*
X670067Y525032D01*
X669815Y525309D01*
X669539Y525564D01*
X669240Y525797D01*
X668919Y526007D01*
X668578Y526194D01*
X668222Y526356D01*
X667851Y526493D01*
X667464Y526605D01*
X667061Y526692D01*
X666643Y526755D01*
X666209Y526792D01*
X665760Y526805D01*
X665406Y526797D01*
X665062Y526776D01*
X664728Y526740D01*
X664404Y526689D01*
X664090Y526624D01*
X663786Y526545D01*
X663492Y526451D01*
X663208Y526343D01*
X662934Y526220D01*
X662670Y526083D01*
X662416Y525932D01*
X662171Y525766D01*
X661937Y525586D01*
X661713Y525391D01*
X661499Y525182D01*
X661294Y524958D01*
X660920Y524475D01*
X660752Y524218D01*
X660597Y523950D01*
X660453Y523671D01*
X660322Y523381D01*
X660204Y523081D01*
X660098Y522770D01*
X660005Y522448D01*
X659924Y522116D01*
X659855Y521773D01*
X659799Y521419D01*
X659755Y521055D01*
X659724Y520680D01*
X659706Y520294D01*
X659699Y519898D01*
X659706Y519505D01*
X659725Y519123D01*
X659758Y518750D01*
X659803Y518387D01*
X659862Y518033D01*
X659933Y517690D01*
X660018Y517356D01*
X660115Y517031D01*
X660225Y516717D01*
X660349Y516412D01*
X660485Y516117D01*
X660634Y515832D01*
X660797Y515556D01*
X660972Y515290D01*
X661362Y514788D01*
X661574Y514554D01*
X661796Y514335D01*
X662026Y514131D01*
X662266Y513943D01*
X662515Y513769D01*
X662773Y513610D01*
X663041Y513467D01*
X663317Y513339D01*
X663603Y513226D01*
X663897Y513127D01*
X664201Y513044D01*
X664514Y512976D01*
X664836Y512924D01*
X665168Y512886D01*
X665508Y512863D01*
X665858Y512856D01*
X666305Y512870D01*
X666738Y512912D01*
X667156Y512982D01*
X667561Y513080D01*
X667951Y513207D01*
X668328Y513361D01*
X668690Y513544D01*
X669038Y513754D01*
X669373Y513993D01*
X669693Y514260D01*
X669999Y514555D01*
X670291Y514878D01*
X670568Y515229D01*
X670832Y515608D01*
X671082Y516015D01*
X671317Y516450D01*
X673231Y515493D01*
X672951Y514952D01*
X672643Y514444D01*
X672309Y513969D01*
X671948Y513527D01*
X671559Y513119D01*
X671144Y512745D01*
X670701Y512403D01*
X670232Y512095D01*
X669739Y511822D01*
X669227Y511585D01*
X668695Y511385D01*
X668144Y511221D01*
X667574Y511094D01*
X666985Y511003D01*
X666376Y510948D01*
X665748Y510930D01*
G37*
G36*
X699251Y537600D02*
X698608Y537617D01*
X697988Y537668D01*
X697390Y537752D01*
X696814Y537871D01*
X696260Y538024D01*
X695728Y538210D01*
X695218Y538431D01*
X694730Y538685D01*
X694267Y538971D01*
X693833Y539286D01*
X693427Y539631D01*
X693049Y540004D01*
X692700Y540407D01*
X692379Y540838D01*
X692087Y541299D01*
X691822Y541789D01*
X691588Y542305D01*
X691385Y542845D01*
X691213Y543407D01*
X691073Y543993D01*
X690963Y544602D01*
X690885Y545234D01*
X690838Y545889D01*
X690823Y546568D01*
X690831Y547077D01*
X690857Y547573D01*
X690901Y548055D01*
X690962Y548523D01*
X691041Y548977D01*
X691137Y549416D01*
X691250Y549842D01*
X691381Y550254D01*
X691529Y550652D01*
X691695Y551036D01*
X691878Y551406D01*
X692079Y551762D01*
X692297Y552103D01*
X692532Y552431D01*
X692785Y552745D01*
X693055Y553045D01*
X693341Y553329D01*
X693640Y553594D01*
X693953Y553841D01*
X694279Y554070D01*
X694619Y554281D01*
X694971Y554473D01*
X695338Y554647D01*
X695718Y554803D01*
X696111Y554940D01*
X696517Y555059D01*
X696937Y555160D01*
X697371Y555242D01*
X697817Y555306D01*
X698278Y555352D01*
X698751Y555379D01*
X699238Y555388D01*
X699914Y555371D01*
X700562Y555321D01*
X701181Y555237D01*
X701772Y555118D01*
X702334Y554967D01*
X702868Y554781D01*
X703374Y554562D01*
X703851Y554309D01*
X704299Y554023D01*
X704716Y553704D01*
X705103Y553352D01*
X705458Y552968D01*
X705783Y552552D01*
X706078Y552103D01*
X706342Y551621D01*
X706575Y551107D01*
X704354Y550371D01*
X704193Y550737D01*
X704008Y551081D01*
X703801Y551402D01*
X703571Y551702D01*
X703318Y551979D01*
X703042Y552234D01*
X702743Y552467D01*
X702422Y552677D01*
X702081Y552864D01*
X701725Y553026D01*
X701354Y553163D01*
X700967Y553275D01*
X700564Y553362D01*
X700146Y553425D01*
X699712Y553462D01*
X699263Y553475D01*
X698909Y553467D01*
X698565Y553446D01*
X698231Y553410D01*
X697907Y553359D01*
X697593Y553294D01*
X697289Y553215D01*
X696995Y553121D01*
X696711Y553013D01*
X696437Y552890D01*
X696173Y552753D01*
X695919Y552602D01*
X695675Y552436D01*
X695440Y552256D01*
X695216Y552061D01*
X695002Y551852D01*
X694797Y551628D01*
X694424Y551145D01*
X694255Y550888D01*
X694100Y550620D01*
X693956Y550341D01*
X693826Y550051D01*
X693707Y549751D01*
X693601Y549440D01*
X693508Y549118D01*
X693427Y548786D01*
X693358Y548443D01*
X693302Y548089D01*
X693259Y547725D01*
X693227Y547350D01*
X693209Y546964D01*
X693203Y546568D01*
X693209Y546175D01*
X693229Y545793D01*
X693261Y545420D01*
X693306Y545057D01*
X693365Y544703D01*
X693436Y544360D01*
X693521Y544026D01*
X693618Y543701D01*
X693729Y543387D01*
X693852Y543082D01*
X693988Y542787D01*
X694138Y542502D01*
X694300Y542226D01*
X694475Y541960D01*
X694865Y541458D01*
X695077Y541224D01*
X695299Y541005D01*
X695529Y540801D01*
X695769Y540613D01*
X696018Y540439D01*
X696276Y540280D01*
X696544Y540137D01*
X696820Y540009D01*
X697106Y539896D01*
X697400Y539797D01*
X697704Y539714D01*
X698017Y539646D01*
X698340Y539594D01*
X698671Y539556D01*
X699011Y539533D01*
X699361Y539526D01*
X699808Y539540D01*
X700241Y539582D01*
X700659Y539652D01*
X701064Y539750D01*
X701455Y539877D01*
X701831Y540031D01*
X702193Y540214D01*
X702542Y540424D01*
X702876Y540663D01*
X703196Y540930D01*
X703502Y541225D01*
X703794Y541548D01*
X704072Y541899D01*
X704335Y542278D01*
X704585Y542685D01*
X704820Y543120D01*
X706734Y542163D01*
X706454Y541622D01*
X706147Y541114D01*
X705812Y540639D01*
X705451Y540197D01*
X705062Y539789D01*
X704647Y539415D01*
X704204Y539073D01*
X703735Y538765D01*
X703242Y538492D01*
X702730Y538255D01*
X702198Y538055D01*
X701648Y537891D01*
X701077Y537764D01*
X700488Y537673D01*
X699879Y537618D01*
X699251Y537600D01*
G37*
G36*
X742532Y537600D02*
X741890Y537617D01*
X741270Y537668D01*
X740671Y537752D01*
X740095Y537871D01*
X739541Y538024D01*
X739009Y538210D01*
X738499Y538431D01*
X738011Y538685D01*
X737548Y538971D01*
X737114Y539286D01*
X736708Y539631D01*
X736330Y540004D01*
X735981Y540407D01*
X735660Y540838D01*
X735368Y541299D01*
X735104Y541789D01*
X734869Y542305D01*
X734666Y542845D01*
X734494Y543407D01*
X734354Y543993D01*
X734244Y544602D01*
X734166Y545234D01*
X734119Y545889D01*
X734104Y546568D01*
X734113Y547077D01*
X734139Y547573D01*
X734182Y548055D01*
X734243Y548523D01*
X734322Y548977D01*
X734418Y549416D01*
X734531Y549842D01*
X734662Y550254D01*
X734810Y550652D01*
X734976Y551036D01*
X735159Y551406D01*
X735360Y551762D01*
X735578Y552103D01*
X735813Y552431D01*
X736066Y552745D01*
X736337Y553045D01*
X736622Y553329D01*
X736922Y553594D01*
X737234Y553841D01*
X737560Y554070D01*
X737900Y554281D01*
X738253Y554473D01*
X738619Y554647D01*
X738999Y554803D01*
X739392Y554940D01*
X739798Y555059D01*
X740218Y555160D01*
X740652Y555242D01*
X741099Y555306D01*
X741559Y555352D01*
X742033Y555379D01*
X742520Y555388D01*
X743196Y555371D01*
X743843Y555321D01*
X744462Y555237D01*
X745053Y555118D01*
X745615Y554967D01*
X746150Y554781D01*
X746655Y554562D01*
X747133Y554309D01*
X747580Y554023D01*
X747997Y553704D01*
X748384Y553352D01*
X748740Y552968D01*
X749065Y552552D01*
X749359Y552103D01*
X749623Y551621D01*
X749856Y551107D01*
X747635Y550371D01*
X747474Y550737D01*
X747289Y551081D01*
X747082Y551402D01*
X746852Y551702D01*
X746599Y551979D01*
X746323Y552234D01*
X746025Y552467D01*
X745703Y552677D01*
X745363Y552864D01*
X745007Y553026D01*
X744635Y553163D01*
X744248Y553275D01*
X743845Y553362D01*
X743427Y553425D01*
X742993Y553462D01*
X742544Y553475D01*
X742190Y553467D01*
X741846Y553446D01*
X741513Y553410D01*
X741189Y553359D01*
X740875Y553294D01*
X740571Y553215D01*
X740277Y553121D01*
X739992Y553013D01*
X739718Y552890D01*
X739454Y552753D01*
X739200Y552602D01*
X738956Y552436D01*
X738722Y552256D01*
X738497Y552061D01*
X738283Y551852D01*
X738079Y551628D01*
X737705Y551145D01*
X737537Y550888D01*
X737381Y550620D01*
X737238Y550341D01*
X737107Y550051D01*
X736988Y549751D01*
X736883Y549440D01*
X736789Y549118D01*
X736708Y548786D01*
X736640Y548443D01*
X736583Y548089D01*
X736540Y547725D01*
X736509Y547350D01*
X736490Y546964D01*
X736484Y546568D01*
X736490Y546175D01*
X736510Y545793D01*
X736542Y545420D01*
X736588Y545057D01*
X736646Y544703D01*
X736718Y544360D01*
X736802Y544026D01*
X736899Y543701D01*
X737010Y543387D01*
X737133Y543082D01*
X737270Y542787D01*
X737419Y542502D01*
X737581Y542226D01*
X737757Y541960D01*
X738146Y541458D01*
X738359Y541224D01*
X738580Y541005D01*
X738811Y540801D01*
X739051Y540613D01*
X739300Y540439D01*
X739558Y540280D01*
X739825Y540137D01*
X740101Y540009D01*
X740387Y539896D01*
X740682Y539797D01*
X740986Y539714D01*
X741299Y539646D01*
X741621Y539594D01*
X741952Y539556D01*
X742293Y539533D01*
X742642Y539526D01*
X743089Y539540D01*
X743522Y539582D01*
X743941Y539652D01*
X744345Y539750D01*
X744736Y539877D01*
X745112Y540031D01*
X745475Y540214D01*
X745823Y540424D01*
X746157Y540663D01*
X746477Y540930D01*
X746783Y541225D01*
X747075Y541548D01*
X747353Y541899D01*
X747617Y542278D01*
X747866Y542685D01*
X748102Y543120D01*
X750015Y542163D01*
X749735Y541622D01*
X749428Y541114D01*
X749093Y540639D01*
X748732Y540197D01*
X748343Y539789D01*
X747928Y539415D01*
X747485Y539073D01*
X747016Y538765D01*
X746523Y538492D01*
X746011Y538255D01*
X745480Y538055D01*
X744929Y537891D01*
X744359Y537764D01*
X743769Y537673D01*
X743160Y537618D01*
X742532Y537600D01*
G37*
G36*
X692088Y511175D02*
X689879Y511175D01*
X689879Y521615D01*
X689861Y523483D01*
X689838Y524079D01*
X689806Y524449D01*
X691891Y524449D01*
X691916Y524118D01*
X691947Y523498D01*
X691989Y522179D01*
X692026Y522179D01*
X692220Y522510D01*
X692422Y522816D01*
X692630Y523097D01*
X692847Y523353D01*
X693070Y523583D01*
X693302Y523788D01*
X693541Y523969D01*
X693787Y524124D01*
X694044Y524258D01*
X694317Y524374D01*
X694605Y524472D01*
X694908Y524552D01*
X695226Y524614D01*
X695559Y524659D01*
X695907Y524685D01*
X696271Y524694D01*
X696799Y524677D01*
X697290Y524627D01*
X697744Y524542D01*
X698162Y524423D01*
X698543Y524270D01*
X698888Y524084D01*
X699196Y523863D01*
X699467Y523609D01*
X699704Y523315D01*
X699910Y522977D01*
X700084Y522595D01*
X700226Y522169D01*
X700337Y521698D01*
X700416Y521183D01*
X700463Y520624D01*
X700479Y520020D01*
X700479Y511175D01*
X698258Y511175D01*
X698258Y519591D01*
X698242Y520210D01*
X698194Y520756D01*
X698114Y521229D01*
X698001Y521627D01*
X697853Y521964D01*
X697667Y522250D01*
X697442Y522485D01*
X697179Y522670D01*
X697030Y522745D01*
X696864Y522810D01*
X696483Y522909D01*
X696036Y522969D01*
X695523Y522989D01*
X695134Y522972D01*
X694767Y522921D01*
X694421Y522836D01*
X694096Y522716D01*
X693793Y522563D01*
X693510Y522375D01*
X693248Y522153D01*
X693008Y521897D01*
X692792Y521611D01*
X692605Y521298D01*
X692447Y520959D01*
X692318Y520594D01*
X692217Y520202D01*
X692145Y519783D01*
X692102Y519338D01*
X692088Y518867D01*
X692088Y511175D01*
G37*
G36*
X709626Y511175D02*
X707013Y511175D01*
X702192Y524449D01*
X704547Y524449D01*
X707467Y515812D01*
X707759Y514840D01*
X708314Y512905D01*
X708743Y514340D01*
X709222Y515788D01*
X712239Y524449D01*
X714583Y524449D01*
X709626Y511175D01*
G37*
G36*
X741576Y510979D02*
X741255Y510990D01*
X740955Y511026D01*
X740675Y511084D01*
X740417Y511167D01*
X740179Y511272D01*
X739961Y511401D01*
X739765Y511554D01*
X739589Y511730D01*
X739433Y511930D01*
X739299Y512153D01*
X739185Y512399D01*
X739092Y512669D01*
X739019Y512963D01*
X738968Y513280D01*
X738936Y513620D01*
X738926Y513984D01*
X738926Y522842D01*
X737393Y522842D01*
X737393Y524449D01*
X739012Y524449D01*
X739662Y527418D01*
X741134Y527418D01*
X741134Y524449D01*
X743588Y524449D01*
X743588Y522842D01*
X741134Y522842D01*
X741134Y514463D01*
X741154Y514020D01*
X741213Y513649D01*
X741257Y513490D01*
X741310Y513348D01*
X741374Y513225D01*
X741447Y513119D01*
X741533Y513029D01*
X741632Y512950D01*
X741747Y512884D01*
X741875Y512830D01*
X742018Y512787D01*
X742175Y512757D01*
X742347Y512739D01*
X742533Y512733D01*
X742778Y512744D01*
X743073Y512776D01*
X743809Y512905D01*
X743809Y511273D01*
X743260Y511144D01*
X742705Y511052D01*
X742143Y510997D01*
X741576Y510979D01*
G37*
G36*
X732619Y511175D02*
X730411Y511175D01*
X730411Y521357D01*
X730392Y522830D01*
X730337Y524449D01*
X732423Y524449D01*
X732496Y522643D01*
X732521Y521738D01*
X732570Y521738D01*
X732704Y522147D01*
X732844Y522523D01*
X732988Y522865D01*
X733137Y523173D01*
X733291Y523448D01*
X733451Y523688D01*
X733615Y523895D01*
X733784Y524069D01*
X733965Y524215D01*
X734163Y524342D01*
X734379Y524450D01*
X734612Y524538D01*
X734864Y524606D01*
X735132Y524655D01*
X735419Y524685D01*
X735723Y524694D01*
X735944Y524687D01*
X736167Y524664D01*
X736392Y524625D01*
X736618Y524572D01*
X736618Y522547D01*
X736379Y522601D01*
X736103Y522640D01*
X735790Y522663D01*
X735441Y522670D01*
X735107Y522652D01*
X734794Y522596D01*
X734501Y522504D01*
X734229Y522374D01*
X733977Y522208D01*
X733745Y522004D01*
X733534Y521764D01*
X733343Y521486D01*
X733173Y521174D01*
X733026Y520830D01*
X732902Y520454D01*
X732800Y520046D01*
X732721Y519606D01*
X732664Y519134D01*
X732630Y518630D01*
X732619Y518094D01*
X732619Y511175D01*
G37*
G36*
X761931Y511175D02*
X759723Y511175D01*
X759723Y521357D01*
X759705Y522830D01*
X759649Y524449D01*
X761735Y524449D01*
X761809Y522643D01*
X761833Y521738D01*
X761882Y521738D01*
X762017Y522147D01*
X762156Y522523D01*
X762300Y522865D01*
X762450Y523173D01*
X762604Y523448D01*
X762763Y523688D01*
X762928Y523895D01*
X763097Y524069D01*
X763277Y524215D01*
X763476Y524342D01*
X763691Y524450D01*
X763925Y524538D01*
X764176Y524606D01*
X764445Y524655D01*
X764731Y524685D01*
X765035Y524694D01*
X765257Y524687D01*
X765480Y524664D01*
X765705Y524625D01*
X765931Y524572D01*
X765931Y522547D01*
X765692Y522601D01*
X765415Y522640D01*
X765103Y522663D01*
X764753Y522670D01*
X764420Y522652D01*
X764107Y522596D01*
X763814Y522504D01*
X763542Y522374D01*
X763289Y522208D01*
X763058Y522004D01*
X762846Y521764D01*
X762655Y521486D01*
X762486Y521174D01*
X762338Y520830D01*
X762214Y520454D01*
X762112Y520046D01*
X762033Y519606D01*
X761977Y519134D01*
X761943Y518630D01*
X761931Y518094D01*
X761931Y511175D01*
G37*
G36*
X709690Y537600D02*
X707703Y537600D01*
X712745Y556051D01*
X714683Y556051D01*
X709690Y537600D01*
G37*
D10*
X118400Y892550D02*
X186400Y892550D01*
X186400Y834650D01*
X118400Y834650D01*
X118400Y892550D01*
X118400Y829050D02*
X186400Y829050D01*
X186400Y771150D01*
X118400Y771150D01*
X118400Y829050D01*
X118400Y765550D02*
X186400Y765550D01*
X186400Y707650D01*
X118400Y707650D01*
X118400Y765550D01*
X118400Y702050D02*
X186400Y702050D01*
X186400Y644150D01*
X118400Y644150D01*
X118400Y702050D01*
X118400Y638550D02*
X186400Y638550D01*
X186400Y580650D01*
X118400Y580650D01*
X118400Y638550D01*
X215900Y673100D02*
X469900Y673100D01*
X469900Y890661D01*
X215900Y890661D01*
X215900Y673100D01*
X317500Y876300D02*
X368300Y876300D01*
X368300Y825500D01*
X317500Y825500D01*
X317500Y876300D01*
X495300Y673100D02*
X927100Y673100D01*
X927100Y889000D01*
X495300Y889000D01*
X495300Y673100D01*
X469900Y431800D02*
X215900Y431800D01*
X469900Y431800D02*
X469900Y649361D01*
X215900Y649361D01*
X215900Y431800D01*
X317500Y635000D02*
X368300Y635000D01*
X368300Y584200D01*
X317500Y584200D01*
X317500Y635000D01*
X1009650Y558800D02*
X1022350Y558800D01*
X1009650Y558800D02*
X1003300Y565150D01*
X1003300Y577850D01*
X1009650Y584200D01*
X1003300Y565150D02*
X996950Y558800D01*
X984250Y558800D01*
X977900Y565150D01*
X977900Y577850D01*
X984250Y584200D01*
X996950Y584200D01*
X1003300Y577850D01*
X1028700Y577850D02*
X1028700Y565150D01*
X1022350Y558800D01*
X1028700Y577850D02*
X1022350Y584200D01*
X1009650Y584200D01*
X977900Y565150D02*
X971550Y558800D01*
X958850Y558800D01*
X952500Y565150D01*
X952500Y577850D01*
X958850Y584200D01*
X971550Y584200D01*
X977900Y577850D01*
X1009650Y482600D02*
X1022350Y482600D01*
X1009650Y482600D02*
X1003300Y488950D01*
X1003300Y501650D01*
X1009650Y508000D01*
X1003300Y488950D02*
X996950Y482600D01*
X984250Y482600D01*
X977900Y488950D01*
X977900Y501650D01*
X984250Y508000D01*
X996950Y508000D01*
X1003300Y501650D01*
X1028700Y501650D02*
X1028700Y488950D01*
X1022350Y482600D01*
X1028700Y501650D02*
X1022350Y508000D01*
X1009650Y508000D01*
X977900Y488950D02*
X971550Y482600D01*
X958850Y482600D01*
X952500Y488950D01*
X952500Y501650D01*
X958850Y508000D01*
X971550Y508000D01*
X977900Y501650D01*
X172339Y457200D02*
X172339Y444500D01*
X172339Y457200D02*
X166497Y457200D01*
X172339Y457200D02*
X166497Y468630D01*
X178181Y468630D01*
X172339Y457200D01*
X172339Y480060D01*
X172339Y457200D02*
X178181Y457200D01*
X200279Y406400D02*
X144399Y406400D01*
X144399Y508000D02*
X200279Y508000D01*
X144399Y508000D02*
X144399Y406400D01*
X200279Y406400D02*
X200279Y508000D01*
D11*
X172339Y419100D03*
D12*
X172339Y401955D03*
X172339Y512445D03*
D10*
X993916Y606766D02*
X994291Y606771D01*
X994667Y606784D01*
X995041Y606807D01*
X995415Y606839D01*
X995788Y606879D01*
X996160Y606929D01*
X996531Y606988D01*
X996900Y607055D01*
X997268Y607132D01*
X997634Y607217D01*
X997997Y607312D01*
X998358Y607415D01*
X998716Y607526D01*
X999072Y607647D01*
X999424Y607775D01*
X999774Y607913D01*
X1000120Y608059D01*
X1000462Y608213D01*
X1000801Y608375D01*
X1001135Y608545D01*
X1001465Y608724D01*
X1001791Y608910D01*
X1002112Y609104D01*
X1002429Y609306D01*
X1002740Y609516D01*
X1003047Y609733D01*
X1003348Y609957D01*
X1003643Y610189D01*
X1003933Y610427D01*
X1004217Y610673D01*
X1004495Y610925D01*
X1004767Y611184D01*
X1005032Y611449D01*
X1005291Y611721D01*
X1005543Y611999D01*
X1005789Y612283D01*
X1006027Y612573D01*
X1006259Y612868D01*
X1006483Y613169D01*
X1006700Y613476D01*
X1006910Y613787D01*
X1007112Y614104D01*
X1007306Y614425D01*
X1007492Y614751D01*
X1007671Y615081D01*
X1007841Y615415D01*
X1008003Y615754D01*
X1008157Y616096D01*
X1008303Y616442D01*
X1008441Y616792D01*
X1008569Y617144D01*
X1008690Y617500D01*
X1008801Y617858D01*
X1008904Y618219D01*
X1008999Y618582D01*
X1009084Y618948D01*
X1009161Y619316D01*
X1009228Y619685D01*
X1009287Y620056D01*
X1009337Y620428D01*
X1009377Y620801D01*
X1009409Y621175D01*
X1009432Y621549D01*
X1009445Y621925D01*
X1009450Y622300D01*
X993916Y606766D02*
X974184Y606766D01*
X973809Y606771D01*
X973433Y606784D01*
X973059Y606807D01*
X972685Y606839D01*
X972312Y606879D01*
X971940Y606929D01*
X971569Y606988D01*
X971200Y607055D01*
X970832Y607132D01*
X970466Y607217D01*
X970103Y607312D01*
X969742Y607415D01*
X969384Y607526D01*
X969028Y607647D01*
X968676Y607775D01*
X968326Y607913D01*
X967980Y608059D01*
X967638Y608213D01*
X967299Y608375D01*
X966965Y608545D01*
X966635Y608724D01*
X966309Y608910D01*
X965988Y609104D01*
X965671Y609306D01*
X965360Y609516D01*
X965053Y609733D01*
X964752Y609957D01*
X964457Y610189D01*
X964167Y610427D01*
X963883Y610673D01*
X963605Y610925D01*
X963333Y611184D01*
X963068Y611449D01*
X962809Y611721D01*
X962557Y611999D01*
X962311Y612283D01*
X962073Y612573D01*
X961841Y612868D01*
X961617Y613169D01*
X961400Y613476D01*
X961190Y613787D01*
X960988Y614104D01*
X960794Y614425D01*
X960608Y614751D01*
X960429Y615081D01*
X960259Y615415D01*
X960097Y615754D01*
X959943Y616096D01*
X959797Y616442D01*
X959659Y616792D01*
X959531Y617144D01*
X959410Y617500D01*
X959299Y617858D01*
X959196Y618219D01*
X959101Y618582D01*
X959016Y618948D01*
X958939Y619316D01*
X958872Y619685D01*
X958813Y620056D01*
X958763Y620428D01*
X958723Y620801D01*
X958691Y621175D01*
X958668Y621549D01*
X958655Y621925D01*
X958650Y622300D01*
X958654Y622665D01*
X958668Y623029D01*
X958690Y623394D01*
X958720Y623757D01*
X958760Y624120D01*
X958808Y624481D01*
X958866Y624842D01*
X958931Y625201D01*
X959006Y625558D01*
X959089Y625913D01*
X959180Y626266D01*
X959280Y626617D01*
X959389Y626966D01*
X959506Y627311D01*
X959631Y627654D01*
X959765Y627993D01*
X959906Y628330D01*
X960056Y628662D01*
X960214Y628991D01*
X960379Y629316D01*
X960553Y629637D01*
X960734Y629954D01*
X960923Y630266D01*
X961119Y630574D01*
X961323Y630877D01*
X961533Y631174D01*
X961751Y631467D01*
X961976Y631754D01*
X962208Y632036D01*
X962447Y632312D01*
X962692Y632582D01*
X962944Y632846D01*
X963202Y633104D01*
X963466Y633356D01*
X963736Y633601D01*
X964012Y633840D01*
X964294Y634072D01*
X964581Y634297D01*
X964874Y634515D01*
X965171Y634725D01*
X965474Y634929D01*
X965782Y635125D01*
X966094Y635314D01*
X966411Y635495D01*
X966732Y635669D01*
X967057Y635834D01*
X967386Y635992D01*
X967718Y636142D01*
X968055Y636283D01*
X968394Y636417D01*
X968737Y636542D01*
X969082Y636659D01*
X969431Y636768D01*
X969782Y636868D01*
X970135Y636959D01*
X970490Y637042D01*
X970847Y637117D01*
X971206Y637182D01*
X971567Y637240D01*
X971928Y637288D01*
X972291Y637328D01*
X972654Y637358D01*
X973019Y637380D01*
X973383Y637394D01*
X973748Y637398D01*
X994352Y637398D02*
X994717Y637394D01*
X995081Y637380D01*
X995446Y637358D01*
X995809Y637328D01*
X996172Y637288D01*
X996533Y637240D01*
X996894Y637182D01*
X997253Y637117D01*
X997610Y637042D01*
X997965Y636959D01*
X998318Y636868D01*
X998669Y636768D01*
X999018Y636659D01*
X999363Y636542D01*
X999706Y636417D01*
X1000045Y636283D01*
X1000382Y636142D01*
X1000714Y635992D01*
X1001043Y635834D01*
X1001368Y635669D01*
X1001689Y635495D01*
X1002006Y635314D01*
X1002318Y635125D01*
X1002626Y634929D01*
X1002929Y634725D01*
X1003226Y634515D01*
X1003519Y634297D01*
X1003806Y634072D01*
X1004088Y633840D01*
X1004364Y633601D01*
X1004634Y633356D01*
X1004898Y633104D01*
X1005156Y632846D01*
X1005408Y632582D01*
X1005653Y632312D01*
X1005892Y632036D01*
X1006124Y631754D01*
X1006349Y631467D01*
X1006567Y631174D01*
X1006777Y630877D01*
X1006981Y630574D01*
X1007177Y630266D01*
X1007366Y629954D01*
X1007547Y629637D01*
X1007721Y629316D01*
X1007886Y628991D01*
X1008044Y628662D01*
X1008194Y628330D01*
X1008335Y627993D01*
X1008469Y627654D01*
X1008594Y627311D01*
X1008711Y626966D01*
X1008820Y626617D01*
X1008920Y626266D01*
X1009011Y625913D01*
X1009094Y625558D01*
X1009169Y625201D01*
X1009234Y624842D01*
X1009292Y624481D01*
X1009340Y624120D01*
X1009380Y623757D01*
X1009410Y623394D01*
X1009432Y623029D01*
X1009446Y622665D01*
X1009450Y622300D01*
X994352Y637398D02*
X973748Y637398D01*
X980734Y447334D02*
X980359Y447329D01*
X979983Y447316D01*
X979609Y447293D01*
X979235Y447261D01*
X978862Y447221D01*
X978490Y447171D01*
X978119Y447112D01*
X977750Y447045D01*
X977382Y446968D01*
X977016Y446883D01*
X976653Y446788D01*
X976292Y446685D01*
X975934Y446574D01*
X975578Y446453D01*
X975226Y446325D01*
X974876Y446187D01*
X974530Y446041D01*
X974188Y445887D01*
X973849Y445725D01*
X973515Y445555D01*
X973185Y445376D01*
X972859Y445190D01*
X972538Y444996D01*
X972221Y444794D01*
X971910Y444584D01*
X971603Y444367D01*
X971302Y444143D01*
X971007Y443911D01*
X970717Y443673D01*
X970433Y443427D01*
X970155Y443175D01*
X969883Y442916D01*
X969618Y442651D01*
X969359Y442379D01*
X969107Y442101D01*
X968861Y441817D01*
X968623Y441527D01*
X968391Y441232D01*
X968167Y440931D01*
X967950Y440624D01*
X967740Y440313D01*
X967538Y439996D01*
X967344Y439675D01*
X967158Y439349D01*
X966979Y439019D01*
X966809Y438685D01*
X966647Y438346D01*
X966493Y438004D01*
X966347Y437658D01*
X966209Y437308D01*
X966081Y436956D01*
X965960Y436600D01*
X965849Y436242D01*
X965746Y435881D01*
X965651Y435518D01*
X965566Y435152D01*
X965489Y434784D01*
X965422Y434415D01*
X965363Y434044D01*
X965313Y433672D01*
X965273Y433299D01*
X965241Y432925D01*
X965218Y432551D01*
X965205Y432175D01*
X965200Y431800D01*
X980734Y447334D02*
X1000466Y447334D01*
X1000841Y447329D01*
X1001217Y447316D01*
X1001591Y447293D01*
X1001965Y447261D01*
X1002338Y447221D01*
X1002710Y447171D01*
X1003081Y447112D01*
X1003450Y447045D01*
X1003818Y446968D01*
X1004184Y446883D01*
X1004547Y446788D01*
X1004908Y446685D01*
X1005266Y446574D01*
X1005622Y446453D01*
X1005974Y446325D01*
X1006324Y446187D01*
X1006670Y446041D01*
X1007012Y445887D01*
X1007351Y445725D01*
X1007685Y445555D01*
X1008015Y445376D01*
X1008341Y445190D01*
X1008662Y444996D01*
X1008979Y444794D01*
X1009290Y444584D01*
X1009597Y444367D01*
X1009898Y444143D01*
X1010193Y443911D01*
X1010483Y443673D01*
X1010767Y443427D01*
X1011045Y443175D01*
X1011317Y442916D01*
X1011582Y442651D01*
X1011841Y442379D01*
X1012093Y442101D01*
X1012339Y441817D01*
X1012577Y441527D01*
X1012809Y441232D01*
X1013033Y440931D01*
X1013250Y440624D01*
X1013460Y440313D01*
X1013662Y439996D01*
X1013856Y439675D01*
X1014042Y439349D01*
X1014221Y439019D01*
X1014391Y438685D01*
X1014553Y438346D01*
X1014707Y438004D01*
X1014853Y437658D01*
X1014991Y437308D01*
X1015119Y436956D01*
X1015240Y436600D01*
X1015351Y436242D01*
X1015454Y435881D01*
X1015549Y435518D01*
X1015634Y435152D01*
X1015711Y434784D01*
X1015778Y434415D01*
X1015837Y434044D01*
X1015887Y433672D01*
X1015927Y433299D01*
X1015959Y432925D01*
X1015982Y432551D01*
X1015995Y432175D01*
X1016000Y431800D01*
X1015996Y431435D01*
X1015982Y431071D01*
X1015960Y430706D01*
X1015930Y430343D01*
X1015890Y429980D01*
X1015842Y429619D01*
X1015784Y429258D01*
X1015719Y428899D01*
X1015644Y428542D01*
X1015561Y428187D01*
X1015470Y427834D01*
X1015370Y427483D01*
X1015261Y427134D01*
X1015144Y426789D01*
X1015019Y426446D01*
X1014885Y426107D01*
X1014744Y425770D01*
X1014594Y425438D01*
X1014436Y425109D01*
X1014271Y424784D01*
X1014097Y424463D01*
X1013916Y424146D01*
X1013727Y423834D01*
X1013531Y423526D01*
X1013327Y423223D01*
X1013117Y422926D01*
X1012899Y422633D01*
X1012674Y422346D01*
X1012442Y422064D01*
X1012203Y421788D01*
X1011958Y421518D01*
X1011706Y421254D01*
X1011448Y420996D01*
X1011184Y420744D01*
X1010914Y420499D01*
X1010638Y420260D01*
X1010356Y420028D01*
X1010069Y419803D01*
X1009776Y419585D01*
X1009479Y419375D01*
X1009176Y419171D01*
X1008868Y418975D01*
X1008556Y418786D01*
X1008239Y418605D01*
X1007918Y418431D01*
X1007593Y418266D01*
X1007264Y418108D01*
X1006932Y417958D01*
X1006595Y417817D01*
X1006256Y417683D01*
X1005913Y417558D01*
X1005568Y417441D01*
X1005219Y417332D01*
X1004868Y417232D01*
X1004515Y417141D01*
X1004160Y417058D01*
X1003803Y416983D01*
X1003444Y416918D01*
X1003083Y416860D01*
X1002722Y416812D01*
X1002359Y416772D01*
X1001996Y416742D01*
X1001631Y416720D01*
X1001267Y416706D01*
X1000902Y416702D01*
X980298Y416702D02*
X979933Y416706D01*
X979569Y416720D01*
X979204Y416742D01*
X978841Y416772D01*
X978478Y416812D01*
X978117Y416860D01*
X977756Y416918D01*
X977397Y416983D01*
X977040Y417058D01*
X976685Y417141D01*
X976332Y417232D01*
X975981Y417332D01*
X975632Y417441D01*
X975287Y417558D01*
X974944Y417683D01*
X974605Y417817D01*
X974268Y417958D01*
X973936Y418108D01*
X973607Y418266D01*
X973282Y418431D01*
X972961Y418605D01*
X972644Y418786D01*
X972332Y418975D01*
X972024Y419171D01*
X971721Y419375D01*
X971424Y419585D01*
X971131Y419803D01*
X970844Y420028D01*
X970562Y420260D01*
X970286Y420499D01*
X970016Y420744D01*
X969752Y420996D01*
X969494Y421254D01*
X969242Y421518D01*
X968997Y421788D01*
X968758Y422064D01*
X968526Y422346D01*
X968301Y422633D01*
X968083Y422926D01*
X967873Y423223D01*
X967669Y423526D01*
X967473Y423834D01*
X967284Y424146D01*
X967103Y424463D01*
X966929Y424784D01*
X966764Y425109D01*
X966606Y425438D01*
X966456Y425770D01*
X966315Y426107D01*
X966181Y426446D01*
X966056Y426789D01*
X965939Y427134D01*
X965830Y427483D01*
X965730Y427834D01*
X965639Y428187D01*
X965556Y428542D01*
X965481Y428899D01*
X965416Y429258D01*
X965358Y429619D01*
X965310Y429980D01*
X965270Y430343D01*
X965240Y430706D01*
X965218Y431071D01*
X965204Y431435D01*
X965200Y431800D01*
X980298Y416702D02*
X1000902Y416702D01*
X996950Y685800D02*
X984250Y685800D01*
X996950Y685800D02*
X1003300Y679450D01*
X1003300Y666750D01*
X996950Y660400D01*
X977900Y666750D02*
X977900Y679450D01*
X984250Y685800D01*
X977900Y666750D02*
X984250Y660400D01*
X996950Y660400D01*
X824600Y333800D02*
X725600Y333800D01*
X725600Y391300D02*
X824600Y391300D01*
X824600Y333800D01*
X725600Y333800D02*
X725600Y391300D01*
X608300Y391800D02*
X534300Y391800D01*
X534300Y334300D01*
X608300Y334300D02*
X608300Y391800D01*
X608300Y334300D02*
X534300Y334300D01*
X430500Y417200D02*
X356500Y417200D01*
X356500Y359700D01*
X430500Y359700D02*
X430500Y417200D01*
X430500Y359700D02*
X356500Y359700D01*
X328900Y417200D02*
X254900Y417200D01*
X254900Y359700D01*
X328900Y359700D02*
X328900Y417200D01*
X328900Y359700D02*
X254900Y359700D01*
X581366Y403566D02*
X581741Y403571D01*
X582117Y403584D01*
X582491Y403607D01*
X582865Y403639D01*
X583238Y403679D01*
X583610Y403729D01*
X583981Y403788D01*
X584350Y403855D01*
X584718Y403932D01*
X585084Y404017D01*
X585447Y404112D01*
X585808Y404215D01*
X586166Y404326D01*
X586522Y404447D01*
X586874Y404575D01*
X587224Y404713D01*
X587570Y404859D01*
X587912Y405013D01*
X588251Y405175D01*
X588585Y405345D01*
X588915Y405524D01*
X589241Y405710D01*
X589562Y405904D01*
X589879Y406106D01*
X590190Y406316D01*
X590497Y406533D01*
X590798Y406757D01*
X591093Y406989D01*
X591383Y407227D01*
X591667Y407473D01*
X591945Y407725D01*
X592217Y407984D01*
X592482Y408249D01*
X592741Y408521D01*
X592993Y408799D01*
X593239Y409083D01*
X593477Y409373D01*
X593709Y409668D01*
X593933Y409969D01*
X594150Y410276D01*
X594360Y410587D01*
X594562Y410904D01*
X594756Y411225D01*
X594942Y411551D01*
X595121Y411881D01*
X595291Y412215D01*
X595453Y412554D01*
X595607Y412896D01*
X595753Y413242D01*
X595891Y413592D01*
X596019Y413944D01*
X596140Y414300D01*
X596251Y414658D01*
X596354Y415019D01*
X596449Y415382D01*
X596534Y415748D01*
X596611Y416116D01*
X596678Y416485D01*
X596737Y416856D01*
X596787Y417228D01*
X596827Y417601D01*
X596859Y417975D01*
X596882Y418349D01*
X596895Y418725D01*
X596900Y419100D01*
X581366Y403566D02*
X561634Y403566D01*
X561259Y403571D01*
X560883Y403584D01*
X560509Y403607D01*
X560135Y403639D01*
X559762Y403679D01*
X559390Y403729D01*
X559019Y403788D01*
X558650Y403855D01*
X558282Y403932D01*
X557916Y404017D01*
X557553Y404112D01*
X557192Y404215D01*
X556834Y404326D01*
X556478Y404447D01*
X556126Y404575D01*
X555776Y404713D01*
X555430Y404859D01*
X555088Y405013D01*
X554749Y405175D01*
X554415Y405345D01*
X554085Y405524D01*
X553759Y405710D01*
X553438Y405904D01*
X553121Y406106D01*
X552810Y406316D01*
X552503Y406533D01*
X552202Y406757D01*
X551907Y406989D01*
X551617Y407227D01*
X551333Y407473D01*
X551055Y407725D01*
X550783Y407984D01*
X550518Y408249D01*
X550259Y408521D01*
X550007Y408799D01*
X549761Y409083D01*
X549523Y409373D01*
X549291Y409668D01*
X549067Y409969D01*
X548850Y410276D01*
X548640Y410587D01*
X548438Y410904D01*
X548244Y411225D01*
X548058Y411551D01*
X547879Y411881D01*
X547709Y412215D01*
X547547Y412554D01*
X547393Y412896D01*
X547247Y413242D01*
X547109Y413592D01*
X546981Y413944D01*
X546860Y414300D01*
X546749Y414658D01*
X546646Y415019D01*
X546551Y415382D01*
X546466Y415748D01*
X546389Y416116D01*
X546322Y416485D01*
X546263Y416856D01*
X546213Y417228D01*
X546173Y417601D01*
X546141Y417975D01*
X546118Y418349D01*
X546105Y418725D01*
X546100Y419100D01*
X546104Y419465D01*
X546118Y419829D01*
X546140Y420194D01*
X546170Y420557D01*
X546210Y420920D01*
X546258Y421281D01*
X546316Y421642D01*
X546381Y422001D01*
X546456Y422358D01*
X546539Y422713D01*
X546630Y423066D01*
X546730Y423417D01*
X546839Y423766D01*
X546956Y424111D01*
X547081Y424454D01*
X547215Y424793D01*
X547356Y425130D01*
X547506Y425462D01*
X547664Y425791D01*
X547829Y426116D01*
X548003Y426437D01*
X548184Y426754D01*
X548373Y427066D01*
X548569Y427374D01*
X548773Y427677D01*
X548983Y427974D01*
X549201Y428267D01*
X549426Y428554D01*
X549658Y428836D01*
X549897Y429112D01*
X550142Y429382D01*
X550394Y429646D01*
X550652Y429904D01*
X550916Y430156D01*
X551186Y430401D01*
X551462Y430640D01*
X551744Y430872D01*
X552031Y431097D01*
X552324Y431315D01*
X552621Y431525D01*
X552924Y431729D01*
X553232Y431925D01*
X553544Y432114D01*
X553861Y432295D01*
X554182Y432469D01*
X554507Y432634D01*
X554836Y432792D01*
X555168Y432942D01*
X555505Y433083D01*
X555844Y433217D01*
X556187Y433342D01*
X556532Y433459D01*
X556881Y433568D01*
X557232Y433668D01*
X557585Y433759D01*
X557940Y433842D01*
X558297Y433917D01*
X558656Y433982D01*
X559017Y434040D01*
X559378Y434088D01*
X559741Y434128D01*
X560104Y434158D01*
X560469Y434180D01*
X560833Y434194D01*
X561198Y434198D01*
X581802Y434198D02*
X582167Y434194D01*
X582531Y434180D01*
X582896Y434158D01*
X583259Y434128D01*
X583622Y434088D01*
X583983Y434040D01*
X584344Y433982D01*
X584703Y433917D01*
X585060Y433842D01*
X585415Y433759D01*
X585768Y433668D01*
X586119Y433568D01*
X586468Y433459D01*
X586813Y433342D01*
X587156Y433217D01*
X587495Y433083D01*
X587832Y432942D01*
X588164Y432792D01*
X588493Y432634D01*
X588818Y432469D01*
X589139Y432295D01*
X589456Y432114D01*
X589768Y431925D01*
X590076Y431729D01*
X590379Y431525D01*
X590676Y431315D01*
X590969Y431097D01*
X591256Y430872D01*
X591538Y430640D01*
X591814Y430401D01*
X592084Y430156D01*
X592348Y429904D01*
X592606Y429646D01*
X592858Y429382D01*
X593103Y429112D01*
X593342Y428836D01*
X593574Y428554D01*
X593799Y428267D01*
X594017Y427974D01*
X594227Y427677D01*
X594431Y427374D01*
X594627Y427066D01*
X594816Y426754D01*
X594997Y426437D01*
X595171Y426116D01*
X595336Y425791D01*
X595494Y425462D01*
X595644Y425130D01*
X595785Y424793D01*
X595919Y424454D01*
X596044Y424111D01*
X596161Y423766D01*
X596270Y423417D01*
X596370Y423066D01*
X596461Y422713D01*
X596544Y422358D01*
X596619Y422001D01*
X596684Y421642D01*
X596742Y421281D01*
X596790Y420920D01*
X596830Y420557D01*
X596860Y420194D01*
X596882Y419829D01*
X596896Y419465D01*
X596900Y419100D01*
X581802Y434198D02*
X561198Y434198D01*
X850900Y400812D02*
X851275Y400807D01*
X851651Y400794D01*
X852025Y400771D01*
X852399Y400739D01*
X852772Y400699D01*
X853144Y400649D01*
X853515Y400590D01*
X853884Y400523D01*
X854252Y400446D01*
X854618Y400361D01*
X854981Y400266D01*
X855342Y400163D01*
X855700Y400052D01*
X856056Y399931D01*
X856408Y399803D01*
X856758Y399665D01*
X857104Y399519D01*
X857446Y399365D01*
X857785Y399203D01*
X858119Y399033D01*
X858449Y398854D01*
X858775Y398668D01*
X859096Y398474D01*
X859413Y398272D01*
X859724Y398062D01*
X860031Y397845D01*
X860332Y397621D01*
X860627Y397389D01*
X860917Y397151D01*
X861201Y396905D01*
X861479Y396653D01*
X861751Y396394D01*
X862016Y396129D01*
X862275Y395857D01*
X862527Y395579D01*
X862773Y395295D01*
X863011Y395005D01*
X863243Y394710D01*
X863467Y394409D01*
X863684Y394102D01*
X863894Y393791D01*
X864096Y393474D01*
X864290Y393153D01*
X864476Y392827D01*
X864655Y392497D01*
X864825Y392163D01*
X864987Y391824D01*
X865141Y391482D01*
X865287Y391136D01*
X865425Y390786D01*
X865553Y390434D01*
X865674Y390078D01*
X865785Y389720D01*
X865888Y389359D01*
X865983Y388996D01*
X866068Y388630D01*
X866145Y388262D01*
X866212Y387893D01*
X866271Y387522D01*
X866321Y387150D01*
X866361Y386777D01*
X866393Y386403D01*
X866416Y386029D01*
X866429Y385653D01*
X866434Y385278D01*
X866434Y365546D01*
X866429Y365171D01*
X866416Y364795D01*
X866393Y364421D01*
X866361Y364047D01*
X866321Y363674D01*
X866271Y363302D01*
X866212Y362931D01*
X866145Y362562D01*
X866068Y362194D01*
X865983Y361828D01*
X865888Y361465D01*
X865785Y361104D01*
X865674Y360746D01*
X865553Y360390D01*
X865425Y360038D01*
X865287Y359688D01*
X865141Y359342D01*
X864987Y359000D01*
X864825Y358661D01*
X864655Y358327D01*
X864476Y357997D01*
X864290Y357671D01*
X864096Y357350D01*
X863894Y357033D01*
X863684Y356722D01*
X863467Y356415D01*
X863243Y356114D01*
X863011Y355819D01*
X862773Y355529D01*
X862527Y355245D01*
X862275Y354967D01*
X862016Y354695D01*
X861751Y354430D01*
X861479Y354171D01*
X861201Y353919D01*
X860917Y353673D01*
X860627Y353435D01*
X860332Y353203D01*
X860031Y352979D01*
X859724Y352762D01*
X859413Y352552D01*
X859096Y352350D01*
X858775Y352156D01*
X858449Y351970D01*
X858119Y351791D01*
X857785Y351621D01*
X857446Y351459D01*
X857104Y351305D01*
X856758Y351159D01*
X856408Y351021D01*
X856056Y350893D01*
X855700Y350772D01*
X855342Y350661D01*
X854981Y350558D01*
X854618Y350463D01*
X854252Y350378D01*
X853884Y350301D01*
X853515Y350234D01*
X853144Y350175D01*
X852772Y350125D01*
X852399Y350085D01*
X852025Y350053D01*
X851651Y350030D01*
X851275Y350017D01*
X850900Y350012D01*
X850535Y350016D01*
X850171Y350030D01*
X849806Y350052D01*
X849443Y350082D01*
X849080Y350122D01*
X848719Y350170D01*
X848358Y350228D01*
X847999Y350293D01*
X847642Y350368D01*
X847287Y350451D01*
X846934Y350542D01*
X846583Y350642D01*
X846234Y350751D01*
X845889Y350868D01*
X845546Y350993D01*
X845207Y351127D01*
X844870Y351268D01*
X844538Y351418D01*
X844209Y351576D01*
X843884Y351741D01*
X843563Y351915D01*
X843246Y352096D01*
X842934Y352285D01*
X842626Y352481D01*
X842323Y352685D01*
X842026Y352895D01*
X841733Y353113D01*
X841446Y353338D01*
X841164Y353570D01*
X840888Y353809D01*
X840618Y354054D01*
X840354Y354306D01*
X840096Y354564D01*
X839844Y354828D01*
X839599Y355098D01*
X839360Y355374D01*
X839128Y355656D01*
X838903Y355943D01*
X838685Y356236D01*
X838475Y356533D01*
X838271Y356836D01*
X838075Y357144D01*
X837886Y357456D01*
X837705Y357773D01*
X837531Y358094D01*
X837366Y358419D01*
X837208Y358748D01*
X837058Y359080D01*
X836917Y359417D01*
X836783Y359756D01*
X836658Y360099D01*
X836541Y360444D01*
X836432Y360793D01*
X836332Y361144D01*
X836241Y361497D01*
X836158Y361852D01*
X836083Y362209D01*
X836018Y362568D01*
X835960Y362929D01*
X835912Y363290D01*
X835872Y363653D01*
X835842Y364016D01*
X835820Y364381D01*
X835806Y364745D01*
X835802Y365110D01*
X835802Y385714D02*
X835806Y386079D01*
X835820Y386443D01*
X835842Y386808D01*
X835872Y387171D01*
X835912Y387534D01*
X835960Y387895D01*
X836018Y388256D01*
X836083Y388615D01*
X836158Y388972D01*
X836241Y389327D01*
X836332Y389680D01*
X836432Y390031D01*
X836541Y390380D01*
X836658Y390725D01*
X836783Y391068D01*
X836917Y391407D01*
X837058Y391744D01*
X837208Y392076D01*
X837366Y392405D01*
X837531Y392730D01*
X837705Y393051D01*
X837886Y393368D01*
X838075Y393680D01*
X838271Y393988D01*
X838475Y394291D01*
X838685Y394588D01*
X838903Y394881D01*
X839128Y395168D01*
X839360Y395450D01*
X839599Y395726D01*
X839844Y395996D01*
X840096Y396260D01*
X840354Y396518D01*
X840618Y396770D01*
X840888Y397015D01*
X841164Y397254D01*
X841446Y397486D01*
X841733Y397711D01*
X842026Y397929D01*
X842323Y398139D01*
X842626Y398343D01*
X842934Y398539D01*
X843246Y398728D01*
X843563Y398909D01*
X843884Y399083D01*
X844209Y399248D01*
X844538Y399406D01*
X844870Y399556D01*
X845207Y399697D01*
X845546Y399831D01*
X845889Y399956D01*
X846234Y400073D01*
X846583Y400182D01*
X846934Y400282D01*
X847287Y400373D01*
X847642Y400456D01*
X847999Y400531D01*
X848358Y400596D01*
X848719Y400654D01*
X849080Y400702D01*
X849443Y400742D01*
X849806Y400772D01*
X850171Y400794D01*
X850535Y400808D01*
X850900Y400812D01*
X835802Y385714D02*
X835802Y365110D01*
X784566Y403566D02*
X784941Y403571D01*
X785317Y403584D01*
X785691Y403607D01*
X786065Y403639D01*
X786438Y403679D01*
X786810Y403729D01*
X787181Y403788D01*
X787550Y403855D01*
X787918Y403932D01*
X788284Y404017D01*
X788647Y404112D01*
X789008Y404215D01*
X789366Y404326D01*
X789722Y404447D01*
X790074Y404575D01*
X790424Y404713D01*
X790770Y404859D01*
X791112Y405013D01*
X791451Y405175D01*
X791785Y405345D01*
X792115Y405524D01*
X792441Y405710D01*
X792762Y405904D01*
X793079Y406106D01*
X793390Y406316D01*
X793697Y406533D01*
X793998Y406757D01*
X794293Y406989D01*
X794583Y407227D01*
X794867Y407473D01*
X795145Y407725D01*
X795417Y407984D01*
X795682Y408249D01*
X795941Y408521D01*
X796193Y408799D01*
X796439Y409083D01*
X796677Y409373D01*
X796909Y409668D01*
X797133Y409969D01*
X797350Y410276D01*
X797560Y410587D01*
X797762Y410904D01*
X797956Y411225D01*
X798142Y411551D01*
X798321Y411881D01*
X798491Y412215D01*
X798653Y412554D01*
X798807Y412896D01*
X798953Y413242D01*
X799091Y413592D01*
X799219Y413944D01*
X799340Y414300D01*
X799451Y414658D01*
X799554Y415019D01*
X799649Y415382D01*
X799734Y415748D01*
X799811Y416116D01*
X799878Y416485D01*
X799937Y416856D01*
X799987Y417228D01*
X800027Y417601D01*
X800059Y417975D01*
X800082Y418349D01*
X800095Y418725D01*
X800100Y419100D01*
X784566Y403566D02*
X764834Y403566D01*
X764459Y403571D01*
X764083Y403584D01*
X763709Y403607D01*
X763335Y403639D01*
X762962Y403679D01*
X762590Y403729D01*
X762219Y403788D01*
X761850Y403855D01*
X761482Y403932D01*
X761116Y404017D01*
X760753Y404112D01*
X760392Y404215D01*
X760034Y404326D01*
X759678Y404447D01*
X759326Y404575D01*
X758976Y404713D01*
X758630Y404859D01*
X758288Y405013D01*
X757949Y405175D01*
X757615Y405345D01*
X757285Y405524D01*
X756959Y405710D01*
X756638Y405904D01*
X756321Y406106D01*
X756010Y406316D01*
X755703Y406533D01*
X755402Y406757D01*
X755107Y406989D01*
X754817Y407227D01*
X754533Y407473D01*
X754255Y407725D01*
X753983Y407984D01*
X753718Y408249D01*
X753459Y408521D01*
X753207Y408799D01*
X752961Y409083D01*
X752723Y409373D01*
X752491Y409668D01*
X752267Y409969D01*
X752050Y410276D01*
X751840Y410587D01*
X751638Y410904D01*
X751444Y411225D01*
X751258Y411551D01*
X751079Y411881D01*
X750909Y412215D01*
X750747Y412554D01*
X750593Y412896D01*
X750447Y413242D01*
X750309Y413592D01*
X750181Y413944D01*
X750060Y414300D01*
X749949Y414658D01*
X749846Y415019D01*
X749751Y415382D01*
X749666Y415748D01*
X749589Y416116D01*
X749522Y416485D01*
X749463Y416856D01*
X749413Y417228D01*
X749373Y417601D01*
X749341Y417975D01*
X749318Y418349D01*
X749305Y418725D01*
X749300Y419100D01*
X749304Y419465D01*
X749318Y419829D01*
X749340Y420194D01*
X749370Y420557D01*
X749410Y420920D01*
X749458Y421281D01*
X749516Y421642D01*
X749581Y422001D01*
X749656Y422358D01*
X749739Y422713D01*
X749830Y423066D01*
X749930Y423417D01*
X750039Y423766D01*
X750156Y424111D01*
X750281Y424454D01*
X750415Y424793D01*
X750556Y425130D01*
X750706Y425462D01*
X750864Y425791D01*
X751029Y426116D01*
X751203Y426437D01*
X751384Y426754D01*
X751573Y427066D01*
X751769Y427374D01*
X751973Y427677D01*
X752183Y427974D01*
X752401Y428267D01*
X752626Y428554D01*
X752858Y428836D01*
X753097Y429112D01*
X753342Y429382D01*
X753594Y429646D01*
X753852Y429904D01*
X754116Y430156D01*
X754386Y430401D01*
X754662Y430640D01*
X754944Y430872D01*
X755231Y431097D01*
X755524Y431315D01*
X755821Y431525D01*
X756124Y431729D01*
X756432Y431925D01*
X756744Y432114D01*
X757061Y432295D01*
X757382Y432469D01*
X757707Y432634D01*
X758036Y432792D01*
X758368Y432942D01*
X758705Y433083D01*
X759044Y433217D01*
X759387Y433342D01*
X759732Y433459D01*
X760081Y433568D01*
X760432Y433668D01*
X760785Y433759D01*
X761140Y433842D01*
X761497Y433917D01*
X761856Y433982D01*
X762217Y434040D01*
X762578Y434088D01*
X762941Y434128D01*
X763304Y434158D01*
X763669Y434180D01*
X764033Y434194D01*
X764398Y434198D01*
X785002Y434198D02*
X785367Y434194D01*
X785731Y434180D01*
X786096Y434158D01*
X786459Y434128D01*
X786822Y434088D01*
X787183Y434040D01*
X787544Y433982D01*
X787903Y433917D01*
X788260Y433842D01*
X788615Y433759D01*
X788968Y433668D01*
X789319Y433568D01*
X789668Y433459D01*
X790013Y433342D01*
X790356Y433217D01*
X790695Y433083D01*
X791032Y432942D01*
X791364Y432792D01*
X791693Y432634D01*
X792018Y432469D01*
X792339Y432295D01*
X792656Y432114D01*
X792968Y431925D01*
X793276Y431729D01*
X793579Y431525D01*
X793876Y431315D01*
X794169Y431097D01*
X794456Y430872D01*
X794738Y430640D01*
X795014Y430401D01*
X795284Y430156D01*
X795548Y429904D01*
X795806Y429646D01*
X796058Y429382D01*
X796303Y429112D01*
X796542Y428836D01*
X796774Y428554D01*
X796999Y428267D01*
X797217Y427974D01*
X797427Y427677D01*
X797631Y427374D01*
X797827Y427066D01*
X798016Y426754D01*
X798197Y426437D01*
X798371Y426116D01*
X798536Y425791D01*
X798694Y425462D01*
X798844Y425130D01*
X798985Y424793D01*
X799119Y424454D01*
X799244Y424111D01*
X799361Y423766D01*
X799470Y423417D01*
X799570Y423066D01*
X799661Y422713D01*
X799744Y422358D01*
X799819Y422001D01*
X799884Y421642D01*
X799942Y421281D01*
X799990Y420920D01*
X800030Y420557D01*
X800060Y420194D01*
X800082Y419829D01*
X800096Y419465D01*
X800100Y419100D01*
X785002Y434198D02*
X764398Y434198D01*
X714034Y385278D02*
X714029Y385653D01*
X714016Y386029D01*
X713993Y386403D01*
X713961Y386777D01*
X713921Y387150D01*
X713871Y387522D01*
X713812Y387893D01*
X713745Y388262D01*
X713668Y388630D01*
X713583Y388996D01*
X713488Y389359D01*
X713385Y389720D01*
X713274Y390078D01*
X713153Y390434D01*
X713025Y390786D01*
X712887Y391136D01*
X712741Y391482D01*
X712587Y391824D01*
X712425Y392163D01*
X712255Y392497D01*
X712076Y392827D01*
X711890Y393153D01*
X711696Y393474D01*
X711494Y393791D01*
X711284Y394102D01*
X711067Y394409D01*
X710843Y394710D01*
X710611Y395005D01*
X710373Y395295D01*
X710127Y395579D01*
X709875Y395857D01*
X709616Y396129D01*
X709351Y396394D01*
X709079Y396653D01*
X708801Y396905D01*
X708517Y397151D01*
X708227Y397389D01*
X707932Y397621D01*
X707631Y397845D01*
X707324Y398062D01*
X707013Y398272D01*
X706696Y398474D01*
X706375Y398668D01*
X706049Y398854D01*
X705719Y399033D01*
X705385Y399203D01*
X705046Y399365D01*
X704704Y399519D01*
X704358Y399665D01*
X704008Y399803D01*
X703656Y399931D01*
X703300Y400052D01*
X702942Y400163D01*
X702581Y400266D01*
X702218Y400361D01*
X701852Y400446D01*
X701484Y400523D01*
X701115Y400590D01*
X700744Y400649D01*
X700372Y400699D01*
X699999Y400739D01*
X699625Y400771D01*
X699251Y400794D01*
X698875Y400807D01*
X698500Y400812D01*
X714034Y385278D02*
X714034Y365546D01*
X714029Y365171D01*
X714016Y364795D01*
X713993Y364421D01*
X713961Y364047D01*
X713921Y363674D01*
X713871Y363302D01*
X713812Y362931D01*
X713745Y362562D01*
X713668Y362194D01*
X713583Y361828D01*
X713488Y361465D01*
X713385Y361104D01*
X713274Y360746D01*
X713153Y360390D01*
X713025Y360038D01*
X712887Y359688D01*
X712741Y359342D01*
X712587Y359000D01*
X712425Y358661D01*
X712255Y358327D01*
X712076Y357997D01*
X711890Y357671D01*
X711696Y357350D01*
X711494Y357033D01*
X711284Y356722D01*
X711067Y356415D01*
X710843Y356114D01*
X710611Y355819D01*
X710373Y355529D01*
X710127Y355245D01*
X709875Y354967D01*
X709616Y354695D01*
X709351Y354430D01*
X709079Y354171D01*
X708801Y353919D01*
X708517Y353673D01*
X708227Y353435D01*
X707932Y353203D01*
X707631Y352979D01*
X707324Y352762D01*
X707013Y352552D01*
X706696Y352350D01*
X706375Y352156D01*
X706049Y351970D01*
X705719Y351791D01*
X705385Y351621D01*
X705046Y351459D01*
X704704Y351305D01*
X704358Y351159D01*
X704008Y351021D01*
X703656Y350893D01*
X703300Y350772D01*
X702942Y350661D01*
X702581Y350558D01*
X702218Y350463D01*
X701852Y350378D01*
X701484Y350301D01*
X701115Y350234D01*
X700744Y350175D01*
X700372Y350125D01*
X699999Y350085D01*
X699625Y350053D01*
X699251Y350030D01*
X698875Y350017D01*
X698500Y350012D01*
X698135Y350016D01*
X697771Y350030D01*
X697406Y350052D01*
X697043Y350082D01*
X696680Y350122D01*
X696319Y350170D01*
X695958Y350228D01*
X695599Y350293D01*
X695242Y350368D01*
X694887Y350451D01*
X694534Y350542D01*
X694183Y350642D01*
X693834Y350751D01*
X693489Y350868D01*
X693146Y350993D01*
X692807Y351127D01*
X692470Y351268D01*
X692138Y351418D01*
X691809Y351576D01*
X691484Y351741D01*
X691163Y351915D01*
X690846Y352096D01*
X690534Y352285D01*
X690226Y352481D01*
X689923Y352685D01*
X689626Y352895D01*
X689333Y353113D01*
X689046Y353338D01*
X688764Y353570D01*
X688488Y353809D01*
X688218Y354054D01*
X687954Y354306D01*
X687696Y354564D01*
X687444Y354828D01*
X687199Y355098D01*
X686960Y355374D01*
X686728Y355656D01*
X686503Y355943D01*
X686285Y356236D01*
X686075Y356533D01*
X685871Y356836D01*
X685675Y357144D01*
X685486Y357456D01*
X685305Y357773D01*
X685131Y358094D01*
X684966Y358419D01*
X684808Y358748D01*
X684658Y359080D01*
X684517Y359417D01*
X684383Y359756D01*
X684258Y360099D01*
X684141Y360444D01*
X684032Y360793D01*
X683932Y361144D01*
X683841Y361497D01*
X683758Y361852D01*
X683683Y362209D01*
X683618Y362568D01*
X683560Y362929D01*
X683512Y363290D01*
X683472Y363653D01*
X683442Y364016D01*
X683420Y364381D01*
X683406Y364745D01*
X683402Y365110D01*
X683402Y385714D02*
X683406Y386079D01*
X683420Y386443D01*
X683442Y386808D01*
X683472Y387171D01*
X683512Y387534D01*
X683560Y387895D01*
X683618Y388256D01*
X683683Y388615D01*
X683758Y388972D01*
X683841Y389327D01*
X683932Y389680D01*
X684032Y390031D01*
X684141Y390380D01*
X684258Y390725D01*
X684383Y391068D01*
X684517Y391407D01*
X684658Y391744D01*
X684808Y392076D01*
X684966Y392405D01*
X685131Y392730D01*
X685305Y393051D01*
X685486Y393368D01*
X685675Y393680D01*
X685871Y393988D01*
X686075Y394291D01*
X686285Y394588D01*
X686503Y394881D01*
X686728Y395168D01*
X686960Y395450D01*
X687199Y395726D01*
X687444Y395996D01*
X687696Y396260D01*
X687954Y396518D01*
X688218Y396770D01*
X688488Y397015D01*
X688764Y397254D01*
X689046Y397486D01*
X689333Y397711D01*
X689626Y397929D01*
X689923Y398139D01*
X690226Y398343D01*
X690534Y398539D01*
X690846Y398728D01*
X691163Y398909D01*
X691484Y399083D01*
X691809Y399248D01*
X692138Y399406D01*
X692470Y399556D01*
X692807Y399697D01*
X693146Y399831D01*
X693489Y399956D01*
X693834Y400073D01*
X694183Y400182D01*
X694534Y400282D01*
X694887Y400373D01*
X695242Y400456D01*
X695599Y400531D01*
X695958Y400596D01*
X696319Y400654D01*
X696680Y400702D01*
X697043Y400742D01*
X697406Y400772D01*
X697771Y400794D01*
X698135Y400808D01*
X698500Y400812D01*
X683402Y385714D02*
X683402Y365110D01*
X495300Y647700D02*
X927100Y647700D01*
X495300Y647700D02*
X495300Y431800D01*
X927100Y431800D01*
X927100Y647700D01*
M02*
