G04 EAGLE Gerber RS-274X export*
G75*
%MOMM*%
%FSLAX34Y34*%
%LPD*%
%INSoldermask Bottom*%
%IPPOS*%
%AMOC8*
5,1,8,0,0,1.08239X$1,22.5*%
G01*
G04 Define Apertures*
%ADD10C,3.203200*%
%ADD11C,2.387600*%
%ADD12C,1.981200*%
%ADD13C,2.743200*%
%ADD14C,2.451100*%
D10*
X1016000Y873240D03*
X342900Y774700D03*
D11*
X152400Y850900D03*
X152400Y876300D03*
X152400Y787400D03*
X152400Y812800D03*
X152400Y723900D03*
X152400Y749300D03*
X152400Y660400D03*
X152400Y685800D03*
X152400Y596900D03*
X152400Y622300D03*
D12*
X279400Y698500D03*
X304800Y698500D03*
X330200Y698500D03*
X355600Y698500D03*
X381000Y698500D03*
X406400Y698500D03*
D13*
X513720Y864240D03*
X513720Y692790D03*
X908690Y692790D03*
X908690Y864240D03*
D12*
X279400Y457200D03*
X304800Y457200D03*
X330200Y457200D03*
X355600Y457200D03*
X381000Y457200D03*
X406400Y457200D03*
D11*
X1016000Y571500D03*
X990600Y571500D03*
X965200Y571500D03*
X1016000Y495300D03*
X990600Y495300D03*
X965200Y495300D03*
D14*
X172339Y392240D02*
X172339Y369761D01*
X172339Y522161D02*
X172339Y544640D01*
D12*
X958650Y622300D03*
X1009450Y622300D03*
X1016000Y431800D03*
X965200Y431800D03*
D11*
X990600Y673100D03*
D12*
X800100Y368300D03*
X775100Y368300D03*
X750100Y368300D03*
X558800Y368300D03*
X583800Y368300D03*
X381000Y393700D03*
X406000Y393700D03*
X279400Y393700D03*
X304400Y393700D03*
X546100Y419100D03*
X596900Y419100D03*
X850900Y350012D03*
X850900Y400812D03*
X749300Y419100D03*
X800100Y419100D03*
X698500Y350012D03*
X698500Y400812D03*
D13*
X908680Y456560D03*
X908680Y628010D03*
X513710Y628010D03*
X513710Y456560D03*
M02*
