M48
;GenerationSoftware,Autodesk,EAGLE,9.7.0*%
;CreationDate,2025-07-04T22:16:06Z*%
FMAT,2
ICI,OFF
METRIC,TZ,000.000
T8C0.750
T7C0.800
T6C0.840
T5C1.000
T4C1.016
T3C1.200
T2C1.499
T1C3.000
%
G90
M71
T1
X101600Y87324
X34290Y77470
T2
X17234Y53340
X17234Y38100
T3
X15240Y85090
X15240Y87630
X15240Y78740
X15240Y81280
X15240Y72390
X15240Y74930
X15240Y66040
X15240Y68580
X15240Y59690
X15240Y62230
T4
X99060Y57150
X96520Y57150
X99060Y67310
X101600Y49530
X96520Y49530
X99060Y49530
X101600Y57150
T5
X51371Y62801
X90868Y62801
X90868Y45656
X51371Y45656
X51372Y86424
X51372Y69279
X90869Y69279
X90869Y86424
T6
X27940Y39370
X30440Y39370
X40600Y39370
X77510Y36830
X75010Y36830
X55880Y36830
X58380Y36830
X38100Y39370
T7
X96520Y43180
X80010Y36830
X95865Y62230
X100945Y62230
X54610Y41910
X59690Y41910
X85090Y35001
X85090Y40081
X101600Y43180
X80010Y41910
X69850Y35001
X69850Y40081
X74930Y41910
T8
X27940Y69850
X30480Y69850
X27940Y45720
X40640Y45720
X38100Y45720
X35560Y45720
X30480Y45720
X40640Y69850
X33020Y45720
X38100Y69850
X35560Y69850
X33020Y69850
M30